<?xml version="1.0" encoding="UTF-8" standalone="no"?>
<svg
   xmlns:dc="http://purl.org/dc/elements/1.1/"
   xmlns:cc="http://creativecommons.org/ns#"
   xmlns:rdf="http://www.w3.org/1999/02/22-rdf-syntax-ns#"
   xmlns:svg="http://www.w3.org/2000/svg"
   xmlns="http://www.w3.org/2000/svg"
   xmlns:sodipodi="http://sodipodi.sourceforge.net/DTD/sodipodi-0.dtd"
   xmlns:inkscape="http://www.inkscape.org/namespaces/inkscape"
   width="127.99992"
   height="127.99992"
   viewBox="0 0 33.866646 33.866648"
   version="1.1"
   id="svg8"
   inkscape:version="1.0.1 (3bc2e813f5, 2020-09-07)"
   sodipodi:docname="BackButton.svg">
  <defs
     id="defs2">
    <inkscape:path-effect
       effect="bend_path"
       id="path-effect5614"
       is_visible="true"
       bendpath="m 316.13315,85.842368 c 227.29919,-141.38905 471.89671,-116.714106 726.08165,0"
       prop_scale="1"
       scale_y_rel="false"
       vertical="false"
       bendpath-nodetypes="cc"
       lpeversion="0"
       hide_knot="false" />
  </defs>
  <sodipodi:namedview
     id="base"
     pagecolor="#121212"
     bordercolor="#666666"
     borderopacity="1.0"
     inkscape:pageopacity="0"
     inkscape:pageshadow="2"
     inkscape:zoom="2.5748708"
     inkscape:cx="26.836102"
     inkscape:cy="-1.1597695"
     inkscape:document-units="px"
     inkscape:current-layer="layer1"
     showgrid="true"
     units="px"
     inkscape:snap-global="false"
     inkscape:window-width="1920"
     inkscape:window-height="1022"
     inkscape:window-x="0"
     inkscape:window-y="30"
     inkscape:window-maximized="1"
     inkscape:lockguides="true"
     showguides="true"
     inkscape:guide-bbox="true"
     inkscape:snap-bbox="true"
     inkscape:bbox-nodes="true"
     inkscape:snap-nodes="false"
     inkscape:snap-others="false"
     inkscape:document-rotation="0">
    <sodipodi:guide
       position="239.6369,169.33334"
       orientation="1,0"
       id="guide4752"
       inkscape:locked="true" />
    <inkscape:grid
       type="xygrid"
       id="grid941"
       empspacing="16"
       originx="-33.866688"
       originy="-33.866663" />
    <sodipodi:guide
       position="33.866666,29.633334"
       orientation="1,0"
       id="guide945"
       inkscape:locked="true" />
    <sodipodi:guide
       position="71.966665,33.866668"
       orientation="0,1"
       id="guide947"
       inkscape:locked="true" />
  </sodipodi:namedview>
  <metadata
     id="metadata5">
    <rdf:RDF>
      <cc:Work
         rdf:about="">
        <dc:format>image/svg+xml</dc:format>
        <dc:type
           rdf:resource="http://purl.org/dc/dcmitype/StillImage" />
        <dc:title></dc:title>
      </cc:Work>
    </rdf:RDF>
  </metadata>
  <g
     inkscape:label="Layer 1"
     inkscape:groupmode="layer"
     id="layer1"
     transform="translate(-33.866689,-263.1333)">
    <rect
       style="opacity:0;fill:#1d1b16;fill-opacity:1;stroke:none;stroke-width:2;stroke-linecap:round;stroke-linejoin:round;stroke-miterlimit:4;stroke-dasharray:none;stroke-opacity:1"
       id="rect6805"
       width="52.916664"
       height="52.916664"
       x="366.50797"
       y="48.255733"
       ry="2.4054248" />
    <g
       id="g964"
       transform="translate(35.983344,34.928287)">
      <path
         inkscape:transform-center-x="-5.1869458"
         inkscape:randomized="0"
         inkscape:rounded="0.12"
         inkscape:flatsided="true"
         sodipodi:arg2="3.1415927"
         sodipodi:arg1="2.0943951"
         sodipodi:r2="9.0621815"
         sodipodi:r1="18.124365"
         sodipodi:cy="245.13834"
         sodipodi:cx="-18.124365"
         sodipodi:sides="3"
         id="path5659"
         style="fill:#ffe478;fill-opacity:1;stroke:none;stroke-width:0.0871497;stroke-linecap:round;stroke-linejoin:round;stroke-miterlimit:4;stroke-dasharray:none;stroke-opacity:1"
         sodipodi:type="star"
         inkscape:export-xdpi="95.841507"
         inkscape:export-ydpi="95.841507"
         d="m -27.186547,260.8345 c -3.262386,-1.88354 -3.262386,-29.50878 0,-31.39232 C -23.924162,227.55864 0,241.37126 0,245.13834 c 0,3.76707 -23.924162,17.5797 -27.186547,15.69616 z"
         transform="scale(-1,1)" />
      <path
         inkscape:connector-curvature="0"
         id="path5661"
         d="m 27.781351,237.71358 a 3.7130529,3.5702431 0 0 1 0.371357,0.008 3.7130529,3.5702431 0 0 1 1.20742,0.29092 c 0.163363,2.00438 0.252492,4.1977 0.268268,6.41466 a 3.7130529,3.5702431 0 0 1 -2.017309,0.41589 3.7130529,3.5702431 0 0 1 -3.434785,-3.8171 v -0.008 a 3.7130529,3.5702431 0 0 1 3.604665,-3.30477 z"
         style="fill:#ba6156;fill-opacity:1;stroke:none;stroke-width:0.124683;stroke-linecap:round;stroke-linejoin:round;stroke-miterlimit:4;stroke-dasharray:none;stroke-opacity:1" />
      <path
         inkscape:connector-curvature="0"
         id="path5663"
         d="m 11.238399,251.99399 a 2.8561944,2.64198 0 0 1 0.285469,0.006 2.8561944,2.64198 0 0 1 2.638565,2.82757 2.8561944,2.64198 0 0 1 -0.355345,1.08987 c -1.62912,-0.90483 -3.256937,-1.86897 -4.796063,-2.84319 a 2.8561944,2.64198 0 0 1 2.227374,-1.0805 z"
         style="fill:#ba6156;fill-opacity:1;stroke:none;stroke-width:0.124683;stroke-linecap:round;stroke-linejoin:round;stroke-miterlimit:4;stroke-dasharray:none;stroke-opacity:1" />
      <path
         style="fill:#ba6156;fill-opacity:1;stroke:none;stroke-width:0.124683;stroke-linecap:round;stroke-linejoin:round;stroke-miterlimit:4;stroke-dasharray:none;stroke-opacity:1"
         id="path5665"
         sodipodi:type="arc"
         sodipodi:cx="-9.5105095"
         sodipodi:cy="244.87093"
         sodipodi:rx="2.8561945"
         sodipodi:ry="2.6419799"
         sodipodi:start="6.2112777"
         sodipodi:end="6.2090961"
         sodipodi:arc-type="slice"
         d="m -6.6616961,244.68111 a 2.8561945,2.6419799 0 0 1 -2.6420545,2.82486 2.8561945,2.6419799 0 0 1 -3.0553464,-2.44236 2.8561945,2.6419799 0 0 1 2.6387214,-2.82752 2.8561945,2.6419799 0 0 1 3.0582251,2.43927 l -2.848359,0.19557 z"
         transform="scale(-1,1)" />
      <path
         sodipodi:end="6.2090961"
         sodipodi:start="6.2112777"
         sodipodi:ry="1.7172869"
         sodipodi:rx="1.8565263"
         sodipodi:cy="249.09012"
         sodipodi:cx="-21.079838"
         sodipodi:type="arc"
         id="path5667"
         style="fill:#ba6156;fill-opacity:1;stroke:none;stroke-width:0.081044;stroke-linecap:round;stroke-linejoin:round;stroke-miterlimit:4;stroke-dasharray:none;stroke-opacity:1"
         sodipodi:arc-type="slice"
         d="m -19.228109,248.96674 a 1.8565263,1.7172869 0 0 1 -1.717336,1.83616 1.8565263,1.7172869 0 0 1 -1.985975,-1.58753 1.8565263,1.7172869 0 0 1 1.715169,-1.8379 1.8565263,1.7172869 0 0 1 1.987846,1.58553 l -1.851433,0.12712 z"
         transform="scale(-1,1)" />
      <path
         style="fill:#ba6156;fill-opacity:1;stroke:none;stroke-width:0.081044;stroke-linecap:round;stroke-linejoin:round;stroke-miterlimit:4;stroke-dasharray:none;stroke-opacity:1"
         id="path5675"
         sodipodi:type="arc"
         sodipodi:cx="-18.858253"
         sodipodi:cy="242.02139"
         sodipodi:rx="1.8565263"
         sodipodi:ry="1.7172869"
         sodipodi:start="6.2112777"
         sodipodi:end="6.2090961"
         sodipodi:arc-type="slice"
         d="m -17.006525,241.89801 a 1.8565263,1.7172869 0 0 1 -1.717335,1.83616 1.8565263,1.7172869 0 0 1 -1.985975,-1.58753 1.8565263,1.7172869 0 0 1 1.715169,-1.83789 1.8565263,1.7172869 0 0 1 1.987846,1.58553 l -1.851433,0.12711 z"
         transform="scale(-1,1)" />
    </g>
  </g>
</svg>
