<?xml version="1.0" encoding="UTF-8" standalone="no"?>
<svg
   xmlns:dc="http://purl.org/dc/elements/1.1/"
   xmlns:cc="http://creativecommons.org/ns#"
   xmlns:rdf="http://www.w3.org/1999/02/22-rdf-syntax-ns#"
   xmlns:svg="http://www.w3.org/2000/svg"
   xmlns="http://www.w3.org/2000/svg"
   xmlns:sodipodi="http://sodipodi.sourceforge.net/DTD/sodipodi-0.dtd"
   xmlns:inkscape="http://www.inkscape.org/namespaces/inkscape"
   width="127.99992"
   height="127.99992"
   viewBox="0 0 33.866646 33.866648"
   version="1.1"
   id="svg8"
   inkscape:version="1.0.1 (3bc2e813f5, 2020-09-07)"
   sodipodi:docname="PlayButton.svg">
  <defs
     id="defs2">
    <inkscape:path-effect
       effect="bend_path"
       id="path-effect5614"
       is_visible="true"
       bendpath="m 316.13315,85.842368 c 227.29919,-141.38905 471.89671,-116.714106 726.08165,0"
       prop_scale="1"
       scale_y_rel="false"
       vertical="false"
       bendpath-nodetypes="cc"
       lpeversion="0"
       hide_knot="false" />
  </defs>
  <sodipodi:namedview
     id="base"
     pagecolor="#121212"
     bordercolor="#666666"
     borderopacity="1.0"
     inkscape:pageopacity="0"
     inkscape:pageshadow="2"
     inkscape:zoom="2.9363758"
     inkscape:cx="26.836102"
     inkscape:cy="-1.5003254"
     inkscape:document-units="px"
     inkscape:current-layer="layer1"
     showgrid="true"
     units="px"
     inkscape:snap-global="false"
     inkscape:window-width="1920"
     inkscape:window-height="1022"
     inkscape:window-x="0"
     inkscape:window-y="30"
     inkscape:window-maximized="1"
     inkscape:lockguides="true"
     showguides="true"
     inkscape:guide-bbox="true"
     inkscape:snap-bbox="true"
     inkscape:bbox-nodes="true"
     inkscape:snap-nodes="false"
     inkscape:snap-others="false"
     inkscape:document-rotation="0">
    <sodipodi:guide
       position="239.6369,169.33334"
       orientation="1,0"
       id="guide4752"
       inkscape:locked="true" />
    <inkscape:grid
       type="xygrid"
       id="grid941"
       empspacing="16"
       originx="-33.866688"
       originy="-33.866663" />
    <sodipodi:guide
       position="33.866666,29.633334"
       orientation="1,0"
       id="guide945"
       inkscape:locked="true" />
    <sodipodi:guide
       position="71.966665,33.866668"
       orientation="0,1"
       id="guide947"
       inkscape:locked="true" />
  </sodipodi:namedview>
  <metadata
     id="metadata5">
    <rdf:RDF>
      <cc:Work
         rdf:about="">
        <dc:format>image/svg+xml</dc:format>
        <dc:type
           rdf:resource="http://purl.org/dc/dcmitype/StillImage" />
        <dc:title />
      </cc:Work>
    </rdf:RDF>
  </metadata>
  <g
     inkscape:label="Layer 1"
     inkscape:groupmode="layer"
     id="layer1"
     transform="translate(-33.866689,-263.1333)">
    <rect
       style="opacity:0;fill:#1d1b16;fill-opacity:1;stroke:none;stroke-width:2;stroke-linecap:round;stroke-linejoin:round;stroke-miterlimit:4;stroke-dasharray:none;stroke-opacity:1"
       id="rect6805"
       width="52.916664"
       height="52.916664"
       x="366.50797"
       y="48.255733"
       ry="2.4054248" />
    <circle
       id="path5579"
       style="fill:#ffe478;fill-opacity:1;stroke:none;stroke-width:0.116982;stroke-linecap:round;stroke-linejoin:round;stroke-miterlimit:4;stroke-dasharray:none;stroke-opacity:1"
       cx="50.800014"
       cy="280.06662"
       r="16.296116" />
    <circle
       cy="269.59079"
       cx="53.497292"
       id="path4691"
       style="fill:#ba6156;fill-opacity:1;stroke:none;stroke-width:0.486638;stroke-linecap:round;stroke-miterlimit:4;stroke-dasharray:none;stroke-opacity:1"
       r="0.96567005" />
    <path
       id="circle4693"
       d="m 65.004798,274.1776 a 2.0118127,2.0118127 0 0 0 -2.011624,2.01206 2.0118127,2.0118127 0 0 0 2.011624,2.01163 2.0118127,2.0118127 0 0 0 1.797303,-1.11254 16.296115,16.296115 0 0 0 -0.683449,-2.57317 2.0118127,2.0118127 0 0 0 -1.113854,-0.33798 z"
       style="fill:#ba6156;fill-opacity:1;stroke:none;stroke-width:1.01383;stroke-linecap:round;stroke-miterlimit:4;stroke-dasharray:none;stroke-opacity:1"
       inkscape:connector-curvature="0" />
    <path
       id="circle4695"
       d="m 40.571777,267.40426 a 16.296115,16.296115 0 0 0 -1.866398,1.74846 1.28756,1.28756 0 0 0 1.031117,0.51842 1.28756,1.28756 0 0 0 1.287684,-1.28724 1.28756,1.28756 0 0 0 -0.452403,-0.97964 z"
       style="fill:#ba6156;fill-opacity:1;stroke:none;stroke-width:0.648849;stroke-linecap:round;stroke-miterlimit:4;stroke-dasharray:none;stroke-opacity:1"
       inkscape:connector-curvature="0" />
    <circle
       style="fill:#ba6156;fill-opacity:1;stroke:none;stroke-width:0.729955;stroke-linecap:round;stroke-miterlimit:4;stroke-dasharray:none;stroke-opacity:1"
       id="circle4701"
       cx="38.90958"
       cy="277.30234"
       r="1.4485052" />
    <path
       id="circle4703"
       d="m 55.960632,294.34533 a 1.1559038,1.1559038 0 0 0 -1.155661,1.15566 1.1559038,1.1559038 0 0 0 0.05237,0.3415 16.296115,16.296115 0 0 0 2.185458,-0.74506 1.1559038,1.1559038 0 0 0 -1.082167,-0.7521 z"
       style="fill:#ba6156;fill-opacity:1;stroke:none;stroke-width:0.582503;stroke-linecap:round;stroke-miterlimit:4;stroke-dasharray:none;stroke-opacity:1"
       inkscape:connector-curvature="0" />
    <circle
       transform="matrix(-0.74648614,0.66540096,0.66540096,0.74648614,0,0)"
       cy="254.32285"
       cx="147.18243"
       id="circle4705"
       style="fill:#ba6156;fill-opacity:1;stroke:none;stroke-width:1.09493;stroke-linecap:round;stroke-miterlimit:4;stroke-dasharray:none;stroke-opacity:1"
       r="2.1727579" />
    <path
       inkscape:transform-center-y="-0.15723467"
       inkscape:transform-center-x="-1.8822355"
       inkscape:randomized="0"
       inkscape:rounded="0.05"
       inkscape:flatsided="true"
       sodipodi:arg2="3.1741601"
       sodipodi:arg1="2.1269626"
       sodipodi:r2="4.7156477"
       sodipodi:r1="9.4312954"
       sodipodi:cy="280.20056"
       sodipodi:cx="49.197079"
       sodipodi:sides="3"
       id="path4803"
       style="fill:#ba6156;fill-opacity:1;stroke:none;stroke-width:2.29097;stroke-linecap:round;stroke-miterlimit:4;stroke-dasharray:none;stroke-opacity:1"
       sodipodi:type="star"
       d="m 44.217976,288.21042 c -0.693675,-0.4312 -0.188358,-15.94168 0.531911,-16.32682 0.72027,-0.38514 13.900082,7.80772 13.873486,8.62406 -0.0266,0.81634 -13.711723,8.13397 -14.405397,7.70276 z" />
    <circle
       style="fill:#ba6156;fill-opacity:1;stroke:none;stroke-width:1.13549;stroke-linecap:round;stroke-miterlimit:4;stroke-dasharray:none;stroke-opacity:1"
       id="circle4805"
       cx="57.52092"
       cy="271.20023"
       r="2.2532301" />
    <path
       id="path4829"
       d="m 40.073156,287.23621 a 2.5037168,2.5037168 0 0 0 -2.49483,2.33421 16.296115,16.296115 0 0 0 2.385696,2.66778 2.5037168,2.5037168 0 0 0 0.109139,0.005 2.5037168,2.5037168 0 0 0 2.504079,-2.50363 2.5037168,2.5037168 0 0 0 -2.504079,-2.50407 z"
       style="fill:#ba6156;fill-opacity:1;stroke:none;stroke-width:1.70323;stroke-linecap:round;stroke-miterlimit:4;stroke-dasharray:none;stroke-opacity:1"
       inkscape:connector-curvature="0" />
  </g>
</svg>
