<?xml version="1.0" encoding="UTF-8" standalone="no"?>
<svg
   width="127.99992"
   height="127.99992"
   viewBox="0 0 33.866646 33.866648"
   version="1.1"
   id="svg8"
   inkscape:version="1.1.1 (3bf5ae0d25, 2021-09-20)"
   sodipodi:docname="SkinsButton.svg"
   xmlns:inkscape="http://www.inkscape.org/namespaces/inkscape"
   xmlns:sodipodi="http://sodipodi.sourceforge.net/DTD/sodipodi-0.dtd"
   xmlns="http://www.w3.org/2000/svg"
   xmlns:svg="http://www.w3.org/2000/svg"
   xmlns:rdf="http://www.w3.org/1999/02/22-rdf-syntax-ns#"
   xmlns:cc="http://creativecommons.org/ns#"
   xmlns:dc="http://purl.org/dc/elements/1.1/">
  <defs
     id="defs2">
    <inkscape:path-effect
       effect="bend_path"
       id="path-effect5614"
       is_visible="true"
       bendpath="m 316.13315,85.842368 c 227.29919,-141.38905 471.89671,-116.714106 726.08165,0"
       prop_scale="1"
       scale_y_rel="false"
       vertical="false"
       bendpath-nodetypes="cc"
       lpeversion="0"
       hide_knot="false" />
  </defs>
  <sodipodi:namedview
     id="base"
     pagecolor="#121212"
     bordercolor="#666666"
     borderopacity="1.0"
     inkscape:pageopacity="0"
     inkscape:pageshadow="2"
     inkscape:zoom="4.7356853"
     inkscape:cx="38.114864"
     inkscape:cy="57.964156"
     inkscape:document-units="px"
     inkscape:current-layer="layer1"
     showgrid="true"
     units="px"
     inkscape:snap-global="false"
     inkscape:window-width="1920"
     inkscape:window-height="1022"
     inkscape:window-x="0"
     inkscape:window-y="30"
     inkscape:window-maximized="1"
     inkscape:lockguides="true"
     showguides="true"
     inkscape:guide-bbox="true"
     inkscape:snap-bbox="true"
     inkscape:bbox-nodes="true"
     inkscape:snap-nodes="false"
     inkscape:snap-others="false"
     inkscape:document-rotation="0"
     inkscape:pagecheckerboard="0">
    <sodipodi:guide
       position="239.6369,169.33334"
       orientation="1,0"
       id="guide4752"
       inkscape:locked="true" />
    <inkscape:grid
       type="xygrid"
       id="grid941"
       empspacing="16"
       originx="-33.866688"
       originy="-33.866663" />
    <sodipodi:guide
       position="33.866666,29.633334"
       orientation="1,0"
       id="guide945"
       inkscape:locked="true" />
    <sodipodi:guide
       position="71.966665,33.866668"
       orientation="0,1"
       id="guide947"
       inkscape:locked="true" />
  </sodipodi:namedview>
  <metadata
     id="metadata5">
    <rdf:RDF>
      <cc:Work
         rdf:about="">
        <dc:format>image/svg+xml</dc:format>
        <dc:type
           rdf:resource="http://purl.org/dc/dcmitype/StillImage" />
      </cc:Work>
    </rdf:RDF>
  </metadata>
  <g
     inkscape:label="Layer 1"
     inkscape:groupmode="layer"
     id="layer1"
     transform="translate(-33.866689,-263.1333)">
    <rect
       style="opacity:0;fill:#1d1b16;fill-opacity:1;stroke:none;stroke-width:2;stroke-linecap:round;stroke-linejoin:round;stroke-miterlimit:4;stroke-dasharray:none;stroke-opacity:1"
       id="rect6805"
       width="52.916664"
       height="52.916664"
       x="366.50797"
       y="48.255733"
       ry="2.4054248" />
    <circle
       style="fill:#ffe478;fill-opacity:1;stroke:none;stroke-width:0.114999;stroke-linecap:round;stroke-linejoin:round;stroke-miterlimit:4;stroke-dasharray:none;stroke-opacity:1"
       id="path4648"
       cx="50.874485"
       cy="280.27228"
       r="16.019882" />
    <circle
       style="fill:#ba6156;fill-opacity:1;stroke:none;stroke-width:0.478389;stroke-linecap:round;stroke-miterlimit:4;stroke-dasharray:none;stroke-opacity:1"
       id="circle4650"
       cx="53.451546"
       cy="269.76834"
       r="0.94930112" />
    <path
       inkscape:connector-curvature="0"
       style="fill:#ba6156;fill-opacity:1;stroke:none;stroke-width:0.637851;stroke-linecap:round;stroke-miterlimit:4;stroke-dasharray:none;stroke-opacity:1"
       d="m 40.800922,267.81471 a 16.019882,16.019882 0 0 0 -1.834762,1.71882 1.2657348,1.2657348 0 0 0 1.01364,0.50964 1.2657348,1.2657348 0 0 0 1.265856,-1.26543 1.2657348,1.2657348 0 0 0 -0.444734,-0.96303 z"
       id="path4654" />
    <circle
       r="1.4239517"
       cy="267.0929"
       cx="50.022743"
       id="circle4656"
       style="fill:#ba6156;fill-opacity:1;stroke:none;stroke-width:0.717582;stroke-linecap:round;stroke-miterlimit:4;stroke-dasharray:none;stroke-opacity:1" />
    <path
       inkscape:connector-curvature="0"
       style="fill:#ba6156;fill-opacity:1;stroke:none;stroke-width:0.572629;stroke-linecap:round;stroke-miterlimit:4;stroke-dasharray:none;stroke-opacity:1"
       d="m 55.951559,294.34614 a 1.1363103,1.1363103 0 0 0 -1.136069,1.13607 1.1363103,1.1363103 0 0 0 0.05149,0.33571 16.019882,16.019882 0 0 0 2.148411,-0.73243 1.1363103,1.1363103 0 0 0 -1.06382,-0.73935 z"
       id="path4658" />
    <circle
       r="1.2657348"
       cy="293.74622"
       cx="51.471802"
       id="circle4664"
       style="fill:#ba6156;fill-opacity:1;stroke:none;stroke-width:0.637851;stroke-linecap:round;stroke-miterlimit:4;stroke-dasharray:none;stroke-opacity:1" />
    <path
       inkscape:connector-curvature="0"
       style="fill:#ba6156;fill-opacity:1;stroke:none;stroke-width:1.67436;stroke-linecap:round;stroke-miterlimit:4;stroke-dasharray:none;stroke-opacity:1"
       d="m 40.170443,287.15199 a 2.4612767,2.4612767 0 0 0 -2.45254,2.29464 16.019882,16.019882 0 0 0 2.345256,2.62257 2.4612767,2.4612767 0 0 0 0.107285,0.005 2.4612767,2.4612767 0 0 0 2.461633,-2.4612 2.4612767,2.4612767 0 0 0 -2.461633,-2.46163 z"
       id="path4666" />
    <path
       id="circle1189"
       style="fill:#ba6156;fill-opacity:1;stroke:none;stroke-width:0.66807;stroke-linecap:square;stroke-linejoin:bevel;stroke-miterlimit:4;stroke-dasharray:none;stroke-dashoffset:0;stroke-opacity:0.978723;paint-order:normal"
       d="m 45.101337,271.46996 a 5.9049646,5.9049646 0 0 0 -5.90455,5.90506 5.9049646,5.9049646 0 0 0 4.316533,5.68338 v 0.89658 c 0,3.36482 2.708714,6.07354 6.073532,6.07354 h 2.699576 c 3.364818,0 6.073532,-2.70872 6.073532,-6.07354 v -0.77721 a 5.9049646,5.9049646 0 0 0 4.833298,-5.80275 5.9049646,5.9049646 0 0 0 -5.90455,-5.90506 5.9049646,5.9049646 0 0 0 -5.481321,3.71192 H 50.58369 a 5.9049646,5.9049646 0 0 0 -5.482353,-3.71192 z" />
    <circle
       r="0.81602871"
       cy="292.43747"
       cx="54.964016"
       id="circle9331"
       style="fill:#ba6156;fill-opacity:1;stroke:none;stroke-width:0.411227;stroke-linecap:round;stroke-miterlimit:4;stroke-dasharray:none;stroke-opacity:1" />
    <circle
       r="0.81602871"
       cy="283.71704"
       cx="36.435616"
       id="circle9333"
       style="fill:#ba6156;fill-opacity:1;stroke:none;stroke-width:0.411227;stroke-linecap:round;stroke-miterlimit:4;stroke-dasharray:none;stroke-opacity:1" />
  </g>
</svg>
