<?xml version="1.0" encoding="UTF-8" standalone="no"?>
<svg
   xmlns:dc="http://purl.org/dc/elements/1.1/"
   xmlns:cc="http://creativecommons.org/ns#"
   xmlns:rdf="http://www.w3.org/1999/02/22-rdf-syntax-ns#"
   xmlns:svg="http://www.w3.org/2000/svg"
   xmlns="http://www.w3.org/2000/svg"
   xmlns:sodipodi="http://sodipodi.sourceforge.net/DTD/sodipodi-0.dtd"
   xmlns:inkscape="http://www.inkscape.org/namespaces/inkscape"
   width="256"
   height="256"
   viewBox="0 0 67.733332 67.733335"
   version="1.1"
   id="svg1221"
   inkscape:version="1.0.1 (3bc2e813f5, 2020-09-07)"
   sodipodi:docname="blackhole.svg"
   inkscape:export-filename="/home/henrique/Documents/Pigdev/Studio/Moon Cheeser/Repository/releases/assets-pack/graphics/blackhole/blackhole.png"
   inkscape:export-xdpi="192.00002"
   inkscape:export-ydpi="192.00002">
  <defs
     id="defs1215">
    <inkscape:path-effect
       effect="powerstroke"
       id="path-effect998"
       is_visible="true"
       offset_points="0.039158264,-0.024080106 | 2.5515264,-2.1066791 | 4.8904272,-0.088027129"
       sort_points="true"
       interpolator_type="CubicBezierFit"
       interpolator_beta="0.2"
       start_linecap_type="butt"
       linejoin_type="extrp_arc"
       miter_limit="4"
       end_linecap_type="butt" />
    <inkscape:path-effect
       end_linecap_type="butt"
       miter_limit="4"
       linejoin_type="extrp_arc"
       start_linecap_type="butt"
       interpolator_beta="0.2"
       interpolator_type="CubicBezierFit"
       sort_points="true"
       offset_points="0.039158264,-0.024080106 | 2.5515264,-2.1066791 | 4.8904272,-0.088027128"
       is_visible="true"
       id="path-effect854"
       effect="powerstroke" />
    <inkscape:path-effect
       effect="powerstroke"
       id="path-effect1147"
       is_visible="true"
       offset_points="0.039158264,-0.024080106 | 2.5515264,-2.1066791 | 4.8904272,-0.088027129"
       sort_points="true"
       interpolator_type="CubicBezierFit"
       interpolator_beta="0.2"
       start_linecap_type="butt"
       linejoin_type="extrp_arc"
       miter_limit="4"
       end_linecap_type="butt" />
    <inkscape:path-effect
       end_linecap_type="butt"
       miter_limit="4"
       linejoin_type="extrp_arc"
       start_linecap_type="butt"
       interpolator_beta="0.2"
       interpolator_type="CubicBezierFit"
       sort_points="true"
       offset_points="0.039158264,-0.024080106 | 2.5515264,-2.1066791 | 4.8904272,-0.088027128"
       is_visible="true"
       id="path-effect1151"
       effect="powerstroke" />
  </defs>
  <sodipodi:namedview
     id="base"
     pagecolor="#2c2c2c"
     bordercolor="#666666"
     borderopacity="1.0"
     inkscape:pageopacity="0"
     inkscape:pageshadow="2"
     inkscape:zoom="1.8249477"
     inkscape:cx="-8.081903"
     inkscape:cy="92.156295"
     inkscape:document-units="mm"
     inkscape:current-layer="layer1"
     showgrid="false"
     units="px"
     inkscape:snap-page="true"
     inkscape:snap-bbox="true"
     inkscape:bbox-nodes="true"
     inkscape:window-width="1920"
     inkscape:window-height="1022"
     inkscape:window-x="0"
     inkscape:window-y="30"
     inkscape:window-maximized="1"
     inkscape:document-rotation="0" />
  <metadata
     id="metadata1218">
    <rdf:RDF>
      <cc:Work
         rdf:about="">
        <dc:format>image/svg+xml</dc:format>
        <dc:type
           rdf:resource="http://purl.org/dc/dcmitype/StillImage" />
        <dc:title />
      </cc:Work>
    </rdf:RDF>
  </metadata>
  <g
     inkscape:label="Layer 1"
     inkscape:groupmode="layer"
     id="layer1"
     transform="translate(0,-229.26665)">
    <circle
       r="33.884724"
       cy="263.11526"
       cx="33.84861"
       id="circle1181"
       style="opacity:0.05;fill:#4b5bab;fill-opacity:1;stroke:none;stroke-width:5.58102;stroke-linecap:round;stroke-linejoin:miter;stroke-miterlimit:4;stroke-dasharray:none;stroke-dashoffset:0;stroke-opacity:1" />
    <circle
       style="opacity:0.05;fill:#4b5bab;fill-opacity:1;stroke:none;stroke-width:4.83829;stroke-linecap:round;stroke-linejoin:miter;stroke-miterlimit:4;stroke-dasharray:none;stroke-dashoffset:0;stroke-opacity:1"
       id="circle1179"
       cx="33.84861"
       cy="263.11526"
       r="29.375311" />
    <circle
       r="24.425959"
       cy="263.11526"
       cx="33.84861"
       id="circle1173"
       style="opacity:0.05;mix-blend-mode:normal;fill:#4b5bab;fill-opacity:1;stroke:none;stroke-width:4.0231;stroke-linecap:round;stroke-linejoin:miter;stroke-miterlimit:4;stroke-dasharray:none;stroke-dashoffset:0;stroke-opacity:1" />
    <path
       style="mix-blend-mode:normal;fill:#73275c;fill-opacity:1;fill-rule:nonzero;stroke:#4da6ff;stroke-width:1.05833;stroke-miterlimit:4;stroke-dasharray:none;stroke-opacity:1;stroke-linejoin:round;stroke-linecap:round"
       d="m 33.837193,259.27047 c 0.09915,-0.0403 0.201679,-0.0657 0.297566,-0.10677 0.517222,-0.22156 1.0569,-0.32273 1.60609,-0.31176 0.651566,0.013 1.305295,0.18399 1.924256,0.48396 0.617194,0.29912 1.196376,0.72501 1.696085,1.24213 0.498131,0.51549 0.925409,1.13035 1.225655,1.8093 0.456258,1.19246 0.586797,2.41984 0.431555,3.62041 -0.154696,1.19635 -0.589663,2.33873 -1.230323,3.36499 -0.639447,1.02432 -1.485382,1.93575 -2.46884,2.67618 -0.982285,0.73954 -2.114514,1.31786 -3.330456,1.66063 -1.889386,0.50382 -3.770912,0.50874 -5.544893,0.10396 -1.767681,-0.40334 -3.398385,-1.20612 -4.812394,-2.28387 -0.291384,-0.2221 -0.573696,-0.45595 -0.846319,-0.70054 -1.049791,-0.94185 -1.956417,-2.04531 -2.6868,-3.25412 -0.920365,-1.52324 -1.565814,-3.22191 -1.863457,-4.98973 -0.45424,-2.5685 -0.253283,-5.05098 0.44714,-7.32991 0.699329,-2.27538 1.890924,-4.33252 3.406994,-6.08622 1.516613,-1.75433 3.365168,-3.21422 5.401283,-4.30439 2.037841,-1.09108 4.270059,-1.81558 6.564181,-2.0967 2.823773,-0.27122 5.6114,0.0887 8.196822,0.92082 2.020022,0.65015 3.928549,1.59191 5.661134,2.76377 0.485904,0.32865 0.992018,0.62769 1.467908,0.97227 l -0.103252,0.1426 c -0.471562,-0.34145 -0.942126,-0.68914 -1.455685,-0.96418 -1.831741,-0.98099 -3.795659,-1.65912 -5.795186,-2.01792 -2.564549,-0.46018 -5.166145,-0.39215 -7.637148,0.2105 -2.0014,0.42762 -3.893415,1.23705 -5.570434,2.32915 -1.678302,1.09293 -3.135339,2.4648 -4.277467,4.01634 -1.140843,1.5498 -1.96207,3.27195 -2.389969,5.0732 -0.426598,1.79578 -0.467662,3.68591 -0.0421,5.61199 0.294483,1.25567 0.820051,2.46339 1.523114,3.55165 0.557841,0.86348 1.223994,1.64645 1.968561,2.31646 0.193108,0.17378 0.391381,0.33972 0.594318,0.49732 0.984875,0.76483 2.074889,1.33073 3.227537,1.64641 1.14501,0.3136 2.379883,0.38738 3.673477,0.13092 0.770975,-0.13113 1.550561,-0.40862 2.281069,-0.81692 0.729355,-0.40765 1.395228,-0.93777 1.93991,-1.55821 0.543027,-0.61855 0.965499,-1.32664 1.211216,-2.09464 0.244727,-0.76491 0.323165,-1.61741 0.141437,-2.53289 -0.05406,-0.49665 -0.214406,-1.01999 -0.472923,-1.51933 -0.257496,-0.49736 -0.608217,-0.96254 -1.032922,-1.3433 -0.423377,-0.37958 -0.924136,-0.67855 -1.481985,-0.83655 -0.470924,-0.13338 -0.98821,-0.16766 -1.532839,-0.0578 -0.101118,0.0204 -0.196113,0.0657 -0.293789,0.10542 z"
       id="path1149"
       inkscape:path-effect="#path-effect1151"
       inkscape:original-d="m 33.846256,259.29278 c 2.516384,-1.02225 5.071632,1.03334 5.782055,3.38421 1.273841,4.2153 -2.113786,8.21448 -6.085846,9.16244 -6.368286,1.51985 -12.185975,-3.585 -13.370437,-9.63353 -1.759953,-8.98738 5.458293,-17.00639 14.049786,-18.42395 5.294364,-0.87355 10.781945,0.58257 15.10694,3.71423"
       inkscape:connector-curvature="0" />
    <path
       style="fill:#73275c;fill-opacity:1;fill-rule:nonzero;stroke:none;stroke-width:1.05833;stroke-miterlimit:4;stroke-dasharray:none;stroke-opacity:1"
       d="m 33.837193,259.27047 c 0.09915,-0.0403 0.201679,-0.0657 0.297566,-0.10677 0.517222,-0.22156 1.0569,-0.32273 1.60609,-0.31176 0.651566,0.013 1.305295,0.18399 1.924256,0.48396 0.617194,0.29912 1.196376,0.72501 1.696085,1.24213 0.498131,0.51549 0.925409,1.13035 1.225655,1.8093 0.456258,1.19246 0.586797,2.41984 0.431555,3.62041 -0.154696,1.19635 -0.589663,2.33873 -1.230323,3.36499 -0.639447,1.02432 -1.485382,1.93575 -2.46884,2.67618 -0.982285,0.73954 -2.114514,1.31786 -3.330456,1.66063 -1.889386,0.50382 -3.770912,0.50874 -5.544893,0.10396 -1.767681,-0.40334 -3.398385,-1.20612 -4.812394,-2.28387 -0.291384,-0.2221 -0.573696,-0.45595 -0.846319,-0.70054 -1.049791,-0.94185 -1.956417,-2.04531 -2.6868,-3.25412 -0.920365,-1.52324 -1.565814,-3.22191 -1.863457,-4.98973 -0.45424,-2.5685 -0.253283,-5.05098 0.44714,-7.32991 0.699329,-2.27538 1.890924,-4.33252 3.406994,-6.08622 1.516613,-1.75433 3.365168,-3.21422 5.401283,-4.30439 2.037841,-1.09108 4.270059,-1.81558 6.564181,-2.0967 2.823773,-0.27122 5.6114,0.0887 8.196822,0.92082 2.020022,0.65015 3.928549,1.59191 5.661134,2.76377 0.485904,0.32865 0.992018,0.62769 1.467908,0.97227 l -0.103252,0.1426 c -0.471562,-0.34145 -0.942126,-0.68914 -1.455685,-0.96418 -1.831741,-0.98099 -3.795659,-1.65912 -5.795186,-2.01792 -2.564549,-0.46018 -5.166145,-0.39215 -7.637148,0.2105 -2.0014,0.42762 -3.893415,1.23705 -5.570434,2.32915 -1.678302,1.09293 -3.135339,2.4648 -4.277467,4.01634 -1.140843,1.5498 -1.96207,3.27195 -2.389969,5.0732 -0.426598,1.79578 -0.467662,3.68591 -0.0421,5.61199 0.294483,1.25567 0.820051,2.46339 1.523114,3.55165 0.557841,0.86348 1.223994,1.64645 1.968561,2.31646 0.193108,0.17378 0.391381,0.33972 0.594318,0.49732 0.984875,0.76483 2.074889,1.33073 3.227537,1.64641 1.14501,0.3136 2.379883,0.38738 3.673477,0.13092 0.770975,-0.13113 1.550561,-0.40862 2.281069,-0.81692 0.729355,-0.40765 1.395228,-0.93777 1.93991,-1.55821 0.543027,-0.61855 0.965499,-1.32664 1.211216,-2.09464 0.244727,-0.76491 0.323165,-1.61741 0.141437,-2.53289 -0.05406,-0.49665 -0.214406,-1.01999 -0.472923,-1.51933 -0.257496,-0.49736 -0.608217,-0.96254 -1.032922,-1.3433 -0.423377,-0.37958 -0.924136,-0.67855 -1.481985,-0.83655 -0.470924,-0.13338 -0.98821,-0.16766 -1.532839,-0.0578 -0.101118,0.0204 -0.196113,0.0657 -0.293789,0.10542 z"
       id="path852"
       inkscape:path-effect="#path-effect854"
       inkscape:original-d="m 33.846256,259.29278 c 2.516384,-1.02225 5.071632,1.03334 5.782055,3.38421 1.273841,4.2153 -2.113786,8.21448 -6.085846,9.16244 -6.368286,1.51985 -12.185975,-3.585 -13.370437,-9.63353 -1.759953,-8.98738 5.458293,-17.00639 14.049786,-18.42395 5.294364,-0.87355 10.781945,0.58257 15.10694,3.71423"
       inkscape:connector-curvature="0" />
    <path
       inkscape:connector-curvature="0"
       inkscape:original-d="m 33.832798,266.89315 c -2.516384,1.02224 -5.071633,-1.03335 -5.782055,-3.38421 -1.273841,-4.2153 2.113786,-8.21449 6.085846,-9.16245 6.368286,-1.51985 12.185975,3.585 13.370437,9.63353 1.759952,8.98739 -5.458294,17.00639 -14.049787,18.42395 -5.294364,0.87355 -10.781946,-0.58257 -15.10694,-3.71423"
       inkscape:path-effect="#path-effect998"
       id="path996"
       d="m 33.841861,266.91546 c -0.09915,0.0403 -0.201679,0.0657 -0.297566,0.10677 -0.517222,0.22156 -1.056901,0.32273 -1.606091,0.31175 -0.651566,-0.013 -1.305295,-0.18399 -1.924255,-0.48396 -0.617194,-0.29911 -1.196376,-0.725 -1.696085,-1.24212 -0.498131,-0.51549 -0.925409,-1.13036 -1.225654,-1.80929 -0.456259,-1.19247 -0.586798,-2.41985 -0.431556,-3.62042 0.154696,-1.19635 0.589662,-2.33873 1.230323,-3.365 0.639446,-1.02432 1.485381,-1.93575 2.468839,-2.67618 0.982284,-0.73954 2.114514,-1.31786 3.330457,-1.66063 1.889386,-0.50382 3.770912,-0.50874 5.544893,-0.10396 1.767681,0.40334 3.398385,1.20612 4.812394,2.28387 0.291384,0.2221 0.573696,0.45595 0.846319,0.70054 1.049791,0.94185 1.956417,2.04531 2.6868,3.25412 0.920365,1.52324 1.565814,3.22191 1.863457,4.98973 0.454239,2.5685 0.253283,5.05098 -0.44714,7.32992 -0.69933,2.27537 -1.890925,4.33251 -3.406995,6.08622 -1.516613,1.75433 -3.365168,3.21422 -5.401284,4.30438 -2.037841,1.09109 -4.270058,1.81558 -6.56418,2.0967 -2.823773,0.27122 -5.6114,-0.0887 -8.196822,-0.92082 -2.020023,-0.65015 -3.92855,-1.59191 -5.661134,-2.76377 -0.485904,-0.32865 -0.992018,-0.62769 -1.467908,-0.97227 l 0.103252,-0.1426 c 0.471562,0.34145 0.942126,0.68914 1.455685,0.96418 1.83174,0.98099 3.795658,1.65912 5.795186,2.01792 2.564548,0.46018 5.166145,0.39215 7.637148,-0.2105 2.0014,-0.42762 3.893415,-1.23705 5.570434,-2.32915 1.678303,-1.09293 3.135339,-2.4648 4.277467,-4.01634 1.140843,-1.54979 1.962071,-3.27194 2.389969,-5.0732 0.426598,-1.79578 0.467663,-3.6859 0.0421,-5.61199 -0.294483,-1.25567 -0.820051,-2.46339 -1.523114,-3.55165 -0.557841,-0.86348 -1.223994,-1.64645 -1.968561,-2.31646 -0.193108,-0.17378 -0.391381,-0.33972 -0.594318,-0.49732 -0.984875,-0.76483 -2.074889,-1.33073 -3.227537,-1.64641 -1.14501,-0.3136 -2.379883,-0.38738 -3.673477,-0.13092 -0.770974,0.13113 -1.55056,0.40862 -2.281068,0.81692 -0.729354,0.40766 -1.395228,0.93777 -1.939911,1.55821 -0.543027,0.61856 -0.965499,1.32665 -1.211216,2.09465 -0.244727,0.76491 -0.323165,1.61741 -0.141437,2.53289 0.05406,0.49665 0.214405,1.01999 0.472923,1.51932 0.257495,0.49736 0.608216,0.96254 1.032922,1.34331 0.423377,0.37957 0.924136,0.67854 1.481985,0.83655 0.470924,0.13338 0.98821,0.16766 1.532839,0.0578 0.101118,-0.0204 0.196113,-0.0657 0.293789,-0.10542 z"
       style="mix-blend-mode:normal;fill:#5a265e;fill-opacity:1;fill-rule:nonzero;stroke:#eb564b;stroke-width:1.05833;stroke-miterlimit:4;stroke-dasharray:none;stroke-opacity:1;stroke-linecap:round;stroke-linejoin:round" />
    <path
       inkscape:connector-curvature="0"
       inkscape:original-d="m 33.850924,266.93777 c -2.516384,1.02224 -5.071633,-1.03335 -5.782055,-3.38421 -1.273841,-4.2153 2.113786,-8.21449 6.085846,-9.16245 6.368286,-1.51985 12.185975,3.585 13.370437,9.63353 1.759952,8.98739 -5.458294,17.00639 -14.049787,18.42395 -5.294364,0.87355 -10.781946,-0.58257 -15.10694,-3.71423"
       inkscape:path-effect="#path-effect1147"
       id="path1144"
       d="m 33.859987,266.96008 c -0.09915,0.0403 -0.201679,0.0657 -0.297566,0.10677 -0.517222,0.22156 -1.056901,0.32273 -1.606091,0.31175 -0.651566,-0.013 -1.305295,-0.18399 -1.924255,-0.48396 -0.617194,-0.29911 -1.196376,-0.725 -1.696085,-1.24212 -0.498131,-0.51549 -0.925409,-1.13036 -1.225654,-1.80929 -0.456259,-1.19247 -0.586798,-2.41985 -0.431556,-3.62042 0.154696,-1.19635 0.589662,-2.33873 1.230323,-3.365 0.639446,-1.02432 1.485381,-1.93575 2.468839,-2.67618 0.982284,-0.73954 2.114514,-1.31786 3.330457,-1.66063 1.889386,-0.50382 3.770912,-0.50874 5.544893,-0.10396 1.767681,0.40334 3.398385,1.20612 4.812394,2.28387 0.291384,0.2221 0.573696,0.45595 0.846319,0.70054 1.049791,0.94185 1.956417,2.04531 2.6868,3.25412 0.920365,1.52324 1.565814,3.22191 1.863457,4.98973 0.454239,2.5685 0.253283,5.05098 -0.44714,7.32992 -0.69933,2.27537 -1.890925,4.33251 -3.406995,6.08622 -1.516613,1.75433 -3.365168,3.21422 -5.401284,4.30438 -2.037841,1.09109 -4.270058,1.81558 -6.56418,2.0967 -2.823773,0.27122 -5.6114,-0.0887 -8.196822,-0.92082 -2.020023,-0.65015 -3.92855,-1.59191 -5.661134,-2.76377 -0.485904,-0.32865 -0.992018,-0.62769 -1.467908,-0.97227 l 0.103252,-0.1426 c 0.471562,0.34145 0.942126,0.68914 1.455685,0.96418 1.83174,0.98099 3.795658,1.65912 5.795186,2.01792 2.564548,0.46018 5.166145,0.39215 7.637148,-0.2105 2.0014,-0.42762 3.893415,-1.23705 5.570434,-2.32915 1.678303,-1.09293 3.135339,-2.4648 4.277467,-4.01634 1.140843,-1.54979 1.962071,-3.27194 2.389969,-5.0732 0.426598,-1.79578 0.467663,-3.6859 0.0421,-5.61199 -0.294483,-1.25567 -0.820051,-2.46339 -1.523114,-3.55165 -0.557841,-0.86348 -1.223994,-1.64645 -1.968561,-2.31646 -0.193108,-0.17378 -0.391381,-0.33972 -0.594318,-0.49732 -0.984875,-0.76483 -2.074889,-1.33073 -3.227537,-1.64641 -1.14501,-0.3136 -2.379883,-0.38738 -3.673477,-0.13092 -0.770974,0.13113 -1.55056,0.40862 -2.281068,0.81692 -0.729354,0.40766 -1.395228,0.93777 -1.939911,1.55821 -0.543027,0.61856 -0.965499,1.32665 -1.211216,2.09465 -0.244727,0.76491 -0.323165,1.61741 -0.141437,2.53289 0.05406,0.49665 0.214405,1.01999 0.472923,1.51932 0.257495,0.49736 0.608216,0.96254 1.032922,1.34331 0.423377,0.37957 0.924136,0.67854 1.481985,0.83655 0.470924,0.13338 0.98821,0.16766 1.532839,0.0578 0.101118,-0.0204 0.196113,-0.0657 0.293789,-0.10542 z"
       style="fill:#5a265e;fill-opacity:1;fill-rule:nonzero;stroke:none;stroke-width:0.05444" />
    <circle
       r="5.288466"
       cy="263.11526"
       cx="33.84861"
       id="path1153"
       style="fill:#272736;fill-opacity:1;stroke:none;stroke-width:0.871041;stroke-linecap:round;stroke-linejoin:miter;stroke-miterlimit:4;stroke-dasharray:none;stroke-dashoffset:0;stroke-opacity:1" />
  </g>
</svg>
