<?xml version="1.0" encoding="UTF-8" standalone="no"?>
<!-- Created with Inkscape (http://www.inkscape.org/) -->

<svg
   width="128"
   height="128"
   viewBox="0 0 33.866665 33.866667"
   version="1.1"
   id="svg1307"
   inkscape:version="1.1.2 (0a00cf5339, 2022-02-04)"
   sodipodi:docname="mouse-hamelin.svg"
   inkscape:export-filename="/home/henrique/Pictures/Moon Cheeser database/Hamelin Mouse.png"
   inkscape:export-xdpi="96.000008"
   inkscape:export-ydpi="96.000008"
   xmlns:inkscape="http://www.inkscape.org/namespaces/inkscape"
   xmlns:sodipodi="http://sodipodi.sourceforge.net/DTD/sodipodi-0.dtd"
   xmlns="http://www.w3.org/2000/svg"
   xmlns:svg="http://www.w3.org/2000/svg"
   xmlns:rdf="http://www.w3.org/1999/02/22-rdf-syntax-ns#"
   xmlns:cc="http://creativecommons.org/ns#"
   xmlns:dc="http://purl.org/dc/elements/1.1/">
  <defs
     id="defs1301">
    <inkscape:path-effect
       effect="powerstroke"
       id="path-effect126865"
       is_visible="true"
       lpeversion="1"
       offset_points="0.36607912,0.65819441 | 0.7369579,1.5394423 | 0.91447105,0.73804339"
       not_jump="false"
       sort_points="true"
       interpolator_type="CentripetalCatmullRom"
       interpolator_beta="0.2"
       start_linecap_type="zerowidth"
       linejoin_type="round"
       miter_limit="4"
       scale_width="1"
       end_linecap_type="zerowidth" />
    <inkscape:path-effect
       effect="skeletal"
       id="path-effect114945"
       is_visible="true"
       lpeversion="1"
       pattern="M 0,4.9921381 C 0,2.2364779 2.2364779,0 4.9921381,0 c 2.7556603,0 4.9921381,2.2364779 4.9921381,4.9921381 0,2.7556603 -2.2364778,4.9921381 -4.9921381,4.9921381 C 2.2364779,9.9842762 0,7.7477984 0,4.9921381 Z"
       copytype="single_stretched"
       prop_scale="1"
       scale_y_rel="false"
       spacing="0"
       normal_offset="0"
       tang_offset="0"
       prop_units="false"
       vertical_pattern="false"
       hide_knot="false"
       fuse_tolerance="0" />
    <inkscape:path-effect
       effect="skeletal"
       id="path-effect95947"
       is_visible="true"
       lpeversion="1"
       pattern="M 0,4.9921381 C 0,2.2364779 2.2364779,0 4.9921381,0 c 2.7556603,0 4.9921381,2.2364779 4.9921381,4.9921381 0,2.7556603 -2.2364778,4.9921381 -4.9921381,4.9921381 C 2.2364779,9.9842762 0,7.7477984 0,4.9921381 Z"
       copytype="single_stretched"
       prop_scale="1"
       scale_y_rel="false"
       spacing="0"
       normal_offset="0"
       tang_offset="0"
       prop_units="false"
       vertical_pattern="false"
       hide_knot="false"
       fuse_tolerance="0" />
    <inkscape:path-effect
       effect="skeletal"
       id="path-effect91934"
       is_visible="true"
       lpeversion="1"
       pattern="M 0,4.9921381 C 0,2.2364779 2.2364779,0 4.9921381,0 c 2.7556603,0 4.9921381,2.2364779 4.9921381,4.9921381 0,2.7556603 -2.2364778,4.9921381 -4.9921381,4.9921381 C 2.2364779,9.9842762 0,7.7477984 0,4.9921381 Z"
       copytype="single_stretched"
       prop_scale="1"
       scale_y_rel="false"
       spacing="0"
       normal_offset="0"
       tang_offset="0"
       prop_units="false"
       vertical_pattern="false"
       hide_knot="false"
       fuse_tolerance="0" />
    <inkscape:path-effect
       effect="skeletal"
       id="path-effect91930"
       is_visible="true"
       lpeversion="1"
       pattern="M 0,4.9921381 C 0,2.2364779 2.2364779,0 4.9921381,0 c 2.7556603,0 4.9921381,2.2364779 4.9921381,4.9921381 0,2.7556603 -2.2364778,4.9921381 -4.9921381,4.9921381 C 2.2364779,9.9842762 0,7.7477984 0,4.9921381 Z"
       copytype="single_stretched"
       prop_scale="1"
       scale_y_rel="false"
       spacing="0"
       normal_offset="0"
       tang_offset="0"
       prop_units="false"
       vertical_pattern="false"
       hide_knot="false"
       fuse_tolerance="0" />
    <inkscape:path-effect
       effect="skeletal"
       id="path-effect91926"
       is_visible="true"
       lpeversion="1"
       pattern="M 0,4.9921381 C 0,2.2364779 2.2364779,0 4.9921381,0 c 2.7556603,0 4.9921381,2.2364779 4.9921381,4.9921381 0,2.7556603 -2.2364778,4.9921381 -4.9921381,4.9921381 C 2.2364779,9.9842762 0,7.7477984 0,4.9921381 Z"
       copytype="single_stretched"
       prop_scale="1"
       scale_y_rel="false"
       spacing="0"
       normal_offset="0"
       tang_offset="0"
       prop_units="false"
       vertical_pattern="false"
       hide_knot="false"
       fuse_tolerance="0" />
  </defs>
  <sodipodi:namedview
     id="base"
     pagecolor="#282828"
     bordercolor="#666666"
     borderopacity="1.0"
     inkscape:pageopacity="0"
     inkscape:pageshadow="2"
     inkscape:zoom="3.959798"
     inkscape:cx="106.44482"
     inkscape:cy="43.562828"
     inkscape:document-units="mm"
     inkscape:current-layer="layer1"
     showgrid="true"
     inkscape:window-width="1920"
     inkscape:window-height="1022"
     inkscape:window-x="0"
     inkscape:window-y="30"
     inkscape:window-maximized="1"
     units="px"
     inkscape:snap-bbox="true"
     inkscape:bbox-nodes="true"
     inkscape:snap-page="true"
     inkscape:snap-nodes="true"
     inkscape:bbox-paths="false"
     inkscape:snap-global="false"
     inkscape:snap-bbox-midpoints="false"
     inkscape:snap-others="false"
     showguides="true"
     inkscape:guide-bbox="true"
     inkscape:snap-grids="false"
     inkscape:snap-to-guides="true"
     inkscape:pagecheckerboard="0"
     inkscape:object-paths="true"
     inkscape:snap-intersection-paths="true"
     inkscape:snap-smooth-nodes="true"
     inkscape:snap-midpoints="true">
    <inkscape:grid
       type="xygrid"
       id="grid883"
       empspacing="4" />
    <sodipodi:guide
       position="33.866665,50.800001"
       orientation="1,0"
       id="guide877"
       inkscape:locked="false" />
  </sodipodi:namedview>
  <metadata
     id="metadata1304">
    <rdf:RDF>
      <cc:Work
         rdf:about="">
        <dc:format>image/svg+xml</dc:format>
        <dc:type
           rdf:resource="http://purl.org/dc/dcmitype/StillImage" />
      </cc:Work>
    </rdf:RDF>
  </metadata>
  <g
     inkscape:label="Layer 1"
     inkscape:groupmode="layer"
     id="layer1"
     transform="translate(0,-263.13332)">
    <g
       id="g971"
       transform="matrix(1.4081295,0,0,1.4081295,-98.591569,-144.57516)">
      <rect
         ry="0.98629898"
         y="308.49524"
         x="84.226402"
         height="4.9062042"
         width="1.9725975"
         id="rect1181-2"
         style="fill:#a63c35;fill-opacity:1;stroke:none;stroke-width:0.400568;stroke-linecap:square;stroke-linejoin:bevel;stroke-miterlimit:4;stroke-dasharray:none;stroke-dashoffset:0;stroke-opacity:0.978723;paint-order:normal" />
      <path
         id="rect18903"
         style="fill:#1d1d25;fill-opacity:1;stroke-width:1.5875;stroke-linecap:round;stroke-linejoin:round;paint-order:fill markers stroke"
         d="m 85.212551,308.4953 c -0.54641,0 -0.985987,0.44009 -0.985987,0.9865 v 2.39934 h 1.97249 v -2.39934 c 0,-0.54641 -0.440094,-0.9865 -0.986503,-0.9865 z" />
      <rect
         style="fill:#d24c43;fill-opacity:1;stroke:none;stroke-width:0.400568;stroke-linecap:square;stroke-linejoin:bevel;stroke-miterlimit:4;stroke-dasharray:none;stroke-dashoffset:0;stroke-opacity:0.978723;paint-order:normal"
         id="rect140737-2"
         width="1.9725975"
         height="4.9062042"
         x="81.191635"
         y="308.49524"
         ry="0.98629898" />
      <path
         style="fill:none;stroke:#c2c2d1;stroke-width:0.400568;stroke-linecap:round;stroke-linejoin:miter;stroke-miterlimit:4;stroke-dasharray:none;stroke-opacity:1"
         d="m 82.538339,308.45415 c 0,0 -3.74996,0.0568 -5.154766,-3.91215 -1.404806,-3.96898 -2.455729,-4.75466 -3.261383,-4.52686"
         id="path1179-8"
         inkscape:connector-curvature="0"
         inkscape:transform-center-x="31.376121"
         inkscape:transform-center-y="-50.530738" />
      <rect
         transform="matrix(-0.86602542,0.49999997,0.49999997,0.86602542,0,0)"
         style="fill:#7e7e8f;fill-opacity:1;stroke:none;stroke-width:0.400568;stroke-linecap:square;stroke-linejoin:bevel;stroke-miterlimit:4;stroke-dasharray:none;stroke-dashoffset:0;stroke-opacity:0.978723;paint-order:normal"
         id="rect1183-2"
         width="1.9725975"
         height="4.9062042"
         x="77.626579"
         y="306.71487"
         ry="0.98629898" />
      <path
         id="path17906"
         style="fill:#d28e4f;fill-opacity:1;stroke-width:2.47003;stroke-linecap:round;stroke-linejoin:round;paint-order:fill markers stroke"
         d="m 85.821128,304.7963 c 0.33284,0.007 0.653217,0.18348 0.832507,0.49402 l 1.218014,2.10944 -1.708423,0.9865 -1.218014,-2.10943 c -0.273204,-0.47321 -0.111986,-1.07452 0.361219,-1.34772 0.162664,-0.0939 0.340352,-0.13656 0.514697,-0.13281 z" />
      <path
         id="rect18905"
         style="fill:#272736;fill-opacity:1;stroke-width:1.5875;stroke-linecap:round;stroke-linejoin:round;paint-order:fill markers stroke"
         d="m 82.178111,308.4953 c -0.54641,0 -0.986503,0.44009 -0.986503,0.9865 v 2.39934 h 1.972489 v -2.39934 c 0,-0.54641 -0.439577,-0.9865 -0.985986,-0.9865 z" />
      <rect
         style="fill:#ffb570;fill-opacity:1;stroke:none;stroke-width:0.400568;stroke-linecap:square;stroke-linejoin:bevel;stroke-miterlimit:4;stroke-dasharray:none;stroke-dashoffset:0;stroke-opacity:0.978723;paint-order:normal"
         id="rect1187-2"
         width="6.4272337"
         height="7.8398128"
         x="80.228806"
         y="303.03265"
         ry="2.9311028" />
      <circle
         r="3.540561"
         cy="297.72183"
         cx="80.120834"
         id="circle1189-6"
         style="fill:#c2c2d1;fill-opacity:1;stroke:none;stroke-width:0.400569;stroke-linecap:square;stroke-linejoin:bevel;stroke-miterlimit:4;stroke-dasharray:none;stroke-dashoffset:0;stroke-opacity:0.978723;paint-order:normal" />
      <circle
         style="fill:#a191a1;fill-opacity:1;stroke:none;stroke-width:0.400569;stroke-linecap:square;stroke-linejoin:bevel;stroke-miterlimit:4;stroke-dasharray:none;stroke-dashoffset:0;stroke-opacity:0.978723;paint-order:normal"
         id="circle1191-0"
         cx="80.120834"
         cy="297.72183"
         r="2.3315887" />
      <circle
         style="fill:#c2c2d1;fill-opacity:1;stroke:none;stroke-width:0.400569;stroke-linecap:square;stroke-linejoin:bevel;stroke-miterlimit:4;stroke-dasharray:none;stroke-dashoffset:0;stroke-opacity:0.978723;paint-order:normal"
         id="circle1195-8"
         cx="86.106483"
         cy="297.72183"
         r="3.540561" />
      <circle
         r="2.3315887"
         cy="297.72183"
         cx="86.106483"
         id="circle1197-3"
         style="fill:#a191a1;fill-opacity:1;stroke:none;stroke-width:0.400569;stroke-linecap:square;stroke-linejoin:bevel;stroke-miterlimit:4;stroke-dasharray:none;stroke-dashoffset:0;stroke-opacity:0.978723;paint-order:normal" />
      <rect
         style="fill:#272736;fill-opacity:1;stroke-width:1.59939;stroke-linecap:round;stroke-linejoin:round;paint-order:fill markers stroke"
         id="rect28185"
         width="6.427897"
         height="0.84919149"
         x="80.29821"
         y="308.08206"
         ry="0.30668175" />
      <rect
         ry="0.98629898"
         y="223.24716"
         x="222.1969"
         height="4.9062042"
         width="1.9725975"
         id="rect1203-0"
         style="fill:#c2c2d1;fill-opacity:1;stroke:none;stroke-width:0.400568;stroke-linecap:square;stroke-linejoin:bevel;stroke-miterlimit:4;stroke-dasharray:none;stroke-dashoffset:0;stroke-opacity:0.978723;paint-order:normal"
         transform="rotate(29.999998)" />
      <rect
         style="fill:#c2c2d1;fill-opacity:1;stroke:none;stroke-width:0.400568;stroke-linecap:square;stroke-linejoin:bevel;stroke-miterlimit:4;stroke-dasharray:none;stroke-dashoffset:0;stroke-opacity:0.978723;paint-order:normal"
         id="rect1205-8"
         width="8.9019804"
         height="8.9019804"
         x="79.168457"
         y="296.40677"
         ry="3.6417198" />
      <circle
         style="fill:#3e2347;fill-opacity:1;stroke:none;stroke-width:0.400568;stroke-linecap:square;stroke-linejoin:bevel;stroke-miterlimit:4;stroke-dasharray:none;stroke-dashoffset:0;stroke-opacity:0.978723;paint-order:normal"
         id="circle1207-0"
         cx="82.416214"
         cy="301.62927"
         r="0.64377093" />
      <circle
         r="0.64377093"
         cy="301.62927"
         cx="86.851089"
         id="circle1209-2"
         style="fill:#3e2347;fill-opacity:1;stroke:none;stroke-width:0.400568;stroke-linecap:square;stroke-linejoin:bevel;stroke-miterlimit:4;stroke-dasharray:none;stroke-dashoffset:0;stroke-opacity:0.978723;paint-order:normal" />
      <path
         sodipodi:type="star"
         style="opacity:1;fill:#3e2347;fill-opacity:1;stroke:none;stroke-width:2.36253;stroke-linecap:square;stroke-linejoin:bevel;stroke-miterlimit:4;stroke-dasharray:none;stroke-dashoffset:0;stroke-opacity:0.978723;paint-order:normal"
         id="path1211-6"
         sodipodi:sides="3"
         sodipodi:cx="-45.408615"
         sodipodi:cy="234.57965"
         sodipodi:r1="2.997191"
         sodipodi:r2="1.4985955"
         sodipodi:arg1="1.5707963"
         sodipodi:arg2="2.6179939"
         inkscape:flatsided="true"
         inkscape:rounded="0.18"
         inkscape:randomized="0"
         inkscape:transform-center-x="-6.3665075e-06"
         inkscape:transform-center-y="1.0312406"
         transform="matrix(0.16955045,0,0,0.16955045,92.904944,263.21527)"
         d="m -45.408615,237.57684 c -0.934432,0 -3.062859,-3.68654 -2.595644,-4.49578 0.467216,-0.80925 4.724071,-0.80925 5.191287,0 0.467216,0.80924 -1.661211,4.49578 -2.595643,4.49578 z" />
      <path
         style="color:#000000;fill:#000000;fill-opacity:0;stroke-width:0.12249;stroke-linecap:round;stroke-linejoin:round;-inkscape-stroke:none;paint-order:fill markers stroke"
         d="m 78.313085,300.98011 h 0.0025 v 1.48941 h -0.0025 z"
         id="path114035" />
      <path
         style="color:#000000;fill:#000000;fill-opacity:0;stroke-width:0.281781;stroke-linecap:round;stroke-linejoin:round;-inkscape-stroke:none;paint-order:fill markers stroke"
         d="m 78.786086,300.8435 a 0.44506553,0.44506553 0 0 1 -0.441395,0.18784 0.44506553,0.44506553 0 0 1 -0.355555,-0.32202 0.44506553,0.44506553 0 0 1 0.143335,-0.45779"
         id="path114041" />
      <path
         style="color:#000000;fill:#000000;fill-opacity:0;stroke-width:0.12249;stroke-linecap:round;stroke-linejoin:round;-inkscape-stroke:none;paint-order:fill markers stroke"
         d="m 88.870791,300.54667 h -0.0025 v 1.48941 h 0.0025 z"
         id="path114029" />
      <path
         style="color:#000000;fill:#000000;fill-opacity:0;stroke-width:0.281781;stroke-linecap:round;stroke-linejoin:round;-inkscape-stroke:none;paint-order:fill markers stroke"
         d="m 88.39779,300.41005 a 0.44506553,0.44506553 0 0 0 0.441395,0.18785 0.44506553,0.44506553 0 0 0 0.355555,-0.32202 0.44506553,0.44506553 0 0 0 -0.143336,-0.45779"
         id="path114023" />
      <ellipse
         style="fill:#b0305c;fill-opacity:1;stroke-width:0.399699;stroke-linecap:round;stroke-linejoin:round;paint-order:fill markers stroke"
         id="path9411"
         cx="-75.383087"
         cy="293.65305"
         rx="0.50728154"
         ry="2.4812257"
         transform="rotate(-30)" />
      <path
         id="path9041"
         style="fill:#eb564b;stroke-width:1.0029;stroke-linecap:round;stroke-linejoin:round;paint-order:fill markers stroke"
         inkscape:transform-center-y="-0.75966171"
         d="m 87.068239,296.84621 c -0.432482,0.74908 -6.398072,0.7432 -6.830555,-0.006 -0.432483,-0.74908 0.812902,-4.56784 1.677868,-4.56784 0.864965,0 5.58517,3.82464 5.152687,4.57372 z"
         sodipodi:nodetypes="ssss" />
      <rect
         style="fill:#d24c43;fill-opacity:1;stroke-width:1.37848;stroke-linecap:round;stroke-linejoin:round;paint-order:fill markers stroke"
         id="rect968"
         width="7.8995399"
         height="1.4974848"
         x="79.730431"
         y="296.47025"
         ry="0.7487424" />
      <path
         id="rect13551"
         style="fill:#d24c43;fill-opacity:1;stroke-width:0.682966;stroke-linecap:round;stroke-linejoin:round;paint-order:fill markers stroke"
         d="m 80.308292,304.29044 c -0.145754,-0.0395 -0.30009,0.0545 -0.347082,0.21461 l -0.286184,0.97499 -0.288531,0.98299 c -0.0856,0.29164 0.108912,0.60457 0.439292,0.68667 0.330379,0.0821 0.648148,-0.10325 0.709659,-0.40065 l 0.07938,-0.38377 c 0.06151,-0.29741 0.352566,-0.48554 0.655151,-0.43553 0.302584,0.05 0.51773,0.32184 0.480182,0.62315 l -0.04845,0.38881 c -0.03755,0.30131 0.203187,0.57884 0.541147,0.60751 0.337961,0.0287 0.621924,-0.20435 0.63564,-0.50772 l 0.02086,-0.46137 c 0.04784,-0.26849 0.287687,-0.46524 0.570488,-0.46343 0.306765,0.002 0.561764,0.23703 0.571656,0.54061 l 0.01276,0.39174 c 0.0099,0.30358 0.290563,0.54033 0.62861,0.5162 0.338048,-0.0241 0.582426,-0.29842 0.548959,-0.60036 l -0.04319,-0.38964 c -0.03347,-0.30194 0.185251,-0.57096 0.488712,-0.61662 0.303463,-0.0457 0.591942,0.14705 0.648853,0.4455 l 0.07344,0.38514 c 0.05691,0.29846 0.371148,0.48881 0.701789,0.41229 0.330641,-0.0765 0.529734,-0.38577 0.449508,-0.67889 l -0.270405,-0.98797 -0.12078,-0.4413 -0.147425,-0.53864 c -0.04404,-0.16091 -0.197203,-0.25772 -0.344321,-0.22081 -2.079146,0.5216 -4.299834,0.51416 -6.359716,-0.0435 z"
         sodipodi:nodetypes="sscssssssssscsssssssssssccsss" />
      <path
         id="rect17637"
         style="fill:#ffb570;fill-opacity:1;stroke-width:2.47003;stroke-linecap:round;stroke-linejoin:round;paint-order:fill markers stroke"
         d="m 81.144065,304.7963 c -0.332839,0.007 -0.653216,0.18348 -0.832507,0.49402 l -1.218013,2.10944 1.708422,0.9865 1.218014,-2.10943 c 0.273205,-0.47321 0.111986,-1.07452 -0.361218,-1.34772 -0.162664,-0.0939 -0.340353,-0.13656 -0.514698,-0.13281 z" />
      <path
         id="rect25461"
         style="fill:#ffb570;fill-opacity:1;stroke-width:1.15087;stroke-linecap:round;stroke-linejoin:round;paint-order:fill markers stroke"
         d="m 81.191608,311.42412 v 0.5459 h 1.972489 v -0.5459 z" />
      <path
         id="path26716"
         style="fill:#d28e4f;fill-opacity:1;stroke-width:1.15087;stroke-linecap:round;stroke-linejoin:round;paint-order:fill markers stroke"
         d="m 84.226565,311.42412 v 0.5459 h 1.972489 v -0.5459 z" />
      <path
         id="path29968"
         style="fill:#ffb570;fill-opacity:1;stroke-width:0.59774;stroke-linecap:round;stroke-linejoin:round;paint-order:fill markers stroke"
         d="m 80.702526,308.96272 c -0.127566,-0.0346 -0.262642,0.0477 -0.303771,0.18783 l -0.25047,0.85331 -0.252526,0.86033 c -0.07491,0.25524 0.09533,0.52912 0.384473,0.60098 0.289151,0.0719 0.567266,-0.0904 0.621102,-0.35065 l 0.06947,-0.33588 c 0.05384,-0.2603 0.30857,-0.42494 0.573395,-0.38117 0.264825,0.0437 0.453124,0.28167 0.420261,0.54538 l -0.0424,0.34028 c -0.03286,0.26372 0.177832,0.50661 0.473617,0.53171 0.295788,0.0251 0.544315,-0.17885 0.55632,-0.44436 l 0.01826,-0.40379 c 0.04187,-0.23499 0.251786,-0.40719 0.499297,-0.4056 0.268484,0.002 0.491661,0.20745 0.500319,0.47314 l 0.0112,0.34286 c 0.0087,0.26569 0.254305,0.4729 0.550166,0.45177 0.295864,-0.0211 0.509746,-0.26118 0.480455,-0.52544 l -0.0378,-0.34101 c -0.02929,-0.26426 0.162134,-0.49971 0.427726,-0.53967 0.265593,-0.04 0.518073,0.1287 0.567883,0.38991 l 0.06427,0.33707 c 0.04981,0.26122 0.324833,0.42781 0.614213,0.36085 0.289381,-0.067 0.463629,-0.33763 0.393415,-0.59419 l -0.236661,-0.86467 -0.105709,-0.38623 -0.129028,-0.47143 c -0.03854,-0.14083 -0.172594,-0.22555 -0.301354,-0.19326 -1.81969,0.45652 -3.763259,0.45001 -5.56609,-0.038 z"
         sodipodi:nodetypes="sscssssssssscsssssssssssccsss" />
    </g>
  </g>
</svg>
