<?xml version="1.0" encoding="UTF-8" standalone="no"?>
<!-- Created with Inkscape (http://www.inkscape.org/) -->

<svg
   width="128"
   height="128"
   viewBox="0 0 33.866665 33.866667"
   version="1.1"
   id="svg1307"
   inkscape:version="1.1.2 (0a00cf5339, 2022-02-04)"
   sodipodi:docname="sailor-venus.svg"
   inkscape:export-filename="/home/henrique/Pictures/Moon Cheeser database/Sailor Venus.png"
   inkscape:export-xdpi="96.000008"
   inkscape:export-ydpi="96.000008"
   xmlns:inkscape="http://www.inkscape.org/namespaces/inkscape"
   xmlns:sodipodi="http://sodipodi.sourceforge.net/DTD/sodipodi-0.dtd"
   xmlns="http://www.w3.org/2000/svg"
   xmlns:svg="http://www.w3.org/2000/svg"
   xmlns:rdf="http://www.w3.org/1999/02/22-rdf-syntax-ns#"
   xmlns:cc="http://creativecommons.org/ns#"
   xmlns:dc="http://purl.org/dc/elements/1.1/">
  <defs
     id="defs1301">
    <inkscape:path-effect
       effect="powerstroke"
       id="path-effect126865"
       is_visible="true"
       lpeversion="1"
       offset_points="0.36607912,0.65819441 | 0.7369579,1.5394423 | 0.91447105,0.73804339"
       not_jump="false"
       sort_points="true"
       interpolator_type="CentripetalCatmullRom"
       interpolator_beta="0.2"
       start_linecap_type="zerowidth"
       linejoin_type="round"
       miter_limit="4"
       scale_width="1"
       end_linecap_type="zerowidth" />
    <inkscape:path-effect
       effect="skeletal"
       id="path-effect114945"
       is_visible="true"
       lpeversion="1"
       pattern="M 0,4.9921381 C 0,2.2364779 2.2364779,0 4.9921381,0 c 2.7556603,0 4.9921381,2.2364779 4.9921381,4.9921381 0,2.7556603 -2.2364778,4.9921381 -4.9921381,4.9921381 C 2.2364779,9.9842762 0,7.7477984 0,4.9921381 Z"
       copytype="single_stretched"
       prop_scale="1"
       scale_y_rel="false"
       spacing="0"
       normal_offset="0"
       tang_offset="0"
       prop_units="false"
       vertical_pattern="false"
       hide_knot="false"
       fuse_tolerance="0" />
    <inkscape:path-effect
       effect="skeletal"
       id="path-effect95947"
       is_visible="true"
       lpeversion="1"
       pattern="M 0,4.9921381 C 0,2.2364779 2.2364779,0 4.9921381,0 c 2.7556603,0 4.9921381,2.2364779 4.9921381,4.9921381 0,2.7556603 -2.2364778,4.9921381 -4.9921381,4.9921381 C 2.2364779,9.9842762 0,7.7477984 0,4.9921381 Z"
       copytype="single_stretched"
       prop_scale="1"
       scale_y_rel="false"
       spacing="0"
       normal_offset="0"
       tang_offset="0"
       prop_units="false"
       vertical_pattern="false"
       hide_knot="false"
       fuse_tolerance="0" />
    <inkscape:path-effect
       effect="skeletal"
       id="path-effect91934"
       is_visible="true"
       lpeversion="1"
       pattern="M 0,4.9921381 C 0,2.2364779 2.2364779,0 4.9921381,0 c 2.7556603,0 4.9921381,2.2364779 4.9921381,4.9921381 0,2.7556603 -2.2364778,4.9921381 -4.9921381,4.9921381 C 2.2364779,9.9842762 0,7.7477984 0,4.9921381 Z"
       copytype="single_stretched"
       prop_scale="1"
       scale_y_rel="false"
       spacing="0"
       normal_offset="0"
       tang_offset="0"
       prop_units="false"
       vertical_pattern="false"
       hide_knot="false"
       fuse_tolerance="0" />
    <inkscape:path-effect
       effect="skeletal"
       id="path-effect91930"
       is_visible="true"
       lpeversion="1"
       pattern="M 0,4.9921381 C 0,2.2364779 2.2364779,0 4.9921381,0 c 2.7556603,0 4.9921381,2.2364779 4.9921381,4.9921381 0,2.7556603 -2.2364778,4.9921381 -4.9921381,4.9921381 C 2.2364779,9.9842762 0,7.7477984 0,4.9921381 Z"
       copytype="single_stretched"
       prop_scale="1"
       scale_y_rel="false"
       spacing="0"
       normal_offset="0"
       tang_offset="0"
       prop_units="false"
       vertical_pattern="false"
       hide_knot="false"
       fuse_tolerance="0" />
    <inkscape:path-effect
       effect="skeletal"
       id="path-effect91926"
       is_visible="true"
       lpeversion="1"
       pattern="M 0,4.9921381 C 0,2.2364779 2.2364779,0 4.9921381,0 c 2.7556603,0 4.9921381,2.2364779 4.9921381,4.9921381 0,2.7556603 -2.2364778,4.9921381 -4.9921381,4.9921381 C 2.2364779,9.9842762 0,7.7477984 0,4.9921381 Z"
       copytype="single_stretched"
       prop_scale="1"
       scale_y_rel="false"
       spacing="0"
       normal_offset="0"
       tang_offset="0"
       prop_units="false"
       vertical_pattern="false"
       hide_knot="false"
       fuse_tolerance="0" />
  </defs>
  <sodipodi:namedview
     id="base"
     pagecolor="#282828"
     bordercolor="#666666"
     borderopacity="1.0"
     inkscape:pageopacity="0"
     inkscape:pageshadow="2"
     inkscape:zoom="3.959798"
     inkscape:cx="39.648487"
     inkscape:cy="54.16943"
     inkscape:document-units="mm"
     inkscape:current-layer="layer1"
     showgrid="true"
     inkscape:window-width="1920"
     inkscape:window-height="1022"
     inkscape:window-x="0"
     inkscape:window-y="30"
     inkscape:window-maximized="1"
     units="px"
     inkscape:snap-bbox="true"
     inkscape:bbox-nodes="true"
     inkscape:snap-page="true"
     inkscape:snap-nodes="true"
     inkscape:bbox-paths="false"
     inkscape:snap-global="false"
     inkscape:snap-bbox-midpoints="false"
     inkscape:snap-others="false"
     showguides="true"
     inkscape:guide-bbox="true"
     inkscape:snap-grids="false"
     inkscape:snap-to-guides="true"
     inkscape:pagecheckerboard="0"
     inkscape:object-paths="true"
     inkscape:snap-intersection-paths="true"
     inkscape:snap-smooth-nodes="true"
     inkscape:snap-midpoints="true">
    <inkscape:grid
       type="xygrid"
       id="grid883"
       empspacing="4" />
    <sodipodi:guide
       position="33.866665,50.800001"
       orientation="1,0"
       id="guide877"
       inkscape:locked="false" />
  </sodipodi:namedview>
  <metadata
     id="metadata1304">
    <rdf:RDF>
      <cc:Work
         rdf:about="">
        <dc:format>image/svg+xml</dc:format>
        <dc:type
           rdf:resource="http://purl.org/dc/dcmitype/StillImage" />
      </cc:Work>
    </rdf:RDF>
  </metadata>
  <g
     inkscape:label="Layer 1"
     inkscape:groupmode="layer"
     id="layer1"
     transform="translate(0,-263.13332)">
    <g
       id="g1043"
       transform="matrix(1.0785492,0,0,1.0785492,29.637769,0.83787037)">
      <g
         id="g145263"
         transform="matrix(1.3993935,0,0,1.3993935,34.727131,-122.51848)">
        <path
           sodipodi:type="star"
           style="opacity:1;fill:#473b78;fill-opacity:1;stroke:none;stroke-width:3;stroke-linecap:round;stroke-linejoin:round;stroke-miterlimit:4;stroke-dasharray:none;stroke-opacity:1;paint-order:fill markers stroke"
           id="path145251"
           inkscape:flatsided="true"
           sodipodi:sides="3"
           sodipodi:cx="-139.42923"
           sodipodi:cy="37.828072"
           sodipodi:r1="9.9775801"
           sodipodi:r2="4.98879"
           sodipodi:arg1="0.52359878"
           sodipodi:arg2="1.5707963"
           inkscape:rounded="0.12"
           inkscape:randomized="0"
           transform="matrix(0.1234267,0.07126044,-0.13229166,0.22913589,-11.360925,279.86881)"
           inkscape:transform-center-y="-0.23482526"
           inkscape:transform-center-x="0.18086549"
           d="m -130.78839,42.816862 c -1.0369,1.795964 -16.24478,1.795964 -17.28168,0 -1.0369,-1.795965 6.56704,-14.96637 8.64084,-14.96637 2.0738,0 9.67774,13.170405 8.64084,14.96637 z" />
        <path
           sodipodi:type="star"
           style="opacity:1;fill:#4b5bab;fill-opacity:1;stroke:none;stroke-width:3;stroke-linecap:round;stroke-linejoin:round;stroke-miterlimit:4;stroke-dasharray:none;stroke-opacity:1;paint-order:fill markers stroke"
           id="path145253"
           inkscape:flatsided="true"
           sodipodi:sides="3"
           sodipodi:cx="-139.42923"
           sodipodi:cy="37.828072"
           sodipodi:r1="9.9775801"
           sodipodi:r2="4.98879"
           sodipodi:arg1="0.52359878"
           sodipodi:arg2="1.5707963"
           inkscape:rounded="0.12"
           inkscape:randomized="0"
           transform="matrix(0.1376646,0.03688712,-0.0684792,0.25556787,-10.680004,274.51491)"
           inkscape:transform-center-y="-0.40489701"
           inkscape:transform-center-x="0.27170338"
           d="m -130.78839,42.816862 c -1.0369,1.795964 -16.24478,1.795964 -17.28168,0 -1.0369,-1.795965 6.56704,-14.96637 8.64084,-14.96637 2.0738,0 9.67774,13.170405 8.64084,14.96637 z" />
        <path
           sodipodi:type="star"
           style="opacity:1;fill:#473b78;fill-opacity:1;stroke:none;stroke-width:3;stroke-linecap:round;stroke-linejoin:round;stroke-miterlimit:4;stroke-dasharray:none;stroke-opacity:1;paint-order:fill markers stroke"
           id="path145255"
           inkscape:flatsided="true"
           sodipodi:sides="3"
           sodipodi:cx="-139.42923"
           sodipodi:cy="37.828072"
           sodipodi:r1="9.9775801"
           sodipodi:r2="4.98879"
           sodipodi:arg1="0.52359878"
           sodipodi:arg2="1.5707963"
           inkscape:rounded="0.12"
           inkscape:randomized="0"
           transform="matrix(0.14252088,0,0,0.26458333,-11.282594,269.13096)"
           inkscape:transform-center-y="-0.48178214"
           d="m -130.78839,42.816862 c -1.0369,1.795964 -16.24478,1.795964 -17.28168,0 -1.0369,-1.795965 6.56704,-14.96637 8.64084,-14.96637 2.0738,0 9.67774,13.170405 8.64084,14.96637 z" />
        <path
           sodipodi:type="star"
           style="opacity:1;fill:#473b78;fill-opacity:1;stroke:none;stroke-width:3;stroke-linecap:round;stroke-linejoin:round;stroke-miterlimit:4;stroke-dasharray:none;stroke-opacity:1;paint-order:fill markers stroke"
           id="path145257"
           inkscape:flatsided="true"
           sodipodi:sides="3"
           sodipodi:cx="-139.42923"
           sodipodi:cy="37.828072"
           sodipodi:r1="9.9775801"
           sodipodi:r2="4.98879"
           sodipodi:arg1="0.52359878"
           sodipodi:arg2="1.5707963"
           inkscape:rounded="0.12"
           inkscape:randomized="0"
           transform="matrix(-0.1234267,0.07126044,0.13229166,0.22913589,-50.185194,279.86881)"
           inkscape:transform-center-y="-0.23482526"
           inkscape:transform-center-x="-0.18086553"
           d="m -130.78839,42.816862 c -1.0369,1.795964 -16.24478,1.795964 -17.28168,0 -1.0369,-1.795965 6.56704,-14.96637 8.64084,-14.96637 2.0738,0 9.67774,13.170405 8.64084,14.96637 z" />
        <path
           sodipodi:type="star"
           style="opacity:1;fill:#4b5bab;fill-opacity:1;stroke:none;stroke-width:3;stroke-linecap:round;stroke-linejoin:round;stroke-miterlimit:4;stroke-dasharray:none;stroke-opacity:1;paint-order:fill markers stroke"
           id="path145259"
           inkscape:flatsided="true"
           sodipodi:sides="3"
           sodipodi:cx="-139.42923"
           sodipodi:cy="37.828072"
           sodipodi:r1="9.9775801"
           sodipodi:r2="4.98879"
           sodipodi:arg1="0.52359878"
           sodipodi:arg2="1.5707963"
           inkscape:rounded="0.12"
           inkscape:randomized="0"
           transform="matrix(-0.1376646,0.03688712,0.0684792,0.25556787,-50.866115,274.51491)"
           inkscape:transform-center-y="-0.40489701"
           inkscape:transform-center-x="-0.27170342"
           d="m -130.78839,42.816862 c -1.0369,1.795964 -16.24478,1.795964 -17.28168,0 -1.0369,-1.795965 6.56704,-14.96637 8.64084,-14.96637 2.0738,0 9.67774,13.170405 8.64084,14.96637 z" />
        <path
           sodipodi:type="star"
           style="opacity:1;fill:#473b78;fill-opacity:1;stroke:none;stroke-width:3;stroke-linecap:round;stroke-linejoin:round;stroke-miterlimit:4;stroke-dasharray:none;stroke-opacity:1;paint-order:fill markers stroke"
           id="path145261"
           inkscape:flatsided="true"
           sodipodi:sides="3"
           sodipodi:cx="-139.42923"
           sodipodi:cy="37.828072"
           sodipodi:r1="9.9775801"
           sodipodi:r2="4.98879"
           sodipodi:arg1="0.52359878"
           sodipodi:arg2="1.5707963"
           inkscape:rounded="0.12"
           inkscape:randomized="0"
           transform="matrix(-0.14252088,0,0,0.26458333,-50.263525,269.13096)"
           inkscape:transform-center-y="-0.48178214"
           d="m -130.78839,42.816862 c -1.0369,1.795964 -16.24478,1.795964 -17.28168,0 -1.0369,-1.795965 6.56704,-14.96637 8.64084,-14.96637 2.0738,0 9.67774,13.170405 8.64084,14.96637 z" />
      </g>
      <path
         sodipodi:type="star"
         style="opacity:1;fill:#ffffff;fill-opacity:1;stroke:none;stroke-width:3;stroke-linecap:round;stroke-linejoin:round;stroke-miterlimit:4;stroke-dasharray:none;stroke-opacity:1;paint-order:fill markers stroke"
         id="path145265-9"
         inkscape:flatsided="true"
         sodipodi:sides="3"
         sodipodi:cx="-133.79944"
         sodipodi:cy="38.300503"
         sodipodi:r1="9.1112185"
         sodipodi:r2="4.5556092"
         sodipodi:arg1="1.5707963"
         sodipodi:arg2="2.6179939"
         inkscape:rounded="0.12"
         inkscape:randomized="0"
         transform="matrix(0.54612919,0,0,0.33867479,64.698488,252.949)"
         inkscape:transform-center-y="0.56315466"
         d="m -133.79944,47.411721 c -1.89373,0 -8.83741,-12.026808 -7.89055,-13.666827 0.94687,-1.64002 14.83423,-1.64002 15.7811,-1e-6 0.94686,1.64002 -5.99682,13.666828 -7.89055,13.666828 z" />
      <rect
         ry="1.533479"
         y="266.71896"
         x="-8.0488825"
         height="7.6280732"
         width="3.0669572"
         id="rect1181-6"
         style="fill:#7e7e8f;fill-opacity:1;stroke:none;stroke-width:0.622796;stroke-linecap:square;stroke-linejoin:bevel;stroke-miterlimit:4;stroke-dasharray:none;stroke-dashoffset:0;stroke-opacity:0.978723;paint-order:normal" />
      <path
         id="rect79034"
         style="fill:#f09b4d;fill-opacity:1;stroke-width:1.23411;stroke-linecap:round;stroke-linejoin:round;paint-order:fill markers stroke"
         d="m -8.0486357,271.82336 v 0.43627 h 3.0667894 v -0.43627 z" />
      <rect
         style="fill:#c2c2d1;fill-opacity:1;stroke:none;stroke-width:0.622796;stroke-linecap:square;stroke-linejoin:bevel;stroke-miterlimit:4;stroke-dasharray:none;stroke-dashoffset:0;stroke-opacity:0.978723;paint-order:normal"
         id="rect140737-7"
         width="3.0669572"
         height="7.6280732"
         x="-12.767286"
         y="266.71896"
         ry="1.533479" />
      <path
         id="rect1213"
         style="fill:#ffb570;fill-opacity:1;stroke:none;stroke-width:0.622797;stroke-linecap:square;stroke-linejoin:bevel;stroke-miterlimit:4;stroke-dasharray:none;stroke-dashoffset:0;stroke-opacity:0.978723;paint-order:normal"
         d="m -9.7005398,272.37331 -1.3156102,0.8253 -1.751178,-0.69272 v 0.30733 c 0,0.84955 0.684248,1.53381 1.533796,1.53381 0.849546,0 1.5329922,-0.68426 1.5329922,-1.53381 z"
         sodipodi:nodetypes="cccsssc" />
      <path
         style="fill:none;stroke:#c2c2d1;stroke-width:0.622796;stroke-linecap:round;stroke-linejoin:miter;stroke-miterlimit:4;stroke-dasharray:none;stroke-opacity:1"
         d="m -10.673456,266.65503 c 0,0 -5.830367,0.0883 -8.014532,-6.08254 -2.184166,-6.17089 -3.818121,-7.39245 -5.070737,-7.03827"
         id="path1179-9"
         inkscape:connector-curvature="0"
         inkscape:transform-center-x="48.782997"
         inkscape:transform-center-y="-78.564232" />
      <rect
         transform="matrix(-0.86602542,0.49999997,0.49999997,0.86602542,0,0)"
         style="fill:#7e7e8f;fill-opacity:1;stroke:none;stroke-width:0.622796;stroke-linecap:square;stroke-linejoin:bevel;stroke-miterlimit:4;stroke-dasharray:none;stroke-dashoffset:0;stroke-opacity:0.978723;paint-order:normal"
         id="rect1183-0"
         width="3.0669572"
         height="7.6280732"
         x="134.61021"
         y="222.97592"
         ry="1.533479" />
      <rect
         style="fill:#ffffff;fill-opacity:1;stroke:none;stroke-width:0.622796;stroke-linecap:square;stroke-linejoin:bevel;stroke-miterlimit:4;stroke-dasharray:none;stroke-dashoffset:0;stroke-opacity:0.978723;paint-order:normal"
         id="rect1187-3"
         width="9.9929409"
         height="12.189192"
         x="-14.26427"
         y="258.22583"
         ry="4.5572228" />
      <circle
         r="5.504797"
         cy="249.96867"
         cx="-14.432143"
         id="circle1189-2"
         style="fill:#c2c2d1;fill-opacity:1;stroke:none;stroke-width:0.622797;stroke-linecap:square;stroke-linejoin:bevel;stroke-miterlimit:4;stroke-dasharray:none;stroke-dashoffset:0;stroke-opacity:0.978723;paint-order:normal" />
      <circle
         style="fill:#a191a1;fill-opacity:1;stroke:none;stroke-width:0.622797;stroke-linecap:square;stroke-linejoin:bevel;stroke-miterlimit:4;stroke-dasharray:none;stroke-dashoffset:0;stroke-opacity:0.978723;paint-order:normal"
         id="circle1191-8"
         cx="-14.432143"
         cy="249.96867"
         r="3.6251099" />
      <circle
         style="fill:#c2c2d1;fill-opacity:1;stroke:none;stroke-width:0.622797;stroke-linecap:square;stroke-linejoin:bevel;stroke-miterlimit:4;stroke-dasharray:none;stroke-dashoffset:0;stroke-opacity:0.978723;paint-order:normal"
         id="circle1195-9"
         cx="-5.1257753"
         cy="249.96867"
         r="5.504797" />
      <circle
         r="3.6251099"
         cy="249.96867"
         cx="-5.1257753"
         id="circle1197-4"
         style="fill:#a191a1;fill-opacity:1;stroke:none;stroke-width:0.622797;stroke-linecap:square;stroke-linejoin:bevel;stroke-miterlimit:4;stroke-dasharray:none;stroke-dashoffset:0;stroke-opacity:0.978723;paint-order:normal" />
      <rect
         ry="1.533479"
         y="232.20441"
         x="118.62603"
         height="7.6280732"
         width="3.0669572"
         id="rect1203-3"
         style="fill:#ffffff;fill-opacity:1;stroke:none;stroke-width:0.622796;stroke-linecap:square;stroke-linejoin:bevel;stroke-miterlimit:4;stroke-dasharray:none;stroke-dashoffset:0;stroke-opacity:0.978723;paint-order:normal"
         transform="rotate(29.999998)" />
      <rect
         style="fill:#c2c2d1;fill-opacity:1;stroke:none;stroke-width:0.622796;stroke-linecap:square;stroke-linejoin:bevel;stroke-miterlimit:4;stroke-dasharray:none;stroke-dashoffset:0;stroke-opacity:0.978723;paint-order:normal"
         id="rect1205-4"
         width="13.840631"
         height="13.840631"
         x="-15.91288"
         y="247.92403"
         ry="5.662077" />
      <circle
         style="fill:#3e2347;fill-opacity:1;stroke:none;stroke-width:0.622796;stroke-linecap:square;stroke-linejoin:bevel;stroke-miterlimit:4;stroke-dasharray:none;stroke-dashoffset:0;stroke-opacity:0.978723;paint-order:normal"
         id="circle1207-3"
         cx="-10.863338"
         cy="256.04388"
         r="1.0009228" />
      <circle
         r="1.0009228"
         cy="256.04388"
         cx="-3.9680743"
         id="circle1209-9"
         style="fill:#3e2347;fill-opacity:1;stroke:none;stroke-width:0.622796;stroke-linecap:square;stroke-linejoin:bevel;stroke-miterlimit:4;stroke-dasharray:none;stroke-dashoffset:0;stroke-opacity:0.978723;paint-order:normal" />
      <path
         sodipodi:type="star"
         style="opacity:1;fill:#3e2347;fill-opacity:1;stroke:none;stroke-width:2.36253;stroke-linecap:square;stroke-linejoin:bevel;stroke-miterlimit:4;stroke-dasharray:none;stroke-dashoffset:0;stroke-opacity:0.978723;paint-order:normal"
         id="path1211-9"
         sodipodi:sides="3"
         sodipodi:cx="-45.408615"
         sodipodi:cy="234.57965"
         sodipodi:r1="2.997191"
         sodipodi:r2="1.4985955"
         sodipodi:arg1="1.5707963"
         sodipodi:arg2="2.6179939"
         inkscape:flatsided="true"
         inkscape:rounded="0.18"
         inkscape:randomized="0"
         inkscape:transform-center-x="-1.0013098e-05"
         inkscape:transform-center-y="1.6033545"
         transform="matrix(0.26361382,0,0,0.26361382,5.4443449,196.31848)"
         d="m -45.408615,237.57684 c -0.934432,0 -3.062859,-3.68654 -2.595644,-4.49578 0.467216,-0.80925 4.724071,-0.80925 5.191287,0 0.467216,0.80924 -1.661211,4.49578 -2.595643,4.49578 z" />
      <path
         id="path60367"
         style="color:#000000;fill:#ffde5b;fill-opacity:1;stroke-width:1.55478;stroke-linecap:round;stroke-linejoin:round;-inkscape-stroke:none"
         d="m -13.384383,248.86462 c -0.401534,0.26633 -0.766779,0.58256 -1.087075,0.94004 l 8.1020443,2.69639 a 0.61711541,0.61711541 0 0 0 0.4555588,-0.0241 l 3.2130181,-1.49442 c -0.1926854,-0.37321 -0.4258424,-0.72183 -0.6933821,-1.04048 l -2.8177177,1.31124 z" />
      <ellipse
         style="fill:#ffb570;fill-opacity:1;stroke:none;stroke-width:1.23411;stroke-linecap:round;stroke-linejoin:round;stroke-miterlimit:4;stroke-dasharray:none;stroke-opacity:1;paint-order:fill markers stroke"
         id="path64249"
         cx="-6.0459356"
         cy="251.84842"
         rx="0.51891208"
         ry="0.73440385" />
      <path
         id="path67924"
         style="opacity:0.410695;fill:#ffffff;fill-opacity:1;stroke:none;stroke-width:1.23411;stroke-linecap:round;stroke-linejoin:round;stroke-miterlimit:4;stroke-dasharray:none;stroke-opacity:1;paint-order:fill markers stroke"
         d="m -6.0456214,251.11429 a 0.51891205,0.73440383 0 0 0 -0.5190322,0.73436 0.51891205,0.73440383 0 0 0 0.00243,0.0731 0.47925237,0.53102363 0 0 0 0.2852266,0.10448 0.47925237,0.53102363 0 0 0 0.4788591,-0.53108 0.47925237,0.53102363 0 0 0 -0.1277485,-0.36156 0.51891205,0.73440383 0 0 0 -0.1197151,-0.0193 z" />
      <path
         sodipodi:type="star"
         style="opacity:1;fill:#ffb570;fill-opacity:1;stroke:none;stroke-width:3;stroke-linecap:round;stroke-linejoin:round;stroke-miterlimit:4;stroke-dasharray:none;stroke-opacity:1;paint-order:fill markers stroke"
         id="path78068"
         inkscape:flatsided="true"
         sodipodi:sides="3"
         sodipodi:cx="-139.42923"
         sodipodi:cy="37.828072"
         sodipodi:r1="9.9775801"
         sodipodi:r2="4.98879"
         sodipodi:arg1="0.52359878"
         sodipodi:arg2="1.5707963"
         inkscape:rounded="0.12"
         inkscape:randomized="0"
         transform="matrix(0.17272252,0.0997214,-0.18512809,0.32065127,18.828725,269.12811)"
         inkscape:transform-center-y="-0.36510372"
         inkscape:transform-center-x="0.2812066"
         d="m -130.78839,42.816862 c -1.0369,1.795964 -16.24478,1.795964 -17.28168,0 -1.0369,-1.795965 6.56704,-14.96637 8.64084,-14.96637 2.0738,0 9.67774,13.170405 8.64084,14.96637 z" />
      <path
         sodipodi:type="star"
         style="opacity:1;fill:#f09b4d;fill-opacity:1;stroke:none;stroke-width:3;stroke-linecap:round;stroke-linejoin:round;stroke-miterlimit:4;stroke-dasharray:none;stroke-opacity:1;paint-order:fill markers stroke"
         id="path81859"
         inkscape:flatsided="true"
         sodipodi:sides="3"
         sodipodi:cx="-139.42923"
         sodipodi:cy="37.828072"
         sodipodi:r1="9.9775801"
         sodipodi:r2="4.98879"
         sodipodi:arg1="0.52359878"
         sodipodi:arg2="1.5707963"
         inkscape:rounded="0.12"
         inkscape:randomized="0"
         transform="matrix(0.19264695,0.0516196,-0.09582935,0.35764001,19.781602,261.6359)"
         inkscape:transform-center-y="-0.62952806"
         inkscape:transform-center-x="0.42244032"
         d="m -130.78839,42.816862 c -1.0369,1.795964 -16.24478,1.795964 -17.28168,0 -1.0369,-1.795965 6.56704,-14.96637 8.64084,-14.96637 2.0738,0 9.67774,13.170405 8.64084,14.96637 z" />
      <path
         sodipodi:type="star"
         style="opacity:1;fill:#ffb570;fill-opacity:1;stroke:none;stroke-width:3;stroke-linecap:round;stroke-linejoin:round;stroke-miterlimit:4;stroke-dasharray:none;stroke-opacity:1;paint-order:fill markers stroke"
         id="path81861"
         inkscape:flatsided="true"
         sodipodi:sides="3"
         sodipodi:cx="-139.42923"
         sodipodi:cy="37.828072"
         sodipodi:r1="9.9775801"
         sodipodi:r2="4.98879"
         sodipodi:arg1="0.52359878"
         sodipodi:arg2="1.5707963"
         inkscape:rounded="0.12"
         inkscape:randomized="0"
         transform="matrix(0.1994428,0,0,0.37025619,18.938342,254.10164)"
         inkscape:transform-center-y="-0.74906088"
         d="m -130.78839,42.816862 c -1.0369,1.795964 -16.24478,1.795964 -17.28168,0 -1.0369,-1.795965 6.56704,-14.96637 8.64084,-14.96637 2.0738,0 9.67774,13.170405 8.64084,14.96637 z" />
      <path
         sodipodi:type="star"
         style="opacity:1;fill:#ffb570;fill-opacity:1;stroke:none;stroke-width:3;stroke-linecap:round;stroke-linejoin:round;stroke-miterlimit:4;stroke-dasharray:none;stroke-opacity:1;paint-order:fill markers stroke"
         id="path81863"
         inkscape:flatsided="true"
         sodipodi:sides="3"
         sodipodi:cx="-139.42923"
         sodipodi:cy="37.828072"
         sodipodi:r1="9.9775801"
         sodipodi:r2="4.98879"
         sodipodi:arg1="0.52359878"
         sodipodi:arg2="1.5707963"
         inkscape:rounded="0.12"
         inkscape:randomized="0"
         transform="matrix(-0.17272252,0.0997214,0.18512809,0.32065127,-35.501703,269.12811)"
         inkscape:transform-center-y="-0.36510372"
         inkscape:transform-center-x="-0.28120614"
         d="m -130.78839,42.816862 c -1.0369,1.795964 -16.24478,1.795964 -17.28168,0 -1.0369,-1.795965 6.56704,-14.96637 8.64084,-14.96637 2.0738,0 9.67774,13.170405 8.64084,14.96637 z" />
      <path
         sodipodi:type="star"
         style="opacity:1;fill:#f09b4d;fill-opacity:1;stroke:none;stroke-width:3;stroke-linecap:round;stroke-linejoin:round;stroke-miterlimit:4;stroke-dasharray:none;stroke-opacity:1;paint-order:fill markers stroke"
         id="path81865"
         inkscape:flatsided="true"
         sodipodi:sides="3"
         sodipodi:cx="-139.42923"
         sodipodi:cy="37.828072"
         sodipodi:r1="9.9775801"
         sodipodi:r2="4.98879"
         sodipodi:arg1="0.52359878"
         sodipodi:arg2="1.5707963"
         inkscape:rounded="0.12"
         inkscape:randomized="0"
         transform="matrix(-0.19264695,0.0516196,0.09582935,0.35764001,-36.45458,261.6359)"
         inkscape:transform-center-y="-0.62952806"
         inkscape:transform-center-x="-0.42243987"
         d="m -130.78839,42.816862 c -1.0369,1.795964 -16.24478,1.795964 -17.28168,0 -1.0369,-1.795965 6.56704,-14.96637 8.64084,-14.96637 2.0738,0 9.67774,13.170405 8.64084,14.96637 z" />
      <path
         sodipodi:type="star"
         style="opacity:1;fill:#ffb570;fill-opacity:1;stroke:none;stroke-width:3;stroke-linecap:round;stroke-linejoin:round;stroke-miterlimit:4;stroke-dasharray:none;stroke-opacity:1;paint-order:fill markers stroke"
         id="path81867"
         inkscape:flatsided="true"
         sodipodi:sides="3"
         sodipodi:cx="-139.42923"
         sodipodi:cy="37.828072"
         sodipodi:r1="9.9775801"
         sodipodi:r2="4.98879"
         sodipodi:arg1="0.52359878"
         sodipodi:arg2="1.5707963"
         inkscape:rounded="0.12"
         inkscape:randomized="0"
         transform="matrix(-0.1994428,0,0,0.37025619,-35.61132,254.10164)"
         inkscape:transform-center-y="-0.74906088"
         d="m -130.78839,42.816862 c -1.0369,1.795964 -16.24478,1.795964 -17.28168,0 -1.0369,-1.795965 6.56704,-14.96637 8.64084,-14.96637 2.0738,0 9.67774,13.170405 8.64084,14.96637 z" />
      <path
         sodipodi:type="star"
         style="opacity:1;fill:#ffffff;fill-opacity:1;stroke:none;stroke-width:3;stroke-linecap:round;stroke-linejoin:round;stroke-miterlimit:4;stroke-dasharray:none;stroke-opacity:1;paint-order:fill markers stroke"
         id="path83383"
         inkscape:flatsided="true"
         sodipodi:sides="3"
         sodipodi:cx="-133.79944"
         sodipodi:cy="38.300503"
         sodipodi:r1="9.1112185"
         sodipodi:r2="4.5556092"
         sodipodi:arg1="1.5707963"
         sodipodi:arg2="2.6179939"
         inkscape:rounded="0.12"
         inkscape:randomized="0"
         transform="matrix(0.54612919,0,0,0.33867479,64.698488,252.949)"
         inkscape:transform-center-y="0.56315466"
         d="m -133.79944,47.411721 c -1.89373,0 -8.83741,-12.026808 -7.89055,-13.666827 0.94687,-1.64002 14.83423,-1.64002 15.7811,-1e-6 0.94686,1.64002 -5.99682,13.666828 -7.89055,13.666828 z" />
      <g
         id="g107054"
         transform="matrix(1.554781,0,0,1.554781,9.5606954,-187.42293)">
        <path
           sodipodi:type="star"
           style="opacity:1;fill:#4b5bab;fill-opacity:1;stroke:none;stroke-width:3;stroke-linecap:round;stroke-linejoin:round;stroke-miterlimit:4;stroke-dasharray:none;stroke-opacity:1;paint-order:fill markers stroke"
           id="path78037"
           inkscape:flatsided="true"
           sodipodi:sides="3"
           sodipodi:cx="-113.48855"
           sodipodi:cy="20.385611"
           sodipodi:r1="17.416616"
           sodipodi:r2="8.7083082"
           sodipodi:arg1="0"
           sodipodi:arg2="1.0471976"
           inkscape:rounded="0.12"
           inkscape:randomized="0"
           transform="matrix(-0.14175319,0,0,0.12776794,-25.479852,287.0302)"
           inkscape:transform-center-x="0.6384273"
           inkscape:transform-center-y="5.7219478e-06"
           d="m -96.071932,20.385611 c 0,3.619975 -22.989938,16.89322 -26.124928,15.083232 -3.13499,-1.809988 -3.13499,-28.3564768 0,-30.1664647 3.13499,-1.8099879 26.124928,11.4632567 26.124928,15.0832327 z" />
        <path
           sodipodi:type="star"
           style="opacity:1;fill:#4b5bab;fill-opacity:1;stroke:none;stroke-width:3;stroke-linecap:round;stroke-linejoin:round;stroke-miterlimit:4;stroke-dasharray:none;stroke-opacity:1;paint-order:fill markers stroke"
           id="path68628"
           inkscape:flatsided="true"
           sodipodi:sides="3"
           sodipodi:cx="-113.48855"
           sodipodi:cy="20.385611"
           sodipodi:r1="17.416616"
           sodipodi:r2="8.7083082"
           sodipodi:arg1="0"
           sodipodi:arg2="1.0471976"
           inkscape:rounded="0.12"
           inkscape:randomized="0"
           transform="matrix(0.14175319,0,0,0.12776794,2.4577232,287.0302)"
           inkscape:transform-center-x="-0.63842742"
           inkscape:transform-center-y="5.7219478e-06"
           d="m -96.071932,20.385611 c 0,3.619975 -22.989938,16.89322 -26.124928,15.083232 -3.13499,-1.809988 -3.13499,-28.3564768 0,-30.1664647 3.13499,-1.8099879 26.124928,11.4632567 26.124928,15.0832327 z" />
      </g>
      <path
         style="color:#000000;fill:#000000;fill-opacity:0;stroke-width:0.438108;stroke-linecap:round;stroke-linejoin:round;-inkscape-stroke:none;paint-order:fill markers stroke"
         d="m -16.507388,254.82214 a 0.69197944,0.69197944 0 0 1 -0.686272,0.29205 0.69197944,0.69197944 0 0 1 -0.55281,-0.50067 0.69197944,0.69197944 0 0 1 0.222854,-0.71177"
         id="path114041" />
      <path
         style="color:#000000;fill:#ffde5b;fill-opacity:1;stroke-width:1.22103;stroke-linecap:round;stroke-linejoin:round;-inkscape-stroke:none;paint-order:fill markers stroke"
         d="m -17.858908,254.09798 c -0.213427,0.17921 -0.304494,0.46807 -0.231329,0.73691 0.07317,0.26886 0.297599,0.47127 0.57236,0.5175 0.274762,0.0463 0.551131,-0.0728 0.708296,-0.30287 a 0.1720322,0.1720322 0 0 0 -0.04531,-0.23848 0.1720322,0.1720322 0 0 0 -0.238481,0.0454 c -0.08194,0.11988 -0.22401,0.17921 -0.367267,0.15486 -0.143258,-0.0241 -0.259955,-0.12687 -0.298102,-0.26709 -0.03815,-0.14025 0.0079,-0.29056 0.119236,-0.38396 a 0.1720322,0.1720322 0 0 0 0.02146,-0.24086 0.1720322,0.1720322 0 0 0 -0.240868,-0.0215 z"
         id="path114044" />
      <path
         style="color:#000000;fill:#000000;fill-opacity:0;stroke-width:0.190445;stroke-linecap:round;stroke-linejoin:round;-inkscape-stroke:none;paint-order:fill markers stroke"
         d="m -3.7236111,255.03453 h -0.00389 v 2.31571 h 0.00389 z"
         id="path75868" />
      <path
         style="color:#000000;fill:#000000;fill-opacity:0;stroke-width:0.438108;stroke-linecap:round;stroke-linejoin:round;-inkscape-stroke:none;paint-order:fill markers stroke"
         d="m -4.4590241,254.82214 a 0.69197944,0.69197944 0 0 0 0.6862726,0.29205 0.69197944,0.69197944 0 0 0 0.5528101,-0.50067 0.69197944,0.69197944 0 0 0 -0.2228545,-0.71177"
         id="path75870" />
      <path
         style="color:#000000;fill:#ffde5b;fill-opacity:1;stroke-width:1.22103;stroke-linecap:round;stroke-linejoin:round;-inkscape-stroke:none;paint-order:fill markers stroke"
         d="m -0.43876974,253.01568 c 0.21342681,0.17921 0.30449422,0.46807 0.23132918,0.73691 -0.0731727,0.26887 -0.29759861,0.47125 -0.57236014,0.51751 -0.2747617,0.0463 -0.5511304,-0.0728 -0.708296,-0.30289 a 0.1720322,0.1720322 0 0 1 0.045308,-0.23847 0.1720322,0.1720322 0 0 1 0.2384814,0.0454 c 0.081945,0.11987 0.22400986,0.1792 0.36726707,0.15485 0.14326375,-0.0241 0.25995597,-0.12687 0.29810174,-0.26709 0.0381481,-0.14024 -0.00796,-0.29056 -0.11923615,-0.38396 a 0.1720322,0.1720322 0 0 1 -0.0214606,-0.24086 0.1720322,0.1720322 0 0 1 0.24086823,-0.0215 z"
         id="path75872" />
      <path
         id="path75808"
         style="fill:#f09b4d;fill-opacity:1;stroke:none;stroke-width:0.622797;stroke-linecap:square;stroke-linejoin:bevel;stroke-miterlimit:4;stroke-dasharray:none;stroke-dashoffset:0;stroke-opacity:0.978723;paint-order:normal"
         d="m -4.9820095,272.37331 -1.3156106,0.8253 -1.7511779,-0.69272 v 0.30733 c 0,0.84955 0.6842483,1.53381 1.5337962,1.53381 0.8495463,0 1.5329923,-0.68426 1.5329923,-1.53381 z"
         sodipodi:nodetypes="cccsssc" />
      <path
         id="path80681"
         style="fill:#ffb570;fill-opacity:1;stroke-width:1.23411;stroke-linecap:round;stroke-linejoin:round;paint-order:fill markers stroke"
         d="m -12.767202,271.82336 v 0.43627 h 3.0667881 v -0.43627 z" />
      <g
         id="g107050"
         transform="matrix(1.3529874,0,0,1.3529874,23.354693,-127.17256)">
        <path
           id="rect105160"
           style="fill:#ffde5b;fill-opacity:1;stroke-width:2.20066;stroke-linecap:round;stroke-linejoin:round;paint-order:fill markers stroke"
           d="m -90.882812,90.876953 c -0.649804,0 -1.298962,0.250134 -1.796876,0.748047 -0.995826,0.995827 -0.995826,2.597923 0,3.59375 l 2.353516,2.353516 c 0.02009,0.02009 0.03997,0.04127 0.06055,0.06055 l 1.738281,1.738282 1.736328,-1.738282 c 0.02057,-0.01928 0.04046,-0.04046 0.06055,-0.06055 0.01556,-0.01556 0.02985,-0.03102 0.04492,-0.04687 l 2.308594,-2.306641 c 0.995827,-0.995827 0.995827,-2.597923 0,-3.59375 -0.995827,-0.995827 -2.599876,-0.995827 -3.595703,0 l -0.554688,0.554688 -0.55664,-0.554688 c -0.497914,-0.497913 -1.149025,-0.748047 -1.798828,-0.748047 z"
           transform="matrix(0.26458333,0,0,0.26458333,0,263.13332)" />
        <circle
           style="opacity:0.229675;fill:#ffffff;fill-opacity:1;stroke:none;stroke-width:0.177393;stroke-linecap:round;stroke-linejoin:round;stroke-miterlimit:4;stroke-dasharray:none;stroke-opacity:1;paint-order:fill markers stroke"
           id="circle77073"
           cx="-24.103989"
           cy="287.55884"
           r="0.2949442" />
        <circle
           style="opacity:0.229675;fill:#ffffff;fill-opacity:1;stroke:none;stroke-width:0.105541;stroke-linecap:round;stroke-linejoin:round;stroke-miterlimit:4;stroke-dasharray:none;stroke-opacity:1;paint-order:fill markers stroke"
           id="circle106965"
           cx="-23.835865"
           cy="288.21478"
           r="0.17547849" />
      </g>
    </g>
  </g>
</svg>
