<?xml version="1.0" encoding="UTF-8" standalone="no"?>
<!-- Created with Inkscape (http://www.inkscape.org/) -->

<svg
   width="128"
   height="128"
   viewBox="0 0 33.866665 33.866667"
   version="1.1"
   id="svg1307"
   inkscape:version="1.1.2 (0a00cf5339, 2022-02-04)"
   sodipodi:docname="sailor-pluto.svg"
   inkscape:export-filename="/home/henrique/Pictures/Moon Cheeser database/Sailor Pluto.png"
   inkscape:export-xdpi="96.000008"
   inkscape:export-ydpi="96.000008"
   xmlns:inkscape="http://www.inkscape.org/namespaces/inkscape"
   xmlns:sodipodi="http://sodipodi.sourceforge.net/DTD/sodipodi-0.dtd"
   xmlns="http://www.w3.org/2000/svg"
   xmlns:svg="http://www.w3.org/2000/svg"
   xmlns:rdf="http://www.w3.org/1999/02/22-rdf-syntax-ns#"
   xmlns:cc="http://creativecommons.org/ns#"
   xmlns:dc="http://purl.org/dc/elements/1.1/">
  <defs
     id="defs1301">
    <inkscape:path-effect
       effect="powerstroke"
       id="path-effect126865"
       is_visible="true"
       lpeversion="1"
       offset_points="0.36607912,0.65819441 | 0.7369579,1.5394423 | 0.91447105,0.73804339"
       not_jump="false"
       sort_points="true"
       interpolator_type="CentripetalCatmullRom"
       interpolator_beta="0.2"
       start_linecap_type="zerowidth"
       linejoin_type="round"
       miter_limit="4"
       scale_width="1"
       end_linecap_type="zerowidth" />
    <inkscape:path-effect
       effect="skeletal"
       id="path-effect114945"
       is_visible="true"
       lpeversion="1"
       pattern="M 0,4.9921381 C 0,2.2364779 2.2364779,0 4.9921381,0 c 2.7556603,0 4.9921381,2.2364779 4.9921381,4.9921381 0,2.7556603 -2.2364778,4.9921381 -4.9921381,4.9921381 C 2.2364779,9.9842762 0,7.7477984 0,4.9921381 Z"
       copytype="single_stretched"
       prop_scale="1"
       scale_y_rel="false"
       spacing="0"
       normal_offset="0"
       tang_offset="0"
       prop_units="false"
       vertical_pattern="false"
       hide_knot="false"
       fuse_tolerance="0" />
    <inkscape:path-effect
       effect="skeletal"
       id="path-effect95947"
       is_visible="true"
       lpeversion="1"
       pattern="M 0,4.9921381 C 0,2.2364779 2.2364779,0 4.9921381,0 c 2.7556603,0 4.9921381,2.2364779 4.9921381,4.9921381 0,2.7556603 -2.2364778,4.9921381 -4.9921381,4.9921381 C 2.2364779,9.9842762 0,7.7477984 0,4.9921381 Z"
       copytype="single_stretched"
       prop_scale="1"
       scale_y_rel="false"
       spacing="0"
       normal_offset="0"
       tang_offset="0"
       prop_units="false"
       vertical_pattern="false"
       hide_knot="false"
       fuse_tolerance="0" />
    <inkscape:path-effect
       effect="skeletal"
       id="path-effect91934"
       is_visible="true"
       lpeversion="1"
       pattern="M 0,4.9921381 C 0,2.2364779 2.2364779,0 4.9921381,0 c 2.7556603,0 4.9921381,2.2364779 4.9921381,4.9921381 0,2.7556603 -2.2364778,4.9921381 -4.9921381,4.9921381 C 2.2364779,9.9842762 0,7.7477984 0,4.9921381 Z"
       copytype="single_stretched"
       prop_scale="1"
       scale_y_rel="false"
       spacing="0"
       normal_offset="0"
       tang_offset="0"
       prop_units="false"
       vertical_pattern="false"
       hide_knot="false"
       fuse_tolerance="0" />
    <inkscape:path-effect
       effect="skeletal"
       id="path-effect91930"
       is_visible="true"
       lpeversion="1"
       pattern="M 0,4.9921381 C 0,2.2364779 2.2364779,0 4.9921381,0 c 2.7556603,0 4.9921381,2.2364779 4.9921381,4.9921381 0,2.7556603 -2.2364778,4.9921381 -4.9921381,4.9921381 C 2.2364779,9.9842762 0,7.7477984 0,4.9921381 Z"
       copytype="single_stretched"
       prop_scale="1"
       scale_y_rel="false"
       spacing="0"
       normal_offset="0"
       tang_offset="0"
       prop_units="false"
       vertical_pattern="false"
       hide_knot="false"
       fuse_tolerance="0" />
    <inkscape:path-effect
       effect="skeletal"
       id="path-effect91926"
       is_visible="true"
       lpeversion="1"
       pattern="M 0,4.9921381 C 0,2.2364779 2.2364779,0 4.9921381,0 c 2.7556603,0 4.9921381,2.2364779 4.9921381,4.9921381 0,2.7556603 -2.2364778,4.9921381 -4.9921381,4.9921381 C 2.2364779,9.9842762 0,7.7477984 0,4.9921381 Z"
       copytype="single_stretched"
       prop_scale="1"
       scale_y_rel="false"
       spacing="0"
       normal_offset="0"
       tang_offset="0"
       prop_units="false"
       vertical_pattern="false"
       hide_knot="false"
       fuse_tolerance="0" />
  </defs>
  <sodipodi:namedview
     id="base"
     pagecolor="#282828"
     bordercolor="#666666"
     borderopacity="1.0"
     inkscape:pageopacity="0"
     inkscape:pageshadow="2"
     inkscape:zoom="7.919596"
     inkscape:cx="62.376919"
     inkscape:cy="51.328376"
     inkscape:document-units="mm"
     inkscape:current-layer="layer1"
     showgrid="true"
     inkscape:window-width="1920"
     inkscape:window-height="1022"
     inkscape:window-x="0"
     inkscape:window-y="30"
     inkscape:window-maximized="1"
     units="px"
     inkscape:snap-bbox="true"
     inkscape:bbox-nodes="true"
     inkscape:snap-page="true"
     inkscape:snap-nodes="true"
     inkscape:bbox-paths="false"
     inkscape:snap-global="false"
     inkscape:snap-bbox-midpoints="false"
     inkscape:snap-others="false"
     showguides="true"
     inkscape:guide-bbox="true"
     inkscape:snap-grids="false"
     inkscape:snap-to-guides="true"
     inkscape:pagecheckerboard="0"
     inkscape:object-paths="true"
     inkscape:snap-intersection-paths="true"
     inkscape:snap-smooth-nodes="true"
     inkscape:snap-midpoints="true">
    <inkscape:grid
       type="xygrid"
       id="grid883"
       empspacing="4" />
    <sodipodi:guide
       position="33.866665,50.800001"
       orientation="1,0"
       id="guide877"
       inkscape:locked="false" />
  </sodipodi:namedview>
  <metadata
     id="metadata1304">
    <rdf:RDF>
      <cc:Work
         rdf:about="">
        <dc:format>image/svg+xml</dc:format>
        <dc:type
           rdf:resource="http://purl.org/dc/dcmitype/StillImage" />
      </cc:Work>
    </rdf:RDF>
  </metadata>
  <g
     inkscape:label="Layer 1"
     inkscape:groupmode="layer"
     id="layer1"
     transform="translate(0,-263.13332)">
    <g
       id="g145263"
       transform="matrix(1.5024229,0,0,1.5024229,66.923526,-129.34981)">
      <path
         sodipodi:type="star"
         style="opacity:1;fill:#473b78;fill-opacity:1;stroke:none;stroke-width:3;stroke-linecap:round;stroke-linejoin:round;stroke-miterlimit:4;stroke-dasharray:none;stroke-opacity:1;paint-order:fill markers stroke"
         id="path145251"
         inkscape:flatsided="true"
         sodipodi:sides="3"
         sodipodi:cx="-139.42923"
         sodipodi:cy="37.828072"
         sodipodi:r1="9.9775801"
         sodipodi:r2="4.98879"
         sodipodi:arg1="0.52359878"
         sodipodi:arg2="1.5707963"
         inkscape:rounded="0.12"
         inkscape:randomized="0"
         transform="matrix(0.1234267,0.07126044,-0.13229166,0.22913589,-11.360925,279.86881)"
         inkscape:transform-center-y="-0.23482526"
         inkscape:transform-center-x="0.18086549"
         d="m -130.78839,42.816862 c -1.0369,1.795964 -16.24478,1.795964 -17.28168,0 -1.0369,-1.795965 6.56704,-14.96637 8.64084,-14.96637 2.0738,0 9.67774,13.170405 8.64084,14.96637 z" />
      <path
         sodipodi:type="star"
         style="opacity:1;fill:#4b5bab;fill-opacity:1;stroke:none;stroke-width:3;stroke-linecap:round;stroke-linejoin:round;stroke-miterlimit:4;stroke-dasharray:none;stroke-opacity:1;paint-order:fill markers stroke"
         id="path145253"
         inkscape:flatsided="true"
         sodipodi:sides="3"
         sodipodi:cx="-139.42923"
         sodipodi:cy="37.828072"
         sodipodi:r1="9.9775801"
         sodipodi:r2="4.98879"
         sodipodi:arg1="0.52359878"
         sodipodi:arg2="1.5707963"
         inkscape:rounded="0.12"
         inkscape:randomized="0"
         transform="matrix(0.1376646,0.03688712,-0.0684792,0.25556787,-10.680004,274.51491)"
         inkscape:transform-center-y="-0.40489701"
         inkscape:transform-center-x="0.27170338"
         d="m -130.78839,42.816862 c -1.0369,1.795964 -16.24478,1.795964 -17.28168,0 -1.0369,-1.795965 6.56704,-14.96637 8.64084,-14.96637 2.0738,0 9.67774,13.170405 8.64084,14.96637 z" />
      <path
         sodipodi:type="star"
         style="opacity:1;fill:#473b78;fill-opacity:1;stroke:none;stroke-width:3;stroke-linecap:round;stroke-linejoin:round;stroke-miterlimit:4;stroke-dasharray:none;stroke-opacity:1;paint-order:fill markers stroke"
         id="path145255"
         inkscape:flatsided="true"
         sodipodi:sides="3"
         sodipodi:cx="-139.42923"
         sodipodi:cy="37.828072"
         sodipodi:r1="9.9775801"
         sodipodi:r2="4.98879"
         sodipodi:arg1="0.52359878"
         sodipodi:arg2="1.5707963"
         inkscape:rounded="0.12"
         inkscape:randomized="0"
         transform="matrix(0.14252088,0,0,0.26458333,-11.282594,269.13096)"
         inkscape:transform-center-y="-0.48178214"
         d="m -130.78839,42.816862 c -1.0369,1.795964 -16.24478,1.795964 -17.28168,0 -1.0369,-1.795965 6.56704,-14.96637 8.64084,-14.96637 2.0738,0 9.67774,13.170405 8.64084,14.96637 z" />
      <path
         sodipodi:type="star"
         style="opacity:1;fill:#473b78;fill-opacity:1;stroke:none;stroke-width:3;stroke-linecap:round;stroke-linejoin:round;stroke-miterlimit:4;stroke-dasharray:none;stroke-opacity:1;paint-order:fill markers stroke"
         id="path145257"
         inkscape:flatsided="true"
         sodipodi:sides="3"
         sodipodi:cx="-139.42923"
         sodipodi:cy="37.828072"
         sodipodi:r1="9.9775801"
         sodipodi:r2="4.98879"
         sodipodi:arg1="0.52359878"
         sodipodi:arg2="1.5707963"
         inkscape:rounded="0.12"
         inkscape:randomized="0"
         transform="matrix(-0.1234267,0.07126044,0.13229166,0.22913589,-50.185194,279.86881)"
         inkscape:transform-center-y="-0.23482526"
         inkscape:transform-center-x="-0.18086553"
         d="m -130.78839,42.816862 c -1.0369,1.795964 -16.24478,1.795964 -17.28168,0 -1.0369,-1.795965 6.56704,-14.96637 8.64084,-14.96637 2.0738,0 9.67774,13.170405 8.64084,14.96637 z" />
      <path
         sodipodi:type="star"
         style="opacity:1;fill:#4b5bab;fill-opacity:1;stroke:none;stroke-width:3;stroke-linecap:round;stroke-linejoin:round;stroke-miterlimit:4;stroke-dasharray:none;stroke-opacity:1;paint-order:fill markers stroke"
         id="path145259"
         inkscape:flatsided="true"
         sodipodi:sides="3"
         sodipodi:cx="-139.42923"
         sodipodi:cy="37.828072"
         sodipodi:r1="9.9775801"
         sodipodi:r2="4.98879"
         sodipodi:arg1="0.52359878"
         sodipodi:arg2="1.5707963"
         inkscape:rounded="0.12"
         inkscape:randomized="0"
         transform="matrix(-0.1376646,0.03688712,0.0684792,0.25556787,-50.866115,274.51491)"
         inkscape:transform-center-y="-0.40489701"
         inkscape:transform-center-x="-0.27170342"
         d="m -130.78839,42.816862 c -1.0369,1.795964 -16.24478,1.795964 -17.28168,0 -1.0369,-1.795965 6.56704,-14.96637 8.64084,-14.96637 2.0738,0 9.67774,13.170405 8.64084,14.96637 z" />
      <path
         sodipodi:type="star"
         style="opacity:1;fill:#473b78;fill-opacity:1;stroke:none;stroke-width:3;stroke-linecap:round;stroke-linejoin:round;stroke-miterlimit:4;stroke-dasharray:none;stroke-opacity:1;paint-order:fill markers stroke"
         id="path145261"
         inkscape:flatsided="true"
         sodipodi:sides="3"
         sodipodi:cx="-139.42923"
         sodipodi:cy="37.828072"
         sodipodi:r1="9.9775801"
         sodipodi:r2="4.98879"
         sodipodi:arg1="0.52359878"
         sodipodi:arg2="1.5707963"
         inkscape:rounded="0.12"
         inkscape:randomized="0"
         transform="matrix(-0.14252088,0,0,0.26458333,-50.263525,269.13096)"
         inkscape:transform-center-y="-0.48178214"
         d="m -130.78839,42.816862 c -1.0369,1.795964 -16.24478,1.795964 -17.28168,0 -1.0369,-1.795965 6.56704,-14.96637 8.64084,-14.96637 2.0738,0 9.67774,13.170405 8.64084,14.96637 z" />
    </g>
    <path
       sodipodi:type="star"
       style="opacity:1;fill:#ffffff;fill-opacity:1;stroke:none;stroke-width:3;stroke-linecap:round;stroke-linejoin:round;stroke-miterlimit:4;stroke-dasharray:none;stroke-opacity:1;paint-order:fill markers stroke"
       id="path145265-3"
       inkscape:flatsided="true"
       sodipodi:sides="3"
       sodipodi:cx="-133.79944"
       sodipodi:cy="38.300503"
       sodipodi:r1="9.1112185"
       sodipodi:r2="4.5556092"
       sodipodi:arg1="1.5707963"
       sodipodi:arg2="2.6179939"
       inkscape:rounded="0.12"
       inkscape:randomized="0"
       transform="matrix(0.58633758,0,0,0.36360949,99.101503,273.76121)"
       inkscape:transform-center-y="0.36220731"
       d="m -133.79944,47.411721 c -1.89373,0 -8.83741,-12.026808 -7.89055,-13.666827 0.94687,-1.64002 14.83423,-1.64002 15.7811,-1e-6 0.94686,1.64002 -5.99682,13.666828 -7.89055,13.666828 z" />
    <rect
       ry="1.6463803"
       y="288.54492"
       x="20.998159"
       height="8.1896849"
       width="3.2927597"
       id="rect1181-9"
       style="fill:#7e7e8f;fill-opacity:1;stroke:none;stroke-width:0.668648;stroke-linecap:square;stroke-linejoin:bevel;stroke-miterlimit:4;stroke-dasharray:none;stroke-dashoffset:0;stroke-opacity:0.978723;paint-order:normal" />
    <path
       id="path142796"
       style="fill:#606070;fill-opacity:1;stroke:none;stroke-width:0.66865;stroke-linecap:square;stroke-linejoin:bevel;stroke-miterlimit:4;stroke-dasharray:none;stroke-dashoffset:0;stroke-opacity:0.978723;paint-order:normal"
       d="m 24.290828,294.18304 -1.296501,-0.74876 -1.996078,1.15245 v 0.50117 c 0,0.9121 0.734625,1.64674 1.646721,1.64674 0.912093,0 1.645858,-0.73464 1.645858,-1.64674 z" />
    <path
       id="path142798"
       style="fill:#eb564b;fill-opacity:1;stroke:none;stroke-width:0.66865;stroke-linecap:square;stroke-linejoin:bevel;stroke-miterlimit:4;stroke-dasharray:none;stroke-dashoffset:0;stroke-opacity:0.978723;paint-order:normal"
       d="m 24.290828,293.76898 -1.296501,-0.74874 -1.996078,1.15245 v 0.41404 l 1.996078,-1.15245 1.296501,0.74876 z" />
    <path
       id="path142800"
       style="fill:#dedecc;fill-opacity:1;stroke:none;stroke-width:1.32497;stroke-linecap:round;stroke-linejoin:round;stroke-miterlimit:4;stroke-dasharray:none;stroke-opacity:1;paint-order:fill markers stroke"
       d="m 22.994327,293.02024 -1.996078,1.15245 v 0.41404 l 1.996078,-1.15245 1.296501,0.74876 v -0.41406 z" />
    <rect
       style="fill:#c2c2d1;fill-opacity:1;stroke:none;stroke-width:0.668648;stroke-linecap:square;stroke-linejoin:bevel;stroke-miterlimit:4;stroke-dasharray:none;stroke-dashoffset:0;stroke-opacity:0.978723;paint-order:normal"
       id="rect140737-8"
       width="3.2927597"
       height="8.1896849"
       x="15.932364"
       y="288.54492"
       ry="1.6463803" />
    <path
       id="rect1213"
       style="fill:#7e7e8f;fill-opacity:1;stroke:none;stroke-width:0.66865;stroke-linecap:square;stroke-linejoin:bevel;stroke-miterlimit:4;stroke-dasharray:none;stroke-dashoffset:0;stroke-opacity:0.978723;paint-order:normal"
       d="m 19.224899,294.18304 -1.296502,-0.74876 -1.996077,1.15245 v 0.50117 c 0,0.9121 0.734626,1.64674 1.646721,1.64674 0.912094,0 1.645858,-0.73464 1.645858,-1.64674 z" />
    <path
       id="path142620"
       style="fill:#eb564b;fill-opacity:1;stroke:none;stroke-width:0.66865;stroke-linecap:square;stroke-linejoin:bevel;stroke-miterlimit:4;stroke-dasharray:none;stroke-dashoffset:0;stroke-opacity:0.978723;paint-order:normal"
       d="m 19.224899,293.76898 -1.296502,-0.74874 -1.996077,1.15245 v 0.41404 l 1.996077,-1.15245 1.296502,0.74876 z" />
    <path
       id="rect139502"
       style="fill:#ffffeb;fill-opacity:1;stroke:none;stroke-width:1.32497;stroke-linecap:round;stroke-linejoin:round;stroke-miterlimit:4;stroke-dasharray:none;stroke-opacity:1;paint-order:fill markers stroke"
       d="m 17.928397,293.02024 -1.996077,1.15245 v 0.41404 l 1.996077,-1.15245 1.296502,0.74876 v -0.41406 z" />
    <path
       style="fill:none;stroke:#c2c2d1;stroke-width:0.668648;stroke-linecap:round;stroke-linejoin:miter;stroke-miterlimit:4;stroke-dasharray:none;stroke-opacity:1"
       d="m 18.180352,288.47634 c 0,0 -6.259624,0.0948 -8.604597,-6.53036 -2.3449734,-6.62523 -4.0992273,-7.93672 -5.4440658,-7.55647"
       id="path1179-0"
       inkscape:connector-curvature="0"
       inkscape:transform-center-x="31.376121"
       inkscape:transform-center-y="-50.530738" />
    <rect
       transform="matrix(-0.86602542,0.49999998,0.49999998,0.86602542,0,0)"
       style="fill:#7e7e8f;fill-opacity:1;stroke:none;stroke-width:0.668648;stroke-linecap:square;stroke-linejoin:bevel;stroke-miterlimit:4;stroke-dasharray:none;stroke-dashoffset:0;stroke-opacity:0.978723;paint-order:normal"
       id="rect1183-2"
       width="3.2927597"
       height="8.1896849"
       x="119.94662"
       y="256.10791"
       ry="1.6463802" />
    <rect
       style="fill:#ffffff;fill-opacity:1;stroke:none;stroke-width:0.668648;stroke-linecap:square;stroke-linejoin:bevel;stroke-miterlimit:4;stroke-dasharray:none;stroke-dashoffset:0;stroke-opacity:0.978723;paint-order:normal"
       id="rect1187-4"
       width="10.728664"
       height="13.086613"
       x="14.325168"
       y="279.42651"
       ry="4.8927455" />
    <circle
       r="5.9100838"
       cy="270.5614"
       cx="14.144935"
       id="circle1189-3"
       style="fill:#c2c2d1;fill-opacity:1;stroke:none;stroke-width:0.66865;stroke-linecap:square;stroke-linejoin:bevel;stroke-miterlimit:4;stroke-dasharray:none;stroke-dashoffset:0;stroke-opacity:0.978723;paint-order:normal" />
    <circle
       style="fill:#a191a1;fill-opacity:1;stroke:none;stroke-width:0.66865;stroke-linecap:square;stroke-linejoin:bevel;stroke-miterlimit:4;stroke-dasharray:none;stroke-dashoffset:0;stroke-opacity:0.978723;paint-order:normal"
       id="circle1191-2"
       cx="14.144935"
       cy="270.5614"
       r="3.8920062" />
    <path
       id="path25381"
       style="fill:#ff6b97;fill-opacity:1;stroke-width:0.46934;stroke-linecap:round;stroke-linejoin:round;paint-order:fill markers stroke"
       d="m 27.779914,274.21591 1.012988,0.95949 1.012988,-0.95949 -0.146427,3.11122 -0.866564,0.8208 -0.866565,-0.8208 z"
       sodipodi:nodetypes="ccccccc" />
    <circle
       style="fill:#c2c2d1;fill-opacity:1;stroke:none;stroke-width:0.66865;stroke-linecap:square;stroke-linejoin:bevel;stroke-miterlimit:4;stroke-dasharray:none;stroke-dashoffset:0;stroke-opacity:0.978723;paint-order:normal"
       id="circle1195-0"
       cx="24.136477"
       cy="270.5614"
       r="5.9100838" />
    <path
       style="color:#000000;fill:#ffde5b;fill-opacity:1;stroke-width:1.31093;stroke-linecap:round;stroke-linejoin:round;-inkscape-stroke:none;paint-order:fill markers stroke"
       d="m 29.16856,273.8328 c 0.22914,0.1924 0.326913,0.50253 0.248361,0.79116 -0.07855,0.28866 -0.319509,0.50595 -0.614499,0.55561 -0.294992,0.0497 -0.591708,-0.0781 -0.760444,-0.32519 a 0.18469795,0.18469795 0 0 1 0.04864,-0.25603 0.18469795,0.18469795 0 0 1 0.256038,0.0487 c 0.08799,0.1287 0.240504,0.1924 0.394307,0.16626 0.153805,-0.0259 0.279095,-0.13621 0.32005,-0.28676 0.04096,-0.15057 -0.0085,-0.31195 -0.128015,-0.41222 a 0.18469795,0.18469795 0 0 1 -0.02304,-0.2586 0.18469795,0.18469795 0 0 1 0.258602,-0.023 z"
       id="path75872" />
    <circle
       r="3.8920062"
       cy="270.5614"
       cx="24.136477"
       id="circle1197-8"
       style="fill:#a191a1;fill-opacity:1;stroke:none;stroke-width:0.66865;stroke-linecap:square;stroke-linejoin:bevel;stroke-miterlimit:4;stroke-dasharray:none;stroke-dashoffset:0;stroke-opacity:0.978723;paint-order:normal" />
    <rect
       ry="1.6463802"
       y="236.37622"
       x="154.12296"
       height="8.1896849"
       width="3.2927597"
       id="rect1203-3"
       style="fill:#ffffff;fill-opacity:1;stroke:none;stroke-width:0.668648;stroke-linecap:square;stroke-linejoin:bevel;stroke-miterlimit:4;stroke-dasharray:none;stroke-dashoffset:0;stroke-opacity:0.978723;paint-order:normal"
       transform="rotate(29.999999)" />
    <rect
       style="fill:#c2c2d1;fill-opacity:1;stroke:none;stroke-width:0.668648;stroke-linecap:square;stroke-linejoin:bevel;stroke-miterlimit:4;stroke-dasharray:none;stroke-dashoffset:0;stroke-opacity:0.978723;paint-order:normal"
       id="rect1205-7"
       width="14.859637"
       height="14.859637"
       x="12.555178"
       y="268.36624"
       ry="6.0789433" />
    <circle
       style="fill:#3e2347;fill-opacity:1;stroke:none;stroke-width:0.668648;stroke-linecap:square;stroke-linejoin:bevel;stroke-miterlimit:4;stroke-dasharray:none;stroke-dashoffset:0;stroke-opacity:0.978723;paint-order:normal"
       id="circle1207-8"
       cx="17.976492"
       cy="277.08392"
       r="1.0746151" />
    <circle
       r="1.0746151"
       cy="277.08392"
       cx="25.379414"
       id="circle1209-9"
       style="fill:#3e2347;fill-opacity:1;stroke:none;stroke-width:0.668648;stroke-linecap:square;stroke-linejoin:bevel;stroke-miterlimit:4;stroke-dasharray:none;stroke-dashoffset:0;stroke-opacity:0.978723;paint-order:normal" />
    <path
       sodipodi:type="star"
       style="opacity:1;fill:#3e2347;fill-opacity:1;stroke:none;stroke-width:2.36253;stroke-linecap:square;stroke-linejoin:bevel;stroke-miterlimit:4;stroke-dasharray:none;stroke-dashoffset:0;stroke-opacity:0.978723;paint-order:normal"
       id="path1211-9"
       sodipodi:sides="3"
       sodipodi:cx="-45.408615"
       sodipodi:cy="234.57965"
       sodipodi:r1="2.997191"
       sodipodi:r2="1.4985955"
       sodipodi:arg1="1.5707963"
       sodipodi:arg2="2.6179939"
       inkscape:flatsided="true"
       inkscape:rounded="0.18"
       inkscape:randomized="0"
       inkscape:transform-center-x="-6.3665075e-06"
       inkscape:transform-center-y="1.0312406"
       transform="matrix(0.28302221,0,0,0.28302221,35.484814,212.9613)"
       d="m -45.408615,237.57684 c -0.934432,0 -3.062859,-3.68654 -2.595644,-4.49578 0.467216,-0.80925 4.724071,-0.80925 5.191287,0 0.467216,0.80924 -1.661211,4.49578 -2.595643,4.49578 z" />
    <path
       id="path60367"
       style="color:#000000;fill:#ffde5b;fill-opacity:1;stroke-width:1.66925;stroke-linecap:round;stroke-linejoin:round;-inkscape-stroke:none"
       d="m 15.269836,269.37612 c -0.431097,0.28594 -0.823232,0.62545 -1.167111,1.00924 l 8.698552,2.89492 a 0.66255011,0.66255011 0 0 0 0.489099,-0.0259 l 3.449575,-1.60446 c -0.206872,-0.40068 -0.457195,-0.77496 -0.744433,-1.11707 l -3.02517,1.40777 z" />
    <ellipse
       style="fill:#ff6b97;fill-opacity:1;stroke:none;stroke-width:1.32497;stroke-linecap:round;stroke-linejoin:round;stroke-miterlimit:4;stroke-dasharray:none;stroke-opacity:1;paint-order:fill markers stroke"
       id="path64249"
       cx="23.148573"
       cy="272.57956"
       rx="0.55711663"
       ry="0.78847378" />
    <path
       id="path67924"
       style="opacity:0.410695;fill:#ffffff;fill-opacity:1;stroke:none;stroke-width:1.32497;stroke-linecap:round;stroke-linejoin:round;stroke-miterlimit:4;stroke-dasharray:none;stroke-opacity:1;paint-order:fill markers stroke"
       d="m 23.148908,271.79142 a 0.55711659,0.78847381 0 0 0 -0.557246,0.78842 0.55711659,0.78847381 0 0 0 0.0027,0.0785 0.514537,0.57011987 0 0 0 0.306226,0.11217 0.514537,0.57011987 0 0 0 0.514116,-0.57018 0.514537,0.57011987 0 0 0 -0.137163,-0.38818 0.55711659,0.78847381 0 0 0 -0.128532,-0.0207 z" />
    <path
       sodipodi:type="star"
       style="opacity:1;fill:#606070;fill-opacity:1;stroke:none;stroke-width:3;stroke-linecap:round;stroke-linejoin:round;stroke-miterlimit:4;stroke-dasharray:none;stroke-opacity:1;paint-order:fill markers stroke"
       id="path78068"
       inkscape:flatsided="true"
       sodipodi:sides="3"
       sodipodi:cx="-139.42923"
       sodipodi:cy="37.828072"
       sodipodi:r1="9.9775801"
       sodipodi:r2="4.98879"
       sodipodi:arg1="0.52359878"
       sodipodi:arg2="1.5707963"
       inkscape:rounded="0.12"
       inkscape:randomized="0"
       transform="matrix(0.1854391,0.10706332,-0.19875801,0.344259,49.854612,291.1315)"
       inkscape:transform-center-y="-0.23482526"
       inkscape:transform-center-x="0.18086549"
       d="m -130.78839,42.816862 c -1.0369,1.795964 -16.24478,1.795964 -17.28168,0 -1.0369,-1.795965 6.56704,-14.96637 8.64084,-14.96637 2.0738,0 9.67774,13.170405 8.64084,14.96637 z" />
    <path
       sodipodi:type="star"
       style="opacity:1;fill:#7e7e8f;fill-opacity:1;stroke:none;stroke-width:3;stroke-linecap:round;stroke-linejoin:round;stroke-miterlimit:4;stroke-dasharray:none;stroke-opacity:1;paint-order:fill markers stroke"
       id="path81859"
       inkscape:flatsided="true"
       sodipodi:sides="3"
       sodipodi:cx="-139.42923"
       sodipodi:cy="37.828072"
       sodipodi:r1="9.9775801"
       sodipodi:r2="4.98879"
       sodipodi:arg1="0.52359878"
       sodipodi:arg2="1.5707963"
       inkscape:rounded="0.12"
       inkscape:randomized="0"
       transform="matrix(0.20683044,0.05542006,-0.10288472,0.38397101,50.877643,283.08768)"
       inkscape:transform-center-y="-0.40489701"
       inkscape:transform-center-x="0.27170338"
       d="m -130.78839,42.816862 c -1.0369,1.795964 -16.24478,1.795964 -17.28168,0 -1.0369,-1.795965 6.56704,-14.96637 8.64084,-14.96637 2.0738,0 9.67774,13.170405 8.64084,14.96637 z" />
    <path
       sodipodi:type="star"
       style="opacity:1;fill:#606070;fill-opacity:1;stroke:none;stroke-width:3;stroke-linecap:round;stroke-linejoin:round;stroke-miterlimit:4;stroke-dasharray:none;stroke-opacity:1;paint-order:fill markers stroke"
       id="path81861"
       inkscape:flatsided="true"
       sodipodi:sides="3"
       sodipodi:cx="-139.42923"
       sodipodi:cy="37.828072"
       sodipodi:r1="9.9775801"
       sodipodi:r2="4.98879"
       sodipodi:arg1="0.52359878"
       sodipodi:arg2="1.5707963"
       inkscape:rounded="0.12"
       inkscape:randomized="0"
       transform="matrix(0.21412664,0,0,0.39751605,49.972298,274.99871)"
       inkscape:transform-center-y="-0.48178214"
       d="m -130.78839,42.816862 c -1.0369,1.795964 -16.24478,1.795964 -17.28168,0 -1.0369,-1.795965 6.56704,-14.96637 8.64084,-14.96637 2.0738,0 9.67774,13.170405 8.64084,14.96637 z" />
    <path
       sodipodi:type="star"
       style="opacity:1;fill:#606070;fill-opacity:1;stroke:none;stroke-width:3;stroke-linecap:round;stroke-linejoin:round;stroke-miterlimit:4;stroke-dasharray:none;stroke-opacity:1;paint-order:fill markers stroke"
       id="path81863"
       inkscape:flatsided="true"
       sodipodi:sides="3"
       sodipodi:cx="-139.42923"
       sodipodi:cy="37.828072"
       sodipodi:r1="9.9775801"
       sodipodi:r2="4.98879"
       sodipodi:arg1="0.52359878"
       sodipodi:arg2="1.5707963"
       inkscape:rounded="0.12"
       inkscape:randomized="0"
       transform="matrix(-0.1854391,0.10706332,0.19875801,0.344259,-8.4758576,291.1315)"
       inkscape:transform-center-y="-0.23482526"
       inkscape:transform-center-x="-0.18086553"
       d="m -130.78839,42.816862 c -1.0369,1.795964 -16.24478,1.795964 -17.28168,0 -1.0369,-1.795965 6.56704,-14.96637 8.64084,-14.96637 2.0738,0 9.67774,13.170405 8.64084,14.96637 z" />
    <path
       sodipodi:type="star"
       style="opacity:1;fill:#7e7e8f;fill-opacity:1;stroke:none;stroke-width:3;stroke-linecap:round;stroke-linejoin:round;stroke-miterlimit:4;stroke-dasharray:none;stroke-opacity:1;paint-order:fill markers stroke"
       id="path81865"
       inkscape:flatsided="true"
       sodipodi:sides="3"
       sodipodi:cx="-139.42923"
       sodipodi:cy="37.828072"
       sodipodi:r1="9.9775801"
       sodipodi:r2="4.98879"
       sodipodi:arg1="0.52359878"
       sodipodi:arg2="1.5707963"
       inkscape:rounded="0.12"
       inkscape:randomized="0"
       transform="matrix(-0.20683044,0.05542006,0.10288472,0.38397101,-9.4988896,283.08768)"
       inkscape:transform-center-y="-0.40489701"
       inkscape:transform-center-x="-0.27170342"
       d="m -130.78839,42.816862 c -1.0369,1.795964 -16.24478,1.795964 -17.28168,0 -1.0369,-1.795965 6.56704,-14.96637 8.64084,-14.96637 2.0738,0 9.67774,13.170405 8.64084,14.96637 z" />
    <path
       sodipodi:type="star"
       style="opacity:1;fill:#606070;fill-opacity:1;stroke:none;stroke-width:3;stroke-linecap:round;stroke-linejoin:round;stroke-miterlimit:4;stroke-dasharray:none;stroke-opacity:1;paint-order:fill markers stroke"
       id="path81867"
       inkscape:flatsided="true"
       sodipodi:sides="3"
       sodipodi:cx="-139.42923"
       sodipodi:cy="37.828072"
       sodipodi:r1="9.9775801"
       sodipodi:r2="4.98879"
       sodipodi:arg1="0.52359878"
       sodipodi:arg2="1.5707963"
       inkscape:rounded="0.12"
       inkscape:randomized="0"
       transform="matrix(-0.21412664,0,0,0.39751605,-8.5935448,274.99871)"
       inkscape:transform-center-y="-0.48178214"
       d="m -130.78839,42.816862 c -1.0369,1.795964 -16.24478,1.795964 -17.28168,0 -1.0369,-1.795965 6.56704,-14.96637 8.64084,-14.96637 2.0738,0 9.67774,13.170405 8.64084,14.96637 z" />
    <path
       sodipodi:type="star"
       style="opacity:1;fill:#ffffff;fill-opacity:1;stroke:none;stroke-width:3;stroke-linecap:round;stroke-linejoin:round;stroke-miterlimit:4;stroke-dasharray:none;stroke-opacity:1;paint-order:fill markers stroke"
       id="path83383"
       inkscape:flatsided="true"
       sodipodi:sides="3"
       sodipodi:cx="-133.79944"
       sodipodi:cy="38.300503"
       sodipodi:r1="9.1112185"
       sodipodi:r2="4.5556092"
       sodipodi:arg1="1.5707963"
       sodipodi:arg2="2.6179939"
       inkscape:rounded="0.12"
       inkscape:randomized="0"
       transform="matrix(0.58633758,0,0,0.36360949,99.101503,273.76121)"
       inkscape:transform-center-y="0.36220731"
       d="m -133.79944,47.411721 c -1.89373,0 -8.83741,-12.026808 -7.89055,-13.666827 0.94687,-1.64002 14.83423,-1.64002 15.7811,-1e-6 0.94686,1.64002 -5.99682,13.666828 -7.89055,13.666828 z" />
    <path
       sodipodi:type="star"
       style="opacity:1;fill:#7e7e8f;fill-opacity:1;stroke:none;stroke-width:3;stroke-linecap:round;stroke-linejoin:round;stroke-miterlimit:4;stroke-dasharray:none;stroke-opacity:1;paint-order:fill markers stroke"
       id="path78037"
       inkscape:flatsided="true"
       sodipodi:sides="3"
       sodipodi:cx="-113.48855"
       sodipodi:cy="20.385611"
       sodipodi:r1="17.416616"
       sodipodi:r2="8.7083082"
       sodipodi:arg1="0"
       sodipodi:arg2="1.0471976"
       inkscape:rounded="0.12"
       inkscape:randomized="0"
       transform="matrix(-0.23662161,0,0,0.21327672,-2.6280317,280.09256)"
       inkscape:transform-center-x="0.6384273"
       inkscape:transform-center-y="5.7219478e-06"
       d="m -96.071932,20.385611 c 0,3.619975 -22.989938,16.89322 -26.124928,15.083232 -3.13499,-1.809988 -3.13499,-28.3564768 0,-30.1664647 3.13499,-1.8099879 26.124928,11.4632567 26.124928,15.0832327 z" />
    <path
       sodipodi:type="star"
       style="opacity:1;fill:#7e7e8f;fill-opacity:1;stroke:none;stroke-width:3;stroke-linecap:round;stroke-linejoin:round;stroke-miterlimit:4;stroke-dasharray:none;stroke-opacity:1;paint-order:fill markers stroke"
       id="path68628"
       inkscape:flatsided="true"
       sodipodi:sides="3"
       sodipodi:cx="-113.48855"
       sodipodi:cy="20.385611"
       sodipodi:r1="17.416616"
       sodipodi:r2="8.7083082"
       sodipodi:arg1="0"
       sodipodi:arg2="1.0471976"
       inkscape:rounded="0.12"
       inkscape:randomized="0"
       transform="matrix(0.23662161,0,0,0.21327672,44.006785,280.09256)"
       inkscape:transform-center-x="-0.63842742"
       inkscape:transform-center-y="5.7219478e-06"
       d="m -96.071932,20.385611 c 0,3.619975 -22.989938,16.89322 -26.124928,15.083232 -3.13499,-1.809988 -3.13499,-28.3564768 0,-30.1664647 3.13499,-1.8099879 26.124928,11.4632567 26.124928,15.0832327 z" />
    <circle
       style="fill:#bd4882;fill-opacity:1;stroke:none;stroke-width:0.935091;stroke-linecap:round;stroke-linejoin:round;stroke-miterlimit:4;stroke-dasharray:none;stroke-opacity:1;paint-order:fill markers stroke"
       id="path72001"
       cx="20.677502"
       cy="284.61407"
       r="1.554741" />
    <circle
       style="fill:#ff6b97;fill-opacity:1;stroke:none;stroke-width:0.750769;stroke-linecap:round;stroke-linejoin:round;stroke-miterlimit:4;stroke-dasharray:none;stroke-opacity:1;paint-order:fill markers stroke"
       id="circle75704"
       cx="20.677502"
       cy="284.30762"
       r="1.2482754" />
    <circle
       style="opacity:0.229675;fill:#ffffff;fill-opacity:1;stroke:none;stroke-width:0.543369;stroke-linecap:round;stroke-linejoin:round;stroke-miterlimit:4;stroke-dasharray:none;stroke-opacity:1;paint-order:fill markers stroke"
       id="circle77073"
       cx="20.499449"
       cy="283.99149"
       r="0.90343982" />
    <path
       style="color:#000000;fill:#000000;fill-opacity:0;stroke-width:0.470363;stroke-linecap:round;stroke-linejoin:round;-inkscape-stroke:none;paint-order:fill markers stroke"
       d="m 11.916901,275.77225 a 0.74292595,0.74292595 0 0 1 -0.736799,0.31355 0.74292595,0.74292595 0 0 1 -0.593511,-0.53753 0.74292595,0.74292595 0 0 1 0.239263,-0.76416"
       id="path114041" />
    <path
       style="color:#000000;fill:#000000;fill-opacity:0;stroke-width:0.204467;stroke-linecap:round;stroke-linejoin:round;-inkscape-stroke:none;paint-order:fill markers stroke"
       d="m 25.641874,276.00029 h -0.0042 v 2.4862 h 0.0042 z"
       id="path75868" />
    <path
       style="color:#000000;fill:#000000;fill-opacity:0;stroke-width:0.470363;stroke-linecap:round;stroke-linejoin:round;-inkscape-stroke:none;paint-order:fill markers stroke"
       d="m 24.852317,275.77225 a 0.74292595,0.74292595 0 0 0 0.736799,0.31355 0.74292595,0.74292595 0 0 0 0.59351,-0.53753 0.74292595,0.74292595 0 0 0 -0.239262,-0.76416"
       id="path75870" />
    <path
       id="rect12638"
       style="fill:#ff6b97;fill-opacity:1;stroke-width:0.46934;stroke-linecap:round;stroke-linejoin:round;paint-order:fill markers stroke"
       d="m 9.9520275,275.36275 1.0129885,0.95949 1.012988,-0.95949 -0.146427,3.11122 -0.866565,0.8208 -0.866565,-0.8208 z"
       sodipodi:nodetypes="ccccccc" />
    <path
       style="color:#000000;fill:#ffde5b;fill-opacity:1;stroke-width:1.31093;stroke-linecap:round;stroke-linejoin:round;-inkscape-stroke:none;paint-order:fill markers stroke"
       d="m 10.465876,274.99478 c -0.229141,0.1924 -0.326912,0.50253 -0.248361,0.79116 0.07855,0.28866 0.31951,0.50597 0.6145,0.55561 0.294991,0.0497 0.591707,-0.0781 0.760444,-0.32517 a 0.18469795,0.18469795 0 0 0 -0.04864,-0.25605 0.18469795,0.18469795 0 0 0 -0.25604,0.0487 c -0.08797,0.1287 -0.240502,0.19239 -0.394307,0.16625 -0.153805,-0.0259 -0.279094,-0.13621 -0.320049,-0.28676 -0.04096,-0.15056 0.0085,-0.31195 0.128015,-0.41222 a 0.18469795,0.18469795 0 0 0 0.02304,-0.2586 0.18469795,0.18469795 0 0 0 -0.258602,-0.023 z"
       id="path114044" />
  </g>
</svg>
