<?xml version="1.0" encoding="UTF-8" standalone="no"?>
<!-- Created with Inkscape (http://www.inkscape.org/) -->

<svg
   width="128"
   height="128"
   viewBox="0 0 33.866665 33.866667"
   version="1.1"
   id="svg1307"
   inkscape:version="1.1.2 (0a00cf5339, 2022-02-04)"
   sodipodi:docname="sailor-saturn.svg"
   inkscape:export-filename="/home/henrique/Pictures/Moon Cheeser database/Sailor Saturn.png"
   inkscape:export-xdpi="96.000008"
   inkscape:export-ydpi="96.000008"
   xmlns:inkscape="http://www.inkscape.org/namespaces/inkscape"
   xmlns:sodipodi="http://sodipodi.sourceforge.net/DTD/sodipodi-0.dtd"
   xmlns="http://www.w3.org/2000/svg"
   xmlns:svg="http://www.w3.org/2000/svg"
   xmlns:rdf="http://www.w3.org/1999/02/22-rdf-syntax-ns#"
   xmlns:cc="http://creativecommons.org/ns#"
   xmlns:dc="http://purl.org/dc/elements/1.1/">
  <defs
     id="defs1301">
    <inkscape:path-effect
       effect="powerstroke"
       id="path-effect126865"
       is_visible="true"
       lpeversion="1"
       offset_points="0.36607912,0.65819441 | 0.7369579,1.5394423 | 0.91447105,0.73804339"
       not_jump="false"
       sort_points="true"
       interpolator_type="CentripetalCatmullRom"
       interpolator_beta="0.2"
       start_linecap_type="zerowidth"
       linejoin_type="round"
       miter_limit="4"
       scale_width="1"
       end_linecap_type="zerowidth" />
    <inkscape:path-effect
       effect="skeletal"
       id="path-effect114945"
       is_visible="true"
       lpeversion="1"
       pattern="M 0,4.9921381 C 0,2.2364779 2.2364779,0 4.9921381,0 c 2.7556603,0 4.9921381,2.2364779 4.9921381,4.9921381 0,2.7556603 -2.2364778,4.9921381 -4.9921381,4.9921381 C 2.2364779,9.9842762 0,7.7477984 0,4.9921381 Z"
       copytype="single_stretched"
       prop_scale="1"
       scale_y_rel="false"
       spacing="0"
       normal_offset="0"
       tang_offset="0"
       prop_units="false"
       vertical_pattern="false"
       hide_knot="false"
       fuse_tolerance="0" />
    <inkscape:path-effect
       effect="skeletal"
       id="path-effect95947"
       is_visible="true"
       lpeversion="1"
       pattern="M 0,4.9921381 C 0,2.2364779 2.2364779,0 4.9921381,0 c 2.7556603,0 4.9921381,2.2364779 4.9921381,4.9921381 0,2.7556603 -2.2364778,4.9921381 -4.9921381,4.9921381 C 2.2364779,9.9842762 0,7.7477984 0,4.9921381 Z"
       copytype="single_stretched"
       prop_scale="1"
       scale_y_rel="false"
       spacing="0"
       normal_offset="0"
       tang_offset="0"
       prop_units="false"
       vertical_pattern="false"
       hide_knot="false"
       fuse_tolerance="0" />
    <inkscape:path-effect
       effect="skeletal"
       id="path-effect91934"
       is_visible="true"
       lpeversion="1"
       pattern="M 0,4.9921381 C 0,2.2364779 2.2364779,0 4.9921381,0 c 2.7556603,0 4.9921381,2.2364779 4.9921381,4.9921381 0,2.7556603 -2.2364778,4.9921381 -4.9921381,4.9921381 C 2.2364779,9.9842762 0,7.7477984 0,4.9921381 Z"
       copytype="single_stretched"
       prop_scale="1"
       scale_y_rel="false"
       spacing="0"
       normal_offset="0"
       tang_offset="0"
       prop_units="false"
       vertical_pattern="false"
       hide_knot="false"
       fuse_tolerance="0" />
    <inkscape:path-effect
       effect="skeletal"
       id="path-effect91930"
       is_visible="true"
       lpeversion="1"
       pattern="M 0,4.9921381 C 0,2.2364779 2.2364779,0 4.9921381,0 c 2.7556603,0 4.9921381,2.2364779 4.9921381,4.9921381 0,2.7556603 -2.2364778,4.9921381 -4.9921381,4.9921381 C 2.2364779,9.9842762 0,7.7477984 0,4.9921381 Z"
       copytype="single_stretched"
       prop_scale="1"
       scale_y_rel="false"
       spacing="0"
       normal_offset="0"
       tang_offset="0"
       prop_units="false"
       vertical_pattern="false"
       hide_knot="false"
       fuse_tolerance="0" />
    <inkscape:path-effect
       effect="skeletal"
       id="path-effect91926"
       is_visible="true"
       lpeversion="1"
       pattern="M 0,4.9921381 C 0,2.2364779 2.2364779,0 4.9921381,0 c 2.7556603,0 4.9921381,2.2364779 4.9921381,4.9921381 0,2.7556603 -2.2364778,4.9921381 -4.9921381,4.9921381 C 2.2364779,9.9842762 0,7.7477984 0,4.9921381 Z"
       copytype="single_stretched"
       prop_scale="1"
       scale_y_rel="false"
       spacing="0"
       normal_offset="0"
       tang_offset="0"
       prop_units="false"
       vertical_pattern="false"
       hide_knot="false"
       fuse_tolerance="0" />
    <inkscape:path-effect
       effect="powerstroke"
       id="path-effect48607"
       is_visible="true"
       lpeversion="1"
       offset_points="0,0.14019774"
       not_jump="false"
       sort_points="true"
       interpolator_type="CubicBezierJohan"
       interpolator_beta="0.2"
       start_linecap_type="zerowidth"
       linejoin_type="extrp_arc"
       miter_limit="4"
       scale_width="1"
       end_linecap_type="zerowidth" />
    <inkscape:path-effect
       effect="powerstroke"
       id="path-effect48611"
       is_visible="true"
       lpeversion="1"
       offset_points="0,0.14019774"
       not_jump="false"
       sort_points="true"
       interpolator_type="CubicBezierJohan"
       interpolator_beta="0.2"
       start_linecap_type="zerowidth"
       linejoin_type="extrp_arc"
       miter_limit="4"
       scale_width="1"
       end_linecap_type="zerowidth" />
    <inkscape:path-effect
       effect="powerstroke"
       id="path-effect48615"
       is_visible="true"
       lpeversion="1"
       offset_points="0,0.14019774"
       not_jump="false"
       sort_points="true"
       interpolator_type="CubicBezierJohan"
       interpolator_beta="0.2"
       start_linecap_type="zerowidth"
       linejoin_type="extrp_arc"
       miter_limit="4"
       scale_width="1"
       end_linecap_type="zerowidth" />
    <inkscape:path-effect
       effect="powerstroke"
       id="path-effect48619"
       is_visible="true"
       lpeversion="1"
       offset_points="0,0.14019774"
       not_jump="false"
       sort_points="true"
       interpolator_type="CubicBezierJohan"
       interpolator_beta="0.2"
       start_linecap_type="zerowidth"
       linejoin_type="extrp_arc"
       miter_limit="4"
       scale_width="1"
       end_linecap_type="zerowidth" />
    <inkscape:path-effect
       effect="powerstroke"
       id="path-effect48623"
       is_visible="true"
       lpeversion="1"
       offset_points="0,0.14019774"
       not_jump="false"
       sort_points="true"
       interpolator_type="CubicBezierJohan"
       interpolator_beta="0.2"
       start_linecap_type="zerowidth"
       linejoin_type="extrp_arc"
       miter_limit="4"
       scale_width="1"
       end_linecap_type="zerowidth" />
    <inkscape:path-effect
       effect="powerstroke"
       id="path-effect48627"
       is_visible="true"
       lpeversion="1"
       offset_points="0,0.14019774"
       not_jump="false"
       sort_points="true"
       interpolator_type="CubicBezierJohan"
       interpolator_beta="0.2"
       start_linecap_type="zerowidth"
       linejoin_type="extrp_arc"
       miter_limit="4"
       scale_width="1"
       end_linecap_type="zerowidth" />
    <inkscape:path-effect
       effect="powerstroke"
       id="path-effect48631"
       is_visible="true"
       lpeversion="1"
       offset_points="0,0.15907901"
       not_jump="false"
       sort_points="true"
       interpolator_type="CubicBezierJohan"
       interpolator_beta="0.2"
       start_linecap_type="zerowidth"
       linejoin_type="extrp_arc"
       miter_limit="4"
       scale_width="1"
       end_linecap_type="zerowidth" />
    <inkscape:path-effect
       effect="powerstroke"
       id="path-effect48635"
       is_visible="true"
       lpeversion="1"
       offset_points="0,0.15907901"
       not_jump="false"
       sort_points="true"
       interpolator_type="CubicBezierJohan"
       interpolator_beta="0.2"
       start_linecap_type="zerowidth"
       linejoin_type="extrp_arc"
       miter_limit="4"
       scale_width="1"
       end_linecap_type="zerowidth" />
  </defs>
  <sodipodi:namedview
     id="base"
     pagecolor="#282828"
     bordercolor="#666666"
     borderopacity="1.0"
     inkscape:pageopacity="0"
     inkscape:pageshadow="2"
     inkscape:zoom="3.959798"
     inkscape:cx="26.769042"
     inkscape:cy="61.240498"
     inkscape:document-units="mm"
     inkscape:current-layer="layer1"
     showgrid="true"
     inkscape:window-width="1920"
     inkscape:window-height="1022"
     inkscape:window-x="0"
     inkscape:window-y="30"
     inkscape:window-maximized="1"
     units="px"
     inkscape:snap-bbox="true"
     inkscape:bbox-nodes="true"
     inkscape:snap-page="true"
     inkscape:snap-nodes="true"
     inkscape:bbox-paths="false"
     inkscape:snap-global="false"
     inkscape:snap-bbox-midpoints="false"
     inkscape:snap-others="false"
     showguides="true"
     inkscape:guide-bbox="true"
     inkscape:snap-grids="false"
     inkscape:snap-to-guides="true"
     inkscape:pagecheckerboard="0"
     inkscape:object-paths="true"
     inkscape:snap-intersection-paths="true"
     inkscape:snap-smooth-nodes="true"
     inkscape:snap-midpoints="true">
    <inkscape:grid
       type="xygrid"
       id="grid883"
       empspacing="4" />
    <sodipodi:guide
       position="33.866665,50.800001"
       orientation="1,0"
       id="guide877"
       inkscape:locked="false" />
  </sodipodi:namedview>
  <metadata
     id="metadata1304">
    <rdf:RDF>
      <cc:Work
         rdf:about="">
        <dc:format>image/svg+xml</dc:format>
        <dc:type
           rdf:resource="http://purl.org/dc/dcmitype/StillImage" />
      </cc:Work>
    </rdf:RDF>
  </metadata>
  <g
     inkscape:label="Layer 1"
     inkscape:groupmode="layer"
     id="layer1"
     transform="translate(0,-263.13332)">
    <g
       id="g1113"
       transform="matrix(1.6674081,0,0,1.6674081,-18.603929,-166.28441)">
      <g
         id="g145263"
         transform="matrix(0.90005826,0,0,0.90005826,51.26924,22.432979)">
        <path
           sodipodi:type="star"
           style="opacity:1;fill:#473b78;fill-opacity:1;stroke:none;stroke-width:3;stroke-linecap:round;stroke-linejoin:round;stroke-miterlimit:4;stroke-dasharray:none;stroke-opacity:1;paint-order:fill markers stroke"
           id="path145251"
           inkscape:flatsided="true"
           sodipodi:sides="3"
           sodipodi:cx="-139.42923"
           sodipodi:cy="37.828072"
           sodipodi:r1="9.9775801"
           sodipodi:r2="4.98879"
           sodipodi:arg1="0.52359878"
           sodipodi:arg2="1.5707963"
           inkscape:rounded="0.12"
           inkscape:randomized="0"
           transform="matrix(0.1234267,0.07126044,-0.13229166,0.22913589,-11.360925,279.86881)"
           inkscape:transform-center-y="-0.23482526"
           inkscape:transform-center-x="0.18086549"
           d="m -130.78839,42.816862 c -1.0369,1.795964 -16.24478,1.795964 -17.28168,0 -1.0369,-1.795965 6.56704,-14.96637 8.64084,-14.96637 2.0738,0 9.67774,13.170405 8.64084,14.96637 z" />
        <path
           sodipodi:type="star"
           style="opacity:1;fill:#4b5bab;fill-opacity:1;stroke:none;stroke-width:3;stroke-linecap:round;stroke-linejoin:round;stroke-miterlimit:4;stroke-dasharray:none;stroke-opacity:1;paint-order:fill markers stroke"
           id="path145253"
           inkscape:flatsided="true"
           sodipodi:sides="3"
           sodipodi:cx="-139.42923"
           sodipodi:cy="37.828072"
           sodipodi:r1="9.9775801"
           sodipodi:r2="4.98879"
           sodipodi:arg1="0.52359878"
           sodipodi:arg2="1.5707963"
           inkscape:rounded="0.12"
           inkscape:randomized="0"
           transform="matrix(0.1376646,0.03688712,-0.0684792,0.25556787,-10.680004,274.51491)"
           inkscape:transform-center-y="-0.40489701"
           inkscape:transform-center-x="0.27170338"
           d="m -130.78839,42.816862 c -1.0369,1.795964 -16.24478,1.795964 -17.28168,0 -1.0369,-1.795965 6.56704,-14.96637 8.64084,-14.96637 2.0738,0 9.67774,13.170405 8.64084,14.96637 z" />
        <path
           sodipodi:type="star"
           style="opacity:1;fill:#473b78;fill-opacity:1;stroke:none;stroke-width:3;stroke-linecap:round;stroke-linejoin:round;stroke-miterlimit:4;stroke-dasharray:none;stroke-opacity:1;paint-order:fill markers stroke"
           id="path145255"
           inkscape:flatsided="true"
           sodipodi:sides="3"
           sodipodi:cx="-139.42923"
           sodipodi:cy="37.828072"
           sodipodi:r1="9.9775801"
           sodipodi:r2="4.98879"
           sodipodi:arg1="0.52359878"
           sodipodi:arg2="1.5707963"
           inkscape:rounded="0.12"
           inkscape:randomized="0"
           transform="matrix(0.14252088,0,0,0.26458333,-11.282594,269.13096)"
           inkscape:transform-center-y="-0.48178214"
           d="m -130.78839,42.816862 c -1.0369,1.795964 -16.24478,1.795964 -17.28168,0 -1.0369,-1.795965 6.56704,-14.96637 8.64084,-14.96637 2.0738,0 9.67774,13.170405 8.64084,14.96637 z" />
        <path
           sodipodi:type="star"
           style="opacity:1;fill:#473b78;fill-opacity:1;stroke:none;stroke-width:3;stroke-linecap:round;stroke-linejoin:round;stroke-miterlimit:4;stroke-dasharray:none;stroke-opacity:1;paint-order:fill markers stroke"
           id="path145257"
           inkscape:flatsided="true"
           sodipodi:sides="3"
           sodipodi:cx="-139.42923"
           sodipodi:cy="37.828072"
           sodipodi:r1="9.9775801"
           sodipodi:r2="4.98879"
           sodipodi:arg1="0.52359878"
           sodipodi:arg2="1.5707963"
           inkscape:rounded="0.12"
           inkscape:randomized="0"
           transform="matrix(-0.1234267,0.07126044,0.13229166,0.22913589,-50.185194,279.86881)"
           inkscape:transform-center-y="-0.23482526"
           inkscape:transform-center-x="-0.18086553"
           d="m -130.78839,42.816862 c -1.0369,1.795964 -16.24478,1.795964 -17.28168,0 -1.0369,-1.795965 6.56704,-14.96637 8.64084,-14.96637 2.0738,0 9.67774,13.170405 8.64084,14.96637 z" />
        <path
           sodipodi:type="star"
           style="opacity:1;fill:#4b5bab;fill-opacity:1;stroke:none;stroke-width:3;stroke-linecap:round;stroke-linejoin:round;stroke-miterlimit:4;stroke-dasharray:none;stroke-opacity:1;paint-order:fill markers stroke"
           id="path145259"
           inkscape:flatsided="true"
           sodipodi:sides="3"
           sodipodi:cx="-139.42923"
           sodipodi:cy="37.828072"
           sodipodi:r1="9.9775801"
           sodipodi:r2="4.98879"
           sodipodi:arg1="0.52359878"
           sodipodi:arg2="1.5707963"
           inkscape:rounded="0.12"
           inkscape:randomized="0"
           transform="matrix(-0.1376646,0.03688712,0.0684792,0.25556787,-50.866115,274.51491)"
           inkscape:transform-center-y="-0.40489701"
           inkscape:transform-center-x="-0.27170342"
           d="m -130.78839,42.816862 c -1.0369,1.795964 -16.24478,1.795964 -17.28168,0 -1.0369,-1.795965 6.56704,-14.96637 8.64084,-14.96637 2.0738,0 9.67774,13.170405 8.64084,14.96637 z" />
        <path
           sodipodi:type="star"
           style="opacity:1;fill:#473b78;fill-opacity:1;stroke:none;stroke-width:3;stroke-linecap:round;stroke-linejoin:round;stroke-miterlimit:4;stroke-dasharray:none;stroke-opacity:1;paint-order:fill markers stroke"
           id="path145261"
           inkscape:flatsided="true"
           sodipodi:sides="3"
           sodipodi:cx="-139.42923"
           sodipodi:cy="37.828072"
           sodipodi:r1="9.9775801"
           sodipodi:r2="4.98879"
           sodipodi:arg1="0.52359878"
           sodipodi:arg2="1.5707963"
           inkscape:rounded="0.12"
           inkscape:randomized="0"
           transform="matrix(-0.14252088,0,0,0.26458333,-50.263525,269.13096)"
           inkscape:transform-center-y="-0.48178214"
           d="m -130.78839,42.816862 c -1.0369,1.795964 -16.24478,1.795964 -17.28168,0 -1.0369,-1.795965 6.56704,-14.96637 8.64084,-14.96637 2.0738,0 9.67774,13.170405 8.64084,14.96637 z" />
      </g>
      <path
         sodipodi:type="star"
         style="opacity:1;fill:#ffffff;fill-opacity:1;stroke:none;stroke-width:3;stroke-linecap:round;stroke-linejoin:round;stroke-miterlimit:4;stroke-dasharray:none;stroke-opacity:1;paint-order:fill markers stroke"
         id="path145265"
         inkscape:flatsided="true"
         sodipodi:sides="3"
         sodipodi:cx="-133.79944"
         sodipodi:cy="38.300503"
         sodipodi:r1="9.1112185"
         sodipodi:r2="4.5556092"
         sodipodi:arg1="1.5707963"
         sodipodi:arg2="2.6179939"
         inkscape:rounded="0.12"
         inkscape:randomized="0"
         transform="matrix(0.35125795,0,0,0.21782797,70.546139,263.92518)"
         inkscape:transform-center-y="0.36220731"
         d="m -133.79944,47.411721 c -1.89373,0 -8.83741,-12.026808 -7.89055,-13.666827 0.94687,-1.64002 14.83423,-1.64002 15.7811,-1e-6 0.94686,1.64002 -5.99682,13.666828 -7.89055,13.666828 z" />
      <rect
         ry="0.98629898"
         y="272.78168"
         x="23.756676"
         height="4.9062042"
         width="1.9725975"
         id="rect1181"
         style="fill:#7e7e8f;fill-opacity:1;stroke:none;stroke-width:0.400568;stroke-linecap:square;stroke-linejoin:bevel;stroke-miterlimit:4;stroke-dasharray:none;stroke-dashoffset:0;stroke-opacity:0.978723;paint-order:normal" />
      <path
         id="path142796"
         style="fill:#64596f;fill-opacity:1;stroke:none;stroke-width:0.400569;stroke-linecap:square;stroke-linejoin:bevel;stroke-miterlimit:4;stroke-dasharray:none;stroke-dashoffset:0;stroke-opacity:0.978723;paint-order:normal"
         d="m 25.729219,276.15931 -0.776696,-0.44856 -1.195793,0.6904 v 0.30024 c 0,0.5464 0.440093,0.98651 0.986503,0.98651 0.546409,0 0.985986,-0.4401 0.985986,-0.98651 z" />
      <path
         id="path142798"
         style="fill:#eb564b;fill-opacity:1;stroke:none;stroke-width:0.400569;stroke-linecap:square;stroke-linejoin:bevel;stroke-miterlimit:4;stroke-dasharray:none;stroke-dashoffset:0;stroke-opacity:0.978723;paint-order:normal"
         d="m 25.729219,275.91125 -0.776696,-0.44855 -1.195793,0.6904 v 0.24804 l 1.195793,-0.6904 0.776696,0.44856 z" />
      <path
         id="path142800"
         style="fill:#dedecc;fill-opacity:1;stroke:none;stroke-width:0.79375;stroke-linecap:round;stroke-linejoin:round;stroke-miterlimit:4;stroke-dasharray:none;stroke-opacity:1;paint-order:fill markers stroke"
         d="m 24.952523,275.46271 -1.195793,0.6904 v 0.24804 l 1.195793,-0.6904 0.776696,0.44856 v -0.24805 z" />
      <rect
         style="fill:#c2c2d1;fill-opacity:1;stroke:none;stroke-width:0.400568;stroke-linecap:square;stroke-linejoin:bevel;stroke-miterlimit:4;stroke-dasharray:none;stroke-dashoffset:0;stroke-opacity:0.978723;paint-order:normal"
         id="rect140737"
         width="1.9725975"
         height="4.9062042"
         x="20.721905"
         y="272.78168"
         ry="0.98629898" />
      <path
         id="rect1213"
         style="fill:#81738f;fill-opacity:1;stroke:none;stroke-width:0.400569;stroke-linecap:square;stroke-linejoin:bevel;stroke-miterlimit:4;stroke-dasharray:none;stroke-dashoffset:0;stroke-opacity:0.978723;paint-order:normal"
         d="m 22.694367,276.15931 -0.776697,-0.44856 -1.195792,0.6904 v 0.30024 c 0,0.5464 0.440093,0.98651 0.986503,0.98651 0.546409,0 0.985986,-0.4401 0.985986,-0.98651 z" />
      <path
         id="path142620"
         style="fill:#eb564b;fill-opacity:1;stroke:none;stroke-width:0.400569;stroke-linecap:square;stroke-linejoin:bevel;stroke-miterlimit:4;stroke-dasharray:none;stroke-dashoffset:0;stroke-opacity:0.978723;paint-order:normal"
         d="m 22.694367,275.91125 -0.776697,-0.44855 -1.195792,0.6904 v 0.24804 l 1.195792,-0.6904 0.776697,0.44856 z" />
      <path
         id="rect139502"
         style="fill:#ffffeb;fill-opacity:1;stroke:none;stroke-width:0.79375;stroke-linecap:round;stroke-linejoin:round;stroke-miterlimit:4;stroke-dasharray:none;stroke-opacity:1;paint-order:fill markers stroke"
         d="m 21.91767,275.46271 -1.195792,0.6904 v 0.24804 l 1.195792,-0.6904 0.776697,0.44856 v -0.24805 z" />
      <path
         style="fill:none;stroke:#c2c2d1;stroke-width:0.400568;stroke-linecap:round;stroke-linejoin:miter;stroke-miterlimit:4;stroke-dasharray:none;stroke-opacity:1"
         d="m 22.068609,272.74058 c 0,0 -3.74996,0.0568 -5.154766,-3.91214 -1.404806,-3.96898 -2.455729,-4.75467 -3.261383,-4.52686"
         id="path1179"
         inkscape:connector-curvature="0"
         inkscape:transform-center-x="31.376121"
         inkscape:transform-center-y="-50.530738" />
      <rect
         transform="matrix(-0.86602542,0.49999997,0.49999997,0.86602542,0,0)"
         style="fill:#7e7e8f;fill-opacity:1;stroke:none;stroke-width:0.400568;stroke-linecap:square;stroke-linejoin:bevel;stroke-miterlimit:4;stroke-dasharray:none;stroke-dashoffset:0;stroke-opacity:0.978723;paint-order:normal"
         id="rect1183"
         width="1.9725975"
         height="4.9062042"
         x="112.13812"
         y="245.55115"
         ry="0.98629898" />
      <rect
         style="fill:#ffffff;fill-opacity:1;stroke:none;stroke-width:0.400568;stroke-linecap:square;stroke-linejoin:bevel;stroke-miterlimit:4;stroke-dasharray:none;stroke-dashoffset:0;stroke-opacity:0.978723;paint-order:normal"
         id="rect1187"
         width="6.4272337"
         height="7.8398128"
         x="19.759079"
         y="267.31909"
         ry="2.9311028" />
      <circle
         r="3.540561"
         cy="262.00827"
         cx="19.651108"
         id="circle1189"
         style="fill:#c2c2d1;fill-opacity:1;stroke:none;stroke-width:0.400569;stroke-linecap:square;stroke-linejoin:bevel;stroke-miterlimit:4;stroke-dasharray:none;stroke-dashoffset:0;stroke-opacity:0.978723;paint-order:normal" />
      <circle
         style="fill:#a191a1;fill-opacity:1;stroke:none;stroke-width:0.400569;stroke-linecap:square;stroke-linejoin:bevel;stroke-miterlimit:4;stroke-dasharray:none;stroke-dashoffset:0;stroke-opacity:0.978723;paint-order:normal"
         id="circle1191"
         cx="19.651108"
         cy="262.00827"
         r="2.3315887" />
      <circle
         style="fill:#c2c2d1;fill-opacity:1;stroke:none;stroke-width:0.400569;stroke-linecap:square;stroke-linejoin:bevel;stroke-miterlimit:4;stroke-dasharray:none;stroke-dashoffset:0;stroke-opacity:0.978723;paint-order:normal"
         id="circle1195"
         cx="25.636753"
         cy="262.00827"
         r="3.540561" />
      <circle
         r="2.3315887"
         cy="262.00827"
         cx="25.636753"
         id="circle1197"
         style="fill:#a191a1;fill-opacity:1;stroke:none;stroke-width:0.400569;stroke-linecap:square;stroke-linejoin:bevel;stroke-miterlimit:4;stroke-dasharray:none;stroke-dashoffset:0;stroke-opacity:0.978723;paint-order:normal" />
      <rect
         ry="0.98629898"
         y="222.55316"
         x="151.9718"
         height="4.9062042"
         width="1.9725975"
         id="rect1203"
         style="fill:#ffffff;fill-opacity:1;stroke:none;stroke-width:0.400568;stroke-linecap:square;stroke-linejoin:bevel;stroke-miterlimit:4;stroke-dasharray:none;stroke-dashoffset:0;stroke-opacity:0.978723;paint-order:normal"
         transform="rotate(29.999998)" />
      <rect
         style="fill:#c2c2d1;fill-opacity:1;stroke:none;stroke-width:0.400568;stroke-linecap:square;stroke-linejoin:bevel;stroke-miterlimit:4;stroke-dasharray:none;stroke-dashoffset:0;stroke-opacity:0.978723;paint-order:normal"
         id="rect1205"
         width="8.9019804"
         height="8.9019804"
         x="18.69873"
         y="260.69321"
         ry="3.6417198" />
      <circle
         style="fill:#3e2347;fill-opacity:1;stroke:none;stroke-width:0.400568;stroke-linecap:square;stroke-linejoin:bevel;stroke-miterlimit:4;stroke-dasharray:none;stroke-dashoffset:0;stroke-opacity:0.978723;paint-order:normal"
         id="circle1207"
         cx="21.946482"
         cy="265.91571"
         r="0.64377093" />
      <circle
         r="0.64377093"
         cy="265.91571"
         cx="26.381359"
         id="circle1209"
         style="fill:#3e2347;fill-opacity:1;stroke:none;stroke-width:0.400568;stroke-linecap:square;stroke-linejoin:bevel;stroke-miterlimit:4;stroke-dasharray:none;stroke-dashoffset:0;stroke-opacity:0.978723;paint-order:normal" />
      <path
         sodipodi:type="star"
         style="opacity:1;fill:#3e2347;fill-opacity:1;stroke:none;stroke-width:2.36253;stroke-linecap:square;stroke-linejoin:bevel;stroke-miterlimit:4;stroke-dasharray:none;stroke-dashoffset:0;stroke-opacity:0.978723;paint-order:normal"
         id="path1211"
         sodipodi:sides="3"
         sodipodi:cx="-45.408615"
         sodipodi:cy="234.57965"
         sodipodi:r1="2.997191"
         sodipodi:r2="1.4985955"
         sodipodi:arg1="1.5707963"
         sodipodi:arg2="2.6179939"
         inkscape:flatsided="true"
         inkscape:rounded="0.18"
         inkscape:randomized="0"
         inkscape:transform-center-x="-6.3665075e-06"
         inkscape:transform-center-y="1.0312406"
         transform="matrix(0.16955045,0,0,0.16955045,32.435214,227.5017)"
         d="m -45.408615,237.57684 c -0.934432,0 -3.062859,-3.68654 -2.595644,-4.49578 0.467216,-0.80925 4.724071,-0.80925 5.191287,0 0.467216,0.80924 -1.661211,4.49578 -2.595643,4.49578 z" />
      <path
         id="path60367"
         style="color:#000000;fill:#ffe478;stroke-width:1;stroke-linecap:round;stroke-linejoin:round;-inkscape-stroke:none"
         d="m 20.325003,261.2982 c -0.258258,0.1713 -0.493175,0.37469 -0.699183,0.60461 l 5.211052,1.73426 a 0.39691468,0.39691468 0 0 0 0.293005,-0.0155 l 2.066541,-0.96118 c -0.123931,-0.24004 -0.273892,-0.46426 -0.445968,-0.66921 l -1.812292,0.84336 z" />
      <ellipse
         style="fill:#826b8f;fill-opacity:1;stroke:none;stroke-width:0.79375;stroke-linecap:round;stroke-linejoin:round;stroke-miterlimit:4;stroke-dasharray:none;stroke-opacity:1;paint-order:fill markers stroke"
         id="path64249"
         cx="25.044926"
         cy="263.21729"
         rx="0.33375251"
         ry="0.47235194" />
      <path
         id="path67924"
         style="opacity:0.410695;fill:#ffffff;fill-opacity:1;stroke:none;stroke-width:0.79375;stroke-linecap:round;stroke-linejoin:round;stroke-miterlimit:4;stroke-dasharray:none;stroke-opacity:1;paint-order:fill markers stroke"
         d="m 25.045128,262.74514 a 0.3337525,0.47235194 0 0 0 -0.33383,0.47232 0.3337525,0.47235194 0 0 0 0.0016,0.047 0.30824429,0.34154239 0 0 0 0.183451,0.0672 0.30824429,0.34154239 0 0 0 0.307992,-0.34158 0.30824429,0.34154239 0 0 0 -0.08217,-0.23255 0.3337525,0.47235194 0 0 0 -0.077,-0.0124 z" />
      <path
         sodipodi:type="star"
         style="opacity:1;fill:#64596f;fill-opacity:1;stroke:none;stroke-width:3;stroke-linecap:round;stroke-linejoin:round;stroke-miterlimit:4;stroke-dasharray:none;stroke-opacity:1;paint-order:fill markers stroke"
         id="path78068"
         inkscape:flatsided="true"
         sodipodi:sides="3"
         sodipodi:cx="-139.42923"
         sodipodi:cy="37.828072"
         sodipodi:r1="9.9775801"
         sodipodi:r2="4.98879"
         sodipodi:arg1="0.52359878"
         sodipodi:arg2="1.5707963"
         inkscape:rounded="0.12"
         inkscape:randomized="0"
         transform="matrix(0.11109122,0.06413855,-0.1190702,0.20623565,41.043746,274.33121)"
         inkscape:transform-center-y="-0.23482526"
         inkscape:transform-center-x="0.18086549"
         d="m -130.78839,42.816862 c -1.0369,1.795964 -16.24478,1.795964 -17.28168,0 -1.0369,-1.795965 6.56704,-14.96637 8.64084,-14.96637 2.0738,0 9.67774,13.170405 8.64084,14.96637 z" />
      <path
         sodipodi:type="star"
         style="opacity:1;fill:#81738f;fill-opacity:1;stroke:none;stroke-width:3;stroke-linecap:round;stroke-linejoin:round;stroke-miterlimit:4;stroke-dasharray:none;stroke-opacity:1;paint-order:fill markers stroke"
         id="path81859"
         inkscape:flatsided="true"
         sodipodi:sides="3"
         sodipodi:cx="-139.42923"
         sodipodi:cy="37.828072"
         sodipodi:r1="9.9775801"
         sodipodi:r2="4.98879"
         sodipodi:arg1="0.52359878"
         sodipodi:arg2="1.5707963"
         inkscape:rounded="0.12"
         inkscape:randomized="0"
         transform="matrix(0.12390616,0.03320056,-0.06163527,0.23002597,41.656614,269.5124)"
         inkscape:transform-center-y="-0.40489701"
         inkscape:transform-center-x="0.27170338"
         d="m -130.78839,42.816862 c -1.0369,1.795964 -16.24478,1.795964 -17.28168,0 -1.0369,-1.795965 6.56704,-14.96637 8.64084,-14.96637 2.0738,0 9.67774,13.170405 8.64084,14.96637 z" />
      <path
         sodipodi:type="star"
         style="opacity:1;fill:#64596f;fill-opacity:1;stroke:none;stroke-width:3;stroke-linecap:round;stroke-linejoin:round;stroke-miterlimit:4;stroke-dasharray:none;stroke-opacity:1;paint-order:fill markers stroke"
         id="path81861"
         inkscape:flatsided="true"
         sodipodi:sides="3"
         sodipodi:cx="-139.42923"
         sodipodi:cy="37.828072"
         sodipodi:r1="9.9775801"
         sodipodi:r2="4.98879"
         sodipodi:arg1="0.52359878"
         sodipodi:arg2="1.5707963"
         inkscape:rounded="0.12"
         inkscape:randomized="0"
         transform="matrix(0.1282771,0,0,0.23814041,41.114248,264.66652)"
         inkscape:transform-center-y="-0.48178214"
         d="m -130.78839,42.816862 c -1.0369,1.795964 -16.24478,1.795964 -17.28168,0 -1.0369,-1.795965 6.56704,-14.96637 8.64084,-14.96637 2.0738,0 9.67774,13.170405 8.64084,14.96637 z" />
      <path
         sodipodi:type="star"
         style="opacity:1;fill:#64596f;fill-opacity:1;stroke:none;stroke-width:3;stroke-linecap:round;stroke-linejoin:round;stroke-miterlimit:4;stroke-dasharray:none;stroke-opacity:1;paint-order:fill markers stroke"
         id="path81863"
         inkscape:flatsided="true"
         sodipodi:sides="3"
         sodipodi:cx="-139.42923"
         sodipodi:cy="37.828072"
         sodipodi:r1="9.9775801"
         sodipodi:r2="4.98879"
         sodipodi:arg1="0.52359878"
         sodipodi:arg2="1.5707963"
         inkscape:rounded="0.12"
         inkscape:randomized="0"
         transform="matrix(-0.11109122,0.06413855,0.1190702,0.20623565,6.099642,274.33121)"
         inkscape:transform-center-y="-0.23482526"
         inkscape:transform-center-x="-0.18086553"
         d="m -130.78839,42.816862 c -1.0369,1.795964 -16.24478,1.795964 -17.28168,0 -1.0369,-1.795965 6.56704,-14.96637 8.64084,-14.96637 2.0738,0 9.67774,13.170405 8.64084,14.96637 z" />
      <path
         sodipodi:type="star"
         style="opacity:1;fill:#81738f;fill-opacity:1;stroke:none;stroke-width:3;stroke-linecap:round;stroke-linejoin:round;stroke-miterlimit:4;stroke-dasharray:none;stroke-opacity:1;paint-order:fill markers stroke"
         id="path81865"
         inkscape:flatsided="true"
         sodipodi:sides="3"
         sodipodi:cx="-139.42923"
         sodipodi:cy="37.828072"
         sodipodi:r1="9.9775801"
         sodipodi:r2="4.98879"
         sodipodi:arg1="0.52359878"
         sodipodi:arg2="1.5707963"
         inkscape:rounded="0.12"
         inkscape:randomized="0"
         transform="matrix(-0.12390616,0.03320056,0.06163527,0.23002597,5.486773,269.5124)"
         inkscape:transform-center-y="-0.40489701"
         inkscape:transform-center-x="-0.27170342"
         d="m -130.78839,42.816862 c -1.0369,1.795964 -16.24478,1.795964 -17.28168,0 -1.0369,-1.795965 6.56704,-14.96637 8.64084,-14.96637 2.0738,0 9.67774,13.170405 8.64084,14.96637 z" />
      <path
         sodipodi:type="star"
         style="opacity:1;fill:#64596f;fill-opacity:1;stroke:none;stroke-width:3;stroke-linecap:round;stroke-linejoin:round;stroke-miterlimit:4;stroke-dasharray:none;stroke-opacity:1;paint-order:fill markers stroke"
         id="path81867"
         inkscape:flatsided="true"
         sodipodi:sides="3"
         sodipodi:cx="-139.42923"
         sodipodi:cy="37.828072"
         sodipodi:r1="9.9775801"
         sodipodi:r2="4.98879"
         sodipodi:arg1="0.52359878"
         sodipodi:arg2="1.5707963"
         inkscape:rounded="0.12"
         inkscape:randomized="0"
         transform="matrix(-0.1282771,0,0,0.23814041,6.029139,264.66652)"
         inkscape:transform-center-y="-0.48178214"
         d="m -130.78839,42.816862 c -1.0369,1.795964 -16.24478,1.795964 -17.28168,0 -1.0369,-1.795965 6.56704,-14.96637 8.64084,-14.96637 2.0738,0 9.67774,13.170405 8.64084,14.96637 z" />
      <path
         sodipodi:type="star"
         style="opacity:1;fill:#ffffff;fill-opacity:1;stroke:none;stroke-width:3;stroke-linecap:round;stroke-linejoin:round;stroke-miterlimit:4;stroke-dasharray:none;stroke-opacity:1;paint-order:fill markers stroke"
         id="path83383"
         inkscape:flatsided="true"
         sodipodi:sides="3"
         sodipodi:cx="-133.79944"
         sodipodi:cy="38.300503"
         sodipodi:r1="9.1112185"
         sodipodi:r2="4.5556092"
         sodipodi:arg1="1.5707963"
         sodipodi:arg2="2.6179939"
         inkscape:rounded="0.12"
         inkscape:randomized="0"
         transform="matrix(0.35125795,0,0,0.21782797,70.546139,263.92518)"
         inkscape:transform-center-y="0.36220731"
         d="m -133.79944,47.411721 c -1.89373,0 -8.83741,-12.026808 -7.89055,-13.666827 0.94687,-1.64002 14.83423,-1.64002 15.7811,-1e-6 0.94686,1.64002 -5.99682,13.666828 -7.89055,13.666828 z" />
      <path
         sodipodi:type="star"
         style="opacity:1;fill:#5a265e;fill-opacity:1;stroke:none;stroke-width:3;stroke-linecap:round;stroke-linejoin:round;stroke-miterlimit:4;stroke-dasharray:none;stroke-opacity:1;paint-order:fill markers stroke"
         id="path78037"
         inkscape:flatsided="true"
         sodipodi:sides="3"
         sodipodi:cx="-113.48855"
         sodipodi:cy="20.385611"
         sodipodi:r1="17.416616"
         sodipodi:r2="8.7083082"
         sodipodi:arg1="0"
         sodipodi:arg2="1.0471976"
         inkscape:rounded="0.12"
         inkscape:randomized="0"
         transform="matrix(-0.14175319,0,0,0.12776794,9.602906,267.7181)"
         inkscape:transform-center-x="0.6384273"
         inkscape:transform-center-y="5.7219478e-06"
         d="m -96.071932,20.385611 c 0,3.619975 -22.989938,16.89322 -26.124928,15.083232 -3.13499,-1.809988 -3.13499,-28.3564768 0,-30.1664647 3.13499,-1.8099879 26.124928,11.4632567 26.124928,15.0832327 z" />
      <path
         sodipodi:type="star"
         style="opacity:1;fill:#5a265e;fill-opacity:1;stroke:none;stroke-width:3;stroke-linecap:round;stroke-linejoin:round;stroke-miterlimit:4;stroke-dasharray:none;stroke-opacity:1;paint-order:fill markers stroke"
         id="path68628"
         inkscape:flatsided="true"
         sodipodi:sides="3"
         sodipodi:cx="-113.48855"
         sodipodi:cy="20.385611"
         sodipodi:r1="17.416616"
         sodipodi:r2="8.7083082"
         sodipodi:arg1="0"
         sodipodi:arg2="1.0471976"
         inkscape:rounded="0.12"
         inkscape:randomized="0"
         transform="matrix(0.14175319,0,0,0.12776794,37.540481,267.7181)"
         inkscape:transform-center-x="-0.63842742"
         inkscape:transform-center-y="5.7219478e-06"
         d="m -96.071932,20.385611 c 0,3.619975 -22.989938,16.89322 -26.124928,15.083232 -3.13499,-1.809988 -3.13499,-28.3564768 0,-30.1664647 3.13499,-1.8099879 26.124928,11.4632567 26.124928,15.0832327 z" />
      <circle
         style="fill:#7e7e8f;fill-opacity:1;stroke:none;stroke-width:0.560186;stroke-linecap:round;stroke-linejoin:round;stroke-miterlimit:4;stroke-dasharray:none;stroke-opacity:1;paint-order:fill markers stroke"
         id="path72001"
         cx="23.564581"
         cy="270.42682"
         r="0.93140054" />
      <circle
         style="fill:#bd4882;fill-opacity:1;stroke:none;stroke-width:0.449764;stroke-linecap:round;stroke-linejoin:round;stroke-miterlimit:4;stroke-dasharray:none;stroke-opacity:1;paint-order:fill markers stroke"
         id="circle75704"
         cx="23.564581"
         cy="270.24323"
         r="0.74780583" />
      <circle
         style="opacity:0.229675;fill:#ffffff;fill-opacity:1;stroke:none;stroke-width:0.325517;stroke-linecap:round;stroke-linejoin:round;stroke-miterlimit:4;stroke-dasharray:none;stroke-opacity:1;paint-order:fill markers stroke"
         id="circle77073"
         cx="23.457914"
         cy="270.05383"
         r="0.54122478" />
      <path
         style="color:#000000;fill:#000000;fill-opacity:0;stroke-width:0.12249;stroke-linecap:round;stroke-linejoin:round;-inkscape-stroke:none;paint-order:fill markers stroke"
         d="m 17.843355,265.26654 h 0.0025 v 1.48942 h -0.0025 z"
         id="path114035" />
      <path
         style="color:#000000;fill:#000000;fill-opacity:0;stroke-width:0.281781;stroke-linecap:round;stroke-linejoin:round;-inkscape-stroke:none;paint-order:fill markers stroke"
         d="m 18.316356,265.12993 a 0.44506553,0.44506553 0 0 1 -0.441395,0.18784 0.44506553,0.44506553 0 0 1 -0.355555,-0.32202 0.44506553,0.44506553 0 0 1 0.143335,-0.45779"
         id="path114041" />
      <path
         style="color:#000000;fill:#dbdbe3;fill-opacity:1;stroke-width:0.613913;stroke-linecap:round;stroke-linejoin:round;-inkscape-stroke:none;paint-order:fill markers stroke"
         d="m 17.703055,264.67419 c -0.107307,0.0901 -0.153094,0.23532 -0.116308,0.3705 0.03679,0.13517 0.149627,0.23694 0.287772,0.26019 0.138145,0.0233 0.277098,-0.0366 0.356118,-0.15228 a 0.08649457,0.08649457 0 0 0 -0.02278,-0.1199 0.08649457,0.08649457 0 0 0 -0.119904,0.0228 c -0.0412,0.0603 -0.112628,0.0901 -0.184655,0.0779 -0.07203,-0.0121 -0.130701,-0.0638 -0.14988,-0.13429 -0.01918,-0.0705 0.004,-0.14609 0.05995,-0.19305 a 0.08649457,0.08649457 0 0 0 0.01079,-0.12111 0.08649457,0.08649457 0 0 0 -0.121104,-0.0108 z"
         id="path114044" />
      <g
         id="g75866"
         transform="translate(35.082758,-19.481657)">
        <path
           style="color:#000000;fill:#dbdbe3;fill-opacity:1;stroke-linecap:round;stroke-linejoin:round;-inkscape-stroke:none;paint-order:fill markers stroke"
           d="m -17.240234,284.96502 a 0.06125113,0.06125113 0 0 0 -0.05859,0.0605 0.06125113,0.06125113 0 0 0 -0.002,0 v 1.49024 a 0.06125113,0.06125113 0 0 0 0.002,0 0.06125113,0.06125113 0 0 0 0.05859,0.0606 h 0.0039 a 0.06125113,0.06125113 0 0 0 0.05859,-0.0606 0.06125113,0.06125113 0 0 0 0.002,0 v -1.49024 a 0.06125113,0.06125113 0 0 0 -0.002,0 0.06125113,0.06125113 0 0 0 -0.05859,-0.0605 z"
           id="path114038" />
        <circle
           style="fill:#dbdbe3;fill-opacity:1;stroke:none;stroke-width:0.79375;stroke-linecap:round;stroke-linejoin:round;paint-order:fill markers stroke"
           id="path1299"
           cx="-17.238283"
           cy="285.23096"
           r="0.48166913" />
        <path
           sodipodi:type="star"
           style="fill:#dbdbe3;fill-opacity:1;stroke:none;stroke-width:1;stroke-linecap:round;stroke-linejoin:round;stroke-miterlimit:4;stroke-dasharray:none;stroke-opacity:1;paint-order:fill markers stroke"
           id="path73556"
           inkscape:flatsided="true"
           sodipodi:sides="4"
           sodipodi:cx="-99.525063"
           sodipodi:cy="51.902596"
           sodipodi:r1="7.0749049"
           sodipodi:r2="5.0027132"
           sodipodi:arg1="1.5707963"
           sodipodi:arg2="2.3561945"
           inkscape:rounded="0.2"
           inkscape:randomized="0"
           transform="matrix(0.05372455,0,0,0.08362738,-11.891345,282.45825)"
           d="m -99.525062,58.9775 c -2.001088,0 -7.074908,-5.073819 -7.074908,-7.074904 0,-2.001086 5.07382,-7.074905 7.074907,-7.074905 2.001086,0 7.074905,5.073819 7.074905,7.074904 0,2.001086 -5.073819,7.074905 -7.074904,7.074905 z" />
      </g>
      <path
         style="color:#000000;fill:#000000;fill-opacity:0;stroke-width:0.12249;stroke-linecap:round;stroke-linejoin:round;-inkscape-stroke:none;paint-order:fill markers stroke"
         d="m 26.538592,265.26654 h -0.0025 v 1.48942 h 0.0025 z"
         id="path75868" />
      <path
         style="color:#000000;fill:#000000;fill-opacity:0;stroke-width:0.281781;stroke-linecap:round;stroke-linejoin:round;-inkscape-stroke:none;paint-order:fill markers stroke"
         d="m 26.065591,265.12993 a 0.44506553,0.44506553 0 0 0 0.441395,0.18784 0.44506553,0.44506553 0 0 0 0.355555,-0.32202 0.44506553,0.44506553 0 0 0 -0.143335,-0.45779"
         id="path75870" />
      <path
         style="color:#000000;fill:#dbdbe3;fill-opacity:1;stroke-width:0.613913;stroke-linecap:round;stroke-linejoin:round;-inkscape-stroke:none;paint-order:fill markers stroke"
         d="m 28.360585,264.13002 c 0.107307,0.0901 0.153094,0.23533 0.116308,0.3705 -0.03679,0.13518 -0.149627,0.23694 -0.287772,0.26019 -0.138145,0.0233 -0.277098,-0.0366 -0.356118,-0.15228 a 0.08649457,0.08649457 0 0 1 0.02278,-0.11989 0.08649457,0.08649457 0 0 1 0.119904,0.0228 c 0.0412,0.0603 0.112628,0.0901 0.184655,0.0779 0.07203,-0.0121 0.130701,-0.0638 0.14988,-0.1343 0.01918,-0.0705 -0.004,-0.14609 -0.05995,-0.19305 a 0.08649457,0.08649457 0 0 1 -0.01079,-0.1211 0.08649457,0.08649457 0 0 1 0.121104,-0.0108 z"
         id="path75872" />
      <g
         id="g75880"
         transform="matrix(-1,0,0,1,10.980882,-20.025819)">
        <path
           style="color:#000000;fill:#dbdbe3;fill-opacity:1;stroke-linecap:round;stroke-linejoin:round;-inkscape-stroke:none;paint-order:fill markers stroke"
           d="m -17.240234,284.96502 a 0.06125113,0.06125113 0 0 0 -0.05859,0.0605 0.06125113,0.06125113 0 0 0 -0.002,0 v 1.49024 a 0.06125113,0.06125113 0 0 0 0.002,0 0.06125113,0.06125113 0 0 0 0.05859,0.0606 h 0.0039 a 0.06125113,0.06125113 0 0 0 0.05859,-0.0606 0.06125113,0.06125113 0 0 0 0.002,0 v -1.49024 a 0.06125113,0.06125113 0 0 0 -0.002,0 0.06125113,0.06125113 0 0 0 -0.05859,-0.0605 z"
           id="path75874" />
        <circle
           style="fill:#dbdbe3;fill-opacity:1;stroke:none;stroke-width:0.79375;stroke-linecap:round;stroke-linejoin:round;paint-order:fill markers stroke"
           id="circle75876"
           cx="-17.238283"
           cy="285.23096"
           r="0.48166913" />
        <path
           sodipodi:type="star"
           style="fill:#dbdbe3;fill-opacity:1;stroke:none;stroke-width:1;stroke-linecap:round;stroke-linejoin:round;stroke-miterlimit:4;stroke-dasharray:none;stroke-opacity:1;paint-order:fill markers stroke"
           id="path75878"
           inkscape:flatsided="true"
           sodipodi:sides="4"
           sodipodi:cx="-99.525063"
           sodipodi:cy="51.902596"
           sodipodi:r1="7.0749049"
           sodipodi:r2="5.0027132"
           sodipodi:arg1="1.5707963"
           sodipodi:arg2="2.3561945"
           inkscape:rounded="0.2"
           inkscape:randomized="0"
           transform="matrix(0.05372455,0,0,0.08362738,-11.891345,282.45825)"
           d="m -99.525062,58.9775 c -2.001088,0 -7.074908,-5.073819 -7.074908,-7.074904 0,-2.001086 5.07382,-7.074905 7.074907,-7.074905 2.001086,0 7.074905,5.073819 7.074905,7.074904 0,2.001086 -5.073819,7.074905 -7.074904,7.074905 z" />
      </g>
    </g>
  </g>
</svg>
