<?xml version="1.0" encoding="UTF-8" standalone="no"?>
<!-- Created with Inkscape (http://www.inkscape.org/) -->

<svg
   width="128"
   height="128"
   viewBox="0 0 33.866665 33.866667"
   version="1.1"
   id="svg1307"
   inkscape:version="1.2.1 (9c6d41e410, 2022-07-14)"
   sodipodi:docname="saint-scorpio.svg"
   inkscape:export-filename="../../../../assets-thumbnails/Saint Scorpio.png"
   inkscape:export-xdpi="96.000008"
   inkscape:export-ydpi="96.000008"
   xmlns:inkscape="http://www.inkscape.org/namespaces/inkscape"
   xmlns:sodipodi="http://sodipodi.sourceforge.net/DTD/sodipodi-0.dtd"
   xmlns="http://www.w3.org/2000/svg"
   xmlns:svg="http://www.w3.org/2000/svg"
   xmlns:rdf="http://www.w3.org/1999/02/22-rdf-syntax-ns#"
   xmlns:cc="http://creativecommons.org/ns#"
   xmlns:dc="http://purl.org/dc/elements/1.1/">
  <defs
     id="defs1301">
    <inkscape:path-effect
       effect="powerstroke"
       id="path-effect126865"
       is_visible="true"
       lpeversion="1"
       offset_points="0.36607912,0.65819441 | 0.7369579,1.5394423 | 0.91447105,0.73804339"
       not_jump="false"
       sort_points="true"
       interpolator_type="CentripetalCatmullRom"
       interpolator_beta="0.2"
       start_linecap_type="zerowidth"
       linejoin_type="round"
       miter_limit="4"
       scale_width="1"
       end_linecap_type="zerowidth" />
    <inkscape:path-effect
       effect="skeletal"
       id="path-effect114945"
       is_visible="true"
       lpeversion="1"
       pattern="M 0,4.9921381 C 0,2.2364779 2.2364779,0 4.9921381,0 c 2.7556603,0 4.9921381,2.2364779 4.9921381,4.9921381 0,2.7556603 -2.2364778,4.9921381 -4.9921381,4.9921381 C 2.2364779,9.9842762 0,7.7477984 0,4.9921381 Z"
       copytype="single_stretched"
       prop_scale="1"
       scale_y_rel="false"
       spacing="0"
       normal_offset="0"
       tang_offset="0"
       prop_units="false"
       vertical_pattern="false"
       hide_knot="false"
       fuse_tolerance="0" />
    <inkscape:path-effect
       effect="skeletal"
       id="path-effect95947"
       is_visible="true"
       lpeversion="1"
       pattern="M 0,4.9921381 C 0,2.2364779 2.2364779,0 4.9921381,0 c 2.7556603,0 4.9921381,2.2364779 4.9921381,4.9921381 0,2.7556603 -2.2364778,4.9921381 -4.9921381,4.9921381 C 2.2364779,9.9842762 0,7.7477984 0,4.9921381 Z"
       copytype="single_stretched"
       prop_scale="1"
       scale_y_rel="false"
       spacing="0"
       normal_offset="0"
       tang_offset="0"
       prop_units="false"
       vertical_pattern="false"
       hide_knot="false"
       fuse_tolerance="0" />
    <inkscape:path-effect
       effect="skeletal"
       id="path-effect91934"
       is_visible="true"
       lpeversion="1"
       pattern="M 0,4.9921381 C 0,2.2364779 2.2364779,0 4.9921381,0 c 2.7556603,0 4.9921381,2.2364779 4.9921381,4.9921381 0,2.7556603 -2.2364778,4.9921381 -4.9921381,4.9921381 C 2.2364779,9.9842762 0,7.7477984 0,4.9921381 Z"
       copytype="single_stretched"
       prop_scale="1"
       scale_y_rel="false"
       spacing="0"
       normal_offset="0"
       tang_offset="0"
       prop_units="false"
       vertical_pattern="false"
       hide_knot="false"
       fuse_tolerance="0" />
    <inkscape:path-effect
       effect="skeletal"
       id="path-effect91930"
       is_visible="true"
       lpeversion="1"
       pattern="M 0,4.9921381 C 0,2.2364779 2.2364779,0 4.9921381,0 c 2.7556603,0 4.9921381,2.2364779 4.9921381,4.9921381 0,2.7556603 -2.2364778,4.9921381 -4.9921381,4.9921381 C 2.2364779,9.9842762 0,7.7477984 0,4.9921381 Z"
       copytype="single_stretched"
       prop_scale="1"
       scale_y_rel="false"
       spacing="0"
       normal_offset="0"
       tang_offset="0"
       prop_units="false"
       vertical_pattern="false"
       hide_knot="false"
       fuse_tolerance="0" />
    <inkscape:path-effect
       effect="skeletal"
       id="path-effect91926"
       is_visible="true"
       lpeversion="1"
       pattern="M 0,4.9921381 C 0,2.2364779 2.2364779,0 4.9921381,0 c 2.7556603,0 4.9921381,2.2364779 4.9921381,4.9921381 0,2.7556603 -2.2364778,4.9921381 -4.9921381,4.9921381 C 2.2364779,9.9842762 0,7.7477984 0,4.9921381 Z"
       copytype="single_stretched"
       prop_scale="1"
       scale_y_rel="false"
       spacing="0"
       normal_offset="0"
       tang_offset="0"
       prop_units="false"
       vertical_pattern="false"
       hide_knot="false"
       fuse_tolerance="0" />
    <inkscape:path-effect
       effect="bend_path"
       id="path-effect3396"
       is_visible="true"
       lpeversion="1"
       bendpath="m -21.628115,269.61682 c 0,0 3.070387,-3.83772 6.9053,-0.0623"
       prop_scale="0.56983633"
       scale_y_rel="false"
       vertical="false"
       hide_knot="false" />
    <inkscape:path-effect
       effect="skeletal"
       id="path-effect3289"
       is_visible="true"
       lpeversion="1"
       pattern="M 0,4.9921381 C 0,2.2364779 2.2364779,0 4.9921381,0 c 2.7556603,0 4.9921381,2.2364779 4.9921381,4.9921381 0,2.7556603 -2.2364778,4.9921381 -4.9921381,4.9921381 C 2.2364779,9.9842762 0,7.7477984 0,4.9921381 Z"
       copytype="single_stretched"
       prop_scale="0.16777409"
       scale_y_rel="false"
       spacing="0"
       normal_offset="0"
       tang_offset="0"
       prop_units="false"
       vertical_pattern="false"
       hide_knot="false"
       fuse_tolerance="0" />
    <inkscape:path-effect
       effect="skeletal"
       id="path-effect2449"
       is_visible="true"
       lpeversion="1"
       pattern="M 0,4.9921381 C 0,2.2364779 2.2364779,0 4.9921381,0 c 2.7556603,0 4.9921381,2.2364779 4.9921381,4.9921381 0,2.7556603 -2.2364778,4.9921381 -4.9921381,4.9921381 C 2.2364779,9.9842762 0,7.7477984 0,4.9921381 Z"
       copytype="single_stretched"
       prop_scale="0.16777409"
       scale_y_rel="false"
       spacing="0"
       normal_offset="0"
       tang_offset="0"
       prop_units="false"
       vertical_pattern="false"
       hide_knot="false"
       fuse_tolerance="0" />
  </defs>
  <sodipodi:namedview
     id="base"
     pagecolor="#282828"
     bordercolor="#666666"
     borderopacity="1.0"
     inkscape:pageopacity="0"
     inkscape:pageshadow="2"
     inkscape:zoom="3.959798"
     inkscape:cx="0"
     inkscape:cy="61.493036"
     inkscape:document-units="mm"
     inkscape:current-layer="layer1"
     showgrid="true"
     inkscape:window-width="1920"
     inkscape:window-height="1022"
     inkscape:window-x="0"
     inkscape:window-y="30"
     inkscape:window-maximized="1"
     units="px"
     inkscape:snap-bbox="true"
     inkscape:bbox-nodes="true"
     inkscape:snap-page="true"
     inkscape:snap-nodes="true"
     inkscape:bbox-paths="false"
     inkscape:snap-global="false"
     inkscape:snap-bbox-midpoints="false"
     inkscape:snap-others="false"
     showguides="true"
     inkscape:guide-bbox="true"
     inkscape:snap-grids="false"
     inkscape:snap-to-guides="true"
     inkscape:pagecheckerboard="0"
     inkscape:object-paths="true"
     inkscape:snap-intersection-paths="true"
     inkscape:snap-smooth-nodes="true"
     inkscape:snap-midpoints="true"
     inkscape:showpageshadow="0"
     inkscape:deskcolor="#282828">
    <inkscape:grid
       type="xygrid"
       id="grid883"
       empspacing="4" />
    <sodipodi:guide
       position="33.866665,50.800001"
       orientation="1,0"
       id="guide877"
       inkscape:locked="false" />
  </sodipodi:namedview>
  <metadata
     id="metadata1304">
    <rdf:RDF>
      <cc:Work
         rdf:about="">
        <dc:format>image/svg+xml</dc:format>
        <dc:type
           rdf:resource="http://purl.org/dc/dcmitype/StillImage" />
      </cc:Work>
    </rdf:RDF>
  </metadata>
  <g
     inkscape:label="Layer 1"
     inkscape:groupmode="layer"
     id="layer1"
     transform="translate(0,-263.13332)">
    <g
       id="g4977"
       transform="matrix(1.6517261,0,0,1.6517261,13.590211,-159.74906)">
      <g
         id="g2107"
         transform="matrix(-0.63969804,0,0,0.63969804,-5.990424,98.762546)"
         style="fill:#c99f35;fill-opacity:1">
        <path
           id="path2103"
           style="fill:#c99f35;fill-opacity:1;stroke:none;stroke-width:4.23333;stroke-linecap:round;stroke-linejoin:round;paint-order:fill markers stroke;stop-color:#000000"
           sodipodi:type="inkscape:offset"
           inkscape:radius="0.49523687"
           inkscape:original="M -18.396484 265.73633 A 5.1056404 5.1056404 0 0 0 -23.501953 270.8418 A 5.1056404 5.1056404 0 0 0 -23.496094 271.01758 L -13.296875 271.01758 A 5.1056404 5.1056404 0 0 0 -13.291016 270.8418 A 5.1056404 5.1056404 0 0 0 -18.396484 265.73633 z "
           d="m -18.396484,265.24023 c -1.466244,5e-5 -2.924147,0.60384 -3.960938,1.64063 -1.036791,1.03679 -1.640576,2.49469 -1.640625,3.96094 a 0.4952864,0.4952864 0 0 0 0,0.008 c 0.001,0.0643 0.0046,0.12913 0.0078,0.19336 a 0.4952864,0.4952864 0 0 0 0.49414,0.4707 h 10.199219 a 0.4952864,0.4952864 0 0 0 0.494141,-0.4707 c 0.0032,-0.0642 0.0068,-0.12905 0.0078,-0.19336 a 0.4952864,0.4952864 0 0 0 0,-0.002 0.4952864,0.4952864 0 0 0 0,-0.002 0.4952864,0.4952864 0 0 0 0,-0.002 0.4952864,0.4952864 0 0 0 0,-0.002 c -4.9e-5,-1.46625 -0.603834,-2.92415 -1.640625,-3.96094 -1.03679,-1.03679 -2.494694,-1.64058 -3.960937,-1.64063 z"
           transform="matrix(0.52446173,0,0,0.52446173,-10.038859,123.75595)" />
        <path
           id="path2105"
           style="fill:#c99f35;fill-opacity:1;stroke-width:0.576896;stroke-linecap:round;stroke-linejoin:round;paint-order:fill markers stroke;stop-color:#000000"
           inkscape:transform-center-x="-0.31734028"
           inkscape:transform-center-y="1.192013e-05"
           d="m -21.19151,263.48647 c 0.04207,0.0503 0.0622,0.11753 0.06537,0.19569 0,0 0,0 0,0 -0.0089,0.0541 -0.01322,0.11131 -0.0198,0.16651 0,0 0,0 0,0 -0.223503,-0.43772 0.348851,1.21097 0.353703,1.60868 0.0053,0.43169 -0.386839,-0.19171 -0.804217,-1.12577 -0.408074,-0.91324 -0.635816,-1.6605 -0.452643,-1.29568 0.158571,0.31582 0.727806,1.93241 0.463623,1.46738 0,0 0,0 0,0 -0.04052,0.0315 -0.08737,0.0628 -0.142709,0.0854 0,0 0,0 0,0 -0.08456,0.0198 -0.172808,0.013 -0.257292,-0.0304 -0.01998,-0.0102 -0.04301,-0.0242 -0.06862,-0.0419 -0.165672,-0.11327 -0.439129,-0.37891 -0.668883,-0.77376 -0.347484,-0.62353 -0.406611,-1.30724 -0.264828,-1.88997 0.134859,-0.55427 0.404245,-0.85032 0.457695,-0.83085 0.06201,0.0226 0.03338,0.40772 0.133645,0.84996 0.108759,0.47971 0.32709,0.88672 0.641202,1.14926 0.213389,0.20019 0.425204,0.33462 0.525652,0.42661 0.01529,0.0139 0.02811,0.0269 0.0381,0.0388 z" />
      </g>
      <rect
         ry="0.98291427"
         y="271.4783"
         x="4.5610886"
         height="4.8893676"
         width="1.9658279"
         id="rect1181-3"
         style="fill:#7e7e8f;fill-opacity:1;stroke:none;stroke-width:0.399193;stroke-linecap:square;stroke-linejoin:bevel;stroke-miterlimit:4;stroke-dasharray:none;stroke-dashoffset:0;stroke-opacity:0.978723;paint-order:normal" />
      <rect
         style="fill:#c99f35;fill-opacity:1;stroke-width:1.58205;stroke-linecap:round;stroke-linejoin:round;paint-order:fill markers stroke"
         id="rect3127"
         width="2.3504174"
         height="0.83024037"
         x="4.3687954"
         y="274.16171"
         ry="0.41511622" />
      <rect
         style="fill:#c2c2d1;fill-opacity:1;stroke:none;stroke-width:0.399193;stroke-linecap:square;stroke-linejoin:bevel;stroke-miterlimit:4;stroke-dasharray:none;stroke-dashoffset:0;stroke-opacity:0.978723;paint-order:normal"
         id="rect140737-0"
         width="1.9658279"
         height="4.8893676"
         x="1.5367335"
         y="271.4783"
         ry="0.98291427" />
      <path
         id="rect2411"
         style="fill:#e8b747;fill-opacity:1;stroke-width:0.399193;stroke-linecap:square;stroke-linejoin:bevel;stroke-opacity:0.978723"
         d="m 2.519648,274.1617 c 0.544533,0 0.982913,0.43837 0.982913,0.98291 v 0.24016 c 0,0.54453 -0.43838,0.98291 -0.982913,0.98291 -0.544535,0 -0.982915,-0.43838 -0.982915,-0.98291 v -0.24016 c 0,-0.54454 0.43838,-0.98291 0.982915,-0.98291 z"
         sodipodi:nodetypes="sssssss" />
      <path
         style="fill:none;stroke:#c2c2d1;stroke-width:0.399193;stroke-linecap:round;stroke-linejoin:miter;stroke-miterlimit:4;stroke-dasharray:none;stroke-opacity:1"
         d="m 2.878816,271.43735 c 0,0 -3.737091,0.0566 -5.137077,-3.89872 -1.399985,-3.95536 -2.447301,-4.73834 -3.25019,-4.51133"
         id="path1179-5"
         inkscape:connector-curvature="0"
         inkscape:transform-center-x="31.376121"
         inkscape:transform-center-y="-50.530738" />
      <rect
         transform="matrix(-0.86602541,0.49999998,0.49999998,0.86602541,0,0)"
         style="fill:#7e7e8f;fill-opacity:1;stroke:none;stroke-width:0.399193;stroke-linecap:square;stroke-linejoin:bevel;stroke-miterlimit:4;stroke-dasharray:none;stroke-dashoffset:0;stroke-opacity:0.978723;paint-order:normal"
         id="rect1183-8"
         width="1.9658279"
         height="4.8893671"
         x="128.12292"
         y="234.83339"
         ry="0.98291421" />
      <rect
         ry="0.98291427"
         y="234.83339"
         x="128.12294"
         height="4.8893676"
         width="1.9658279"
         id="rect2623"
         style="fill:#c2c2d1;fill-opacity:1;stroke:none;stroke-width:0.399193;stroke-linecap:square;stroke-linejoin:bevel;stroke-miterlimit:4;stroke-dasharray:none;stroke-dashoffset:0;stroke-opacity:0.978723;paint-order:normal"
         transform="matrix(-0.8660254,0.5,0.5,0.8660254,0,0)" />
      <path
         id="path2625"
         style="fill:#c99f35;fill-opacity:1;stroke-width:0.399193;stroke-linecap:square;stroke-linejoin:bevel;stroke-opacity:0.978723"
         d="m 6.560786,269.57532 c -0.471581,0.27226 -0.632038,0.87111 -0.359771,1.34268 l 0.508729,0.88115 c 0.272267,0.47158 0.871104,0.63203 1.342686,0.35977 0.4715797,-0.27227 0.6320377,-0.87111 0.3597707,-1.34269 L 7.903472,269.93509 c -0.272267,-0.47158 -0.871106,-0.63204 -1.342686,-0.35977 z"
         sodipodi:nodetypes="sssssss" />
      <rect
         style="fill:#c99f35;fill-opacity:1;stroke-width:1.58205;stroke-linecap:round;stroke-linejoin:round;paint-order:fill markers stroke"
         id="rect3107"
         width="3.1410825"
         height="1.5463479"
         x="127.47854"
         y="236.86052"
         ry="0.77317393"
         transform="matrix(-0.8660254,0.5,0.5,0.8660254,0,0)" />
      <rect
         ry="0.98291421"
         y="231.02838"
         x="134.71338"
         height="4.8893671"
         width="1.9658279"
         id="rect1203-5"
         style="fill:#c2c2d1;fill-opacity:1;stroke:none;stroke-width:0.399193;stroke-linecap:square;stroke-linejoin:bevel;stroke-miterlimit:4;stroke-dasharray:none;stroke-dashoffset:0;stroke-opacity:0.978723;paint-order:normal"
         transform="rotate(29.999999)" />
      <rect
         style="fill:#e8b747;fill-opacity:1;stroke-width:1.58205;stroke-linecap:round;stroke-linejoin:round;paint-order:fill markers stroke"
         id="rect3125"
         width="2.3504174"
         height="0.83024037"
         x="1.3444384"
         y="274.16171"
         ry="0.41511622" />
      <path
         id="path2483"
         style="fill:#c99f35;fill-opacity:1;stroke-width:0.399193;stroke-linecap:square;stroke-linejoin:bevel;stroke-opacity:0.978723"
         d="m 5.544004,274.1617 c 0.544534,0 0.982913,0.43837 0.982913,0.98291 v 0.24016 c 0,0.54453 -0.438379,0.98291 -0.982913,0.98291 -0.544535,0 -0.982914,-0.43838 -0.982914,-0.98291 v -0.24016 c 0,-0.54454 0.438379,-0.98291 0.982914,-0.98291 z"
         sodipodi:nodetypes="sssssss" />
      <rect
         style="fill:#e8b747;fill-opacity:1;stroke:none;stroke-width:0.399193;stroke-linecap:square;stroke-linejoin:bevel;stroke-miterlimit:4;stroke-dasharray:none;stroke-dashoffset:0;stroke-opacity:0.978723;paint-order:normal"
         id="rect1187-9"
         width="6.4051771"
         height="7.8129086"
         x="0.57721126"
         y="266.03448"
         ry="2.9210441" />
      <rect
         ry="0.98291427"
         y="231.02838"
         x="134.71338"
         height="4.8893676"
         width="1.9658279"
         id="rect2103"
         style="fill:#c2c2d1;fill-opacity:1;stroke:none;stroke-width:0.399193;stroke-linecap:square;stroke-linejoin:bevel;stroke-miterlimit:4;stroke-dasharray:none;stroke-dashoffset:0;stroke-opacity:0.978723;paint-order:normal"
         transform="rotate(30)" />
      <path
         id="rect2105"
         style="fill:#f2c85e;fill-opacity:1;stroke-width:0.399193;stroke-linecap:square;stroke-linejoin:bevel;stroke-opacity:0.978723"
         d="m 1.04921,269.57532 c 0.471581,0.27227 0.632039,0.87111 0.359771,1.34268 l -0.508728,0.88115 c -0.272267,0.47158 -0.871105,0.63203 -1.342687,0.35977 -0.47158,-0.27226 -0.632038,-0.87111 -0.35977,-1.34269 l 0.508728,-0.88114 c 0.272267,-0.47158 0.871106,-0.63204 1.342686,-0.35977 z"
         sodipodi:nodetypes="sssssss" />
      <rect
         style="fill:#f2c85e;fill-opacity:1;stroke-width:1.58205;stroke-linecap:round;stroke-linejoin:round;paint-order:fill markers stroke"
         id="rect2967"
         width="3.1410825"
         height="1.5463479"
         x="134.14217"
         y="233.01328"
         ry="0.77317393"
         transform="rotate(30)" />
      <g
         id="g1388"
         transform="matrix(0.30263928,0,0,0.30263928,8.3861837,179.17911)">
        <path
           id="path1229"
           style="fill:#f2c85e;fill-opacity:1;stroke-width:0.31227;stroke-linecap:round;stroke-linejoin:round;paint-order:fill markers stroke;stop-color:#000000"
           d="m -4.6656788,310.45643 c 0.645522,-0.17296 1.471237,-1.20448 1.603246,-2.00284 0.132014,-0.79836 -1.191727,-5.73865 -1.705237,-6.36403 -0.513507,-0.62541 -1.744356,-1.10587 -2.389876,-0.93291 -0.645522,0.17297 -1.471233,1.20449 -1.603245,2.00286 -0.132013,0.79836 1.19173,5.73863 1.705237,6.36403 0.513507,0.62539 1.744355,1.10586 2.389875,0.93289 z"
           sodipodi:nodetypes="sssssss" />
        <path
           id="path1231"
           style="fill:#f2c85e;fill-opacity:1;stroke-width:0.37194;stroke-linecap:round;stroke-linejoin:round;paint-order:fill markers stroke;stop-color:#000000"
           d="m -7.9922398,313.11455 c 0.768872,-0.20602 1.752369,-1.43464 1.909604,-2.38556 0.157239,-0.95092 -1.41945,-6.83522 -2.031085,-7.58011 -0.611631,-0.74491 -2.0776782,-1.31718 -2.8465482,-1.11117 -0.768871,0.20602 -1.752364,1.43465 -1.909602,2.38557 -0.157239,0.95092 1.419452,6.8352 2.031084,7.58011 0.611631,0.74489 2.0776772,1.31718 2.8465472,1.11116 z"
           sodipodi:nodetypes="sssssss" />
        <path
           id="path1227"
           style="fill:#f2c85e;fill-opacity:1;stroke-width:0.31227;stroke-linecap:round;stroke-linejoin:round;paint-order:fill markers stroke;stop-color:#000000"
           d="m -23.16722,310.45643 c -0.645522,-0.17296 -1.471237,-1.20448 -1.603246,-2.00284 -0.132014,-0.79836 1.191727,-5.73865 1.705237,-6.36403 0.513507,-0.62541 1.744356,-1.10587 2.389876,-0.93291 0.645522,0.17297 1.471233,1.20449 1.603245,2.00286 0.132013,0.79836 -1.19173,5.73863 -1.705237,6.36403 -0.513507,0.62539 -1.744355,1.10586 -2.389875,0.93289 z"
           sodipodi:nodetypes="sssssss" />
        <path
           id="path1086"
           style="fill:#f2c85e;fill-opacity:1;stroke-width:0.37194;stroke-linecap:round;stroke-linejoin:round;paint-order:fill markers stroke;stop-color:#000000"
           d="m -19.840659,313.11455 c -0.768872,-0.20602 -1.752369,-1.43464 -1.909604,-2.38556 -0.157239,-0.95092 1.41945,-6.83522 2.031085,-7.58011 0.611631,-0.74491 2.077678,-1.31718 2.846548,-1.11117 0.768872,0.20602 1.752365,1.43465 1.909603,2.38557 0.157239,0.95092 -1.419453,6.8352 -2.031085,7.58011 -0.611631,0.74489 -2.077677,1.31718 -2.846547,1.11116 z"
           sodipodi:nodetypes="sssssss" />
        <path
           id="path538"
           style="fill:#f2dfaf;fill-opacity:1;stroke-width:0.820116;stroke-linecap:round;stroke-linejoin:round;paint-order:fill markers stroke;stop-color:#000000"
           d="m -13.042419,316.35321 c -0.862794,0 -3.719724,-1.64945 -4.151121,-2.39666 -0.431397,-0.7472 0.431299,-10.02495 0.781482,-10.63149 0.350183,-0.60654 2.669273,-1.94547 3.369639,-1.94547 0.700366,0 3.019455,1.33893 3.3696387,1.94547 0.3501832,0.60654 1.2128791,9.8843 0.7814821,10.63149 -0.4313972,0.74721 -3.2883268,2.39666 -4.1511208,2.39666 z"
           sodipodi:nodetypes="sssssss" />
      </g>
      <g
         id="g3450"
         transform="translate(18.115116,-21.474264)">
        <path
           id="path1757"
           style="fill:#e8b747;fill-opacity:1;stroke:none;stroke-width:4.23333;stroke-linecap:round;stroke-linejoin:round;paint-order:fill markers stroke;stop-color:#000000"
           sodipodi:type="inkscape:offset"
           inkscape:radius="0.49523687"
           inkscape:original="M -18.396484 265.73633 A 5.1056404 5.1056404 0 0 0 -23.501953 270.8418 A 5.1056404 5.1056404 0 0 0 -23.496094 271.01758 L -13.296875 271.01758 A 5.1056404 5.1056404 0 0 0 -13.291016 270.8418 A 5.1056404 5.1056404 0 0 0 -18.396484 265.73633 z "
           d="m -18.396484,265.24023 c -1.466244,5e-5 -2.924147,0.60384 -3.960938,1.64063 -1.036791,1.03679 -1.640576,2.49469 -1.640625,3.96094 a 0.4952864,0.4952864 0 0 0 0,0.008 c 0.001,0.0643 0.0046,0.12913 0.0078,0.19336 a 0.4952864,0.4952864 0 0 0 0.49414,0.4707 h 10.199219 a 0.4952864,0.4952864 0 0 0 0.494141,-0.4707 c 0.0032,-0.0642 0.0068,-0.12905 0.0078,-0.19336 a 0.4952864,0.4952864 0 0 0 0,-0.002 0.4952864,0.4952864 0 0 0 0,-0.002 0.4952864,0.4952864 0 0 0 0,-0.002 0.4952864,0.4952864 0 0 0 0,-0.002 c -4.9e-5,-1.46625 -0.603834,-2.92415 -1.640625,-3.96094 -1.03679,-1.03679 -2.494694,-1.64058 -3.960937,-1.64063 z"
           transform="matrix(0.33549714,0,0,0.33549714,-10.97342,199.40325)" />
        <path
           id="path2032-1"
           style="fill:#e8b747;stroke-width:0.369039;stroke-linecap:round;stroke-linejoin:round;paint-order:fill markers stroke;stop-color:#000000"
           inkscape:transform-center-x="-0.31734028"
           inkscape:transform-center-y="1.192013e-05"
           d="m -18.107749,288.78859 c 0.02691,0.0322 0.03979,0.0752 0.04182,0.12518 0,0 0,0 0,0 -0.0057,0.0346 -0.0085,0.0712 -0.01267,0.10652 0,0 0,0 0,0 -0.142974,-0.28001 0.22316,0.77465 0.226264,1.02907 0.0034,0.27615 -0.247461,-0.12264 -0.514456,-0.72016 -0.261045,-0.58419 -0.406731,-1.06221 -0.289555,-0.82884 0.101437,0.20203 0.465576,1.23616 0.296578,0.93868 0,0 0,0 0,0 -0.02592,0.0202 -0.05589,0.0402 -0.09129,0.0546 0,0 0,0 0,0 -0.05409,0.0127 -0.110545,0.008 -0.164589,-0.0195 -0.01278,-0.007 -0.02751,-0.0155 -0.0439,-0.0268 -0.10598,-0.0725 -0.28091,-0.24239 -0.427883,-0.49497 -0.222285,-0.39887 -0.260108,-0.83624 -0.16941,-1.20901 0.08627,-0.35457 0.258595,-0.54395 0.292787,-0.5315 0.03967,0.0145 0.02135,0.26082 0.08549,0.54372 0.06957,0.30687 0.209239,0.56723 0.410176,0.73518 0.136505,0.12806 0.272002,0.21406 0.336259,0.2729 0.0098,0.009 0.01798,0.0172 0.02437,0.0248 z" />
      </g>
      <circle
         style="fill:#f2c85e;fill-opacity:1;stroke:none;stroke-width:2.73411;stroke-linecap:round;stroke-linejoin:round;paint-order:fill markers stroke;stop-color:#000000"
         id="path3343"
         cx="-4.1501961"
         cy="263.61362"
         r="0.61278462" />
      <circle
         style="fill:#f2c85e;fill-opacity:1;stroke:none;stroke-width:2.73411;stroke-linecap:round;stroke-linejoin:round;paint-order:fill markers stroke;stop-color:#000000"
         id="circle3345"
         cx="-3.5404418"
         cy="264.55652"
         r="0.61278462" />
      <circle
         style="fill:#f2c85e;fill-opacity:1;stroke:none;stroke-width:2.73411;stroke-linecap:round;stroke-linejoin:round;paint-order:fill markers stroke;stop-color:#000000"
         id="circle3347"
         cx="-3.0265276"
         cy="265.57434"
         r="0.61278462" />
      <circle
         style="fill:#f2c85e;fill-opacity:1;stroke:none;stroke-width:2.73411;stroke-linecap:round;stroke-linejoin:round;paint-order:fill markers stroke;stop-color:#000000"
         id="circle3349"
         cx="-2.6519072"
         cy="266.62714"
         r="0.61278462" />
      <circle
         style="fill:#f2c85e;fill-opacity:1;stroke:none;stroke-width:2.73411;stroke-linecap:round;stroke-linejoin:round;paint-order:fill markers stroke;stop-color:#000000"
         id="circle3351"
         cx="-2.203501"
         cy="267.69318"
         r="0.61278462" />
      <circle
         style="fill:#f2c85e;fill-opacity:1;stroke:none;stroke-width:2.73411;stroke-linecap:round;stroke-linejoin:round;paint-order:fill markers stroke;stop-color:#000000"
         id="circle3353"
         cx="-1.7440091"
         cy="268.7576"
         r="0.61278462" />
      <circle
         style="fill:#f2c85e;fill-opacity:1;stroke:none;stroke-width:2.73411;stroke-linecap:round;stroke-linejoin:round;paint-order:fill markers stroke;stop-color:#000000"
         id="circle3355"
         cx="-1.1999952"
         cy="269.50311"
         r="0.61278462" />
      <circle
         style="fill:#f2c85e;fill-opacity:1;stroke:none;stroke-width:2.73411;stroke-linecap:round;stroke-linejoin:round;paint-order:fill markers stroke;stop-color:#000000"
         id="circle3357"
         cx="-0.43455517"
         cy="270.27066"
         r="0.61278462" />
      <circle
         style="fill:#f2c85e;fill-opacity:1;stroke:none;stroke-width:2.73411;stroke-linecap:round;stroke-linejoin:round;paint-order:fill markers stroke;stop-color:#000000"
         id="circle3359"
         cx="-4.8863678"
         cy="262.93491"
         r="0.61278462" />
      <path
         id="path2032-7"
         style="fill:#f2c85e;fill-opacity:1;stroke-width:0.712503;stroke-linecap:round;stroke-linejoin:round;paint-order:fill markers stroke;stop-color:#000000"
         inkscape:transform-center-x="-0.16111143"
         inkscape:transform-center-y="0.010439843"
         d="m -20.64888,269.94319 c -0.835562,0.45902 -1.707408,-0.69329 -0.929449,-1.38978 0.224139,-0.20067 0.84944,-0.60105 1.616583,-1.05727 0.844886,-0.27011 1.785271,-0.30903 2.660732,-0.0495 1.742854,0.58271 2.576975,1.94628 2.497357,2.02928 -0.07962,0.083 -1.320619,-0.90196 -2.717677,-0.97612 -0.641222,-0.058 -1.241023,0.0921 -1.718539,0.33387 -0.63987,0.55141 -1.168269,0.97723 -1.409007,1.10948 z"
         inkscape:path-effect="#path-effect3396"
         inkscape:original-d="m 1.0600114,249.7737 c -0.88980999,-0.20788 -0.88980999,-2.76189 0,-2.96977 0.88981,-0.20789 6.35578,1.06912 6.35578,1.48489 0,0.41576 -5.46597,1.69277 -6.35578,1.48488 z"
         class="UnoptimicedTransforms"
         transform="matrix(0.15366111,-0.26614885,0.26614885,0.15366111,-74.541653,216.24346)" />
      <circle
         style="fill:#f2c85e;fill-opacity:1;stroke:none;stroke-width:2.73411;stroke-linecap:round;stroke-linejoin:round;paint-order:fill markers stroke;stop-color:#000000"
         id="circle3398"
         cx="-5.8758354"
         cy="262.96292"
         r="0.61278462" />
      <g
         id="g3511"
         transform="translate(18.115116,-21.474264)">
        <g
           id="g8347">
          <circle
             r="3.5284107"
             cy="282.21616"
             cx="-17.645506"
             id="circle1189-3"
             style="fill:#c2c2d1;fill-opacity:1;stroke:none;stroke-width:0.399194;stroke-linecap:square;stroke-linejoin:bevel;stroke-miterlimit:4;stroke-dasharray:none;stroke-dashoffset:0;stroke-opacity:0.978723;paint-order:normal" />
          <circle
             style="fill:#a191a1;fill-opacity:1;stroke:none;stroke-width:0.399194;stroke-linecap:square;stroke-linejoin:bevel;stroke-miterlimit:4;stroke-dasharray:none;stroke-dashoffset:0;stroke-opacity:0.978723;paint-order:normal"
             id="circle1191-0"
             cx="-17.645506"
             cy="282.21616"
             r="2.3235874" />
        </g>
        <path
           id="rect3247"
           style="fill:#d6a839;fill-opacity:1;stroke-width:1.57605;stroke-linecap:round;stroke-linejoin:round;paint-order:fill markers stroke"
           d="m -10.941142,282.25598 -0.917878,3.10381 c -0.11955,0.40426 -0.545838,0.6506 -0.955792,0.55233 l -0.533506,-0.12789 c -0.409953,-0.0983 -0.643748,-0.50285 -0.524197,-0.90711 l 0.917878,-3.10381 c 0.119551,-0.40427 0.545835,-0.65059 0.955789,-0.55232 l 0.533506,0.12789 c 0.409954,0.0983 0.643751,0.50284 0.5242,0.9071 z" />
        <g
           id="g6203">
          <circle
             style="fill:#c2c2d1;fill-opacity:1;stroke:none;stroke-width:0.399194;stroke-linecap:square;stroke-linejoin:bevel;stroke-miterlimit:4;stroke-dasharray:none;stroke-dashoffset:0;stroke-opacity:0.978723;paint-order:normal"
             id="circle1195-7"
             cx="-11.680403"
             cy="282.21616"
             r="3.5284107" />
          <circle
             r="2.3235874"
             cy="282.21616"
             cx="-11.680403"
             id="circle1197-2"
             style="fill:#a191a1;fill-opacity:1;stroke:none;stroke-width:0.399194;stroke-linecap:square;stroke-linejoin:bevel;stroke-miterlimit:4;stroke-dasharray:none;stroke-dashoffset:0;stroke-opacity:0.978723;paint-order:normal" />
        </g>
        <g
           id="g6199">
          <rect
             style="fill:#c2c2d1;fill-opacity:1;stroke:none;stroke-width:0.399193;stroke-linecap:square;stroke-linejoin:bevel;stroke-miterlimit:4;stroke-dasharray:none;stroke-dashoffset:0;stroke-opacity:0.978723;paint-order:normal"
             id="rect1205-1"
             width="8.8714314"
             height="8.8714314"
             x="-18.594614"
             y="280.90561"
             ry="3.6292224" />
          <circle
             style="fill:#3e2347;fill-opacity:1;stroke:none;stroke-width:0.399193;stroke-linecap:square;stroke-linejoin:bevel;stroke-miterlimit:4;stroke-dasharray:none;stroke-dashoffset:0;stroke-opacity:0.978723;paint-order:normal"
             id="circle1207-1"
             cx="-15.358009"
             cy="286.1102"
             r="0.64156169" />
          <circle
             r="0.64156169"
             cy="286.1102"
             cx="-10.938351"
             id="circle1209-0"
             style="fill:#3e2347;fill-opacity:1;stroke:none;stroke-width:0.399193;stroke-linecap:square;stroke-linejoin:bevel;stroke-miterlimit:4;stroke-dasharray:none;stroke-dashoffset:0;stroke-opacity:0.978723;paint-order:normal" />
          <path
             sodipodi:type="star"
             style="fill:#3e2347;fill-opacity:1;stroke:none;stroke-width:2.36253;stroke-linecap:square;stroke-linejoin:bevel;stroke-miterlimit:4;stroke-dasharray:none;stroke-dashoffset:0;stroke-opacity:0.978723;paint-order:normal"
             id="path1211-5"
             sodipodi:sides="3"
             sodipodi:cx="-45.408615"
             sodipodi:cy="234.57965"
             sodipodi:r1="2.997191"
             sodipodi:r2="1.4985955"
             sodipodi:arg1="1.5707963"
             sodipodi:arg2="2.6179939"
             inkscape:flatsided="true"
             inkscape:rounded="0.18"
             inkscape:randomized="0"
             inkscape:transform-center-x="-6.3665075e-06"
             inkscape:transform-center-y="1.0312406"
             d="m -45.408615,237.57684 c -0.934432,0 -3.062859,-3.68654 -2.595644,-4.49578 0.467216,-0.80925 4.724071,-0.80925 5.191287,0 0.467216,0.80924 -1.661211,4.49578 -2.595643,4.49578 z"
             transform="matrix(0.1689686,0,0,0.1689686,-4.9052707,247.82798)" />
        </g>
        <path
           id="path767"
           style="fill:#e8b747;fill-opacity:1;stroke:none;stroke-width:0.399193;stroke-linecap:square;stroke-linejoin:bevel;stroke-miterlimit:4;stroke-dasharray:none;stroke-dashoffset:0;stroke-opacity:0.978723;paint-order:normal"
           d="m -14.965459,280.90544 c -2.010584,0 -3.629141,1.61855 -3.629141,3.62914 v 1.61346 c 0,1.82442 1.332695,3.32601 3.081706,3.58846 -0.388327,-0.37095 -0.629318,-0.89404 -0.629318,-1.47596 v -0.80751 c 0,-0.0985 0.0073,-0.19525 0.0206,-0.28994 -0.820777,-0.1985 -1.427041,-0.93496 -1.427041,-1.81843 0,-1.03673 0.834751,-1.87097 1.871478,-1.87097 h 4.204901 c 0.801308,0 1.481143,0.49839 1.74891,1.20354 v -0.14265 c 0,-2.01059 -1.618556,-3.62914 -3.629142,-3.62914 z m 5.242093,5.10665 c -0.198261,0.5221 -0.622799,0.93065 -1.155125,1.10774 0.01767,0.1084 0.02678,0.21966 0.02678,0.3332 v 0.80751 c 0,0.21075 -0.03183,0.41365 -0.09064,0.6046 0.748557,-0.66389 1.218984,-1.63327 1.218984,-2.7171 z" />
        <path
           style="fill:#f2c85e;fill-opacity:1;stroke:none;stroke-width:0.264583px;stroke-linecap:butt;stroke-linejoin:miter;stroke-opacity:1"
           d="m -10.804762,268.41606 c -0.173206,0.26443 -1.319255,-0.15675 -2.847923,-0.98884 -0.749609,-0.36522 -1.427365,-1.05308 -1.747407,-2.00944 -0.07019,-0.21585 -0.125301,-0.43364 -0.167408,-0.65253 -0.123008,-0.63945 -0.127156,-1.24893 -0.100711,-1.77053 0.03014,-0.85503 0.120886,-1.54815 0.133771,-2.11443 -0.0057,-1.01926 -0.271161,-1.58741 -0.101183,-1.76607 0.13341,-0.14023 1.032015,0.16555 1.336021,1.61976 0.17347,0.72697 0.19758,1.4045 0.237174,2.25428 0.03007,0.48907 0.05232,1.01888 0.135071,1.46665 0.029,0.15689 0.06524,0.30472 0.111415,0.44438 0.171305,0.54476 0.526792,0.99867 0.923393,1.27257 1.412391,1.09494 2.261244,1.97939 2.087787,2.2442 z"
           id="path3285"
           inkscape:path-effect="#path-effect3289"
           inkscape:original-d="m -10.804762,268.41606 -2.467855,-1.61652 c -2.887042,-1.6112 -0.572496,-5.98183 -2.363004,-7.68532"
           class="UnoptimicedTransforms"
           sodipodi:nodetypes="ccc"
           transform="matrix(-0.63234462,-0.07232953,-0.07232953,0.63234462,-1.1045598,113.12859)" />
        <path
           style="fill:#f2c85e;fill-opacity:1;stroke:none;stroke-width:0.264583px;stroke-linecap:butt;stroke-linejoin:miter;stroke-opacity:1"
           d="m -10.804762,268.41606 c -0.173206,0.26443 -1.319255,-0.15675 -2.847923,-0.98884 -0.749609,-0.36522 -1.427365,-1.05308 -1.747407,-2.00944 -0.07019,-0.21585 -0.125301,-0.43364 -0.167408,-0.65253 -0.123008,-0.63945 -0.127156,-1.24893 -0.100711,-1.77053 0.03014,-0.85503 0.120886,-1.54815 0.133771,-2.11443 -0.0057,-1.01926 -0.271161,-1.58741 -0.101183,-1.76607 0.13341,-0.14023 1.032015,0.16555 1.336021,1.61976 0.17347,0.72697 0.19758,1.4045 0.237174,2.25428 0.03007,0.48907 0.05232,1.01888 0.135071,1.46665 0.029,0.15689 0.06524,0.30472 0.111415,0.44438 0.171305,0.54476 0.526792,0.99867 0.923393,1.27257 1.412391,1.09494 2.261244,1.97939 2.087787,2.2442 z"
           id="path2447"
           inkscape:path-effect="#path-effect2449"
           inkscape:original-d="m -10.804762,268.41606 -2.467855,-1.61652 c -2.887042,-1.6112 -0.572496,-5.98183 -2.363004,-7.68532"
           class="UnoptimicedTransforms"
           sodipodi:nodetypes="ccc"
           transform="matrix(0.63234462,-0.07232953,0.07232953,0.63234462,-25.52403,113.10246)" />
        <path
           sodipodi:type="star"
           style="fill:#f2dfaf;fill-opacity:1;stroke:none;stroke-width:4.23333;stroke-linecap:round;stroke-linejoin:round;paint-order:fill markers stroke;stop-color:#000000"
           id="path2230"
           inkscape:flatsided="true"
           sodipodi:sides="3"
           sodipodi:cx="-74.814102"
           sodipodi:cy="-23.5509"
           sodipodi:r1="12.325106"
           sodipodi:r2="6.1625533"
           sodipodi:arg1="0.52359878"
           sodipodi:arg2="1.5707963"
           inkscape:rounded="0.21"
           inkscape:randomized="0"
           d="m -64.140248,-17.388347 c -2.241509,3.882409 -19.106199,3.882409 -21.347709,0 -2.241509,-3.882408 6.190836,-18.487658 10.673855,-18.487658 4.483019,0 12.915364,14.60525 10.673854,18.487658 z"
           transform="matrix(0.05082674,0,0,0.05082674,-9.3562972,284.84157)"
           inkscape:transform-center-y="-0.10727497" />
        <path
           sodipodi:type="star"
           style="fill:#f2dfaf;fill-opacity:1;stroke:none;stroke-width:4.23333;stroke-linecap:round;stroke-linejoin:round;paint-order:fill markers stroke;stop-color:#000000"
           id="path2439"
           inkscape:flatsided="true"
           sodipodi:sides="3"
           sodipodi:cx="-74.814102"
           sodipodi:cy="-23.5509"
           sodipodi:r1="12.325106"
           sodipodi:r2="6.1625533"
           sodipodi:arg1="0.52359878"
           sodipodi:arg2="1.5707963"
           inkscape:rounded="0.21"
           inkscape:randomized="0"
           d="m -64.140248,-17.388347 c -2.241509,3.882409 -19.106199,3.882409 -21.347709,0 -2.241509,-3.882408 6.190836,-18.487658 10.673855,-18.487658 4.483019,0 12.915364,14.60525 10.673854,18.487658 z"
           transform="matrix(0.05080525,-0.00147787,0.00147787,0.05080525,-9.3507808,284.10933)"
           inkscape:transform-center-y="-0.10687287"
           inkscape:transform-center-x="-0.0058645088" />
        <path
           sodipodi:type="star"
           style="fill:#f2dfaf;fill-opacity:1;stroke:none;stroke-width:4.23333;stroke-linecap:round;stroke-linejoin:round;paint-order:fill markers stroke;stop-color:#000000"
           id="path2441"
           inkscape:flatsided="true"
           sodipodi:sides="3"
           sodipodi:cx="-74.814102"
           sodipodi:cy="-23.5509"
           sodipodi:r1="12.325106"
           sodipodi:r2="6.1625533"
           sodipodi:arg1="0.52359878"
           sodipodi:arg2="1.5707963"
           inkscape:rounded="0.21"
           inkscape:randomized="0"
           d="m -64.140248,-17.388347 c -2.241509,3.882409 -19.106199,3.882409 -21.347709,0 -2.241509,-3.882408 6.190836,-18.487658 10.673855,-18.487658 4.483019,0 12.915364,14.60525 10.673854,18.487658 z"
           transform="matrix(0.05054898,-0.00530646,0.00530646,0.05054898,-9.3302708,283.16657)"
           inkscape:transform-center-y="-0.10222776"
           inkscape:transform-center-x="-0.020886613" />
        <path
           sodipodi:type="star"
           style="fill:#f2dfaf;fill-opacity:1;stroke:none;stroke-width:4.23333;stroke-linecap:round;stroke-linejoin:round;paint-order:fill markers stroke;stop-color:#000000"
           id="path2443"
           inkscape:flatsided="true"
           sodipodi:sides="3"
           sodipodi:cx="-74.814102"
           sodipodi:cy="-23.5509"
           sodipodi:r1="12.325106"
           sodipodi:r2="6.1625533"
           sodipodi:arg1="0.52359878"
           sodipodi:arg2="1.5707963"
           inkscape:rounded="0.21"
           inkscape:randomized="0"
           d="m -64.140248,-17.388347 c -2.241509,3.882409 -19.106199,3.882409 -21.347709,0 -2.241509,-3.882408 6.190836,-18.487658 10.673855,-18.487658 4.483019,0 12.915364,14.60525 10.673854,18.487658 z"
           transform="matrix(0.04969877,-0.01064846,0.01064846,0.04969877,-9.3874198,282.13788)"
           inkscape:transform-center-y="-0.088258497"
           inkscape:transform-center-x="-0.040699163" />
        <path
           sodipodi:type="star"
           style="fill:#f2dfaf;fill-opacity:1;stroke:none;stroke-width:4.23333;stroke-linecap:round;stroke-linejoin:round;paint-order:fill markers stroke;stop-color:#000000"
           id="path2445"
           inkscape:flatsided="true"
           sodipodi:sides="3"
           sodipodi:cx="-74.814102"
           sodipodi:cy="-23.5509"
           sodipodi:r1="12.325106"
           sodipodi:r2="6.1625533"
           sodipodi:arg1="0.52359878"
           sodipodi:arg2="1.5707963"
           inkscape:rounded="0.21"
           inkscape:randomized="0"
           d="m -64.140248,-17.388347 c -2.241509,3.882409 -19.106199,3.882409 -21.347709,0 -2.241509,-3.882408 6.190836,-18.487658 10.673855,-18.487658 4.483019,0 12.915364,14.60525 10.673854,18.487658 z"
           transform="matrix(0.0441701,-0.02514676,0.02514676,0.0441701,-9.7526136,280.39216)"
           inkscape:transform-center-y="-0.022799877"
           inkscape:transform-center-x="-0.070394425" />
        <path
           sodipodi:type="star"
           style="fill:#f2dfaf;fill-opacity:1;stroke:none;stroke-width:4.23333;stroke-linecap:round;stroke-linejoin:round;paint-order:fill markers stroke;stop-color:#000000"
           id="path3400"
           inkscape:flatsided="true"
           sodipodi:sides="5"
           sodipodi:cx="-83.499557"
           sodipodi:cy="38.398857"
           sodipodi:r1="6.6880288"
           sodipodi:r2="3.3440144"
           sodipodi:arg1="1.5707963"
           sodipodi:arg2="2.1991148"
           inkscape:rounded="0.21"
           inkscape:randomized="0"
           d="m -83.499557,45.086886 c -1.651073,0 -5.850484,-3.051051 -6.360694,-4.621314 -0.510209,-1.570263 1.093823,-6.506968 2.429569,-7.477444 1.335745,-0.970476 6.526503,-0.970476 7.862249,0 1.335746,0.970476 2.939778,5.90718 2.429569,7.477444 -0.510209,1.570263 -4.709621,4.621314 -6.360693,4.621314 z"
           transform="matrix(0.11457952,0,0,0.13299542,-3.5239133,278.70965)"
           inkscape:transform-center-y="0.11730104" />
      </g>
    </g>
  </g>
</svg>
