<?xml version="1.0" encoding="UTF-8" standalone="no"?>
<!-- Created with Inkscape (http://www.inkscape.org/) -->

<svg
   width="128"
   height="128"
   viewBox="0 0 33.866665 33.866667"
   version="1.1"
   id="svg1307"
   inkscape:version="1.2.1 (9c6d41e410, 2022-07-14)"
   sodipodi:docname="saint-sagittarius.svg"
   inkscape:export-filename="../../../../assets-thumbnails/Saint Sagittarius.png"
   inkscape:export-xdpi="96.000008"
   inkscape:export-ydpi="96.000008"
   xmlns:inkscape="http://www.inkscape.org/namespaces/inkscape"
   xmlns:sodipodi="http://sodipodi.sourceforge.net/DTD/sodipodi-0.dtd"
   xmlns="http://www.w3.org/2000/svg"
   xmlns:svg="http://www.w3.org/2000/svg"
   xmlns:rdf="http://www.w3.org/1999/02/22-rdf-syntax-ns#"
   xmlns:cc="http://creativecommons.org/ns#"
   xmlns:dc="http://purl.org/dc/elements/1.1/">
  <defs
     id="defs1301">
    <inkscape:path-effect
       effect="powerstroke"
       id="path-effect126865"
       is_visible="true"
       lpeversion="1"
       offset_points="0.36607912,0.65819441 | 0.7369579,1.5394423 | 0.91447105,0.73804339"
       not_jump="false"
       sort_points="true"
       interpolator_type="CentripetalCatmullRom"
       interpolator_beta="0.2"
       start_linecap_type="zerowidth"
       linejoin_type="round"
       miter_limit="4"
       scale_width="1"
       end_linecap_type="zerowidth" />
    <inkscape:path-effect
       effect="skeletal"
       id="path-effect114945"
       is_visible="true"
       lpeversion="1"
       pattern="M 0,4.9921381 C 0,2.2364779 2.2364779,0 4.9921381,0 c 2.7556603,0 4.9921381,2.2364779 4.9921381,4.9921381 0,2.7556603 -2.2364778,4.9921381 -4.9921381,4.9921381 C 2.2364779,9.9842762 0,7.7477984 0,4.9921381 Z"
       copytype="single_stretched"
       prop_scale="1"
       scale_y_rel="false"
       spacing="0"
       normal_offset="0"
       tang_offset="0"
       prop_units="false"
       vertical_pattern="false"
       hide_knot="false"
       fuse_tolerance="0" />
    <inkscape:path-effect
       effect="skeletal"
       id="path-effect95947"
       is_visible="true"
       lpeversion="1"
       pattern="M 0,4.9921381 C 0,2.2364779 2.2364779,0 4.9921381,0 c 2.7556603,0 4.9921381,2.2364779 4.9921381,4.9921381 0,2.7556603 -2.2364778,4.9921381 -4.9921381,4.9921381 C 2.2364779,9.9842762 0,7.7477984 0,4.9921381 Z"
       copytype="single_stretched"
       prop_scale="1"
       scale_y_rel="false"
       spacing="0"
       normal_offset="0"
       tang_offset="0"
       prop_units="false"
       vertical_pattern="false"
       hide_knot="false"
       fuse_tolerance="0" />
    <inkscape:path-effect
       effect="skeletal"
       id="path-effect91934"
       is_visible="true"
       lpeversion="1"
       pattern="M 0,4.9921381 C 0,2.2364779 2.2364779,0 4.9921381,0 c 2.7556603,0 4.9921381,2.2364779 4.9921381,4.9921381 0,2.7556603 -2.2364778,4.9921381 -4.9921381,4.9921381 C 2.2364779,9.9842762 0,7.7477984 0,4.9921381 Z"
       copytype="single_stretched"
       prop_scale="1"
       scale_y_rel="false"
       spacing="0"
       normal_offset="0"
       tang_offset="0"
       prop_units="false"
       vertical_pattern="false"
       hide_knot="false"
       fuse_tolerance="0" />
    <inkscape:path-effect
       effect="skeletal"
       id="path-effect91930"
       is_visible="true"
       lpeversion="1"
       pattern="M 0,4.9921381 C 0,2.2364779 2.2364779,0 4.9921381,0 c 2.7556603,0 4.9921381,2.2364779 4.9921381,4.9921381 0,2.7556603 -2.2364778,4.9921381 -4.9921381,4.9921381 C 2.2364779,9.9842762 0,7.7477984 0,4.9921381 Z"
       copytype="single_stretched"
       prop_scale="1"
       scale_y_rel="false"
       spacing="0"
       normal_offset="0"
       tang_offset="0"
       prop_units="false"
       vertical_pattern="false"
       hide_knot="false"
       fuse_tolerance="0" />
    <inkscape:path-effect
       effect="skeletal"
       id="path-effect91926"
       is_visible="true"
       lpeversion="1"
       pattern="M 0,4.9921381 C 0,2.2364779 2.2364779,0 4.9921381,0 c 2.7556603,0 4.9921381,2.2364779 4.9921381,4.9921381 0,2.7556603 -2.2364778,4.9921381 -4.9921381,4.9921381 C 2.2364779,9.9842762 0,7.7477984 0,4.9921381 Z"
       copytype="single_stretched"
       prop_scale="1"
       scale_y_rel="false"
       spacing="0"
       normal_offset="0"
       tang_offset="0"
       prop_units="false"
       vertical_pattern="false"
       hide_knot="false"
       fuse_tolerance="0" />
  </defs>
  <sodipodi:namedview
     id="base"
     pagecolor="#282828"
     bordercolor="#666666"
     borderopacity="1.0"
     inkscape:pageopacity="0"
     inkscape:pageshadow="2"
     inkscape:zoom="3.959798"
     inkscape:cx="58.21004"
     inkscape:cy="65.281108"
     inkscape:document-units="mm"
     inkscape:current-layer="layer1"
     showgrid="true"
     inkscape:window-width="1920"
     inkscape:window-height="1022"
     inkscape:window-x="0"
     inkscape:window-y="30"
     inkscape:window-maximized="1"
     units="px"
     inkscape:snap-bbox="true"
     inkscape:bbox-nodes="true"
     inkscape:snap-page="true"
     inkscape:snap-nodes="true"
     inkscape:bbox-paths="false"
     inkscape:snap-global="false"
     inkscape:snap-bbox-midpoints="false"
     inkscape:snap-others="false"
     showguides="true"
     inkscape:guide-bbox="true"
     inkscape:snap-grids="false"
     inkscape:snap-to-guides="true"
     inkscape:pagecheckerboard="0"
     inkscape:object-paths="true"
     inkscape:snap-intersection-paths="true"
     inkscape:snap-smooth-nodes="true"
     inkscape:snap-midpoints="true"
     inkscape:showpageshadow="0"
     inkscape:deskcolor="#282828">
    <inkscape:grid
       type="xygrid"
       id="grid883"
       empspacing="4" />
    <sodipodi:guide
       position="33.866665,50.800001"
       orientation="1,0"
       id="guide877"
       inkscape:locked="false" />
  </sodipodi:namedview>
  <metadata
     id="metadata1304">
    <rdf:RDF>
      <cc:Work
         rdf:about="">
        <dc:format>image/svg+xml</dc:format>
        <dc:type
           rdf:resource="http://purl.org/dc/dcmitype/StillImage" />
      </cc:Work>
    </rdf:RDF>
  </metadata>
  <g
     inkscape:label="Layer 1"
     inkscape:groupmode="layer"
     id="layer1"
     transform="translate(0,-263.13332)">
    <g
       id="g5874"
       transform="matrix(1.6559751,0,0,1.7107866,43.399738,-212.52162)">
      <g
         id="g5664"
         transform="translate(-0.7134032)">
        <path
           id="path5658"
           d="m -9.9835104,296.34187 -0.6313446,-6.45304 a 0.32190617,0.32190617 0 0 0 -0.35172,-0.28903 l -2.273146,0.2224 a 0.31940156,0.31940156 0 0 0 -0.286783,0.349 l 0.361214,3.69195 c 0.149325,1.52626 1.507665,2.6425 3.033936,2.49316 z"
           style="fill:#ab862d;fill-opacity:1;stroke-width:3.39552;stroke-linecap:round;stroke-linejoin:round;paint-order:fill markers stroke;stop-color:#000000"
           sodipodi:nodetypes="cccssc"
           inkscape:transform-center-x="0.78120105"
           inkscape:transform-center-y="4.4426395" />
        <path
           id="path5660"
           d="m -8.5471966,296.35498 -1.7976224,-6.70883 a 0.34482603,0.34482603 0 0 0 -0.42232,-0.24382 l -2.363256,0.63323 a 0.34214309,0.34214309 0 0 0 -0.241929,0.41904 l 1.028471,3.83831 c 0.425173,1.58675 2.056179,2.52842 3.6429524,2.10324 z"
           style="fill:#c99f35;fill-opacity:1;stroke-width:3.63728;stroke-linecap:round;stroke-linejoin:round;paint-order:fill markers stroke;stop-color:#000000"
           sodipodi:nodetypes="cccssc" />
        <path
           id="path5662"
           d="m -7.1463762,295.70921 -3.1822828,-6.65168 a 0.36608621,0.36608621 0 0 0 -0.488226,-0.17224 l -2.343124,1.12099 a 0.36323785,0.36323785 0 0 0 -0.170899,0.48445 l 1.820673,3.8056 c 0.752669,1.57324 2.6382059,2.23844 4.2114609,1.48577 z"
           style="fill:#e8b747;fill-opacity:1;stroke-width:3.86153;stroke-linecap:round;stroke-linejoin:round;paint-order:fill markers stroke;stop-color:#000000"
           sodipodi:nodetypes="cccssc"
           inkscape:transform-center-x="3.0861022"
           inkscape:transform-center-y="3.3977225" />
      </g>
      <g
         id="g5672"
         transform="translate(-0.27008001)">
        <path
           id="path5666"
           d="m -17.871696,296.34187 0.631345,-6.45304 a 0.32190617,0.32190617 0 0 1 0.351719,-0.28903 l 2.273146,0.2224 a 0.31940156,0.31940156 0 0 1 0.286784,0.349 l -0.361214,3.69195 c -0.149326,1.52626 -1.507665,2.6425 -3.033937,2.49316 z"
           style="fill:#ab862d;fill-opacity:1;stroke-width:3.39552;stroke-linecap:round;stroke-linejoin:round;paint-order:fill markers stroke;stop-color:#000000"
           sodipodi:nodetypes="cccssc"
           inkscape:transform-center-x="0.78120105"
           inkscape:transform-center-y="4.4426395" />
        <path
           id="path5668"
           d="m -19.30801,296.35498 1.797622,-6.70883 a 0.34482603,0.34482603 0 0 1 0.422321,-0.24382 l 2.363256,0.63323 a 0.34214309,0.34214309 0 0 1 0.241929,0.41904 l -1.028472,3.83831 c -0.425173,1.58675 -2.056179,2.52842 -3.642952,2.10324 z"
           style="fill:#c99f35;fill-opacity:1;stroke-width:3.63728;stroke-linecap:round;stroke-linejoin:round;paint-order:fill markers stroke;stop-color:#000000"
           sodipodi:nodetypes="cccssc" />
        <path
           id="path5670"
           d="m -20.70883,295.70921 3.182283,-6.65168 a 0.36608621,0.36608621 0 0 1 0.488226,-0.17224 l 2.343123,1.12099 a 0.36323785,0.36323785 0 0 1 0.170899,0.48445 l -1.820672,3.8056 c -0.752669,1.57324 -2.638207,2.23844 -4.211462,1.48577 z"
           style="fill:#e8b747;fill-opacity:1;stroke-width:3.86153;stroke-linecap:round;stroke-linejoin:round;paint-order:fill markers stroke;stop-color:#000000"
           sodipodi:nodetypes="cccssc"
           inkscape:transform-center-x="3.0861022"
           inkscape:transform-center-y="3.3977225" />
      </g>
      <path
         id="path5674"
         d="m -8.031767,288.52033 h -4.537938 v 1.95054 h 2.686454 c 1.022547,0 1.851485,-0.82894 1.851484,-1.85149 z"
         style="fill:#c99f35;fill-opacity:1;stroke-width:2.26407;stroke-linecap:round;stroke-linejoin:round;paint-order:fill markers stroke;stop-color:#000000"
         sodipodi:nodetypes="cccssc" />
      <rect
         ry="0.98291427"
         y="292.95258"
         x="-13.554028"
         height="4.8893676"
         width="1.9658279"
         id="rect5676"
         style="fill:#7e7e8f;fill-opacity:1;stroke:none;stroke-width:0.399193;stroke-linecap:square;stroke-linejoin:bevel;stroke-miterlimit:4;stroke-dasharray:none;stroke-dashoffset:0;stroke-opacity:0.978723;paint-order:normal" />
      <rect
         style="fill:#c99f35;fill-opacity:1;stroke-width:1.58205;stroke-linecap:round;stroke-linejoin:round;paint-order:fill markers stroke"
         id="rect5678"
         width="2.3504174"
         height="0.83024037"
         x="-13.746321"
         y="295.63599"
         ry="0.41511622" />
      <rect
         style="fill:#c2c2d1;fill-opacity:1;stroke:none;stroke-width:0.399193;stroke-linecap:square;stroke-linejoin:bevel;stroke-miterlimit:4;stroke-dasharray:none;stroke-dashoffset:0;stroke-opacity:0.978723;paint-order:normal"
         id="rect5680"
         width="1.9658279"
         height="4.8893676"
         x="-16.578382"
         y="292.95258"
         ry="0.98291427" />
      <path
         id="path5682"
         style="fill:#e8b747;fill-opacity:1;stroke-width:0.399193;stroke-linecap:square;stroke-linejoin:bevel;stroke-opacity:0.978723"
         d="m -15.595468,295.63596 c 0.544533,0 0.982913,0.43837 0.982913,0.98291 v 0.24016 c 0,0.54453 -0.43838,0.98291 -0.982913,0.98291 -0.544535,0 -0.982915,-0.43838 -0.982915,-0.98291 v -0.24016 c 0,-0.54454 0.43838,-0.98291 0.982915,-0.98291 z"
         sodipodi:nodetypes="sssssss" />
      <path
         style="fill:none;stroke:#c2c2d1;stroke-width:0.399193;stroke-linecap:round;stroke-linejoin:miter;stroke-miterlimit:4;stroke-dasharray:none;stroke-opacity:1"
         d="m -15.2363,292.91161 c 0,0 -3.737091,0.0566 -5.137077,-3.89872 -1.399985,-3.95536 -2.447301,-4.73834 -3.25019,-4.51133"
         id="path5684"
         inkscape:connector-curvature="0"
         inkscape:transform-center-x="31.376121"
         inkscape:transform-center-y="-50.530738" />
      <rect
         transform="matrix(-0.86602541,0.49999998,0.49999998,0.86602541,0,0)"
         style="fill:#7e7e8f;fill-opacity:1;stroke:none;stroke-width:0.399193;stroke-linecap:square;stroke-linejoin:bevel;stroke-miterlimit:4;stroke-dasharray:none;stroke-dashoffset:0;stroke-opacity:0.978723;paint-order:normal"
         id="rect5686"
         width="1.9658279"
         height="4.8893671"
         x="154.5482"
         y="244.37309"
         ry="0.98291421" />
      <rect
         ry="0.98291427"
         y="244.37309"
         x="154.54822"
         height="4.8893676"
         width="1.9658279"
         id="rect5688"
         style="fill:#c2c2d1;fill-opacity:1;stroke:none;stroke-width:0.399193;stroke-linecap:square;stroke-linejoin:bevel;stroke-miterlimit:4;stroke-dasharray:none;stroke-dashoffset:0;stroke-opacity:0.978723;paint-order:normal"
         transform="matrix(-0.8660254,0.5,0.5,0.8660254,0,0)" />
      <path
         id="path5690"
         style="fill:#c99f35;fill-opacity:1;stroke-width:0.399193;stroke-linecap:square;stroke-linejoin:bevel;stroke-opacity:0.978723"
         d="m -11.55433,291.04958 c -0.471581,0.27226 -0.632038,0.87111 -0.359771,1.34268 l 0.508729,0.88115 c 0.272267,0.47158 0.871104,0.63203 1.342686,0.35977 0.4715797,-0.27227 0.6320377,-0.87111 0.3597707,-1.34269 l -0.5087287,-0.88114 c -0.272267,-0.47158 -0.871106,-0.63204 -1.342686,-0.35977 z"
         sodipodi:nodetypes="sssssss" />
      <rect
         style="fill:#c99f35;fill-opacity:1;stroke-width:1.58205;stroke-linecap:round;stroke-linejoin:round;paint-order:fill markers stroke"
         id="rect5692"
         width="3.1410825"
         height="1.5463479"
         x="153.90382"
         y="246.40022"
         ry="0.77317393"
         transform="matrix(-0.8660254,0.5,0.5,0.8660254,0,0)" />
      <rect
         ry="0.98291421"
         y="258.6832"
         x="129.76236"
         height="4.8893671"
         width="1.9658279"
         id="rect5694"
         style="fill:#c2c2d1;fill-opacity:1;stroke:none;stroke-width:0.399193;stroke-linecap:square;stroke-linejoin:bevel;stroke-miterlimit:4;stroke-dasharray:none;stroke-dashoffset:0;stroke-opacity:0.978723;paint-order:normal"
         transform="rotate(29.999999)" />
      <rect
         style="fill:#e8b747;fill-opacity:1;stroke-width:1.58205;stroke-linecap:round;stroke-linejoin:round;paint-order:fill markers stroke"
         id="rect5696"
         width="2.3504174"
         height="0.83024037"
         x="-16.770678"
         y="295.63599"
         ry="0.41511622" />
      <path
         id="path5698"
         style="fill:#c99f35;fill-opacity:1;stroke-width:0.399193;stroke-linecap:square;stroke-linejoin:bevel;stroke-opacity:0.978723"
         d="m -12.571112,295.63596 c 0.544534,0 0.982913,0.43837 0.982913,0.98291 v 0.24016 c 0,0.54453 -0.438379,0.98291 -0.982913,0.98291 -0.544535,0 -0.982914,-0.43838 -0.982914,-0.98291 v -0.24016 c 0,-0.54454 0.438379,-0.98291 0.982914,-0.98291 z"
         sodipodi:nodetypes="sssssss" />
      <rect
         style="fill:#e8b747;fill-opacity:1;stroke:none;stroke-width:0.399193;stroke-linecap:square;stroke-linejoin:bevel;stroke-miterlimit:4;stroke-dasharray:none;stroke-dashoffset:0;stroke-opacity:0.978723;paint-order:normal"
         id="rect5700"
         width="6.4051771"
         height="7.8129086"
         x="-17.537905"
         y="287.50876"
         ry="2.9210441" />
      <rect
         ry="0.98291427"
         y="258.6832"
         x="129.76236"
         height="4.8893676"
         width="1.9658279"
         id="rect5702"
         style="fill:#c2c2d1;fill-opacity:1;stroke:none;stroke-width:0.399193;stroke-linecap:square;stroke-linejoin:bevel;stroke-miterlimit:4;stroke-dasharray:none;stroke-dashoffset:0;stroke-opacity:0.978723;paint-order:normal"
         transform="rotate(30)" />
      <path
         id="path5704"
         style="fill:#f2c85e;fill-opacity:1;stroke-width:0.399193;stroke-linecap:square;stroke-linejoin:bevel;stroke-opacity:0.978723"
         d="m -17.065906,291.04958 c 0.471581,0.27227 0.632039,0.87111 0.359771,1.34268 l -0.508728,0.88115 c -0.272267,0.47158 -0.871105,0.63203 -1.342687,0.35977 -0.47158,-0.27226 -0.632038,-0.87111 -0.35977,-1.34269 l 0.508728,-0.88114 c 0.272267,-0.47158 0.871106,-0.63204 1.342686,-0.35977 z"
         sodipodi:nodetypes="sssssss" />
      <rect
         style="fill:#f2c85e;fill-opacity:1;stroke-width:1.58205;stroke-linecap:round;stroke-linejoin:round;paint-order:fill markers stroke"
         id="rect5706"
         width="3.1410825"
         height="1.5463479"
         x="129.19115"
         y="260.66809"
         ry="0.77317393"
         transform="rotate(30)" />
      <circle
         style="fill:#f2c85e;fill-opacity:1;stroke:none;stroke-width:2.73411;stroke-linecap:round;stroke-linejoin:round;paint-order:fill markers stroke;stop-color:#000000"
         id="circle5708"
         cx="-18.549671"
         cy="291.74493"
         r="0.61278462" />
      <g
         id="g5714">
        <circle
           r="3.5284107"
           cy="282.21616"
           cx="-17.645506"
           id="circle5710"
           style="fill:#c2c2d1;fill-opacity:1;stroke:none;stroke-width:0.399194;stroke-linecap:square;stroke-linejoin:bevel;stroke-miterlimit:4;stroke-dasharray:none;stroke-dashoffset:0;stroke-opacity:0.978723;paint-order:normal" />
        <circle
           style="fill:#a191a1;fill-opacity:1;stroke:none;stroke-width:0.399194;stroke-linecap:square;stroke-linejoin:bevel;stroke-miterlimit:4;stroke-dasharray:none;stroke-dashoffset:0;stroke-opacity:0.978723;paint-order:normal"
           id="circle5712"
           cx="-17.645506"
           cy="282.21616"
           r="2.3235874" />
      </g>
      <path
         id="path5716"
         style="fill:#d6a839;fill-opacity:1;stroke-width:1.57605;stroke-linecap:round;stroke-linejoin:round;paint-order:fill markers stroke"
         d="m -10.941142,282.25598 -0.917878,3.10381 c -0.11955,0.40426 -0.545838,0.6506 -0.955792,0.55233 l -0.533506,-0.12789 c -0.409953,-0.0983 -0.643748,-0.50285 -0.524197,-0.90711 l 0.917878,-3.10381 c 0.119551,-0.40427 0.545835,-0.65059 0.955789,-0.55232 l 0.533506,0.12789 c 0.409954,0.0983 0.643751,0.50284 0.5242,0.9071 z" />
      <g
         id="g5722">
        <circle
           style="fill:#c2c2d1;fill-opacity:1;stroke:none;stroke-width:0.399194;stroke-linecap:square;stroke-linejoin:bevel;stroke-miterlimit:4;stroke-dasharray:none;stroke-dashoffset:0;stroke-opacity:0.978723;paint-order:normal"
           id="circle5718"
           cx="-11.680403"
           cy="282.21616"
           r="3.5284107" />
        <circle
           r="2.3235874"
           cy="282.21616"
           cx="-11.680403"
           id="circle5720"
           style="fill:#a191a1;fill-opacity:1;stroke:none;stroke-width:0.399194;stroke-linecap:square;stroke-linejoin:bevel;stroke-miterlimit:4;stroke-dasharray:none;stroke-dashoffset:0;stroke-opacity:0.978723;paint-order:normal" />
      </g>
      <g
         id="g5748"
         transform="matrix(-0.99506215,0.09925383,0.09925383,0.99506215,-56.074199,2.9813669)">
        <g
           id="g5730"
           transform="matrix(0.73919612,-0.58357933,0.58357933,0.73919612,-152.95278,76.208034)"
           style="fill:#c99f35;fill-opacity:1"
           inkscape:transform-center-x="1.146143"
           inkscape:transform-center-y="-1.9324502">
          <path
             id="path5724"
             style="fill:#c99f35;fill-opacity:1;stroke-width:4.23333;stroke-linecap:round;stroke-linejoin:round;paint-order:fill markers stroke;stop-color:#000000"
             d="m -25.231535,260.02912 a 2.7956259,2.7956259 0 0 0 -2.112016,2.70888 2.7956259,2.7956259 0 0 0 0.212907,1.06763 v -0.0822 h 1.00459 a 3.3627343,3.8678138 0 0 1 -0.10387,-0.94826 3.3627343,3.8678138 0 0 1 0.998389,-2.74608 z" />
          <rect
             style="opacity:1;fill:#c99f35;fill-opacity:1;stroke-width:2.9382;stroke-linecap:round;stroke-linejoin:round;paint-order:fill markers stroke;stop-color:#000000"
             id="rect5726"
             width="0.98486859"
             height="2.0434265"
             x="-264.68927"
             y="25.25708"
             transform="matrix(0,-1,-1,0,0,0)"
             ry="0.27053618" />
          <rect
             style="opacity:1;fill:#c99f35;fill-opacity:1;stroke-width:2.9382;stroke-linecap:round;stroke-linejoin:round;paint-order:fill markers stroke;stop-color:#000000"
             id="rect5728"
             width="0.984869"
             height="2.9848864"
             x="25.25708"
             y="263.91861"
             transform="scale(-1,1)"
             ry="0.27053618" />
        </g>
        <g
           id="g5738"
           transform="matrix(0.88529357,-0.50317282,0.50317282,0.88529357,-127.7632,39.296233)"
           style="fill:#e8b747;fill-opacity:1"
           inkscape:transform-center-x="0.99698566"
           inkscape:transform-center-y="-2.2455718">
          <path
             id="path5732"
             style="fill:#e8b747;fill-opacity:1;stroke-width:4.23333;stroke-linecap:round;stroke-linejoin:round;paint-order:fill markers stroke;stop-color:#000000"
             d="m -25.231535,260.02912 a 2.7956259,2.7956259 0 0 0 -2.112016,2.70888 2.7956259,2.7956259 0 0 0 0.212907,1.06763 v -0.0822 h 1.00459 a 3.3627343,3.8678138 0 0 1 -0.10387,-0.94826 3.3627343,3.8678138 0 0 1 0.998389,-2.74608 z" />
          <rect
             style="opacity:1;fill:#e8b747;fill-opacity:1;stroke-width:2.9382;stroke-linecap:round;stroke-linejoin:round;paint-order:fill markers stroke;stop-color:#000000"
             id="rect5734"
             width="0.98486859"
             height="2.0434265"
             x="-264.68927"
             y="25.25708"
             transform="matrix(0,-1,-1,0,0,0)"
             ry="0.27053618" />
          <rect
             style="opacity:1;fill:#e8b747;fill-opacity:1;stroke-width:2.9382;stroke-linecap:round;stroke-linejoin:round;paint-order:fill markers stroke;stop-color:#000000"
             id="rect5736"
             width="0.984869"
             height="2.9848864"
             x="25.25708"
             y="263.91861"
             transform="scale(-1,1)"
             ry="0.27053618" />
        </g>
        <g
           id="g5746"
           transform="matrix(1.0455142,-0.36442978,0.36442978,1.0455142,-86.780653,0.12244732)"
           style="fill:#f2c85e;fill-opacity:1">
          <path
             id="path5740"
             style="fill:#f2c85e;fill-opacity:1;stroke-width:4.23333;stroke-linecap:round;stroke-linejoin:round;paint-order:fill markers stroke;stop-color:#000000"
             d="m -25.231535,260.02912 a 2.7956259,2.7956259 0 0 0 -2.112016,2.70888 2.7956259,2.7956259 0 0 0 0.212907,1.06763 v -0.0822 h 1.00459 a 3.3627343,3.8678138 0 0 1 -0.10387,-0.94826 3.3627343,3.8678138 0 0 1 0.998389,-2.74608 z" />
          <rect
             style="opacity:1;fill:#f2c85e;fill-opacity:1;stroke-width:2.9382;stroke-linecap:round;stroke-linejoin:round;paint-order:fill markers stroke;stop-color:#000000"
             id="rect5742"
             width="0.98486859"
             height="2.0434265"
             x="-264.68927"
             y="25.25708"
             transform="matrix(0,-1,-1,0,0,0)"
             ry="0.27053618" />
          <rect
             style="opacity:1;fill:#f2c85e;fill-opacity:1;stroke-width:2.9382;stroke-linecap:round;stroke-linejoin:round;paint-order:fill markers stroke;stop-color:#000000"
             id="rect5744"
             width="0.984869"
             height="2.9848864"
             x="25.25708"
             y="263.91861"
             transform="scale(-1,1)"
             ry="0.27053618" />
        </g>
      </g>
      <g
         id="g5758">
        <rect
           style="fill:#c2c2d1;fill-opacity:1;stroke:none;stroke-width:0.399193;stroke-linecap:square;stroke-linejoin:bevel;stroke-miterlimit:4;stroke-dasharray:none;stroke-dashoffset:0;stroke-opacity:0.978723;paint-order:normal"
           id="rect5750"
           width="8.8714314"
           height="8.8714314"
           x="-18.594614"
           y="280.90561"
           ry="3.6292224" />
        <circle
           style="fill:#3e2347;fill-opacity:1;stroke:none;stroke-width:0.399193;stroke-linecap:square;stroke-linejoin:bevel;stroke-miterlimit:4;stroke-dasharray:none;stroke-dashoffset:0;stroke-opacity:0.978723;paint-order:normal"
           id="circle5752"
           cx="-15.358009"
           cy="286.1102"
           r="0.64156169" />
        <circle
           r="0.64156169"
           cy="286.1102"
           cx="-10.938351"
           id="circle5754"
           style="fill:#3e2347;fill-opacity:1;stroke:none;stroke-width:0.399193;stroke-linecap:square;stroke-linejoin:bevel;stroke-miterlimit:4;stroke-dasharray:none;stroke-dashoffset:0;stroke-opacity:0.978723;paint-order:normal" />
        <path
           sodipodi:type="star"
           style="fill:#3e2347;fill-opacity:1;stroke:none;stroke-width:2.36253;stroke-linecap:square;stroke-linejoin:bevel;stroke-miterlimit:4;stroke-dasharray:none;stroke-dashoffset:0;stroke-opacity:0.978723;paint-order:normal"
           id="path5756"
           sodipodi:sides="3"
           sodipodi:cx="-45.408615"
           sodipodi:cy="234.57965"
           sodipodi:r1="2.997191"
           sodipodi:r2="1.4985955"
           sodipodi:arg1="1.5707963"
           sodipodi:arg2="2.6179939"
           inkscape:flatsided="true"
           inkscape:rounded="0.18"
           inkscape:randomized="0"
           inkscape:transform-center-x="-6.3665075e-06"
           inkscape:transform-center-y="1.0312406"
           d="m -45.408615,237.57684 c -0.934432,0 -3.062859,-3.68654 -2.595644,-4.49578 0.467216,-0.80925 4.724071,-0.80925 5.191287,0 0.467216,0.80924 -1.661211,4.49578 -2.595643,4.49578 z"
           transform="matrix(0.1689686,0,0,0.1689686,-4.9052707,247.82798)" />
      </g>
      <path
         id="path5760"
         style="fill:#e8b747;fill-opacity:1;stroke:none;stroke-width:0.399193;stroke-linecap:square;stroke-linejoin:bevel;stroke-miterlimit:4;stroke-dasharray:none;stroke-dashoffset:0;stroke-opacity:0.978723;paint-order:normal"
         d="m -14.965459,280.90544 c -2.010584,0 -3.629141,1.61855 -3.629141,3.62914 v 1.61346 c 0,1.82442 1.332695,3.32601 3.081706,3.58846 -0.388327,-0.37095 -0.629318,-0.89404 -0.629318,-1.47596 v -0.80751 c 0,-0.0985 0.0073,-0.19525 0.0206,-0.28994 -0.820777,-0.1985 -1.427041,-0.93496 -1.427041,-1.81843 0,-1.03673 0.834751,-1.87097 1.871478,-1.87097 h 4.204901 c 0.801308,0 1.481143,0.49839 1.74891,1.20354 v -0.14265 c 0,-2.01059 -1.618556,-3.62914 -3.629142,-3.62914 z m 5.242093,5.10665 c -0.198261,0.5221 -0.622799,0.93065 -1.155125,1.10774 0.01767,0.1084 0.02678,0.21966 0.02678,0.3332 v 0.80751 c 0,0.21075 -0.03183,0.41365 -0.09064,0.6046 0.748557,-0.66389 1.218984,-1.63327 1.218984,-2.7171 z" />
      <g
         id="g5768">
        <path
           id="path5762"
           style="fill:#f2c85e;fill-opacity:1;stroke-width:0.409495;stroke-linecap:round;stroke-linejoin:round;paint-order:fill markers stroke;stop-color:#000000"
           inkscape:transform-center-y="0.0053436101"
           d="m -11.402499,294.7297 c -0.263972,0.0707 -1.268559,-0.31489 -1.417398,-0.54409 -0.148842,-0.22919 -0.171636,-1.59902 3.45e-4,-1.81141 0.171984,-0.21238 1.211375,-0.49089 1.466507,-0.39295 0.255132,0.0979 0.920306,1.29565 0.906004,1.56856 -0.0143,0.2729 -0.691488,1.10916 -0.955458,1.17989 z"
           sodipodi:nodetypes="ssssss"
           inkscape:transform-center-x="-0.080222982" />
        <path
           id="path5764"
           style="fill:#f2c85e;fill-opacity:1;stroke-width:0.409495;stroke-linecap:round;stroke-linejoin:round;paint-order:fill markers stroke;stop-color:#000000"
           inkscape:transform-center-y="0.0053436101"
           d="m -16.44557,294.7297 c 0.263972,0.0707 1.268559,-0.31489 1.417398,-0.54409 0.148842,-0.22919 0.171636,-1.59902 -3.45e-4,-1.81141 -0.171984,-0.21238 -1.211375,-0.49089 -1.466507,-0.39295 -0.255132,0.0979 -0.920306,1.29565 -0.906004,1.56856 0.0143,0.2729 0.691488,1.10916 0.955458,1.17989 z"
           sodipodi:nodetypes="ssssss"
           inkscape:transform-center-x="0.080223059" />
        <path
           id="path5766"
           style="fill:#f2dfaf;fill-opacity:1;stroke-width:0.597248;stroke-linecap:round;stroke-linejoin:round;paint-order:fill markers stroke;stop-color:#000000"
           inkscape:transform-center-y="0.077373899"
           d="m -13.760576,296.07745 c -0.398583,0 -1.668279,-0.92249 -1.791448,-1.30156 -0.123169,-0.37908 0.361811,-2.3175 0.684272,-2.55179 0.322461,-0.23428 1.891891,-0.23428 2.214352,0 0.32246,0.23429 0.807441,2.17271 0.684272,2.55179 -0.123169,0.37907 -1.392865,1.30156 -1.791448,1.30156 z"
           sodipodi:nodetypes="ssssss" />
      </g>
      <path
         id="path5770"
         d="m -20.120153,288.52033 h 4.323297 a 0.21464126,0.21464126 0 0 1 0.214641,0.21464 v 1.52293 a 0.21297123,0.21297123 0 0 1 -0.212971,0.21297 h -2.473483 c -1.022547,0 -1.851485,-0.82894 -1.851484,-1.85149 z"
         style="fill:#e8b747;fill-opacity:1;stroke-width:2.26407;stroke-linecap:round;stroke-linejoin:round;paint-order:fill markers stroke;stop-color:#000000"
         sodipodi:nodetypes="cccssc" />
      <g
         id="g5796"
         transform="rotate(5.6962042,-14.567226,282.22909)">
        <g
           id="g5778"
           transform="matrix(0.73919612,-0.58357933,0.58357933,0.73919612,-152.95278,76.208034)"
           style="fill:#c99f35;fill-opacity:1"
           inkscape:transform-center-x="1.146143"
           inkscape:transform-center-y="-1.9324502">
          <path
             id="path5772"
             style="fill:#c99f35;fill-opacity:1;stroke-width:4.23333;stroke-linecap:round;stroke-linejoin:round;paint-order:fill markers stroke;stop-color:#000000"
             d="m -25.231535,260.02912 a 2.7956259,2.7956259 0 0 0 -2.112016,2.70888 2.7956259,2.7956259 0 0 0 0.212907,1.06763 v -0.0822 h 1.00459 a 3.3627343,3.8678138 0 0 1 -0.10387,-0.94826 3.3627343,3.8678138 0 0 1 0.998389,-2.74608 z" />
          <rect
             style="opacity:1;fill:#c99f35;fill-opacity:1;stroke-width:2.9382;stroke-linecap:round;stroke-linejoin:round;paint-order:fill markers stroke;stop-color:#000000"
             id="rect5774"
             width="0.98486859"
             height="2.0434265"
             x="-264.68927"
             y="25.25708"
             transform="matrix(0,-1,-1,0,0,0)"
             ry="0.27053618" />
          <rect
             style="opacity:1;fill:#c99f35;fill-opacity:1;stroke-width:2.9382;stroke-linecap:round;stroke-linejoin:round;paint-order:fill markers stroke;stop-color:#000000"
             id="rect5776"
             width="0.984869"
             height="2.9848864"
             x="25.25708"
             y="263.91861"
             transform="scale(-1,1)"
             ry="0.27053618" />
        </g>
        <g
           id="g5786"
           transform="matrix(0.88529357,-0.50317282,0.50317282,0.88529357,-127.7632,39.296233)"
           style="fill:#e8b747;fill-opacity:1"
           inkscape:transform-center-x="0.99698566"
           inkscape:transform-center-y="-2.2455718">
          <path
             id="path5780"
             style="fill:#e8b747;fill-opacity:1;stroke-width:4.23333;stroke-linecap:round;stroke-linejoin:round;paint-order:fill markers stroke;stop-color:#000000"
             d="m -25.231535,260.02912 a 2.7956259,2.7956259 0 0 0 -2.112016,2.70888 2.7956259,2.7956259 0 0 0 0.212907,1.06763 v -0.0822 h 1.00459 a 3.3627343,3.8678138 0 0 1 -0.10387,-0.94826 3.3627343,3.8678138 0 0 1 0.998389,-2.74608 z" />
          <rect
             style="opacity:1;fill:#e8b747;fill-opacity:1;stroke-width:2.9382;stroke-linecap:round;stroke-linejoin:round;paint-order:fill markers stroke;stop-color:#000000"
             id="rect5782"
             width="0.98486859"
             height="2.0434265"
             x="-264.68927"
             y="25.25708"
             transform="matrix(0,-1,-1,0,0,0)"
             ry="0.27053618" />
          <rect
             style="opacity:1;fill:#e8b747;fill-opacity:1;stroke-width:2.9382;stroke-linecap:round;stroke-linejoin:round;paint-order:fill markers stroke;stop-color:#000000"
             id="rect5784"
             width="0.984869"
             height="2.9848864"
             x="25.25708"
             y="263.91861"
             transform="scale(-1,1)"
             ry="0.27053618" />
        </g>
        <g
           id="g5794"
           transform="matrix(1.0455142,-0.36442978,0.36442978,1.0455142,-86.780653,0.12244732)"
           style="fill:#f2c85e;fill-opacity:1">
          <path
             id="path5788"
             style="fill:#f2c85e;fill-opacity:1;stroke-width:4.23333;stroke-linecap:round;stroke-linejoin:round;paint-order:fill markers stroke;stop-color:#000000"
             d="m -25.231535,260.02912 a 2.7956259,2.7956259 0 0 0 -2.112016,2.70888 2.7956259,2.7956259 0 0 0 0.212907,1.06763 v -0.0822 h 1.00459 a 3.3627343,3.8678138 0 0 1 -0.10387,-0.94826 3.3627343,3.8678138 0 0 1 0.998389,-2.74608 z" />
          <rect
             style="opacity:1;fill:#f2c85e;fill-opacity:1;stroke-width:2.9382;stroke-linecap:round;stroke-linejoin:round;paint-order:fill markers stroke;stop-color:#000000"
             id="rect5790"
             width="0.98486859"
             height="2.0434265"
             x="-264.68927"
             y="25.25708"
             transform="matrix(0,-1,-1,0,0,0)"
             ry="0.27053618" />
          <rect
             style="opacity:1;fill:#f2c85e;fill-opacity:1;stroke-width:2.9382;stroke-linecap:round;stroke-linejoin:round;paint-order:fill markers stroke;stop-color:#000000"
             id="rect5792"
             width="0.984869"
             height="2.9848864"
             x="25.25708"
             y="263.91861"
             transform="scale(-1,1)"
             ry="0.27053618" />
        </g>
      </g>
      <path
         sodipodi:type="star"
         style="opacity:1;fill:#f2c85e;fill-opacity:1;stroke-width:4.23333;stroke-linecap:round;stroke-linejoin:round;paint-order:fill markers stroke;stop-color:#000000"
         id="path5798"
         inkscape:flatsided="true"
         sodipodi:sides="3"
         sodipodi:cx="-66.262817"
         sodipodi:cy="-6.5710993"
         sodipodi:r1="19.538136"
         sodipodi:r2="15.806684"
         sodipodi:arg1="1.5707963"
         sodipodi:arg2="2.6179939"
         inkscape:rounded="0.13"
         inkscape:randomized="0"
         d="m -66.262817,12.967036 c -4.399336,0 -19.12019,-25.497266 -16.920522,-29.307203 2.199667,-3.809936 31.641375,-3.809937 33.841043,0 2.199668,3.809936 -12.521185,29.307203 -16.920521,29.307203 z"
         transform="matrix(0.06225501,0,0,-0.1559463,-9.1762117,280.97915)"
         inkscape:transform-center-y="-0.14884448" />
      <path
         sodipodi:type="star"
         style="opacity:1;fill:#f2dfaf;fill-opacity:1;stroke-width:4.23333;stroke-linecap:round;stroke-linejoin:round;paint-order:fill markers stroke;stop-color:#000000"
         id="path5800"
         inkscape:flatsided="true"
         sodipodi:sides="6"
         sodipodi:cx="-61.595295"
         sodipodi:cy="9.8646383"
         sodipodi:r1="17.375937"
         sodipodi:r2="8.6879683"
         sodipodi:arg1="1.5707963"
         sodipodi:arg2="2.0943951"
         inkscape:rounded="0.13"
         inkscape:randomized="0"
         d="m -61.595294,27.240575 c -2.258872,0 -13.918567,-6.731728 -15.048003,-8.687968 -1.129436,-1.95624 -1.129436,-15.4196962 -10e-7,-17.3759365 1.129436,-1.95624037 12.789131,-8.6879686 15.048003,-8.6879687 2.258871,0 13.918566,6.73172759 15.048002,8.6879679 1.129436,1.9562403 1.129437,15.4196963 1e-6,17.3759363 -1.129436,1.956241 -12.789131,8.687969 -15.048002,8.687969 z"
         transform="matrix(0.04239604,0,0,0.04239604,-10.590588,282.64847)"
         inkscape:transform-center-y="0.13029487" />
    </g>
  </g>
</svg>
