<?xml version="1.0" encoding="UTF-8" standalone="no"?>
<!-- Created with Inkscape (http://www.inkscape.org/) -->

<svg
   width="128"
   height="128"
   viewBox="0 0 33.866665 33.866667"
   version="1.1"
   id="svg1307"
   inkscape:version="1.2.1 (9c6d41e410, 2022-07-14)"
   sodipodi:docname="saint-aquarius.svg"
   inkscape:export-filename="/home/henrique/Documents/projects/001 - Moon Cheeser/repo/source/actors/astromouse/sprites/cutout_body.png"
   inkscape:export-xdpi="96.000008"
   inkscape:export-ydpi="96.000008"
   xmlns:inkscape="http://www.inkscape.org/namespaces/inkscape"
   xmlns:sodipodi="http://sodipodi.sourceforge.net/DTD/sodipodi-0.dtd"
   xmlns="http://www.w3.org/2000/svg"
   xmlns:svg="http://www.w3.org/2000/svg"
   xmlns:rdf="http://www.w3.org/1999/02/22-rdf-syntax-ns#"
   xmlns:cc="http://creativecommons.org/ns#"
   xmlns:dc="http://purl.org/dc/elements/1.1/">
  <defs
     id="defs1301">
    <inkscape:path-effect
       effect="powerstroke"
       id="path-effect126865"
       is_visible="true"
       lpeversion="1"
       offset_points="0.36607912,0.65819441 | 0.7369579,1.5394423 | 0.91447105,0.73804339"
       not_jump="false"
       sort_points="true"
       interpolator_type="CentripetalCatmullRom"
       interpolator_beta="0.2"
       start_linecap_type="zerowidth"
       linejoin_type="round"
       miter_limit="4"
       scale_width="1"
       end_linecap_type="zerowidth" />
    <inkscape:path-effect
       effect="skeletal"
       id="path-effect114945"
       is_visible="true"
       lpeversion="1"
       pattern="M 0,4.9921381 C 0,2.2364779 2.2364779,0 4.9921381,0 c 2.7556603,0 4.9921381,2.2364779 4.9921381,4.9921381 0,2.7556603 -2.2364778,4.9921381 -4.9921381,4.9921381 C 2.2364779,9.9842762 0,7.7477984 0,4.9921381 Z"
       copytype="single_stretched"
       prop_scale="1"
       scale_y_rel="false"
       spacing="0"
       normal_offset="0"
       tang_offset="0"
       prop_units="false"
       vertical_pattern="false"
       hide_knot="false"
       fuse_tolerance="0" />
    <inkscape:path-effect
       effect="skeletal"
       id="path-effect95947"
       is_visible="true"
       lpeversion="1"
       pattern="M 0,4.9921381 C 0,2.2364779 2.2364779,0 4.9921381,0 c 2.7556603,0 4.9921381,2.2364779 4.9921381,4.9921381 0,2.7556603 -2.2364778,4.9921381 -4.9921381,4.9921381 C 2.2364779,9.9842762 0,7.7477984 0,4.9921381 Z"
       copytype="single_stretched"
       prop_scale="1"
       scale_y_rel="false"
       spacing="0"
       normal_offset="0"
       tang_offset="0"
       prop_units="false"
       vertical_pattern="false"
       hide_knot="false"
       fuse_tolerance="0" />
    <inkscape:path-effect
       effect="skeletal"
       id="path-effect91934"
       is_visible="true"
       lpeversion="1"
       pattern="M 0,4.9921381 C 0,2.2364779 2.2364779,0 4.9921381,0 c 2.7556603,0 4.9921381,2.2364779 4.9921381,4.9921381 0,2.7556603 -2.2364778,4.9921381 -4.9921381,4.9921381 C 2.2364779,9.9842762 0,7.7477984 0,4.9921381 Z"
       copytype="single_stretched"
       prop_scale="1"
       scale_y_rel="false"
       spacing="0"
       normal_offset="0"
       tang_offset="0"
       prop_units="false"
       vertical_pattern="false"
       hide_knot="false"
       fuse_tolerance="0" />
    <inkscape:path-effect
       effect="skeletal"
       id="path-effect91930"
       is_visible="true"
       lpeversion="1"
       pattern="M 0,4.9921381 C 0,2.2364779 2.2364779,0 4.9921381,0 c 2.7556603,0 4.9921381,2.2364779 4.9921381,4.9921381 0,2.7556603 -2.2364778,4.9921381 -4.9921381,4.9921381 C 2.2364779,9.9842762 0,7.7477984 0,4.9921381 Z"
       copytype="single_stretched"
       prop_scale="1"
       scale_y_rel="false"
       spacing="0"
       normal_offset="0"
       tang_offset="0"
       prop_units="false"
       vertical_pattern="false"
       hide_knot="false"
       fuse_tolerance="0" />
    <inkscape:path-effect
       effect="skeletal"
       id="path-effect91926"
       is_visible="true"
       lpeversion="1"
       pattern="M 0,4.9921381 C 0,2.2364779 2.2364779,0 4.9921381,0 c 2.7556603,0 4.9921381,2.2364779 4.9921381,4.9921381 0,2.7556603 -2.2364778,4.9921381 -4.9921381,4.9921381 C 2.2364779,9.9842762 0,7.7477984 0,4.9921381 Z"
       copytype="single_stretched"
       prop_scale="1"
       scale_y_rel="false"
       spacing="0"
       normal_offset="0"
       tang_offset="0"
       prop_units="false"
       vertical_pattern="false"
       hide_knot="false"
       fuse_tolerance="0" />
  </defs>
  <sodipodi:namedview
     id="base"
     pagecolor="#282828"
     bordercolor="#666666"
     borderopacity="1.0"
     inkscape:pageopacity="0"
     inkscape:pageshadow="2"
     inkscape:zoom="3.959798"
     inkscape:cx="4.9244936"
     inkscape:cy="61.493036"
     inkscape:document-units="mm"
     inkscape:current-layer="layer1"
     showgrid="true"
     inkscape:window-width="1920"
     inkscape:window-height="1022"
     inkscape:window-x="0"
     inkscape:window-y="30"
     inkscape:window-maximized="1"
     units="px"
     inkscape:snap-bbox="true"
     inkscape:bbox-nodes="true"
     inkscape:snap-page="true"
     inkscape:snap-nodes="true"
     inkscape:bbox-paths="false"
     inkscape:snap-global="false"
     inkscape:snap-bbox-midpoints="false"
     inkscape:snap-others="false"
     showguides="true"
     inkscape:guide-bbox="true"
     inkscape:snap-grids="false"
     inkscape:snap-to-guides="true"
     inkscape:pagecheckerboard="0"
     inkscape:object-paths="true"
     inkscape:snap-intersection-paths="true"
     inkscape:snap-smooth-nodes="true"
     inkscape:snap-midpoints="true"
     inkscape:showpageshadow="0"
     inkscape:deskcolor="#282828">
    <inkscape:grid
       type="xygrid"
       id="grid883"
       empspacing="4" />
    <sodipodi:guide
       position="33.866665,50.800001"
       orientation="1,0"
       id="guide877"
       inkscape:locked="false" />
  </sodipodi:namedview>
  <metadata
     id="metadata1304">
    <rdf:RDF>
      <cc:Work
         rdf:about="">
        <dc:format>image/svg+xml</dc:format>
        <dc:type
           rdf:resource="http://purl.org/dc/dcmitype/StillImage" />
      </cc:Work>
    </rdf:RDF>
  </metadata>
  <g
     inkscape:label="Layer 1"
     inkscape:groupmode="layer"
     id="layer1"
     transform="translate(0,-263.13332)">
    <g
       id="g9063"
       transform="matrix(1.6936234,0,0,1.6936234,11.518613,-182.27355)"
       inkscape:export-filename="../../../../assets-thumbnails/Saint Aquarius.png"
       inkscape:export-xdpi="96.000008"
       inkscape:export-ydpi="96.000008">
      <g
         id="g4975"
         transform="matrix(0.90522784,0,0,0.90522784,17.985806,12.683586)">
        <path
           id="path1258"
           style="fill:#c99f35;fill-opacity:1;stroke-width:0.238125;stroke-linecap:round;stroke-linejoin:round;paint-order:fill markers stroke;stop-color:#000000"
           sodipodi:type="inkscape:offset"
           inkscape:radius="0.18481216"
           inkscape:original="M -23.777344 264.85547 A 4.9318085 3.0480251 0 0 0 -23.783203 264.97852 A 4.9318085 3.0480251 0 0 0 -18.853516 268.02734 A 4.9318085 3.0480251 0 0 0 -13.919922 264.97852 A 4.9318085 3.0480251 0 0 0 -13.925781 264.85547 L -23.777344 264.85547 z "
           d="m -23.777344,264.66992 a 0.18483064,0.18483064 0 0 0 -0.183594,0.16992 c -0.0036,0.045 -0.0071,0.0917 -0.0078,0.13672 a 0.18483064,0.18483064 0 0 0 0,0.002 c -3.7e-4,0.87616 0.581874,1.72534 1.53125,2.3125 0.949376,0.58715 2.26308,0.92152 3.583984,0.92187 1.321571,3e-4 2.635726,-0.33467 3.585938,-0.92187 0.950212,-0.58721 1.533573,-1.4359 1.533203,-2.3125 a 0.18483064,0.18483064 0 0 0 0,-0.002 c -6.73e-4,-0.0451 -0.0042,-0.0917 -0.0078,-0.13672 a 0.18483064,0.18483064 0 0 0 -0.183593,-0.16992 z"
           transform="matrix(-0.46214765,0,0,0.46214765,-19.104282,166.48189)" />
        <ellipse
           style="fill:#e8b747;fill-opacity:1;stroke-width:0.145552;stroke-linecap:round;stroke-linejoin:round;paint-order:fill markers stroke;stop-color:#000000"
           id="ellipse1260"
           cx="10.958129"
           cy="288.8349"
           rx="1.5543555"
           ry="0.82683796"
           transform="scale(-1,1)" />
      </g>
      <rect
         ry="0.98291427"
         y="278.11093"
         x="5.6407843"
         height="4.8893676"
         width="1.9658279"
         id="rect1181-3"
         style="fill:#7e7e8f;fill-opacity:1;stroke:none;stroke-width:0.399193;stroke-linecap:square;stroke-linejoin:bevel;stroke-miterlimit:4;stroke-dasharray:none;stroke-dashoffset:0;stroke-opacity:0.978723;paint-order:normal" />
      <rect
         style="fill:#c99f35;fill-opacity:1;stroke-width:1.58205;stroke-linecap:round;stroke-linejoin:round;paint-order:fill markers stroke"
         id="rect3127"
         width="2.3504174"
         height="0.83024037"
         x="5.4484911"
         y="280.79434"
         ry="0.41511622" />
      <rect
         style="fill:#c2c2d1;fill-opacity:1;stroke:none;stroke-width:0.399193;stroke-linecap:square;stroke-linejoin:bevel;stroke-miterlimit:4;stroke-dasharray:none;stroke-dashoffset:0;stroke-opacity:0.978723;paint-order:normal"
         id="rect140737-0"
         width="1.9658279"
         height="4.8893676"
         x="2.6164296"
         y="278.11093"
         ry="0.98291427" />
      <path
         id="rect2411"
         style="fill:#e8b747;fill-opacity:1;stroke-width:0.399193;stroke-linecap:square;stroke-linejoin:bevel;stroke-opacity:0.978723"
         d="m 3.599344,280.79431 c 0.544533,0 0.982913,0.43837 0.982913,0.98291 v 0.24016 c 0,0.54453 -0.43838,0.98291 -0.982913,0.98291 -0.544535,0 -0.982915,-0.43838 -0.982915,-0.98291 v -0.24016 c 0,-0.54454 0.43838,-0.98291 0.982915,-0.98291 z"
         sodipodi:nodetypes="sssssss" />
      <path
         style="fill:none;stroke:#c2c2d1;stroke-width:0.399193;stroke-linecap:round;stroke-linejoin:miter;stroke-miterlimit:4;stroke-dasharray:none;stroke-opacity:1"
         d="m 3.958512,278.06996 c 0,0 -3.737091,0.0566 -5.137077,-3.89872 -1.399985,-3.95536 -2.447301,-4.73834 -3.25019,-4.51133"
         id="path1179-5"
         inkscape:connector-curvature="0"
         inkscape:transform-center-x="31.376121"
         inkscape:transform-center-y="-50.530738" />
      <rect
         transform="matrix(-0.86602541,0.49999998,0.49999998,0.86602541,0,0)"
         style="fill:#7e7e8f;fill-opacity:1;stroke:none;stroke-width:0.399193;stroke-linecap:square;stroke-linejoin:bevel;stroke-miterlimit:4;stroke-dasharray:none;stroke-dashoffset:0;stroke-opacity:0.978723;paint-order:normal"
         id="rect1183-8"
         width="1.9658279"
         height="4.8893671"
         x="130.50418"
         y="241.11725"
         ry="0.98291421" />
      <rect
         ry="0.98291427"
         y="241.11725"
         x="130.5042"
         height="4.8893676"
         width="1.9658279"
         id="rect2623"
         style="fill:#c2c2d1;fill-opacity:1;stroke:none;stroke-width:0.399193;stroke-linecap:square;stroke-linejoin:bevel;stroke-miterlimit:4;stroke-dasharray:none;stroke-dashoffset:0;stroke-opacity:0.978723;paint-order:normal"
         transform="matrix(-0.8660254,0.5,0.5,0.8660254,0,0)" />
      <path
         style="fill:#c99f35;fill-opacity:1;stroke:none;stroke-width:0.00400927;stroke-linecap:round;stroke-linejoin:round;stroke-dasharray:none;stroke-opacity:1;paint-order:fill markers stroke;stop-color:#000000"
         d="m 8.366259,278.60665 c -0.142174,0.0192 -0.244227,-0.0962 -0.296587,-0.21474 -0.07802,-0.11122 -0.05232,-0.27435 0.06322,-0.34921 -0.317314,-0.33154 -0.726545,-0.5518 -1.095595,-0.81837 -0.219015,-0.14568 -0.425726,-0.32441 -0.538143,-0.56774 -0.0713,-0.1382 -0.118037,-0.29058 -0.124577,-0.44653 -0.17575,-0.0283 -0.221331,-0.22882 -0.31035,-0.3562 -0.08296,-0.13055 -0.01313,-0.30666 0.12658,-0.36287 0.606684,-0.34766 1.209964,-0.70249 1.817998,-1.04701 0.133883,-0.0707 0.29298,0.0163 0.345356,0.14921 0.0626,0.12405 0.190078,0.25665 0.124209,0.40338 0.352018,0.22531 0.531041,0.6477 0.54257,1.0551 0.03877,0.46323 0.04149,0.93523 0.164217,1.38648 0.1357586,-0.0718 0.2941636,0.0222 0.3460326,0.15593 0.08806,0.11145 0.09219,0.28943 -0.033,0.37531 -0.3504936,0.20758 -0.7048596,0.41218 -1.0599076,0.612 -0.02392,0.009 -0.04839,0.0162 -0.0722,0.025 z"
         id="path7530" />
      <path
         id="path2625"
         style="fill:#c99f35;fill-opacity:1;stroke-width:0.399193;stroke-linecap:square;stroke-linejoin:bevel;stroke-opacity:0.978723"
         d="m 7.640482,276.20793 c -0.471581,0.27226 -0.632038,0.87111 -0.359771,1.34268 l 0.508729,0.88115 c 0.272267,0.47158 0.871104,0.63203 1.342686,0.35977 0.4715797,-0.27227 0.6320377,-0.87111 0.3597707,-1.34269 L 8.983168,276.5677 c -0.272267,-0.47158 -0.871106,-0.63204 -1.342686,-0.35977 z"
         sodipodi:nodetypes="sssssss" />
      <rect
         ry="0.98291421"
         y="236.23254"
         x="138.96474"
         height="4.8893671"
         width="1.9658279"
         id="rect1203-5"
         style="fill:#c2c2d1;fill-opacity:1;stroke:none;stroke-width:0.399193;stroke-linecap:square;stroke-linejoin:bevel;stroke-miterlimit:4;stroke-dasharray:none;stroke-dashoffset:0;stroke-opacity:0.978723;paint-order:normal"
         transform="rotate(29.999999)" />
      <rect
         style="fill:#e8b747;fill-opacity:1;stroke-width:1.58205;stroke-linecap:round;stroke-linejoin:round;paint-order:fill markers stroke"
         id="rect3125"
         width="2.3504174"
         height="0.83024037"
         x="2.4241345"
         y="280.79434"
         ry="0.41511622" />
      <path
         id="path2483"
         style="fill:#c99f35;fill-opacity:1;stroke-width:0.399193;stroke-linecap:square;stroke-linejoin:bevel;stroke-opacity:0.978723"
         d="m 6.6237,280.79431 c 0.544534,0 0.982913,0.43837 0.982913,0.98291 v 0.24016 c 0,0.54453 -0.438379,0.98291 -0.982913,0.98291 -0.544535,0 -0.982914,-0.43838 -0.982914,-0.98291 v -0.24016 c 0,-0.54454 0.438379,-0.98291 0.982914,-0.98291 z"
         sodipodi:nodetypes="sssssss" />
      <rect
         style="fill:#e8b747;fill-opacity:1;stroke:none;stroke-width:0.399193;stroke-linecap:square;stroke-linejoin:bevel;stroke-miterlimit:4;stroke-dasharray:none;stroke-dashoffset:0;stroke-opacity:0.978723;paint-order:normal"
         id="rect1187-9"
         width="6.4051771"
         height="7.0587292"
         x="1.6569073"
         y="272.66711"
         ry="2.9210441" />
      <rect
         ry="0.98291427"
         y="236.23254"
         x="138.96474"
         height="4.8893676"
         width="1.9658279"
         id="rect2103"
         style="fill:#c2c2d1;fill-opacity:1;stroke:none;stroke-width:0.399193;stroke-linecap:square;stroke-linejoin:bevel;stroke-miterlimit:4;stroke-dasharray:none;stroke-dashoffset:0;stroke-opacity:0.978723;paint-order:normal"
         transform="rotate(30)" />
      <path
         id="rect2105"
         style="fill:#f2c85e;fill-opacity:1;stroke-width:0.399193;stroke-linecap:square;stroke-linejoin:bevel;stroke-opacity:0.978723"
         d="m 2.128906,276.20793 c 0.471581,0.27227 0.632039,0.87111 0.359771,1.34268 l -0.508728,0.88115 c -0.272267,0.47158 -0.871105,0.63203 -1.342687,0.35977 -0.47158,-0.27226 -0.632038,-0.87111 -0.35977,-1.34269 L 0.78622,276.5677 c 0.272267,-0.47158 0.871106,-0.63204 1.342686,-0.35977 z"
         sodipodi:nodetypes="sssssss" />
      <g
         id="g8347"
         transform="translate(19.194812,-14.841648)">
        <circle
           r="3.5284107"
           cy="282.21616"
           cx="-17.645506"
           id="circle1189-3"
           style="fill:#c2c2d1;fill-opacity:1;stroke:none;stroke-width:0.399194;stroke-linecap:square;stroke-linejoin:bevel;stroke-miterlimit:4;stroke-dasharray:none;stroke-dashoffset:0;stroke-opacity:0.978723;paint-order:normal" />
        <circle
           style="fill:#a191a1;fill-opacity:1;stroke:none;stroke-width:0.399194;stroke-linecap:square;stroke-linejoin:bevel;stroke-miterlimit:4;stroke-dasharray:none;stroke-dashoffset:0;stroke-opacity:0.978723;paint-order:normal"
           id="circle1191-0"
           cx="-17.645506"
           cy="282.21616"
           r="2.3235874" />
      </g>
      <path
         id="rect3247"
         style="fill:#d6a839;fill-opacity:1;stroke-width:1.57605;stroke-linecap:round;stroke-linejoin:round;paint-order:fill markers stroke"
         d="m 8.25367,267.41433 -0.917878,3.10381 c -0.11955,0.40426 -0.545838,0.6506 -0.955792,0.55233 l -0.533506,-0.12789 c -0.409953,-0.0983 -0.643748,-0.50285 -0.524197,-0.90711 l 0.917878,-3.10381 c 0.119551,-0.40427 0.545835,-0.65059 0.955789,-0.55232 l 0.533506,0.12789 c 0.409954,0.0983 0.643751,0.50284 0.5242,0.9071 z" />
      <g
         id="g6203"
         transform="translate(19.194812,-14.841648)">
        <circle
           style="fill:#c2c2d1;fill-opacity:1;stroke:none;stroke-width:0.399194;stroke-linecap:square;stroke-linejoin:bevel;stroke-miterlimit:4;stroke-dasharray:none;stroke-dashoffset:0;stroke-opacity:0.978723;paint-order:normal"
           id="circle1195-7"
           cx="-11.680403"
           cy="282.21616"
           r="3.5284107" />
        <circle
           r="2.3235874"
           cy="282.21616"
           cx="-11.680403"
           id="circle1197-2"
           style="fill:#a191a1;fill-opacity:1;stroke:none;stroke-width:0.399194;stroke-linecap:square;stroke-linejoin:bevel;stroke-miterlimit:4;stroke-dasharray:none;stroke-dashoffset:0;stroke-opacity:0.978723;paint-order:normal" />
      </g>
      <path
         style="fill:#c99f35;fill-opacity:1;stroke:none;stroke-width:0.00808481;stroke-linecap:round;stroke-linejoin:round;stroke-dasharray:none;stroke-opacity:1;paint-order:fill markers stroke;stop-color:#000000"
         d="m 10.208949,266.35041 c 0.177943,0.0823 0.159513,0.4355 0.204118,0.66028 0.109483,0.82334 0.108047,1.67589 0.04385,2.50754 -0.102476,0.97218 -0.448399,1.93443 -1.0382057,2.3865 -0.3586353,0.28135 -0.7690733,0.4126 -1.1691523,0.3996 -0.186345,-0.0663 -0.100884,-0.42296 -0.119901,-0.63476 0.01364,-0.41602 -0.02878,-0.84665 0.0335,-1.25407 0.08,-0.16311 0.236215,-0.17144 0.342407,-0.29095 0.584314,-0.44885 1.1722752,-1.11833 1.3697068,-2.12113 0.097239,-0.49507 0.024948,-1.06312 0.1780302,-1.54072 0.03374,-0.0779 0.09466,-0.12461 0.155654,-0.11229 z"
         id="path5933" />
      <g
         id="g6199"
         transform="translate(19.194812,-14.841648)">
        <rect
           style="fill:#c2c2d1;fill-opacity:1;stroke:none;stroke-width:0.399193;stroke-linecap:square;stroke-linejoin:bevel;stroke-miterlimit:4;stroke-dasharray:none;stroke-dashoffset:0;stroke-opacity:0.978723;paint-order:normal"
           id="rect1205-1"
           width="8.8714314"
           height="8.8714314"
           x="-18.594614"
           y="280.90561"
           ry="3.6292224" />
        <circle
           style="fill:#3e2347;fill-opacity:1;stroke:none;stroke-width:0.399193;stroke-linecap:square;stroke-linejoin:bevel;stroke-miterlimit:4;stroke-dasharray:none;stroke-dashoffset:0;stroke-opacity:0.978723;paint-order:normal"
           id="circle1207-1"
           cx="-15.358009"
           cy="286.1102"
           r="0.64156169" />
        <circle
           r="0.64156169"
           cy="286.1102"
           cx="-10.938351"
           id="circle1209-0"
           style="fill:#3e2347;fill-opacity:1;stroke:none;stroke-width:0.399193;stroke-linecap:square;stroke-linejoin:bevel;stroke-miterlimit:4;stroke-dasharray:none;stroke-dashoffset:0;stroke-opacity:0.978723;paint-order:normal" />
        <path
           sodipodi:type="star"
           style="fill:#3e2347;fill-opacity:1;stroke:none;stroke-width:2.36253;stroke-linecap:square;stroke-linejoin:bevel;stroke-miterlimit:4;stroke-dasharray:none;stroke-dashoffset:0;stroke-opacity:0.978723;paint-order:normal"
           id="path1211-5"
           sodipodi:sides="3"
           sodipodi:cx="-45.408615"
           sodipodi:cy="234.57965"
           sodipodi:r1="2.997191"
           sodipodi:r2="1.4985955"
           sodipodi:arg1="1.5707963"
           sodipodi:arg2="2.6179939"
           inkscape:flatsided="true"
           inkscape:rounded="0.18"
           inkscape:randomized="0"
           inkscape:transform-center-x="-6.3665075e-06"
           inkscape:transform-center-y="1.0312406"
           d="m -45.408615,237.57684 c -0.934432,0 -3.062859,-3.68654 -2.595644,-4.49578 0.467216,-0.80925 4.724071,-0.80925 5.191287,0 0.467216,0.80924 -1.661211,4.49578 -2.595643,4.49578 z"
           transform="matrix(0.1689686,0,0,0.1689686,-4.9052707,247.82798)" />
      </g>
      <path
         id="path767"
         style="fill:#e8b747;fill-opacity:1;stroke:none;stroke-width:0.399193;stroke-linecap:square;stroke-linejoin:bevel;stroke-miterlimit:4;stroke-dasharray:none;stroke-dashoffset:0;stroke-opacity:0.978723;paint-order:normal"
         d="m 4.229353,267.25826 c -2.470361,0 -3.629141,0.42408 -3.629141,2.43467 v 1.61346 c 0,1.82442 1.332695,3.32601 3.081706,3.58846 C 3.293591,274.5239 3.0526,274.00081 3.0526,273.41889 v -0.80751 c 0,-0.0985 0.0073,-0.19525 0.0206,-0.28994 -0.820777,-0.1985 -1.427041,-0.93496 -1.427041,-1.81843 0,-1.03673 0.834751,-1.87097 1.871478,-1.87097 h 4.204901 c 0.801308,0 1.481143,0.49839 1.74891,1.20354 v -0.14265 c 0,-2.01059 -0.789931,-2.43467 -3.260294,-2.43467 z m 5.242093,3.91218 c -0.198261,0.5221 -0.622799,0.93065 -1.155125,1.10774 0.01767,0.1084 0.02678,0.21966 0.02678,0.3332 v 0.80751 c 0,0.21075 -0.03183,0.41365 -0.09064,0.6046 0.748557,-0.66389 1.218984,-1.63327 1.218984,-2.7171 z"
         sodipodi:nodetypes="ssscsscssscsssccsscsc" />
      <g
         id="g1169"
         transform="matrix(0.4323837,0,0,0.4323837,9.9556515,159.62331)">
        <path
           id="path814"
           style="fill:#e8b747;fill-opacity:1;stroke-width:0.238125;stroke-linecap:round;stroke-linejoin:round;paint-order:fill markers stroke;stop-color:#000000"
           sodipodi:type="inkscape:offset"
           inkscape:radius="0.18481216"
           inkscape:original="M -23.777344 264.85547 A 4.9318085 3.0480251 0 0 0 -23.783203 264.97852 A 4.9318085 3.0480251 0 0 0 -18.853516 268.02734 A 4.9318085 3.0480251 0 0 0 -13.919922 264.97852 A 4.9318085 3.0480251 0 0 0 -13.925781 264.85547 L -23.777344 264.85547 z "
           d="m -23.777344,264.66992 a 0.18483064,0.18483064 0 0 0 -0.183594,0.16992 c -0.0036,0.045 -0.0071,0.0917 -0.0078,0.13672 a 0.18483064,0.18483064 0 0 0 0,0.002 c -3.7e-4,0.87616 0.581874,1.72534 1.53125,2.3125 0.949376,0.58715 2.26308,0.92152 3.583984,0.92187 1.321571,3e-4 2.635726,-0.33467 3.585938,-0.92187 0.950212,-0.58721 1.533573,-1.4359 1.533203,-2.3125 a 0.18483064,0.18483064 0 0 0 0,-0.002 c -6.73e-4,-0.0451 -0.0042,-0.0917 -0.0078,-0.13672 a 0.18483064,0.18483064 0 0 0 -0.183593,-0.16992 z" />
        <ellipse
           style="fill:#f2c85e;fill-opacity:1;stroke-width:0.314946;stroke-linecap:round;stroke-linejoin:round;paint-order:fill markers stroke;stop-color:#000000"
           id="path819"
           cx="-17.626732"
           cy="264.74872"
           rx="3.3633308"
           ry="1.7891208" />
      </g>
      <path
         id="path1387"
         style="fill:#f2c85e;fill-opacity:1;stroke-width:0.035099;stroke-linecap:round;stroke-linejoin:round;paint-order:fill markers stroke;stop-color:#000000"
         d="m 6.478892,269.72163 c -0.175309,0 -1.080209,-0.52244 -1.167864,-0.67427 -0.08765,-0.15182 -0.08765,-1.5582 0,-1.71003 0.08765,-0.15182 0.992555,-0.67426 1.167864,-0.67426 0.17531,0 1.08021,0.52244 1.167865,0.67426 0.08765,0.15183 0.08765,1.55821 0,1.71003 -0.08765,0.15183 -0.992555,0.67427 -1.167865,0.67427 z"
         sodipodi:nodetypes="sssssss" />
      <path
         style="fill:#f2c85e;fill-opacity:1;stroke:none;stroke-width:0.00907894;stroke-linecap:round;stroke-linejoin:round;stroke-dasharray:none;stroke-opacity:1;paint-order:fill markers stroke;stop-color:#000000"
         d="m -0.063863,266.35041 c -0.224394,0.0823 -0.201153,0.4355 -0.257401,0.66028 -0.138063,0.82334 -0.136252,1.67589 -0.05529,2.50754 0.129226,0.97218 0.565451,1.93443 1.309223,2.3865 0.452254,0.28135 0.969835,0.4126 1.474352,0.3996 0.23499,-0.0663 0.127219,-0.42296 0.151201,-0.63476 -0.0172,-0.41602 0.03629,-0.84665 -0.04224,-1.25407 -0.100883,-0.16311 -0.297878,-0.17144 -0.43179,-0.29095 -0.736847,-0.44885 -1.478291,-1.11833 -1.727261,-2.12113 -0.122623,-0.49507 -0.03146,-1.06312 -0.224504,-1.54072 -0.04255,-0.0779 -0.119365,-0.12461 -0.196287,-0.11229 z"
         id="path5931" />
      <g
         id="g7714"
         transform="translate(19.194812,-14.841648)">
        <rect
           style="fill:#f2c85e;fill-opacity:1;stroke:none;stroke-width:0.0779365;stroke-linecap:round;stroke-linejoin:round;stroke-dasharray:none;stroke-opacity:1;paint-order:fill markers stroke;stop-color:#000000"
           id="rect7524"
           width="1.4913206"
           height="2.2984145"
           x="86.083878"
           y="278.61221"
           ry="0.4904879"
           transform="matrix(-0.96592583,0.25881905,0.25881905,0.96592583,0,0)" />
        <rect
           style="fill:#f2c85e;fill-opacity:1;stroke:none;stroke-width:0.0949911;stroke-linecap:round;stroke-linejoin:round;stroke-dasharray:none;stroke-opacity:1;paint-order:fill markers stroke;stop-color:#000000"
           id="rect7526"
           width="1.8176622"
           height="2.8013706"
           x="86.932961"
           y="278.67526"
           ry="0.5978201"
           transform="matrix(-0.96592583,0.25881905,0.25881905,0.96592583,0,0)" />
        <rect
           style="fill:#f2c85e;fill-opacity:1;stroke:none;stroke-width:0.0779365;stroke-linecap:round;stroke-linejoin:round;stroke-dasharray:none;stroke-opacity:1;paint-order:fill markers stroke;stop-color:#000000"
           id="rect7522"
           width="1.4913206"
           height="2.2984145"
           x="59.063171"
           y="285.85239"
           ry="0.4904879"
           transform="rotate(15)" />
        <rect
           style="fill:#f2c85e;fill-opacity:1;stroke:none;stroke-width:0.0949911;stroke-linecap:round;stroke-linejoin:round;stroke-dasharray:none;stroke-opacity:1;paint-order:fill markers stroke;stop-color:#000000"
           id="rect7451"
           width="1.8176622"
           height="2.8013706"
           x="60.382362"
           y="285.78946"
           ry="0.5978201"
           transform="rotate(15)" />
        <g
           id="g7449"
           transform="matrix(1.162364,0,0,1.162364,2.7676933,-47.925003)">
          <path
             sodipodi:type="star"
             style="fill:#c99f35;fill-opacity:1;stroke:none;stroke-width:0.079375;stroke-linecap:round;stroke-linejoin:round;stroke-dasharray:none;stroke-opacity:1;paint-order:fill markers stroke;stop-color:#000000"
             id="path7131"
             inkscape:flatsided="true"
             sodipodi:sides="6"
             sodipodi:cx="-87.599976"
             sodipodi:cy="9.7093544"
             sodipodi:r1="18.042479"
             sodipodi:r2="15.625245"
             sodipodi:arg1="1.5707963"
             sodipodi:arg2="2.0943951"
             inkscape:rounded="0.16"
             inkscape:randomized="0"
             d="m -87.599975,27.751833 c -2.886797,0 -14.181845,-6.5212 -15.625245,-9.021239 -1.4434,-2.500039 -1.4434,-15.5424393 0,-18.04247846 1.4434,-2.50003924 12.738447,-9.02123964 15.625244,-9.02123974 2.886797,0 14.181847,6.5211998 15.625245,9.0212389 1.443398,2.5000391 1.443399,15.5424393 0,18.0424783 -1.443398,2.500039 -12.738448,9.02124 -15.625244,9.02124 z"
             transform="matrix(0.05973459,0,0,0.05973459,-8.748357,293.56268)" />
          <path
             id="path7127"
             style="fill:#c99f35;fill-opacity:1;stroke-width:0.00709103;stroke-linecap:round;stroke-linejoin:round;paint-order:fill markers stroke;stop-color:#000000"
             d="m -13.975075,294.02739 c -0.296722,0 -0.903986,-0.51206 -0.903986,-0.76775 0,-0.25568 0.607264,-1.33039 0.903986,-1.33039 0.296723,0 0.903986,1.07471 0.903986,1.33039 0,0.25569 -0.607263,0.76775 -0.903986,0.76775 z"
             sodipodi:nodetypes="sssss" />
          <path
             id="path6186"
             style="fill:#e8b747;fill-opacity:1;stroke-width:0.00412265;stroke-linecap:round;stroke-linejoin:round;paint-order:fill markers stroke;stop-color:#000000"
             d="m -13.643143,295.24027 c -0.09958,0.0512 -0.57431,0.0519 -0.673989,9.3e-4 -0.09968,-0.0509 -0.435761,-0.46557 -0.477147,-0.58873 -0.04139,-0.12317 -0.04195,-1.32162 -8.08e-4,-1.4449 0.04115,-0.12328 0.554554,-0.86936 0.613507,-0.89967 0.05895,-0.0303 0.340001,-0.0307 0.399012,-4.6e-4 0.05901,0.0301 0.57325,0.77471 0.614635,0.89787 0.04139,0.12316 0.04195,1.32162 8.08e-4,1.44489 -0.04115,0.12329 -0.376437,0.53895 -0.476018,0.59013 z"
             sodipodi:nodetypes="sssssssss" />
          <path
             id="path6058"
             style="fill:#f2dfaf;fill-opacity:1;stroke-width:0.00386;stroke-linecap:round;stroke-linejoin:round;paint-order:fill markers stroke;stop-color:#000000"
             d="m -13.975075,294.01246 c -0.161521,0 -0.492086,-0.27874 -0.492086,-0.41792 0,-0.13918 0.330565,-0.7242 0.492086,-0.7242 0.161521,0 0.492086,0.58502 0.492086,0.7242 0,0.13918 -0.330565,0.41792 -0.492086,0.41792 z"
             sodipodi:nodetypes="sssss" />
        </g>
      </g>
      <path
         style="fill:#f2c85e;fill-opacity:1;stroke:none;stroke-width:0.00400927;stroke-linecap:round;stroke-linejoin:round;stroke-dasharray:none;stroke-opacity:1;paint-order:fill markers stroke;stop-color:#000000"
         d="m 1.435073,278.70132 c 0.142174,0.0192 0.244227,-0.0962 0.296587,-0.21474 0.07802,-0.11122 0.05232,-0.27435 -0.06322,-0.34921 0.317314,-0.33154 0.726545,-0.5518 1.095595,-0.81837 0.219015,-0.14568 0.425726,-0.32441 0.538143,-0.56774 0.0713,-0.1382 0.118037,-0.29058 0.124577,-0.44653 0.17575,-0.0283 0.221331,-0.22882 0.31035,-0.3562 0.08296,-0.13055 0.01313,-0.30666 -0.12658,-0.36287 -0.606684,-0.34766 -1.209964,-0.70249 -1.817998,-1.04701 -0.133883,-0.0707 -0.29298,0.0163 -0.345356,0.14921 -0.0626,0.12405 -0.190078,0.25665 -0.124209,0.40338 -0.352018,0.22531 -0.531041,0.6477 -0.54257,1.0551 -0.03877,0.46323 -0.04149,0.93523 -0.164217,1.38648 -0.135759,-0.0718 -0.294164,0.0222 -0.346033,0.15593 -0.08806,0.11145 -0.09219,0.28943 0.033,0.37531 0.350494,0.20758 0.70486,0.41218 1.059908,0.612 0.02392,0.009 0.04839,0.0162 0.0722,0.025 z"
         id="path7528" />
    </g>
  </g>
</svg>
