<?xml version="1.0" encoding="UTF-8" standalone="no"?>
<!-- Created with Inkscape (http://www.inkscape.org/) -->

<svg
   width="128"
   height="128"
   viewBox="0 0 33.866665 33.866667"
   version="1.1"
   id="svg1307"
   inkscape:version="1.2 (dc2aedaf03, 2022-05-15)"
   sodipodi:docname="saint-aires.svg"
   inkscape:export-filename="../../../../../../../../../Pictures/Moon Cheeser database/Saint Aries.png"
   inkscape:export-xdpi="96.000008"
   inkscape:export-ydpi="96.000008"
   xmlns:inkscape="http://www.inkscape.org/namespaces/inkscape"
   xmlns:sodipodi="http://sodipodi.sourceforge.net/DTD/sodipodi-0.dtd"
   xmlns="http://www.w3.org/2000/svg"
   xmlns:svg="http://www.w3.org/2000/svg"
   xmlns:rdf="http://www.w3.org/1999/02/22-rdf-syntax-ns#"
   xmlns:cc="http://creativecommons.org/ns#"
   xmlns:dc="http://purl.org/dc/elements/1.1/">
  <defs
     id="defs1301">
    <inkscape:path-effect
       effect="powerstroke"
       id="path-effect126865"
       is_visible="true"
       lpeversion="1"
       offset_points="0.36607912,0.65819441 | 0.7369579,1.5394423 | 0.91447105,0.73804339"
       not_jump="false"
       sort_points="true"
       interpolator_type="CentripetalCatmullRom"
       interpolator_beta="0.2"
       start_linecap_type="zerowidth"
       linejoin_type="round"
       miter_limit="4"
       scale_width="1"
       end_linecap_type="zerowidth" />
    <inkscape:path-effect
       effect="skeletal"
       id="path-effect114945"
       is_visible="true"
       lpeversion="1"
       pattern="M 0,4.9921381 C 0,2.2364779 2.2364779,0 4.9921381,0 c 2.7556603,0 4.9921381,2.2364779 4.9921381,4.9921381 0,2.7556603 -2.2364778,4.9921381 -4.9921381,4.9921381 C 2.2364779,9.9842762 0,7.7477984 0,4.9921381 Z"
       copytype="single_stretched"
       prop_scale="1"
       scale_y_rel="false"
       spacing="0"
       normal_offset="0"
       tang_offset="0"
       prop_units="false"
       vertical_pattern="false"
       hide_knot="false"
       fuse_tolerance="0" />
    <inkscape:path-effect
       effect="skeletal"
       id="path-effect95947"
       is_visible="true"
       lpeversion="1"
       pattern="M 0,4.9921381 C 0,2.2364779 2.2364779,0 4.9921381,0 c 2.7556603,0 4.9921381,2.2364779 4.9921381,4.9921381 0,2.7556603 -2.2364778,4.9921381 -4.9921381,4.9921381 C 2.2364779,9.9842762 0,7.7477984 0,4.9921381 Z"
       copytype="single_stretched"
       prop_scale="1"
       scale_y_rel="false"
       spacing="0"
       normal_offset="0"
       tang_offset="0"
       prop_units="false"
       vertical_pattern="false"
       hide_knot="false"
       fuse_tolerance="0" />
    <inkscape:path-effect
       effect="skeletal"
       id="path-effect91934"
       is_visible="true"
       lpeversion="1"
       pattern="M 0,4.9921381 C 0,2.2364779 2.2364779,0 4.9921381,0 c 2.7556603,0 4.9921381,2.2364779 4.9921381,4.9921381 0,2.7556603 -2.2364778,4.9921381 -4.9921381,4.9921381 C 2.2364779,9.9842762 0,7.7477984 0,4.9921381 Z"
       copytype="single_stretched"
       prop_scale="1"
       scale_y_rel="false"
       spacing="0"
       normal_offset="0"
       tang_offset="0"
       prop_units="false"
       vertical_pattern="false"
       hide_knot="false"
       fuse_tolerance="0" />
    <inkscape:path-effect
       effect="skeletal"
       id="path-effect91930"
       is_visible="true"
       lpeversion="1"
       pattern="M 0,4.9921381 C 0,2.2364779 2.2364779,0 4.9921381,0 c 2.7556603,0 4.9921381,2.2364779 4.9921381,4.9921381 0,2.7556603 -2.2364778,4.9921381 -4.9921381,4.9921381 C 2.2364779,9.9842762 0,7.7477984 0,4.9921381 Z"
       copytype="single_stretched"
       prop_scale="1"
       scale_y_rel="false"
       spacing="0"
       normal_offset="0"
       tang_offset="0"
       prop_units="false"
       vertical_pattern="false"
       hide_knot="false"
       fuse_tolerance="0" />
    <inkscape:path-effect
       effect="skeletal"
       id="path-effect91926"
       is_visible="true"
       lpeversion="1"
       pattern="M 0,4.9921381 C 0,2.2364779 2.2364779,0 4.9921381,0 c 2.7556603,0 4.9921381,2.2364779 4.9921381,4.9921381 0,2.7556603 -2.2364778,4.9921381 -4.9921381,4.9921381 C 2.2364779,9.9842762 0,7.7477984 0,4.9921381 Z"
       copytype="single_stretched"
       prop_scale="1"
       scale_y_rel="false"
       spacing="0"
       normal_offset="0"
       tang_offset="0"
       prop_units="false"
       vertical_pattern="false"
       hide_knot="false"
       fuse_tolerance="0" />
    <inkscape:path-effect
       effect="powerstroke"
       id="path-effect1497"
       is_visible="true"
       lpeversion="1"
       offset_points="0.24579726,0.88346674"
       not_jump="false"
       sort_points="true"
       interpolator_type="CubicBezierJohan"
       interpolator_beta="0.2"
       start_linecap_type="zerowidth"
       linejoin_type="extrp_arc"
       miter_limit="4"
       scale_width="1"
       end_linecap_type="zerowidth" />
    <inkscape:path-effect
       effect="powerstroke"
       id="path-effect406"
       is_visible="true"
       lpeversion="1"
       offset_points="0.24579726,0.88346674"
       not_jump="false"
       sort_points="true"
       interpolator_type="CubicBezierJohan"
       interpolator_beta="0.2"
       start_linecap_type="zerowidth"
       linejoin_type="extrp_arc"
       miter_limit="4"
       scale_width="1"
       end_linecap_type="zerowidth" />
  </defs>
  <sodipodi:namedview
     id="base"
     pagecolor="#282828"
     bordercolor="#666666"
     borderopacity="1.0"
     inkscape:pageopacity="0"
     inkscape:pageshadow="2"
     inkscape:zoom="3.959798"
     inkscape:cx="6.3134534"
     inkscape:cy="76.645324"
     inkscape:document-units="mm"
     inkscape:current-layer="layer1"
     showgrid="true"
     inkscape:window-width="1920"
     inkscape:window-height="1022"
     inkscape:window-x="0"
     inkscape:window-y="30"
     inkscape:window-maximized="1"
     units="px"
     inkscape:snap-bbox="true"
     inkscape:bbox-nodes="true"
     inkscape:snap-page="true"
     inkscape:snap-nodes="true"
     inkscape:bbox-paths="false"
     inkscape:snap-global="false"
     inkscape:snap-bbox-midpoints="false"
     inkscape:snap-others="false"
     showguides="true"
     inkscape:guide-bbox="true"
     inkscape:snap-grids="false"
     inkscape:snap-to-guides="true"
     inkscape:pagecheckerboard="0"
     inkscape:object-paths="true"
     inkscape:snap-intersection-paths="true"
     inkscape:snap-smooth-nodes="true"
     inkscape:snap-midpoints="true"
     inkscape:showpageshadow="0"
     inkscape:deskcolor="#282828">
    <inkscape:grid
       type="xygrid"
       id="grid883"
       empspacing="4" />
  </sodipodi:namedview>
  <metadata
     id="metadata1304">
    <rdf:RDF>
      <cc:Work
         rdf:about="">
        <dc:format>image/svg+xml</dc:format>
        <dc:type
           rdf:resource="http://purl.org/dc/dcmitype/StillImage" />
      </cc:Work>
    </rdf:RDF>
  </metadata>
  <g
     inkscape:label="Layer 1"
     inkscape:groupmode="layer"
     id="layer1"
     transform="translate(0,-263.13332)">
    <path
       id="path3516"
       style="fill:#d6a839;fill-opacity:1;stroke-width:2.64915;stroke-linecap:round;stroke-linejoin:round;paint-order:fill markers stroke"
       d="m 21.355846,265.78022 3.732321,3.73232 c 0.508322,0.50831 0.508317,1.32677 3e-6,1.83509 l -0.661525,0.66153 c -0.508314,0.50832 -1.326773,0.50832 -1.835093,0 -2.766475,0.88719 -5.68775,-9.81544 -1.235706,-6.22894 z"
       sodipodi:nodetypes="cssscc" />
    <path
       id="rect3243"
       style="fill:#d6a839;fill-opacity:1;stroke-width:2.64915;stroke-linecap:round;stroke-linejoin:round;paint-order:fill markers stroke"
       d="m 22.989873,274.74364 4.414827,4.41484 c 0.319268,0.31927 0.31927,0.83331 1e-6,1.15259 l -0.793565,0.79356 c -0.319257,0.31925 -0.833321,0.31927 -1.152589,0 l -4.414826,-4.41482 c -0.319268,-0.31928 -0.319259,-0.83334 -2e-6,-1.15259 l 0.793566,-0.79358 c 0.319268,-0.31926 0.83332,-0.31926 1.152588,0 z" />
    <rect
       ry="1.64589"
       y="288.54739"
       x="21.000853"
       height="8.1872463"
       width="3.291779"
       id="rect1181-3"
       style="fill:#7e7e8f;fill-opacity:1;stroke:none;stroke-width:0.668449;stroke-linecap:square;stroke-linejoin:bevel;stroke-miterlimit:4;stroke-dasharray:none;stroke-dashoffset:0;stroke-opacity:0.978723;paint-order:normal" />
    <rect
       style="fill:#c99f35;fill-opacity:1;stroke-width:2.64915;stroke-linecap:round;stroke-linejoin:round;paint-order:fill markers stroke"
       id="rect3127"
       width="3.9357741"
       height="1.3902376"
       x="20.678856"
       y="293.04074"
       ry="0.69511211" />
    <rect
       style="fill:#c2c2d1;fill-opacity:1;stroke:none;stroke-width:0.668449;stroke-linecap:square;stroke-linejoin:bevel;stroke-miterlimit:4;stroke-dasharray:none;stroke-dashoffset:0;stroke-opacity:0.978723;paint-order:normal"
       id="rect140737-0"
       width="3.291779"
       height="8.1872463"
       x="15.936568"
       y="288.54739"
       ry="1.64589" />
    <path
       style="fill:none;stroke:#c2c2d1;stroke-width:0.668449;stroke-linecap:round;stroke-linejoin:miter;stroke-miterlimit:4;stroke-dasharray:none;stroke-opacity:1"
       d="m 18.183886,288.47882 c 0,0 -6.257759,0.0948 -8.6020343,-6.52841 -2.3442751,-6.62325 -4.0980066,-7.93436 -5.4424446,-7.55422"
       id="path1179-5"
       inkscape:connector-curvature="0"
       inkscape:transform-center-x="31.376121"
       inkscape:transform-center-y="-50.530738" />
    <rect
       transform="matrix(-0.86602542,0.49999998,0.49999998,0.86602542,0,0)"
       style="fill:#7e7e8f;fill-opacity:1;stroke:none;stroke-width:0.668449;stroke-linecap:square;stroke-linejoin:bevel;stroke-miterlimit:4;stroke-dasharray:none;stroke-dashoffset:0;stroke-opacity:0.978723;paint-order:normal"
       id="rect1183-8"
       width="3.291779"
       height="8.1872454"
       x="119.94736"
       y="256.11267"
       ry="1.6458899" />
    <rect
       ry="1.64589"
       y="256.11267"
       x="119.94738"
       height="8.1872463"
       width="3.291779"
       id="rect2623"
       style="fill:#c2c2d1;fill-opacity:1;stroke:none;stroke-width:0.668449;stroke-linecap:square;stroke-linejoin:bevel;stroke-miterlimit:4;stroke-dasharray:none;stroke-dashoffset:0;stroke-opacity:0.978723;paint-order:normal"
       transform="matrix(-0.8660254,0.5,0.5,0.8660254,0,0)" />
    <path
       id="path2625"
       style="fill:#c99f35;fill-opacity:1;stroke-width:0.668449;stroke-linecap:square;stroke-linejoin:bevel;stroke-opacity:0.978723"
       d="m 24.349346,285.36084 c -0.789663,0.4559 -1.058349,1.45867 -0.602437,2.24833 l 0.851866,1.47548 c 0.455911,0.78965 1.458665,1.05834 2.248328,0.60243 0.789661,-0.45592 1.058349,-1.45867 0.602437,-2.24833 l -0.851866,-1.47547 c -0.455911,-0.78966 -1.458667,-1.05835 -2.248328,-0.60244 z"
       sodipodi:nodetypes="sssssss" />
    <rect
       style="fill:#c99f35;fill-opacity:1;stroke-width:2.64915;stroke-linecap:round;stroke-linejoin:round;paint-order:fill markers stroke"
       id="rect3107"
       width="5.2597427"
       height="2.5893595"
       x="118.86833"
       y="259.50714"
       ry="1.2946798"
       transform="matrix(-0.8660254,0.5,0.5,0.8660254,0,0)" />
    <rect
       style="fill:#c99f35;fill-opacity:1;stroke-width:2.92499;stroke-linecap:round;stroke-linejoin:round;paint-order:fill markers stroke"
       id="rect2409"
       width="5.8639498"
       height="3.0476153"
       x="21.485886"
       y="281.13138"
       ry="1.5238076" />
    <path
       style="fill:#d6a839;fill-opacity:1;fill-rule:nonzero;stroke:none;stroke-width:0.242879px;stroke-linecap:butt;stroke-linejoin:miter;stroke-opacity:1"
       d="m 19.514488,283.77145 c 0,0 1.019365,0.14189 1.210289,-0.0588 0.001,-0.001 0.01535,-0.0162 0.0164,-0.0173 0.130865,-0.13763 0.328116,-0.34657 0.554513,-0.55344 0.187423,-0.17127 0.406813,-0.35253 0.644101,-0.50542 0.211044,-0.13598 0.429386,-0.24504 0.645686,-0.30672 0.195204,-0.0557 0.396752,-0.0754 0.603384,-0.0321 0.19829,0.0415 0.436394,0.14829 0.699609,0.39311 0.257999,0.23996 0.535214,0.60862 0.807796,1.15854 0.297585,0.60754 0.603952,1.0825 0.916607,1.44122 0.31309,0.35921 0.63306,0.60235 0.954168,0.74242 0.161799,0.0706 0.321218,0.11378 0.476497,0.13315 0.156938,0.0196 0.30672,0.0145 0.44782,-0.009 0.28783,-0.0481 0.537388,-0.17243 0.745502,-0.31865 0.218953,-0.15384 0.406075,-0.34181 0.558344,-0.52192 0.1652,-0.1954 0.300005,-0.39418 0.401238,-0.5596 0.272465,-0.44522 0.323726,-0.6365 0.323726,-0.6365 0,0 -0.101615,0.16984 -0.44503,0.54552 -0.127667,0.13966 -0.289726,0.30235 -0.475305,0.45212 -0.172851,0.13949 -0.366563,0.26813 -0.571283,0.3562 -0.19571,0.0842 -0.391113,0.12687 -0.580944,0.11534 -0.09174,-0.006 -0.18203,-0.0238 -0.271625,-0.0557 -0.08842,-0.0316 -0.178667,-0.0774 -0.271051,-0.14093 -0.183946,-0.1264 -0.383801,-0.32679 -0.597106,-0.64349 -0.214121,-0.31792 -0.437148,-0.74732 -0.662691,-1.32049 -0.257777,-0.64646 -0.552219,-1.15782 -0.883778,-1.55074 -0.344603,-0.40838 -0.730024,-0.68917 -1.147727,-0.85396 -0.43862,-0.17304 -0.877803,-0.20428 -1.282179,-0.15633 -0.43134,0.0512 -0.827219,0.19257 -1.160582,0.35264 -0.376563,0.18081 -0.706467,0.40142 -0.96535,0.59813 -0.321186,0.24405 -0.575406,0.48335 -0.7406,0.65494 -0.0069,0.007 -0.01364,0.0142 -0.0203,0.0212 -0.12526,0.13167 -0.167372,0.5074 -0.120497,0.80357 0.04827,0.30498 0.190368,0.47311 0.190368,0.47311 z"
       id="path1493"
       inkscape:original-d="m 19.514488,283.77145 c 0,0 3.556834,-4.87037 5.656216,-0.13233 2.099382,4.73744 4.349463,0.48122 4.349463,0.48122"
       inkscape:path-effect="#path-effect1497" />
    <circle
       style="fill:#c2c2d1;fill-opacity:1;stroke:none;stroke-width:0.668451;stroke-linecap:square;stroke-linejoin:bevel;stroke-miterlimit:4;stroke-dasharray:none;stroke-dashoffset:0;stroke-opacity:0.978723;paint-order:normal"
       id="circle1195-7"
       cx="24.138237"
       cy="270.56924"
       r="5.9083238" />
    <circle
       r="3.8908472"
       cy="270.56924"
       cx="24.138237"
       id="circle1197-2"
       style="fill:#a191a1;fill-opacity:1;stroke:none;stroke-width:0.668451;stroke-linecap:square;stroke-linejoin:bevel;stroke-miterlimit:4;stroke-dasharray:none;stroke-dashoffset:0;stroke-opacity:0.978723;paint-order:normal" />
    <circle
       r="5.9083238"
       cy="270.56924"
       cx="14.149671"
       id="circle1189-3"
       style="fill:#c2c2d1;fill-opacity:1;stroke:none;stroke-width:0.668451;stroke-linecap:square;stroke-linejoin:bevel;stroke-miterlimit:4;stroke-dasharray:none;stroke-dashoffset:0;stroke-opacity:0.978723;paint-order:normal" />
    <path
       id="rect3247"
       style="fill:#d6a839;fill-opacity:1;stroke-width:2.6391;stroke-linecap:round;stroke-linejoin:round;paint-order:fill markers stroke"
       d="m 25.376129,270.63596 -1.536987,5.19733 c -0.200187,0.67693 -0.914005,1.08943 -1.600473,0.92487 l -0.893356,-0.21415 c -0.686467,-0.16454 -1.077956,-0.84202 -0.877768,-1.51895 l 1.536986,-5.19733 c 0.200188,-0.67695 0.914001,-1.08941 1.600469,-0.92486 l 0.893356,0.21415 c 0.686468,0.16454 1.077961,0.84201 0.877773,1.51894 z" />
    <rect
       ry="1.6458899"
       y="236.3779"
       x="154.12901"
       height="8.1872454"
       width="3.291779"
       id="rect1203-5"
       style="fill:#c2c2d1;fill-opacity:1;stroke:none;stroke-width:0.668449;stroke-linecap:square;stroke-linejoin:bevel;stroke-miterlimit:4;stroke-dasharray:none;stroke-dashoffset:0;stroke-opacity:0.978723;paint-order:normal"
       transform="rotate(29.999999)" />
    <circle
       style="fill:#a191a1;fill-opacity:1;stroke:none;stroke-width:0.668451;stroke-linecap:square;stroke-linejoin:bevel;stroke-miterlimit:4;stroke-dasharray:none;stroke-dashoffset:0;stroke-opacity:0.978723;paint-order:normal"
       id="circle1191-0"
       cx="14.149671"
       cy="270.56924"
       r="3.8908472" />
    <g
       id="g12900"
       transform="matrix(1.6687536,0,0,1.6687536,39.901294,-198.88514)">
      <rect
         style="fill:#e8b747;fill-opacity:1;stroke:none;stroke-width:0.400568;stroke-linecap:square;stroke-linejoin:bevel;stroke-miterlimit:4;stroke-dasharray:none;stroke-dashoffset:0;stroke-opacity:0.978723;paint-order:normal"
         id="rect1187-9"
         width="6.4272337"
         height="7.8398128"
         x="-15.323679"
         y="286.6312"
         ry="2.9311028" />
      <g
         id="g12890">
        <path
           id="path11842"
           style="fill:#f2c85e;fill-opacity:1;stroke-width:0.0709134;stroke-linecap:round;stroke-linejoin:round;paint-order:fill markers stroke"
           inkscape:transform-center-y="-0.034424566"
           d="m -13.558116,294.2939 c -0.251519,-0.14523 -0.401745,-0.9202 -0.354335,-1.14326 0.04741,-0.22304 0.684151,-0.96073 0.923076,-0.98585 0.238925,-0.0251 0.893023,0.35254 0.990738,0.57202 0.09771,0.21946 -0.222775,1.13974 -0.392235,1.29232 -0.169461,0.15259 -0.915724,0.40998 -1.167244,0.26477 z"
           sodipodi:nodetypes="ssssss"
           inkscape:transform-center-x="-0.024605562" />
        <path
           id="path11985"
           style="fill:#f2c85e;fill-opacity:1;stroke-width:0.0842559;stroke-linecap:round;stroke-linejoin:round;paint-order:fill markers stroke"
           inkscape:transform-center-y="0.057409346"
           d="m -11.316715,295.10291 c -0.34508,0 -0.960056,-0.70819 -1.043784,-0.96587 -0.08372,-0.25767 0.133222,-1.39501 0.364151,-1.56279 0.230914,-0.1678 1.128332,-0.16778 1.359261,10e-6 0.230924,0.16777 0.447867,1.30511 0.364145,1.56279 -0.08372,0.25768 -0.698696,0.96586 -1.043773,0.96586 z"
           sodipodi:nodetypes="ssssss"
           inkscape:transform-center-x="2.1745038e-06" />
        <path
           id="path11987"
           style="fill:#f2c85e;fill-opacity:1;stroke-width:0.0709134;stroke-linecap:round;stroke-linejoin:round;paint-order:fill markers stroke"
           inkscape:transform-center-y="-0.034424566"
           d="m -9.5098172,294.2939 c 0.2515195,-0.14523 0.4017448,-0.9202 0.3543354,-1.14326 -0.047409,-0.22304 -0.6841515,-0.96073 -0.9230762,-0.98585 -0.238925,-0.0251 -0.893023,0.35254 -0.990738,0.57202 -0.09771,0.21946 0.222775,1.13974 0.392235,1.29232 0.169461,0.15259 0.9157242,0.40998 1.1672438,0.26477 z"
           sodipodi:nodetypes="ssssss"
           inkscape:transform-center-x="0.024605655" />
        <rect
           style="fill:#f2c85e;fill-opacity:1;stroke:none;stroke-width:0.529167;stroke-linecap:round;stroke-linejoin:round;stroke-dasharray:none;paint-order:fill markers stroke"
           id="rect11993"
           width="5.1593423"
           height="1.1023344"
           x="-14.10074"
           y="291.56485"
           ry="0.23602538" />
        <path
           id="path11995"
           style="fill:#f2c85e;fill-opacity:1;stroke-width:0.0709134;stroke-linecap:round;stroke-linejoin:round;paint-order:fill markers stroke"
           inkscape:transform-center-y="-0.034424566"
           d="m -14.756995,293.72216 c -0.251519,-0.14523 -0.401745,-0.9202 -0.354335,-1.14326 0.04741,-0.22304 0.684151,-0.96073 0.923076,-0.98585 0.238925,-0.0251 0.893023,0.35254 0.990738,0.57202 0.09771,0.21946 -0.222775,1.13974 -0.392235,1.29232 -0.169461,0.15259 -0.915724,0.40998 -1.167244,0.26477 z"
           sodipodi:nodetypes="ssssss"
           inkscape:transform-center-x="-0.024605562" />
        <path
           id="path11997"
           style="fill:#f2c85e;fill-opacity:1;stroke-width:0.0709134;stroke-linecap:round;stroke-linejoin:round;paint-order:fill markers stroke"
           inkscape:transform-center-y="-0.034424566"
           d="m -8.6235135,293.72216 c 0.251519,-0.14523 0.401745,-0.9202 0.354335,-1.14326 -0.04741,-0.22304 -0.684151,-0.96073 -0.923076,-0.98585 -0.238925,-0.0251 -0.8930235,0.35254 -0.9907385,0.57202 -0.09771,0.21946 0.2227755,1.13974 0.3922355,1.29232 0.169461,0.15259 0.915724,0.40998 1.167244,0.26477 z"
           sodipodi:nodetypes="ssssss"
           inkscape:transform-center-x="0.024605983" />
      </g>
    </g>
    <rect
       style="fill:#c2c2d1;fill-opacity:1;stroke:none;stroke-width:0.668449;stroke-linecap:square;stroke-linejoin:bevel;stroke-miterlimit:4;stroke-dasharray:none;stroke-dashoffset:0;stroke-opacity:0.978723;paint-order:normal"
       id="rect1205-1"
       width="14.855212"
       height="14.855212"
       x="12.56039"
       y="268.37473"
       ry="6.0771332" />
    <path
       id="rect3256"
       style="fill:#e8b747;stroke-width:2.64915;stroke-linecap:round;stroke-linejoin:round;paint-order:fill markers stroke"
       d="m 12.219554,274.74364 4.414826,4.41484 c 0.319269,0.31927 0.319271,0.83331 2e-6,1.15259 l -0.793565,0.79356 c -0.319257,0.31925 -0.833322,0.31927 -1.152589,0 l -4.414826,-4.41482 c -0.3192681,-0.31928 -0.3192597,-0.83334 -2e-6,-1.15259 l 0.793566,-0.79358 c 0.319267,-0.31926 0.83332,-0.31926 1.152588,0 z" />
    <path
       id="rect3258"
       style="fill:#e8b747;stroke-width:2.6391;stroke-linecap:round;stroke-linejoin:round;paint-order:fill markers stroke"
       d="m 14.60581,270.63596 -1.536988,5.19733 c -0.200187,0.67693 -0.914004,1.08943 -1.600473,0.92487 l -0.893355,-0.21415 c -0.6864671,-0.16454 -1.0779567,-0.84202 -0.877768,-1.51895 l 1.536985,-5.19733 c 0.200189,-0.67695 0.914002,-1.08941 1.60047,-0.92486 l 0.893356,0.21415 c 0.686467,0.16454 1.07796,0.84201 0.877773,1.51894 z" />
    <path
       id="rect3260"
       style="fill:#e8b747;stroke-width:2.64915;stroke-linecap:round;stroke-linejoin:round;paint-order:fill markers stroke"
       d="m 10.585532,265.78022 3.732323,3.73232 c 0.50832,0.50831 0.508315,1.32677 1e-6,1.83509 l -0.661524,0.66153 c -0.508315,0.5083 -1.326772,0.50832 -1.835095,0 -2.7664728,0.88717 -5.6877478,-9.81544 -1.235705,-6.22894 z"
       sodipodi:nodetypes="cssscc" />
    <circle
       style="fill:#3e2347;fill-opacity:1;stroke:none;stroke-width:0.668449;stroke-linecap:square;stroke-linejoin:bevel;stroke-miterlimit:4;stroke-dasharray:none;stroke-dashoffset:0;stroke-opacity:0.978723;paint-order:normal"
       id="circle1207-1"
       cx="17.980085"
       cy="277.08981"
       r="1.074295" />
    <circle
       r="1.074295"
       cy="277.08981"
       cx="25.380804"
       id="circle1209-0"
       style="fill:#3e2347;fill-opacity:1;stroke:none;stroke-width:0.668449;stroke-linecap:square;stroke-linejoin:bevel;stroke-miterlimit:4;stroke-dasharray:none;stroke-dashoffset:0;stroke-opacity:0.978723;paint-order:normal" />
    <path
       sodipodi:type="star"
       style="fill:#3e2347;fill-opacity:1;stroke:none;stroke-width:2.36253;stroke-linecap:square;stroke-linejoin:bevel;stroke-miterlimit:4;stroke-dasharray:none;stroke-dashoffset:0;stroke-opacity:0.978723;paint-order:normal"
       id="path1211-5"
       sodipodi:sides="3"
       sodipodi:cx="-45.408615"
       sodipodi:cy="234.57965"
       sodipodi:r1="2.997191"
       sodipodi:r2="1.4985955"
       sodipodi:arg1="1.5707963"
       sodipodi:arg2="2.6179939"
       inkscape:flatsided="true"
       inkscape:rounded="0.18"
       inkscape:randomized="0"
       inkscape:transform-center-x="-6.3665075e-06"
       inkscape:transform-center-y="1.0312406"
       d="m -45.408615,237.57684 c -0.934432,0 -3.062859,-3.68654 -2.595644,-4.49578 0.467216,-0.80925 4.724071,-0.80925 5.191287,0 0.467216,0.80924 -1.661211,4.49578 -2.595643,4.49578 z"
       transform="matrix(0.28293792,0,0,0.28293792,35.483196,212.98628)" />
    <path
       style="fill:#f2c85e;fill-opacity:1;fill-rule:nonzero;stroke:none;stroke-width:0.242879px;stroke-linecap:butt;stroke-linejoin:miter;stroke-opacity:1"
       d="m 12.885959,283.77145 h 0 c 0,0 1.019365,0.14189 1.210289,-0.0588 0.001,-0.001 0.01535,-0.0162 0.0164,-0.0173 0.130865,-0.13763 0.328116,-0.34657 0.554512,-0.55344 0.187424,-0.17127 0.406814,-0.35253 0.644101,-0.50542 0.211044,-0.13598 0.429387,-0.24504 0.645686,-0.30672 0.195204,-0.0557 0.396752,-0.0754 0.603384,-0.0321 0.19829,0.0415 0.436395,0.14829 0.69961,0.39311 0.257998,0.23996 0.535213,0.60862 0.807795,1.15854 0.297585,0.60754 0.603952,1.0825 0.916607,1.44122 0.31309,0.35921 0.63306,0.60235 0.954168,0.74242 0.161799,0.0706 0.321218,0.11378 0.476497,0.13315 0.156938,0.0196 0.30672,0.0145 0.44782,-0.009 0.28783,-0.0481 0.537388,-0.17243 0.745502,-0.31865 0.218953,-0.15384 0.406075,-0.34181 0.558344,-0.52192 0.1652,-0.1954 0.300005,-0.39418 0.401238,-0.5596 0.272465,-0.44522 0.323726,-0.6365 0.323726,-0.6365 0,0 -0.101615,0.16984 -0.44503,0.54552 -0.127667,0.13966 -0.289726,0.30235 -0.475305,0.45212 -0.172851,0.13949 -0.366563,0.26813 -0.571283,0.3562 -0.19571,0.0842 -0.391113,0.12687 -0.580944,0.11534 -0.09174,-0.006 -0.18203,-0.0238 -0.271625,-0.0557 -0.08842,-0.0316 -0.178667,-0.0774 -0.271051,-0.14093 -0.183946,-0.1264 -0.383801,-0.32679 -0.597106,-0.64349 -0.214121,-0.31792 -0.437148,-0.74732 -0.662691,-1.32049 -0.257777,-0.64646 -0.552219,-1.15782 -0.883778,-1.55074 -0.344603,-0.40838 -0.730024,-0.68917 -1.147727,-0.85396 -0.43862,-0.17304 -0.877803,-0.20428 -1.282178,-0.15633 -0.431341,0.0512 -0.827219,0.19257 -1.160583,0.35264 -0.376562,0.18081 -0.706466,0.40142 -0.96535,0.59813 -0.321185,0.24405 -0.575405,0.48335 -0.740599,0.65494 -0.0069,0.007 -0.01364,0.0142 -0.0203,0.0212 -0.12526,0.13167 -0.167372,0.5074 -0.120497,0.80357 0.04827,0.30498 0.190368,0.47311 0.190368,0.47311 z"
       id="path404"
       inkscape:original-d="m 12.885959,283.77145 c 0,0 3.556833,-4.87037 5.656215,-0.13233 2.099382,4.73744 4.349463,0.48122 4.349463,0.48122"
       inkscape:path-effect="#path-effect406" />
    <rect
       ry="1.64589"
       y="236.37791"
       x="154.129"
       height="8.1872463"
       width="3.291779"
       id="rect2103"
       style="fill:#c2c2d1;fill-opacity:1;stroke:none;stroke-width:0.668449;stroke-linecap:square;stroke-linejoin:bevel;stroke-miterlimit:4;stroke-dasharray:none;stroke-dashoffset:0;stroke-opacity:0.978723;paint-order:normal"
       transform="rotate(30)" />
    <path
       id="rect2105"
       style="fill:#f2c85e;fill-opacity:1;stroke-width:0.668449;stroke-linecap:square;stroke-linejoin:bevel;stroke-opacity:0.978723"
       d="m 15.120211,285.36084 c 0.789663,0.45592 1.058349,1.45867 0.602437,2.24833 l -0.851865,1.47548 c -0.455912,0.78965 -1.458666,1.05834 -2.248329,0.60243 -0.789661,-0.4559 -1.058348,-1.45867 -0.602436,-2.24833 l 0.851865,-1.47547 c 0.455912,-0.78966 1.458667,-1.05835 2.248328,-0.60244 z"
       sodipodi:nodetypes="sssssss" />
    <path
       id="rect3185"
       style="fill:#e8b747;fill-opacity:1;stroke:none;stroke-width:0.668449;stroke-linecap:square;stroke-linejoin:bevel;stroke-miterlimit:4;stroke-dasharray:none;stroke-dashoffset:0;stroke-opacity:0.978723;paint-order:normal"
       d="m 18.63741,268.37448 c -3.366724,0 -6.076997,2.71027 -6.076997,6.077 v 2.70174 c 0,3.05499 2.231598,5.5694 5.160317,6.00887 -0.650253,-0.62116 -1.053794,-1.49707 -1.053794,-2.47149 v -1.35218 c 0,-0.16487 0.01218,-0.32694 0.03449,-0.4855 -1.374391,-0.33239 -2.389579,-1.56559 -2.389579,-3.04496 0,-1.73601 1.39779,-3.13294 3.133789,-3.13294 h 7.041107 c 1.34179,0 2.480174,0.83455 2.928549,2.01532 v -0.23886 c 0,-3.36673 -2.710272,-6.077 -6.076997,-6.077 z m 8.777885,8.55108 c -0.331988,0.87427 -1.042878,1.55838 -1.934257,1.85492 0.02958,0.18151 0.04484,0.36782 0.04484,0.55794 v 1.35218 c 0,0.35289 -0.0533,0.69265 -0.151773,1.0124 1.253459,-1.11168 2.041188,-2.73491 2.041188,-4.54978 z" />
    <rect
       style="fill:#f2c85e;fill-opacity:1;stroke-width:2.92499;stroke-linecap:round;stroke-linejoin:round;paint-order:fill markers stroke"
       id="rect2336"
       width="5.8639498"
       height="3.0476153"
       x="11.926802"
       y="281.13138"
       ry="1.5238076" />
    <path
       id="rect2411"
       style="fill:#e8b747;fill-opacity:1;stroke-width:0.668449;stroke-linecap:square;stroke-linejoin:bevel;stroke-opacity:0.978723"
       d="m 17.582459,293.04073 c 0.911822,0 1.645888,0.73406 1.645888,1.64589 v 0.40215 c 0,0.91182 -0.734066,1.64588 -1.645888,1.64588 -0.911824,0 -1.64589,-0.73406 -1.64589,-1.64588 v -0.40215 c 0,-0.91183 0.734066,-1.64589 1.64589,-1.64589 z"
       sodipodi:nodetypes="sssssss" />
    <path
       id="path2483"
       style="fill:#c99f35;fill-opacity:1;stroke-width:0.668449;stroke-linecap:square;stroke-linejoin:bevel;stroke-opacity:0.978723"
       d="m 22.646744,293.04073 c 0.911822,0 1.645888,0.73406 1.645888,1.64589 v 0.40215 c 0,0.91182 -0.734066,1.64588 -1.645888,1.64588 -0.911824,0 -1.64589,-0.73406 -1.64589,-1.64588 v -0.40215 c 0,-0.91183 0.734066,-1.64589 1.64589,-1.64589 z"
       sodipodi:nodetypes="sssssss" />
    <rect
       style="fill:#f2c85e;fill-opacity:1;stroke-width:2.64915;stroke-linecap:round;stroke-linejoin:round;paint-order:fill markers stroke"
       id="rect2967"
       width="5.2597427"
       height="2.5893595"
       x="153.1725"
       y="239.70161"
       ry="1.2946798"
       transform="rotate(30)" />
    <rect
       style="fill:#e8b747;fill-opacity:1;stroke-width:2.64915;stroke-linecap:round;stroke-linejoin:round;paint-order:fill markers stroke"
       id="rect3125"
       width="3.9357741"
       height="1.3902376"
       x="15.614571"
       y="293.04074"
       ry="0.69511211" />
    <g
       id="g3492"
       transform="matrix(1.6687536,0,0,1.6687536,46.929694,-179.00596)"
       style="fill:#f2c85e;fill-opacity:1">
      <path
         id="path3431"
         style="fill:#f2c85e;fill-opacity:1;stroke-width:1.5875;stroke-linecap:round;stroke-linejoin:round;paint-order:fill markers stroke"
         d="m -17.086296,269.8094 c -0.0035,-0.003 -0.0069,-0.006 -0.01033,-0.009 -0.0053,-0.004 -0.01041,-0.008 -0.0155,-0.0119 -0.0051,-0.004 -0.01015,-0.007 -0.01499,-0.0103 -0.0048,-0.003 -0.0094,-0.006 -0.01395,-0.009 -0.0046,-0.003 -0.0091,-0.005 -0.01344,-0.007 -0.0043,-0.002 -0.0084,-0.004 -0.0124,-0.006 -0.004,-0.002 -0.0082,-0.003 -0.01188,-0.004 -0.0037,-0.001 -0.0074,-0.002 -0.01085,-0.003 -0.0034,-5.6e-4 -0.0067,-10e-4 -0.0098,-10e-4 -0.0031,-3e-5 -0.0059,5.4e-4 -0.0088,10e-4 -0.0028,4.9e-4 -0.0057,0.001 -0.0083,0.002 -0.0025,0.001 -0.0045,0.002 -0.0067,0.004 -0.0022,0.002 -0.0043,0.004 -0.0062,0.006 -0.0019,0.002 -0.0036,0.004 -0.0052,0.007 -0.0016,0.003 -0.0029,0.006 -0.0041,0.009 -0.0012,0.003 -0.0022,0.006 -0.0031,0.01 -8.7e-4,0.004 -0.0015,0.008 -0.0021,0.0119 -5.19e-4,0.004 -8.72e-4,0.009 -10e-4,0.0134 -1.61e-4,0.005 -2.04e-4,0.009 0,0.0145 2.04e-4,0.005 4.58e-4,0.0108 10e-4,0.0165 5.75e-4,0.006 0.0011,0.0118 0.0021,0.0181 9.53e-4,0.006 0.0023,0.0129 0.0036,0.0196 0.0013,0.007 0.0029,0.0139 0.0047,0.0212 0.0017,0.007 0.0036,0.0144 0.0057,0.0222 0.0021,0.008 0.0047,0.0159 0.0072,0.0243 0.0025,0.008 0.0053,0.017 0.0083,0.0258 0.0029,0.009 0.0059,0.018 0.0093,0.0274 0.0051,0.0141 0.01018,0.0284 0.0155,0.0424 0.0053,0.014 0.01095,0.028 0.01654,0.0419 0.0056,0.0139 0.01121,0.0276 0.01705,0.0413 0.0058,0.0138 0.01148,0.0277 0.01757,0.0413 0.0061,0.0136 0.01278,0.0268 0.01912,0.0403 0.0063,0.0135 0.01253,0.027 0.01912,0.0403 0.0066,0.0133 0.01332,0.0266 0.02015,0.0398 0.0068,0.0132 0.01411,0.0262 0.02119,0.0393 0.0071,0.013 0.01387,0.0264 0.02119,0.0393 0.0073,0.0129 0.01467,0.0255 0.02222,0.0382 0.0076,0.0127 0.01547,0.0252 0.02326,0.0377 0.0078,0.0126 0.01575,0.0253 0.02377,0.0377 0.008,0.0124 0.01604,0.0249 0.02429,0.0372 0.0082,0.0122 0.01685,0.0241 0.02532,0.0362 0.0085,0.0121 0.01663,0.0242 0.02532,0.0362 0.0087,0.0119 0.01796,0.0239 0.02687,0.0357 0.0089,0.0118 0.01775,0.0231 0.02687,0.0346 0.0091,0.0116 0.01805,0.0232 0.02739,0.0346 0.0093,0.0114 0.01888,0.0229 0.02842,0.0341 0.0095,0.0112 0.01919,0.022 0.02894,0.0331 0.0098,0.011 0.0195,0.0222 0.02946,0.0331 0.01,0.0108 0.02033,0.0214 0.03049,0.032 0.01016,0.0106 0.02014,0.0216 0.03049,0.032 0.01035,0.0105 0.02098,0.0207 0.03152,0.031 0.01055,0.0103 0.0213,0.0204 0.03204,0.0305 0.01074,0.0101 0.02163,0.0201 0.03256,0.03 0.01093,0.01 0.02196,0.0193 0.03307,0.0289 0.01111,0.01 0.0223,0.0195 0.03359,0.0289 0.01129,0.009 0.02263,0.0187 0.03411,0.0279 0.01147,0.009 0.02297,0.0183 0.03462,0.0274 0.01165,0.009 0.02332,0.0181 0.03514,0.0269 0.01182,0.009 0.02366,0.0172 0.03566,0.0258 0.01199,0.009 0.02401,0.0175 0.03617,0.0258 0.01216,0.008 0.02436,0.0167 0.03669,0.0248 0.01233,0.008 0.02472,0.0159 0.03721,0.0238 0.01249,0.008 0.02508,0.0161 0.03772,0.0238 0.01265,0.008 0.02544,0.0153 0.03824,0.0227 0.0128,0.007 0.0258,0.0145 0.03876,0.0217 0.01296,0.007 0.02617,0.0142 0.03927,0.0212 0.0131,0.007 0.02602,0.0139 0.03927,0.0207 0.01325,0.007 0.02691,0.0131 0.04031,0.0196 0.01339,0.006 0.02677,0.0129 0.04031,0.0191 0.01354,0.006 0.02715,0.0126 0.04082,0.0186 0.01367,0.006 0.02702,0.0118 0.04082,0.0176 0.01381,0.006 0.02792,0.0111 0.04186,0.0165 0.01394,0.005 0.02779,0.0108 0.04186,0.016 0.01407,0.005 0.02818,0.0105 0.04237,0.0155 0.0142,0.005 0.02857,0.01 0.04289,0.0145 0.01432,0.005 0.02897,0.009 0.04341,0.0134 0.01444,0.004 0.02885,0.009 0.04341,0.0129 0.01456,0.004 0.02926,0.008 0.04393,0.0119 0.01467,0.004 0.02914,0.008 0.04392,0.0114 0.01478,0.004 0.02955,0.007 0.04444,0.0103 0.01489,0.003 0.02996,0.006 0.04496,0.009 0.015,0.003 0.02986,0.006 0.04496,0.009 0.0151,0.003 0.03028,0.005 0.04547,0.008 0.0152,0.002 0.0307,0.005 0.04599,0.007 0.01529,0.002 0.03061,0.004 0.04599,0.006 0.01539,0.002 0.03052,0.003 0.04599,0.005 0.01548,0.002 0.03095,0.003 0.04651,0.005 0.01556,0.001 0.03138,0.002 0.04703,0.003 0.01565,9.4e-4 0.0313,0.001 0.04703,0.002 0.01573,6.3e-4 0.03173,0.001 0.04754,0.002 0.01069,1.5e-4 0.02132,5.2e-4 0.03204,5.2e-4 0.01588,0 0.03174,-2e-4 0.04754,-5.2e-4 0.995875,-0.0198 1.839137,-0.66139 2.158008,-1.55236 0.0895,-0.25008 0.02972,-0.31429 -0.116789,-0.19275 -0.0054,0.007 -0.0111,0.0127 -0.01654,0.0191 -0.0093,0.011 -0.01842,0.0222 -0.02791,0.0331 -0.0095,0.0109 -0.01928,0.0218 -0.02894,0.0326 -0.0097,0.0107 -0.01963,0.0215 -0.02946,0.032 -0.0098,0.0106 -0.01946,0.0211 -0.02945,0.0315 -0.01,0.0104 -0.02033,0.0207 -0.03049,0.031 -0.01016,0.0102 -0.02017,0.0204 -0.03049,0.0305 -0.01032,0.0101 -0.02053,0.02 -0.031,0.03 -0.01048,0.01 -0.0214,0.0197 -0.03204,0.0294 -0.01064,0.01 -0.02125,0.0194 -0.03204,0.0289 -0.01079,0.01 -0.02161,0.019 -0.03256,0.0284 -0.01095,0.009 -0.02197,0.0187 -0.03307,0.0279 -0.0111,0.009 -0.02234,0.0183 -0.03359,0.0274 -0.01125,0.009 -0.02271,0.018 -0.03411,0.0269 -0.0114,0.009 -0.02256,0.0182 -0.03411,0.0269 -0.01154,0.009 -0.02345,0.0173 -0.03514,0.0258 -0.01169,0.009 -0.02331,0.0165 -0.03514,0.0248 -0.01183,0.008 -0.02369,0.0167 -0.03566,0.0248 -0.01197,0.008 -0.02407,0.0163 -0.03617,0.0243 -0.01211,0.008 -0.02393,0.016 -0.03617,0.0238 -0.01224,0.008 -0.02483,0.0152 -0.03721,0.0227 -0.01237,0.008 -0.0247,0.0154 -0.03721,0.0227 -0.0125,0.007 -0.02509,0.0145 -0.03772,0.0217 -0.01263,0.007 -0.02548,0.0142 -0.03824,0.0212 -0.01276,0.007 -0.02536,0.0139 -0.03824,0.0207 -0.01288,0.007 -0.02575,0.0136 -0.03876,0.0202 -0.01301,0.007 -0.02615,0.0127 -0.03927,0.0191 -0.01313,0.006 -0.02655,0.013 -0.03979,0.0191 -0.01324,0.006 -0.02643,0.0121 -0.03979,0.0181 -0.01336,0.006 -0.02683,0.0118 -0.04031,0.0176 -0.01347,0.006 -0.02672,0.0115 -0.04031,0.017 -0.01359,0.006 -0.02765,0.0107 -0.04134,0.016 -0.0137,0.005 -0.02702,0.0104 -0.04082,0.0155 -0.0138,0.005 -0.02795,0.0101 -0.04186,0.015 -0.01391,0.005 -0.02785,0.01 -0.04186,0.0145 -0.01401,0.005 -0.02826,0.009 -0.04237,0.0134 -0.01411,0.004 -0.02816,0.009 -0.04237,0.0129 -0.01421,0.004 -0.02858,0.008 -0.04289,0.0124 -0.01431,0.004 -0.02849,0.008 -0.04289,0.0114 -0.0144,0.004 -0.02891,0.007 -0.04341,0.0109 -0.0145,0.003 -0.02882,0.007 -0.04341,0.0103 -0.01459,0.003 -0.02925,0.006 -0.04392,0.009 -0.01467,0.003 -0.02968,0.006 -0.04444,0.009 -0.01476,0.003 -0.02908,0.005 -0.04392,0.008 -0.01484,0.003 -0.03003,0.005 -0.04496,0.007 -0.01493,0.002 -0.02995,0.005 -0.04496,0.007 -0.01501,0.002 -0.02987,0.004 -0.04496,0.006 -0.01508,0.002 -0.03031,0.004 -0.04547,0.005 -0.01516,0.002 -0.03024,0.003 -0.04548,0.004 -0.01523,0.001 -0.03069,0.003 -0.04599,0.004 -0.0153,10e-4 -0.03062,0.002 -0.04599,0.003 -0.01537,7.8e-4 -0.03055,0.002 -0.04599,0.002 -0.01149,3.9e-4 -0.02309,2.7e-4 -0.03462,5.1e-4 -0.004,9e-5 -0.0079,4.5e-4 -0.01188,5.2e-4 -0.01551,2.6e-4 -0.03094,5.2e-4 -0.04651,5.2e-4 -0.0052,3e-5 -0.01033,0 -0.0155,0 -0.01955,0 -0.03894,-6.2e-4 -0.05839,-10e-4 -0.810555,-0.0173 -1.533031,-0.39291 -2.014865,-0.97513 z" />
      <path
         sodipodi:type="star"
         style="fill:#f2c85e;fill-opacity:1;stroke-width:1.5875;stroke-linecap:round;stroke-linejoin:round;paint-order:fill markers stroke"
         id="path3488"
         inkscape:flatsided="true"
         sodipodi:sides="5"
         sodipodi:cx="-73.394402"
         sodipodi:cy="14.895679"
         sodipodi:r1="8.4091749"
         sodipodi:r2="5.9461846"
         sodipodi:arg1="1.5707963"
         sodipodi:arg2="2.1991148"
         inkscape:rounded="0.21"
         inkscape:randomized="0"
         d="m -73.394401,23.304854 c -2.075972,0 -7.356091,-3.83623 -7.997601,-5.810596 -0.641511,-1.974366 1.375315,-8.1815184 3.054811,-9.4017438 1.679496,-1.2202254 8.206082,-1.2202256 9.885578,-3e-7 1.679496,1.2202253 3.696323,7.4273771 3.054812,9.4017431 -0.64151,1.974366 -5.921629,5.810597 -7.9976,5.810597 z"
         transform="matrix(0.11541418,0,0,0.11541418,-6.3195527,269.47432)" />
    </g>
  </g>
</svg>
