<?xml version="1.0" encoding="UTF-8" standalone="no"?>
<!-- Created with Inkscape (http://www.inkscape.org/) -->

<svg
   width="128"
   height="128"
   viewBox="0 0 33.866665 33.866667"
   version="1.1"
   id="svg1307"
   inkscape:version="1.1.1 (3bf5ae0d25, 2021-09-20)"
   sodipodi:docname="spider-mouse.svg"
   inkscape:export-filename="/home/henrique/Documents/projects/001 - Moon Cheeser/repo/source/actors/astromouse/sprites/cutout_body.png"
   inkscape:export-xdpi="96.000008"
   inkscape:export-ydpi="96.000008"
   xmlns:inkscape="http://www.inkscape.org/namespaces/inkscape"
   xmlns:sodipodi="http://sodipodi.sourceforge.net/DTD/sodipodi-0.dtd"
   xmlns="http://www.w3.org/2000/svg"
   xmlns:svg="http://www.w3.org/2000/svg"
   xmlns:rdf="http://www.w3.org/1999/02/22-rdf-syntax-ns#"
   xmlns:cc="http://creativecommons.org/ns#"
   xmlns:dc="http://purl.org/dc/elements/1.1/">
  <defs
     id="defs1301">
    <inkscape:path-effect
       effect="powerstroke"
       id="path-effect126865"
       is_visible="true"
       lpeversion="1"
       offset_points="0.36607912,0.65819441 | 0.7369579,1.5394423 | 0.91447105,0.73804339"
       not_jump="false"
       sort_points="true"
       interpolator_type="CentripetalCatmullRom"
       interpolator_beta="0.2"
       start_linecap_type="zerowidth"
       linejoin_type="round"
       miter_limit="4"
       scale_width="1"
       end_linecap_type="zerowidth" />
    <inkscape:path-effect
       effect="skeletal"
       id="path-effect114945"
       is_visible="true"
       lpeversion="1"
       pattern="M 0,4.9921381 C 0,2.2364779 2.2364779,0 4.9921381,0 c 2.7556603,0 4.9921381,2.2364779 4.9921381,4.9921381 0,2.7556603 -2.2364778,4.9921381 -4.9921381,4.9921381 C 2.2364779,9.9842762 0,7.7477984 0,4.9921381 Z"
       copytype="single_stretched"
       prop_scale="1"
       scale_y_rel="false"
       spacing="0"
       normal_offset="0"
       tang_offset="0"
       prop_units="false"
       vertical_pattern="false"
       hide_knot="false"
       fuse_tolerance="0" />
    <inkscape:path-effect
       effect="skeletal"
       id="path-effect95947"
       is_visible="true"
       lpeversion="1"
       pattern="M 0,4.9921381 C 0,2.2364779 2.2364779,0 4.9921381,0 c 2.7556603,0 4.9921381,2.2364779 4.9921381,4.9921381 0,2.7556603 -2.2364778,4.9921381 -4.9921381,4.9921381 C 2.2364779,9.9842762 0,7.7477984 0,4.9921381 Z"
       copytype="single_stretched"
       prop_scale="1"
       scale_y_rel="false"
       spacing="0"
       normal_offset="0"
       tang_offset="0"
       prop_units="false"
       vertical_pattern="false"
       hide_knot="false"
       fuse_tolerance="0" />
    <inkscape:path-effect
       effect="skeletal"
       id="path-effect91934"
       is_visible="true"
       lpeversion="1"
       pattern="M 0,4.9921381 C 0,2.2364779 2.2364779,0 4.9921381,0 c 2.7556603,0 4.9921381,2.2364779 4.9921381,4.9921381 0,2.7556603 -2.2364778,4.9921381 -4.9921381,4.9921381 C 2.2364779,9.9842762 0,7.7477984 0,4.9921381 Z"
       copytype="single_stretched"
       prop_scale="1"
       scale_y_rel="false"
       spacing="0"
       normal_offset="0"
       tang_offset="0"
       prop_units="false"
       vertical_pattern="false"
       hide_knot="false"
       fuse_tolerance="0" />
    <inkscape:path-effect
       effect="skeletal"
       id="path-effect91930"
       is_visible="true"
       lpeversion="1"
       pattern="M 0,4.9921381 C 0,2.2364779 2.2364779,0 4.9921381,0 c 2.7556603,0 4.9921381,2.2364779 4.9921381,4.9921381 0,2.7556603 -2.2364778,4.9921381 -4.9921381,4.9921381 C 2.2364779,9.9842762 0,7.7477984 0,4.9921381 Z"
       copytype="single_stretched"
       prop_scale="1"
       scale_y_rel="false"
       spacing="0"
       normal_offset="0"
       tang_offset="0"
       prop_units="false"
       vertical_pattern="false"
       hide_knot="false"
       fuse_tolerance="0" />
    <inkscape:path-effect
       effect="skeletal"
       id="path-effect91926"
       is_visible="true"
       lpeversion="1"
       pattern="M 0,4.9921381 C 0,2.2364779 2.2364779,0 4.9921381,0 c 2.7556603,0 4.9921381,2.2364779 4.9921381,4.9921381 0,2.7556603 -2.2364778,4.9921381 -4.9921381,4.9921381 C 2.2364779,9.9842762 0,7.7477984 0,4.9921381 Z"
       copytype="single_stretched"
       prop_scale="1"
       scale_y_rel="false"
       spacing="0"
       normal_offset="0"
       tang_offset="0"
       prop_units="false"
       vertical_pattern="false"
       hide_knot="false"
       fuse_tolerance="0" />
    <inkscape:path-effect
       effect="powerstroke"
       id="path-effect48607"
       is_visible="true"
       lpeversion="1"
       offset_points="0,0.14019774"
       not_jump="false"
       sort_points="true"
       interpolator_type="CubicBezierJohan"
       interpolator_beta="0.2"
       start_linecap_type="zerowidth"
       linejoin_type="extrp_arc"
       miter_limit="4"
       scale_width="1"
       end_linecap_type="zerowidth" />
    <inkscape:path-effect
       effect="powerstroke"
       id="path-effect48611"
       is_visible="true"
       lpeversion="1"
       offset_points="0,0.14019774"
       not_jump="false"
       sort_points="true"
       interpolator_type="CubicBezierJohan"
       interpolator_beta="0.2"
       start_linecap_type="zerowidth"
       linejoin_type="extrp_arc"
       miter_limit="4"
       scale_width="1"
       end_linecap_type="zerowidth" />
    <inkscape:path-effect
       effect="powerstroke"
       id="path-effect48615"
       is_visible="true"
       lpeversion="1"
       offset_points="0,0.14019774"
       not_jump="false"
       sort_points="true"
       interpolator_type="CubicBezierJohan"
       interpolator_beta="0.2"
       start_linecap_type="zerowidth"
       linejoin_type="extrp_arc"
       miter_limit="4"
       scale_width="1"
       end_linecap_type="zerowidth" />
    <inkscape:path-effect
       effect="powerstroke"
       id="path-effect48619"
       is_visible="true"
       lpeversion="1"
       offset_points="0,0.14019774"
       not_jump="false"
       sort_points="true"
       interpolator_type="CubicBezierJohan"
       interpolator_beta="0.2"
       start_linecap_type="zerowidth"
       linejoin_type="extrp_arc"
       miter_limit="4"
       scale_width="1"
       end_linecap_type="zerowidth" />
    <inkscape:path-effect
       effect="powerstroke"
       id="path-effect48623"
       is_visible="true"
       lpeversion="1"
       offset_points="0,0.14019774"
       not_jump="false"
       sort_points="true"
       interpolator_type="CubicBezierJohan"
       interpolator_beta="0.2"
       start_linecap_type="zerowidth"
       linejoin_type="extrp_arc"
       miter_limit="4"
       scale_width="1"
       end_linecap_type="zerowidth" />
    <inkscape:path-effect
       effect="powerstroke"
       id="path-effect48627"
       is_visible="true"
       lpeversion="1"
       offset_points="0,0.14019774"
       not_jump="false"
       sort_points="true"
       interpolator_type="CubicBezierJohan"
       interpolator_beta="0.2"
       start_linecap_type="zerowidth"
       linejoin_type="extrp_arc"
       miter_limit="4"
       scale_width="1"
       end_linecap_type="zerowidth" />
    <inkscape:path-effect
       effect="powerstroke"
       id="path-effect48631"
       is_visible="true"
       lpeversion="1"
       offset_points="0,0.15907901"
       not_jump="false"
       sort_points="true"
       interpolator_type="CubicBezierJohan"
       interpolator_beta="0.2"
       start_linecap_type="zerowidth"
       linejoin_type="extrp_arc"
       miter_limit="4"
       scale_width="1"
       end_linecap_type="zerowidth" />
    <inkscape:path-effect
       effect="powerstroke"
       id="path-effect48635"
       is_visible="true"
       lpeversion="1"
       offset_points="0,0.15907901"
       not_jump="false"
       sort_points="true"
       interpolator_type="CubicBezierJohan"
       interpolator_beta="0.2"
       start_linecap_type="zerowidth"
       linejoin_type="extrp_arc"
       miter_limit="4"
       scale_width="1"
       end_linecap_type="zerowidth" />
  </defs>
  <sodipodi:namedview
     id="base"
     pagecolor="#282828"
     bordercolor="#666666"
     borderopacity="1.0"
     inkscape:pageopacity="0"
     inkscape:pageshadow="2"
     inkscape:zoom="3.959798"
     inkscape:cx="40.532371"
     inkscape:cy="61.240498"
     inkscape:document-units="mm"
     inkscape:current-layer="layer1"
     showgrid="true"
     inkscape:window-width="1920"
     inkscape:window-height="1022"
     inkscape:window-x="0"
     inkscape:window-y="30"
     inkscape:window-maximized="1"
     units="px"
     inkscape:snap-bbox="true"
     inkscape:bbox-nodes="true"
     inkscape:snap-page="true"
     inkscape:snap-nodes="true"
     inkscape:bbox-paths="false"
     inkscape:snap-global="false"
     inkscape:snap-bbox-midpoints="false"
     inkscape:snap-others="false"
     showguides="true"
     inkscape:guide-bbox="true"
     inkscape:snap-grids="false"
     inkscape:snap-to-guides="true"
     inkscape:pagecheckerboard="0"
     inkscape:object-paths="true"
     inkscape:snap-intersection-paths="true"
     inkscape:snap-smooth-nodes="true"
     inkscape:snap-midpoints="true">
    <inkscape:grid
       type="xygrid"
       id="grid883"
       empspacing="4" />
    <sodipodi:guide
       position="33.866665,50.800001"
       orientation="1,0"
       id="guide877"
       inkscape:locked="false" />
  </sodipodi:namedview>
  <metadata
     id="metadata1304">
    <rdf:RDF>
      <cc:Work
         rdf:about="">
        <dc:format>image/svg+xml</dc:format>
        <dc:type
           rdf:resource="http://purl.org/dc/dcmitype/StillImage" />
      </cc:Work>
    </rdf:RDF>
  </metadata>
  <g
     inkscape:label="Layer 1"
     inkscape:groupmode="layer"
     id="layer1"
     transform="translate(0,-263.13332)">
    <g
       id="g48684"
       transform="matrix(1.6712918,0,0,1.6712918,39.916284,-199.63899)">
      <g
         id="g48533">
        <rect
           ry="0.98629898"
           y="292.09378"
           x="-11.326082"
           height="4.9062042"
           width="1.9725975"
           id="rect48529"
           style="fill:#3e4980;fill-opacity:1;stroke:none;stroke-width:0.400568;stroke-linecap:square;stroke-linejoin:bevel;stroke-miterlimit:4;stroke-dasharray:none;stroke-dashoffset:0;stroke-opacity:0.978723;paint-order:normal" />
        <path
           id="path48531"
           style="opacity:1;fill:#be4046;fill-opacity:1;stroke-width:2.64583;stroke-linecap:round;stroke-linejoin:round;paint-order:fill markers stroke"
           d="m -10.49042,295.25487 c -0.339569,0 -0.640914,0.15751 -0.835608,0.4036 v 0.35501 c 0,0.54641 0.440093,0.98651 0.986503,0.98651 0.5464096,0 0.9859862,-0.4401 0.9859862,-0.98651 v -0.26561 c -0.1885363,-0.29693 -0.5204621,-0.493 -0.8996862,-0.493 z" />
      </g>
      <circle
         style="fill:#be4046;fill-opacity:1;stroke:none;stroke-width:0.400569;stroke-linecap:square;stroke-linejoin:bevel;stroke-miterlimit:4;stroke-dasharray:none;stroke-dashoffset:0;stroke-opacity:0.978723;paint-order:normal"
         id="circle48535"
         cx="-9.4460058"
         cy="281.32037"
         r="3.540561" />
      <circle
         r="2.3315887"
         cy="281.32037"
         cx="-9.4460058"
         id="circle48537"
         style="fill:#be4046;fill-opacity:1;stroke:none;stroke-width:0.400569;stroke-linecap:square;stroke-linejoin:bevel;stroke-miterlimit:4;stroke-dasharray:none;stroke-dashoffset:0;stroke-opacity:0.978723;paint-order:normal" />
      <rect
         style="fill:#4b5bab;fill-opacity:1;stroke:none;stroke-width:0.400568;stroke-linecap:square;stroke-linejoin:bevel;stroke-miterlimit:4;stroke-dasharray:none;stroke-dashoffset:0;stroke-opacity:0.978723;paint-order:normal"
         id="rect48539"
         width="1.9725975"
         height="4.9062042"
         x="-14.360853"
         y="292.09378"
         ry="0.98629898" />
      <path
         style="fill:none;stroke:#c2c2d1;stroke-width:0.400568;stroke-linecap:round;stroke-linejoin:miter;stroke-miterlimit:4;stroke-dasharray:none;stroke-opacity:1"
         d="m -13.014149,292.05268 c 0,0 -3.74996,0.0568 -5.154766,-3.91215 -1.404806,-3.96898 -2.455729,-4.75466 -3.261383,-4.52686"
         id="path48541"
         inkscape:connector-curvature="0"
         inkscape:transform-center-x="31.376121"
         inkscape:transform-center-y="-50.530738" />
      <g
         id="g48547">
        <rect
           transform="matrix(-0.86602542,0.49999997,0.49999997,0.86602542,0,0)"
           style="fill:#3e4980;fill-opacity:1;stroke:none;stroke-width:0.400568;stroke-linecap:square;stroke-linejoin:bevel;stroke-miterlimit:4;stroke-dasharray:none;stroke-dashoffset:0;stroke-opacity:0.978723;paint-order:normal"
           id="rect48543"
           width="1.9725975"
           height="4.9062042"
           x="152.17673"
           y="244.73453"
           ry="0.98629898" />
        <path
           id="path48545"
           style="opacity:1;fill:#be4046;fill-opacity:1;stroke-width:2.69755;stroke-linecap:round;stroke-linejoin:round;paint-order:fill markers stroke"
           d="m -9.7610431,288.36838 c 0.339346,0.007 0.665985,0.18708 0.84878,0.50369 l 0.687032,1.18966 c -0.111409,0.35597 -0.345791,0.6681 -0.687032,0.86511 -0.323457,0.18675 -0.688147,0.23833 -1.03529,0.17387 l -0.7065259,-1.22286 c -0.278545,-0.48245 -0.114175,-1.09552 0.368279,-1.37406 0.165843,-0.0957 0.3470049,-0.13923 0.5247569,-0.13541 z" />
      </g>
      <rect
         style="fill:#d84a50;fill-opacity:1;stroke:none;stroke-width:0.400568;stroke-linecap:square;stroke-linejoin:bevel;stroke-miterlimit:4;stroke-dasharray:none;stroke-dashoffset:0;stroke-opacity:0.978723;paint-order:normal"
         id="rect48549"
         width="6.4272337"
         height="7.8398128"
         x="-15.323679"
         y="286.6312"
         ry="2.9311028" />
      <circle
         r="3.540561"
         cy="281.32037"
         cx="-15.431651"
         id="circle48551"
         style="fill:#d84a50;fill-opacity:1;stroke:none;stroke-width:0.400569;stroke-linecap:square;stroke-linejoin:bevel;stroke-miterlimit:4;stroke-dasharray:none;stroke-dashoffset:0;stroke-opacity:0.978723;paint-order:normal" />
      <circle
         style="fill:#d84a50;fill-opacity:1;stroke:none;stroke-width:0.400569;stroke-linecap:square;stroke-linejoin:bevel;stroke-miterlimit:4;stroke-dasharray:none;stroke-dashoffset:0;stroke-opacity:0.978723;paint-order:normal"
         id="circle48553"
         cx="-15.431651"
         cy="281.32037"
         r="2.3315887" />
      <rect
         ry="0.98629898"
         y="256.81931"
         x="131.24529"
         height="4.9062042"
         width="1.9725975"
         id="rect48555"
         style="fill:#4b5bab;fill-opacity:1;stroke:none;stroke-width:0.400568;stroke-linecap:square;stroke-linejoin:bevel;stroke-miterlimit:4;stroke-dasharray:none;stroke-dashoffset:0;stroke-opacity:0.978723;paint-order:normal"
         transform="rotate(29.999998)" />
      <rect
         style="fill:#d84a50;fill-opacity:1;stroke:none;stroke-width:0.400568;stroke-linecap:square;stroke-linejoin:bevel;stroke-miterlimit:4;stroke-dasharray:none;stroke-dashoffset:0;stroke-opacity:0.978723;paint-order:normal"
         id="rect48557"
         width="8.9019804"
         height="8.9019804"
         x="-16.384027"
         y="280.00531"
         ry="3.6417198" />
      <circle
         style="fill:#3e2347;fill-opacity:1;stroke:none;stroke-width:0.400568;stroke-linecap:square;stroke-linejoin:bevel;stroke-miterlimit:4;stroke-dasharray:none;stroke-dashoffset:0;stroke-opacity:0.978723;paint-order:normal"
         id="circle48559"
         cx="-13.136276"
         cy="285.22781"
         r="0.64377093" />
      <circle
         r="0.64377093"
         cy="285.22781"
         cx="-8.7013988"
         id="circle48561"
         style="fill:#3e2347;fill-opacity:1;stroke:none;stroke-width:0.400568;stroke-linecap:square;stroke-linejoin:bevel;stroke-miterlimit:4;stroke-dasharray:none;stroke-dashoffset:0;stroke-opacity:0.978723;paint-order:normal" />
      <path
         sodipodi:type="star"
         style="opacity:1;fill:#3e2347;fill-opacity:1;stroke:none;stroke-width:2.36253;stroke-linecap:square;stroke-linejoin:bevel;stroke-miterlimit:4;stroke-dasharray:none;stroke-dashoffset:0;stroke-opacity:0.978723;paint-order:normal"
         id="path48563"
         sodipodi:sides="3"
         sodipodi:cx="-45.408615"
         sodipodi:cy="234.57965"
         sodipodi:r1="2.997191"
         sodipodi:r2="1.4985955"
         sodipodi:arg1="1.5707963"
         sodipodi:arg2="2.6179939"
         inkscape:flatsided="true"
         inkscape:rounded="0.18"
         inkscape:randomized="0"
         inkscape:transform-center-x="-6.3665075e-06"
         inkscape:transform-center-y="1.0312406"
         transform="matrix(0.16955045,0,0,0.16955045,-2.6475436,246.8138)"
         d="m -45.408615,237.57684 c -0.934432,0 -3.062859,-3.68654 -2.595644,-4.49578 0.467216,-0.80925 4.724071,-0.80925 5.191287,0 0.467216,0.80924 -1.661211,4.49578 -2.595643,4.49578 z" />
      <path
         style="color:#000000;fill:#000000;fill-opacity:0;stroke-width:0.12249;stroke-linecap:round;stroke-linejoin:round;-inkscape-stroke:none;paint-order:fill markers stroke"
         d="m -17.239403,284.57864 h 0.0025 v 1.48941 h -0.0025 z"
         id="path48565" />
      <path
         style="color:#000000;fill:#000000;fill-opacity:0;stroke-width:0.281781;stroke-linecap:round;stroke-linejoin:round;-inkscape-stroke:none;paint-order:fill markers stroke"
         d="m -16.766402,284.44203 a 0.44506553,0.44506553 0 0 1 -0.441395,0.18784 0.44506553,0.44506553 0 0 1 -0.355555,-0.32202 0.44506553,0.44506553 0 0 1 0.143335,-0.45779"
         id="path48567" />
      <path
         style="color:#000000;fill:#000000;fill-opacity:0;stroke-width:0.12249;stroke-linecap:round;stroke-linejoin:round;-inkscape-stroke:none;paint-order:fill markers stroke"
         d="m -6.6816974,284.1452 h -0.00247 v 1.48941 h 0.00247 z"
         id="path48569" />
      <path
         style="color:#000000;fill:#000000;fill-opacity:0;stroke-width:0.281781;stroke-linecap:round;stroke-linejoin:round;-inkscape-stroke:none;paint-order:fill markers stroke"
         d="m -7.1546983,284.00858 a 0.44506553,0.44506553 0 0 0 0.4413952,0.18785 0.44506553,0.44506553 0 0 0 0.355555,-0.32202 0.44506553,0.44506553 0 0 0 -0.1433354,-0.45779"
         id="path48571" />
      <path
         id="path48573"
         style="opacity:1;fill:#d84a50;fill-opacity:1;stroke-width:2.69755;stroke-linecap:round;stroke-linejoin:round;paint-order:fill markers stroke"
         d="m -14.40356,288.36838 c -0.339346,0.007 -0.665985,0.18708 -0.84878,0.50369 l -0.687032,1.18966 c 0.111409,0.35597 0.345791,0.6681 0.687032,0.86511 0.323457,0.18675 0.688147,0.23833 1.03529,0.17387 l 0.706526,-1.22286 c 0.278545,-0.48245 0.114175,-1.09552 -0.368279,-1.37406 -0.165843,-0.0957 -0.347005,-0.13923 -0.524757,-0.13541 z" />
      <path
         id="path48575"
         style="opacity:1;fill:#d84a50;fill-opacity:1;stroke-width:9.99999;stroke-linecap:round;stroke-linejoin:round;paint-order:fill markers stroke"
         d="m -51.119141,121.4043 c -1.28341,0 -2.422351,0.59529 -3.158203,1.52539 v 1.34179 c 0,2.06517 1.663346,3.72852 3.728516,3.72852 2.06517,0 3.726562,-1.66335 3.726562,-3.72852 v -1.0039 c -0.712578,-1.12223 -1.967101,-1.86328 -3.40039,-1.86328 z"
         transform="matrix(0.26458333,0,0,0.26458333,0,263.13332)" />
      <g
         id="g48603"
         transform="matrix(0.5104056,0,0,0.5104056,31.75985,158.78017)">
        <circle
           style="opacity:1;fill:#272736;fill-opacity:1;stroke-width:1.48366;stroke-linecap:round;stroke-linejoin:round;paint-order:fill markers stroke"
           id="circle48577"
           cx="-84.842476"
           cy="258.29993"
           r="0.54091811" />
        <rect
           style="opacity:1;fill:#272736;fill-opacity:1;stroke-width:2.64583;stroke-linecap:round;stroke-linejoin:round;paint-order:fill markers stroke"
           id="rect48579"
           width="1.7815479"
           height="2.83359"
           x="-85.750687"
           y="258.54791"
           ry="0.89077395" />
        <rect
           style="opacity:1;fill:#272736;fill-opacity:1;stroke-width:1.68259;stroke-linecap:round;stroke-linejoin:round;paint-order:fill markers stroke"
           id="rect48581"
           width="1.3755339"
           height="1.6226339"
           x="-85.530243"
           y="256.7222"
           ry="0.68776697" />
        <path
           style="fill:#272736;fill-opacity:1;fill-rule:nonzero;stroke:none;stroke-width:0.264583px;stroke-linecap:butt;stroke-linejoin:miter;stroke-opacity:1"
           d="m -85.229328,258.19887 c 0,0 0.08049,-0.11479 0.08049,-0.11479 -0.327235,-0.22947 -0.990507,-0.65439 -1.66415,-1.08534 0.529006,-0.63547 1.050183,-1.2607 1.327396,-1.56723 -0.286404,0.31669 -0.885209,0.92655 -1.484013,1.53642 l -0.05345,0.0544 0.06519,0.05 c 0.655188,0.50227 1.310377,1.00453 1.648033,1.24132 0,0 0.08049,-0.11479 0.08049,-0.11479 z"
           id="path48583"
           inkscape:path-effect="#path-effect48607"
           inkscape:original-d="m -85.229328,258.19887 -1.688281,-1.18392 1.432022,-1.58344"
           sodipodi:nodetypes="ccc"
           inkscape:transform-center-x="0.67234393"
           inkscape:transform-center-y="-1.1797026" />
        <path
           style="fill:#272736;fill-opacity:1;fill-rule:nonzero;stroke:none;stroke-width:0.264583px;stroke-linecap:butt;stroke-linejoin:miter;stroke-opacity:1"
           d="m -84.457827,258.19887 c 0,0 0.08049,0.11479 0.08049,0.11479 0.337656,-0.23679 0.992845,-0.73905 1.648033,-1.24132 0.105182,-0.007 0.06162,-0.0403 0.166799,-0.0469 -0.05169,-0.0192 -0.10337,-0.0383 -0.155055,-0.0575 -0.598804,-0.60987 -1.197609,-1.21973 -1.484013,-1.53642 0.277213,0.30653 0.79839,0.93176 1.327396,1.56723 -0.673643,0.43095 -1.336915,0.85587 -1.66415,1.08534 0,0 0.08049,0.11479 0.08049,0.11479 z"
           id="path48585"
           inkscape:path-effect="#path-effect48611"
           inkscape:original-d="m -84.457827,258.19887 1.688281,-1.18392 -1.432022,-1.58344"
           sodipodi:nodetypes="ccc"
           inkscape:transform-center-x="-0.74644585"
           inkscape:transform-center-y="-1.1797026" />
        <rect
           style="opacity:1;fill:#272736;fill-opacity:1;stroke-width:2.05626;stroke-linecap:round;stroke-linejoin:round;paint-order:fill markers stroke"
           id="rect48587"
           width="1.6810149"
           height="1.9829912"
           x="-85.682983"
           y="-261.57211"
           ry="0.84050745"
           transform="scale(1,-1)" />
        <g
           id="g48597"
           transform="matrix(1.2220817,0,0,-1.2220817,18.803003,575.3076)">
          <path
             style="fill:#272736;fill-opacity:1;fill-rule:nonzero;stroke:none;stroke-width:0.264583px;stroke-linecap:butt;stroke-linejoin:miter;stroke-opacity:1"
             d="m -85.197449,258.19887 c 0,0 0.08049,-0.11479 0.08049,-0.11479 -0.327235,-0.22947 -0.990507,-0.65439 -1.66415,-1.08534 0.529006,-0.63547 1.050183,-1.2607 1.327396,-1.56723 -0.286404,0.31669 -0.885209,0.92655 -1.484013,1.53642 l -0.05345,0.0544 0.06519,0.05 c 0.655188,0.50227 1.310377,1.00453 1.648033,1.24132 0,0 0.08049,-0.11479 0.08049,-0.11479 z"
             id="path48589"
             inkscape:path-effect="#path-effect48615"
             inkscape:original-d="m -85.197449,258.19887 -1.688281,-1.18392 1.432022,-1.58344"
             sodipodi:nodetypes="ccc"
             inkscape:transform-center-x="0.67234393"
             inkscape:transform-center-y="-1.1797026" />
          <path
             style="fill:#272736;fill-opacity:1;fill-rule:nonzero;stroke:none;stroke-width:0.264583px;stroke-linecap:butt;stroke-linejoin:miter;stroke-opacity:1"
             d="m -85.208551,258.48696 c 0,0 -0.02425,-0.13808 -0.02425,-0.13808 -0.393655,0.0691 -1.163121,0.23766 -1.944186,0.40928 -0.07528,-0.82341 -0.148861,-1.63405 -0.169588,-2.04682 0.02141,0.42645 0.02924,1.28111 0.03706,2.13578 l 6.99e-4,0.0763 0.08144,-0.0108 c 0.818443,-0.10813 1.636886,-0.21627 2.043077,-0.2876 0,0 -0.02425,-0.13808 -0.02425,-0.13808 z"
             id="path48591"
             inkscape:path-effect="#path-effect48619"
             inkscape:original-d="m -85.208551,258.48696 -2.030953,0.35664 -0.107069,-2.13226"
             sodipodi:nodetypes="ccc"
             inkscape:transform-center-x="0.93883358"
             inkscape:transform-center-y="-0.67491466" />
          <path
             style="fill:#272736;fill-opacity:1;fill-rule:nonzero;stroke:none;stroke-width:0.264583px;stroke-linecap:butt;stroke-linejoin:miter;stroke-opacity:1"
             d="m -84.412645,258.48696 c 0,0 -0.02425,0.13808 -0.02425,0.13808 0.406191,0.0713 1.224634,0.17947 2.043077,0.2876 l 0.08144,0.0108 6.99e-4,-0.0763 c 0.0078,-0.85467 0.01564,-1.70933 0.03706,-2.13578 -0.02073,0.41277 -0.09431,1.22341 -0.169588,2.04682 -0.781065,-0.17162 -1.550531,-0.34016 -1.944186,-0.40928 0,0 -0.02425,0.13808 -0.02425,0.13808 z"
             id="path48593"
             inkscape:path-effect="#path-effect48623"
             inkscape:original-d="m -84.412645,258.48696 2.030953,0.35664 0.107069,-2.13226"
             sodipodi:nodetypes="ccc"
             inkscape:transform-center-x="-0.93883333"
             inkscape:transform-center-y="-0.67491466" />
          <path
             style="fill:#272736;fill-opacity:1;fill-rule:nonzero;stroke:none;stroke-width:0.264583px;stroke-linecap:butt;stroke-linejoin:miter;stroke-opacity:1"
             d="m -84.425948,258.19887 c 0,0 0.08049,0.11479 0.08049,0.11479 0.337656,-0.23679 0.992845,-0.73905 1.648033,-1.24132 l 0.06519,-0.05 -0.05345,-0.0544 c -0.598804,-0.60987 -1.197609,-1.21973 -1.484013,-1.53642 0.277213,0.30653 0.79839,0.93176 1.327396,1.56723 -0.673643,0.43095 -1.336915,0.85587 -1.66415,1.08534 0,0 0.08049,0.11479 0.08049,0.11479 z"
             id="path48595"
             inkscape:path-effect="#path-effect48627"
             inkscape:original-d="m -84.425948,258.19887 1.688281,-1.18392 -1.432022,-1.58344"
             sodipodi:nodetypes="ccc"
             inkscape:transform-center-x="-0.74644585"
             inkscape:transform-center-y="-1.1797026" />
        </g>
        <path
           style="fill:#272736;fill-opacity:1;fill-rule:nonzero;stroke:none;stroke-width:0.300216px;stroke-linecap:butt;stroke-linejoin:miter;stroke-opacity:1"
           d="m -85.269924,258.46306 c 0,0 0.01398,-0.15846 0.01398,-0.15846 -0.451752,-0.0399 -1.344594,-0.0811 -2.25105,-0.1224 0.159308,-0.92457 0.316725,-1.83465 0.415228,-2.29313 -0.101769,0.47368 -0.344188,1.4127 -0.586608,2.35171 l -0.02164,0.0838 0.09241,0.0121 c 0.928781,0.12185 1.857562,0.24369 2.323699,0.2848 0,0 0.01398,-0.15846 0.01398,-0.15846 z"
           id="path48599"
           inkscape:path-effect="#path-effect48631"
           inkscape:original-d="m -85.269924,258.46306 -2.330688,-0.20557 0.508843,-2.36842"
           sodipodi:nodetypes="ccc"
           inkscape:transform-center-x="1.0771042"
           inkscape:transform-center-y="-1.1789277" />
        <path
           style="fill:#272736;fill-opacity:1;fill-rule:nonzero;stroke:none;stroke-width:0.300216px;stroke-linecap:butt;stroke-linejoin:miter;stroke-opacity:1"
           d="m -84.415037,258.46306 c 0,0 0.01398,0.15846 0.01398,0.15846 0.466137,-0.0411 1.394918,-0.16295 2.323699,-0.2848 l 0.09242,-0.0121 -0.02164,-0.0838 c -0.24242,-0.93901 -0.484839,-1.87803 -0.586608,-2.35171 0.0985,0.45848 0.25592,1.36856 0.415228,2.29313 -0.906456,0.0413 -1.799298,0.0825 -2.25105,0.1224 0,0 0.01398,0.15846 0.01398,0.15846 z"
           id="path48601"
           inkscape:path-effect="#path-effect48635"
           inkscape:original-d="m -84.415037,258.46306 2.330688,-0.20557 -0.508843,-2.36842"
           sodipodi:nodetypes="ccc"
           inkscape:transform-center-x="-1.0771047"
           inkscape:transform-center-y="-1.1789277" />
      </g>
      <path
         id="path48637"
         style="opacity:1;fill:#ffffeb;stroke:#272736;stroke-width:0.315383;stroke-linecap:round;stroke-linejoin:round;paint-order:fill markers stroke"
         inkscape:transform-center-y="-0.32148695"
         d="m -11.941468,285.88283 c -0.429919,0.42992 -2.628159,-0.14728 -2.785521,-0.73456 -0.157359,-0.58728 0.635121,-1.5166 1.222401,-1.35924 0.58728,0.15736 1.993039,1.66388 1.56312,2.0938 z"
         sodipodi:nodetypes="ssss"
         inkscape:transform-center-x="0.027255323" />
      <path
         id="path48639"
         style="opacity:1;fill:#ffffeb;stroke:none;stroke-width:1.192;stroke-linecap:round;stroke-linejoin:round;paint-order:fill markers stroke"
         inkscape:transform-center-x="-0.027255425"
         inkscape:transform-center-y="-0.32148695"
         d="m -29.548828,78.001953 c -0.180795,-0.0011 -0.357841,0.01994 -0.53125,0.06641 -2.219641,0.594747 -7.533094,6.289168 -5.908203,7.914063 1.04539,1.045392 4.857312,0.516244 7.601562,-0.585938 0.0719,-0.572204 0.107422,-1.153769 0.107422,-1.746093 v -5.3125 c -0.419789,-0.210367 -0.852411,-0.333408 -1.269531,-0.335938 z"
         transform="matrix(0.26458333,0,0,0.26458333,0,263.13332)" />
      <path
         id="path48641"
         style="color:#000000;fill:#272736;stroke-width:3.77953;stroke-linecap:round;stroke-linejoin:round;-inkscape-stroke:none;paint-order:fill markers stroke"
         d="m -29.552734,77.400391 c -0.226756,0.0017 -0.455801,0.03271 -0.683594,0.09375 -0.727137,0.194645 -1.491598,0.700341 -2.310547,1.371093 -0.818949,0.670753 -1.665317,1.510664 -2.392578,2.392578 -0.727262,0.881953 -1.331437,1.79583 -1.673828,2.664063 -0.171198,0.434117 -0.281477,0.8666 -0.273438,1.292969 0.0081,0.426368 0.156454,0.865446 0.478516,1.1875 0.632944,0.632957 1.587973,0.749733 2.673828,0.738281 1.085855,-0.01134 2.334258,-0.211048 3.550781,-0.53125 0.581128,-0.152923 1.15241,-0.333442 1.695313,-0.537109 0.078,-0.442687 0.13502,-0.893128 0.169922,-1.34961 -0.659105,0.282702 -1.405973,0.535768 -2.167969,0.736328 -1.138006,0.299717 -2.316135,0.484163 -3.263672,0.494141 -0.947537,0.01134 -1.636906,-0.211022 -1.816406,-0.390625 -0.08416,-0.08428 -0.129071,-0.171093 -0.132813,-0.369141 -0.0037,-0.198425 0.05832,-0.490651 0.191407,-0.828125 0.266177,-0.674985 0.81683,-1.528632 1.492187,-2.347656 0.675357,-0.818986 1.471904,-1.613624 2.222656,-2.228516 0.750753,-0.614891 1.484505,-1.041992 1.867188,-1.144531 0.459908,-0.12322 1.056062,0.03059 1.646484,0.386719 v -1.361328 c -0.411904,-0.172653 -0.839778,-0.272734 -1.273437,-0.269531 z"
         transform="matrix(0.26458333,0,0,0.26458333,0,263.13332)" />
    </g>
  </g>
</svg>
