<?xml version="1.0" encoding="UTF-8" standalone="no"?>
<!-- Created with Inkscape (http://www.inkscape.org/) -->

<svg
   width="128"
   height="128"
   viewBox="0 0 33.866665 33.866667"
   version="1.1"
   id="svg1307"
   inkscape:version="1.2 (dc2aedaf03, 2022-05-15)"
   sodipodi:docname="magi-lumiere.svg"
   inkscape:export-filename="/home/henrique/Pictures/sailor-moon.png"
   inkscape:export-xdpi="96.000008"
   inkscape:export-ydpi="96.000008"
   xml:space="preserve"
   xmlns:inkscape="http://www.inkscape.org/namespaces/inkscape"
   xmlns:sodipodi="http://sodipodi.sourceforge.net/DTD/sodipodi-0.dtd"
   xmlns="http://www.w3.org/2000/svg"
   xmlns:svg="http://www.w3.org/2000/svg"
   xmlns:rdf="http://www.w3.org/1999/02/22-rdf-syntax-ns#"
   xmlns:cc="http://creativecommons.org/ns#"
   xmlns:dc="http://purl.org/dc/elements/1.1/"><defs
     id="defs1301"><inkscape:path-effect
       effect="powerstroke"
       id="path-effect126865"
       is_visible="true"
       lpeversion="1"
       offset_points="0.36607912,0.65819441 | 0.7369579,1.5394423 | 0.91447105,0.73804339"
       not_jump="false"
       sort_points="true"
       interpolator_type="CentripetalCatmullRom"
       interpolator_beta="0.2"
       start_linecap_type="zerowidth"
       linejoin_type="round"
       miter_limit="4"
       scale_width="1"
       end_linecap_type="zerowidth" /><inkscape:path-effect
       effect="skeletal"
       id="path-effect114945"
       is_visible="true"
       lpeversion="1"
       pattern="M 0,4.9921381 C 0,2.2364779 2.2364779,0 4.9921381,0 c 2.7556603,0 4.9921381,2.2364779 4.9921381,4.9921381 0,2.7556603 -2.2364778,4.9921381 -4.9921381,4.9921381 C 2.2364779,9.9842762 0,7.7477984 0,4.9921381 Z"
       copytype="single_stretched"
       prop_scale="1"
       scale_y_rel="false"
       spacing="0"
       normal_offset="0"
       tang_offset="0"
       prop_units="false"
       vertical_pattern="false"
       hide_knot="false"
       fuse_tolerance="0" /><inkscape:path-effect
       effect="skeletal"
       id="path-effect95947"
       is_visible="true"
       lpeversion="1"
       pattern="M 0,4.9921381 C 0,2.2364779 2.2364779,0 4.9921381,0 c 2.7556603,0 4.9921381,2.2364779 4.9921381,4.9921381 0,2.7556603 -2.2364778,4.9921381 -4.9921381,4.9921381 C 2.2364779,9.9842762 0,7.7477984 0,4.9921381 Z"
       copytype="single_stretched"
       prop_scale="1"
       scale_y_rel="false"
       spacing="0"
       normal_offset="0"
       tang_offset="0"
       prop_units="false"
       vertical_pattern="false"
       hide_knot="false"
       fuse_tolerance="0" /><inkscape:path-effect
       effect="skeletal"
       id="path-effect91934"
       is_visible="true"
       lpeversion="1"
       pattern="M 0,4.9921381 C 0,2.2364779 2.2364779,0 4.9921381,0 c 2.7556603,0 4.9921381,2.2364779 4.9921381,4.9921381 0,2.7556603 -2.2364778,4.9921381 -4.9921381,4.9921381 C 2.2364779,9.9842762 0,7.7477984 0,4.9921381 Z"
       copytype="single_stretched"
       prop_scale="1"
       scale_y_rel="false"
       spacing="0"
       normal_offset="0"
       tang_offset="0"
       prop_units="false"
       vertical_pattern="false"
       hide_knot="false"
       fuse_tolerance="0" /><inkscape:path-effect
       effect="skeletal"
       id="path-effect91930"
       is_visible="true"
       lpeversion="1"
       pattern="M 0,4.9921381 C 0,2.2364779 2.2364779,0 4.9921381,0 c 2.7556603,0 4.9921381,2.2364779 4.9921381,4.9921381 0,2.7556603 -2.2364778,4.9921381 -4.9921381,4.9921381 C 2.2364779,9.9842762 0,7.7477984 0,4.9921381 Z"
       copytype="single_stretched"
       prop_scale="1"
       scale_y_rel="false"
       spacing="0"
       normal_offset="0"
       tang_offset="0"
       prop_units="false"
       vertical_pattern="false"
       hide_knot="false"
       fuse_tolerance="0" /><inkscape:path-effect
       effect="skeletal"
       id="path-effect91926"
       is_visible="true"
       lpeversion="1"
       pattern="M 0,4.9921381 C 0,2.2364779 2.2364779,0 4.9921381,0 c 2.7556603,0 4.9921381,2.2364779 4.9921381,4.9921381 0,2.7556603 -2.2364778,4.9921381 -4.9921381,4.9921381 C 2.2364779,9.9842762 0,7.7477984 0,4.9921381 Z"
       copytype="single_stretched"
       prop_scale="1"
       scale_y_rel="false"
       spacing="0"
       normal_offset="0"
       tang_offset="0"
       prop_units="false"
       vertical_pattern="false"
       hide_knot="false"
       fuse_tolerance="0" /></defs><sodipodi:namedview
     id="base"
     pagecolor="#282828"
     bordercolor="#666666"
     borderopacity="1.0"
     inkscape:pageopacity="0"
     inkscape:pageshadow="2"
     inkscape:zoom="5.6"
     inkscape:cx="-128.75"
     inkscape:cy="81.160714"
     inkscape:document-units="mm"
     inkscape:current-layer="layer1"
     showgrid="true"
     inkscape:window-width="1920"
     inkscape:window-height="1022"
     inkscape:window-x="0"
     inkscape:window-y="30"
     inkscape:window-maximized="1"
     units="px"
     inkscape:snap-bbox="true"
     inkscape:bbox-nodes="true"
     inkscape:snap-page="true"
     inkscape:snap-nodes="true"
     inkscape:bbox-paths="false"
     inkscape:snap-global="false"
     inkscape:snap-bbox-midpoints="false"
     inkscape:snap-others="false"
     showguides="true"
     inkscape:guide-bbox="true"
     inkscape:snap-grids="false"
     inkscape:snap-to-guides="true"
     inkscape:pagecheckerboard="0"
     inkscape:object-paths="true"
     inkscape:snap-intersection-paths="true"
     inkscape:snap-smooth-nodes="true"
     inkscape:snap-midpoints="true"
     inkscape:showpageshadow="0"
     inkscape:deskcolor="#282828"><inkscape:grid
       type="xygrid"
       id="grid883"
       empspacing="4" /><sodipodi:guide
       position="33.866665,50.800001"
       orientation="1,0"
       id="guide877"
       inkscape:locked="false" /></sodipodi:namedview><metadata
     id="metadata1304"><rdf:RDF><cc:Work
         rdf:about=""><dc:format>image/svg+xml</dc:format><dc:type
           rdf:resource="http://purl.org/dc/dcmitype/StillImage" /></cc:Work></rdf:RDF></metadata><g
     inkscape:label="Layer 1"
     inkscape:groupmode="layer"
     id="layer1"
     transform="translate(0,-263.13332)"><path
       sodipodi:type="star"
       style="fill:#c9ab34;fill-opacity:1;stroke:none;stroke-width:1.5875;stroke-linecap:round;stroke-linejoin:round;paint-order:fill markers stroke"
       id="path18144"
       inkscape:flatsided="true"
       sodipodi:sides="3"
       sodipodi:cx="-50.854652"
       sodipodi:cy="146.93391"
       sodipodi:r1="21.895432"
       sodipodi:r2="9.4150362"
       sodipodi:arg1="1.5707963"
       sodipodi:arg2="2.6179939"
       inkscape:rounded="0.15"
       inkscape:randomized="0"
       d="m -50.854652,168.82935 c -5.6886,0 -21.8063,-27.91668 -18.962001,-32.84315 2.8443,-4.92647 35.0797,-4.92647 37.924,0 2.8443,4.92647 -13.273399,32.84315 -18.961999,32.84315 z"
       transform="matrix(0.22443672,0,0,-0.17081892,34.720451,295.49292)" /><path
       sodipodi:type="star"
       style="fill:#2175c7;fill-opacity:1;stroke:none;stroke-width:1.5875;stroke-linecap:round;stroke-linejoin:round;paint-order:fill markers stroke"
       id="path18146"
       inkscape:flatsided="true"
       sodipodi:sides="3"
       sodipodi:cx="-50.854652"
       sodipodi:cy="146.93391"
       sodipodi:r1="21.895432"
       sodipodi:r2="9.4150362"
       sodipodi:arg1="1.5707963"
       sodipodi:arg2="2.6179939"
       inkscape:rounded="0.15"
       inkscape:randomized="0"
       d="m -50.854652,168.82935 c -5.6886,0 -21.8063,-27.91668 -18.962001,-32.84315 2.8443,-4.92647 35.0797,-4.92647 37.924,0 2.8443,4.92647 -13.273399,32.84315 -18.961999,32.84315 z"
       transform="matrix(0.22443672,0,0,-0.17081892,34.720451,295.24242)" /><path
       sodipodi:type="star"
       style="fill:#ffffff;fill-opacity:1;stroke:none;stroke-width:3;stroke-linecap:round;stroke-linejoin:round;stroke-miterlimit:4;stroke-dasharray:none;stroke-opacity:1;paint-order:fill markers stroke"
       id="path18148"
       inkscape:flatsided="true"
       sodipodi:sides="3"
       sodipodi:cx="-139.42923"
       sodipodi:cy="37.828072"
       sodipodi:r1="9.9775801"
       sodipodi:r2="4.98879"
       sodipodi:arg1="0.52359878"
       sodipodi:arg2="1.5707963"
       inkscape:rounded="0.12"
       inkscape:randomized="0"
       transform="matrix(-0.11109122,0.06413855,0.1190702,0.20623565,6.282703,270.59654)"
       inkscape:transform-center-y="-0.23482526"
       inkscape:transform-center-x="-0.18086553"
       d="m -130.78839,42.816862 c -1.0369,1.795964 -16.24478,1.795964 -17.28168,0 -1.0369,-1.795965 6.56704,-14.96637 8.64084,-14.96637 2.0738,0 9.67774,13.170405 8.64084,14.96637 z" /><rect
       style="fill:#ffffff;fill-opacity:1;stroke:none;stroke-width:0.400568;stroke-linecap:square;stroke-linejoin:bevel;stroke-miterlimit:4;stroke-dasharray:none;stroke-dashoffset:0;stroke-opacity:0.978723;paint-order:normal"
       id="rect18150"
       width="6.4272337"
       height="7.8398128"
       x="19.942141"
       y="263.58441"
       ry="2.9311028" /><path
       sodipodi:type="star"
       style="fill:#ffffff;fill-opacity:1;stroke:none;stroke-width:3;stroke-linecap:round;stroke-linejoin:round;stroke-miterlimit:4;stroke-dasharray:none;stroke-opacity:1;paint-order:fill markers stroke"
       id="path18152"
       inkscape:flatsided="true"
       sodipodi:sides="3"
       sodipodi:cx="-139.42923"
       sodipodi:cy="37.828072"
       sodipodi:r1="9.9775801"
       sodipodi:r2="4.98879"
       sodipodi:arg1="0.52359878"
       sodipodi:arg2="1.5707963"
       inkscape:rounded="0.12"
       inkscape:randomized="0"
       transform="matrix(0.11109122,0.06413855,-0.1190702,0.20623565,41.226807,270.59654)"
       inkscape:transform-center-y="-0.23482526"
       inkscape:transform-center-x="0.18086549"
       d="m -130.78839,42.816862 c -1.0369,1.795964 -16.24478,1.795964 -17.28168,0 -1.0369,-1.795965 6.56704,-14.96637 8.64084,-14.96637 2.0738,0 9.67774,13.170405 8.64084,14.96637 z" /><path
       sodipodi:type="star"
       style="fill:#eb564b;fill-opacity:1;stroke:none;stroke-width:3;stroke-linecap:round;stroke-linejoin:round;stroke-miterlimit:4;stroke-dasharray:none;stroke-opacity:1;paint-order:fill markers stroke"
       id="path18154"
       inkscape:flatsided="true"
       sodipodi:sides="3"
       sodipodi:cx="-139.42923"
       sodipodi:cy="37.828072"
       sodipodi:r1="9.9775801"
       sodipodi:r2="4.98879"
       sodipodi:arg1="0.52359878"
       sodipodi:arg2="1.5707963"
       inkscape:rounded="0.12"
       inkscape:randomized="0"
       transform="matrix(0.12390616,0.03320056,-0.06163527,0.23002597,41.839677,265.77772)"
       inkscape:transform-center-y="-0.40489701"
       inkscape:transform-center-x="0.27170338"
       d="m -130.78839,42.816862 c -1.0369,1.795964 -16.24478,1.795964 -17.28168,0 -1.0369,-1.795965 6.56704,-14.96637 8.64084,-14.96637 2.0738,0 9.67774,13.170405 8.64084,14.96637 z" /><path
       sodipodi:type="star"
       style="fill:#eb564b;fill-opacity:1;stroke:none;stroke-width:3;stroke-linecap:round;stroke-linejoin:round;stroke-miterlimit:4;stroke-dasharray:none;stroke-opacity:1;paint-order:fill markers stroke"
       id="path18156"
       inkscape:flatsided="true"
       sodipodi:sides="3"
       sodipodi:cx="-139.42923"
       sodipodi:cy="37.828072"
       sodipodi:r1="9.9775801"
       sodipodi:r2="4.98879"
       sodipodi:arg1="0.52359878"
       sodipodi:arg2="1.5707963"
       inkscape:rounded="0.12"
       inkscape:randomized="0"
       transform="matrix(-0.12390616,0.03320056,0.06163527,0.23002597,5.669834,265.77772)"
       inkscape:transform-center-y="-0.40489701"
       inkscape:transform-center-x="-0.27170342"
       d="m -130.78839,42.816862 c -1.0369,1.795964 -16.24478,1.795964 -17.28168,0 -1.0369,-1.795965 6.56704,-14.96637 8.64084,-14.96637 2.0738,0 9.67774,13.170405 8.64084,14.96637 z" /><path
       sodipodi:type="star"
       style="fill:#ffffff;fill-opacity:1;stroke:none;stroke-width:3;stroke-linecap:round;stroke-linejoin:round;stroke-miterlimit:4;stroke-dasharray:none;stroke-opacity:1;paint-order:fill markers stroke"
       id="path18158"
       inkscape:flatsided="true"
       sodipodi:sides="3"
       sodipodi:cx="-139.42923"
       sodipodi:cy="37.828072"
       sodipodi:r1="9.9775801"
       sodipodi:r2="4.98879"
       sodipodi:arg1="0.52359878"
       sodipodi:arg2="1.5707963"
       inkscape:rounded="0.12"
       inkscape:randomized="0"
       transform="matrix(-0.1282771,0,0,0.23814041,6.2122,260.93185)"
       inkscape:transform-center-y="-0.48178214"
       d="m -130.78839,42.816862 c -1.0369,1.795964 -16.24478,1.795964 -17.28168,0 -1.0369,-1.795965 6.56704,-14.96637 8.64084,-14.96637 2.0738,0 9.67774,13.170405 8.64084,14.96637 z" /><path
       id="path18164"
       style="fill:#ffffff;fill-opacity:1;stroke-width:0.152524;stroke-linecap:round;stroke-linejoin:round;paint-order:fill markers stroke"
       d="m 23.785047,266.26179 c 0.261153,0.25458 2.409542,0.25458 2.670694,0 0.261152,-0.25459 -0.09516,-1.69721 -0.61746,-1.69721 -0.522305,0 -2.314386,1.44262 -2.053234,1.69721 z"
       sodipodi:nodetypes="ssss" /><path
       sodipodi:type="star"
       style="fill:#ffffff;fill-opacity:1;stroke:none;stroke-width:3;stroke-linecap:round;stroke-linejoin:round;stroke-miterlimit:4;stroke-dasharray:none;stroke-opacity:1;paint-order:fill markers stroke"
       id="path18178"
       inkscape:flatsided="true"
       sodipodi:sides="3"
       sodipodi:cx="-139.42923"
       sodipodi:cy="37.828072"
       sodipodi:r1="9.9775801"
       sodipodi:r2="4.98879"
       sodipodi:arg1="0.52359878"
       sodipodi:arg2="1.5707963"
       inkscape:rounded="0.12"
       inkscape:randomized="0"
       transform="matrix(0.1282771,0,0,0.23814041,41.251089,260.93185)"
       inkscape:transform-center-y="-0.48178214"
       d="m -130.78839,42.816862 c -1.0369,1.795964 -16.24478,1.795964 -17.28168,0 -1.0369,-1.795965 6.56704,-14.96637 8.64084,-14.96637 2.0738,0 9.67774,13.170405 8.64084,14.96637 z" /><rect
       style="fill:#4da6ff;fill-opacity:1;stroke-width:1.5875;stroke-linecap:round;stroke-linejoin:round;paint-order:fill markers stroke"
       id="rect18168"
       width="6.2984848"
       height="1.8376451"
       x="20.070517"
       y="267.29987"
       ry="0.88174933" /><path
       id="path18170"
       style="fill:#272736;fill-opacity:1;stroke-width:1.36332;stroke-linecap:round;stroke-linejoin:round;paint-order:fill markers stroke"
       d="m 19.942207,268.05356 v 0.61247 c 0,0.16719 0.02564,0.32983 0.0739,0.48593 h 6.27972 c 0.04826,-0.1561 0.07338,-0.31874 0.07338,-0.48593 v -0.61247 z" /><path
       sodipodi:type="star"
       style="fill:#ffde5b;fill-opacity:1;stroke-width:1.5875;stroke-linecap:round;stroke-linejoin:round;paint-order:fill markers stroke"
       id="path18172"
       inkscape:flatsided="false"
       sodipodi:sides="4"
       sodipodi:cx="-50.19799"
       sodipodi:cy="32.257065"
       sodipodi:r1="6.1585927"
       sodipodi:r2="2.648195"
       sodipodi:arg1="1.5707963"
       sodipodi:arg2="2.3561945"
       inkscape:rounded="0.15"
       inkscape:randomized="0"
       d="m -50.19799,38.415658 c -0.701586,0 -1.376461,-3.78994 -1.872557,-4.286037 -0.496096,-0.496096 -4.286036,-1.17097 -4.286036,-1.872556 0,-0.701586 3.78994,-1.376461 4.286036,-1.872557 0.496096,-0.496096 1.17097,-4.286036 1.872556,-4.286036 0.701586,0 1.376461,3.78994 1.872557,4.286036 0.496096,0.496096 4.286036,1.170971 4.286036,1.872557 0,0.701586 -3.78994,1.37646 -4.286036,1.872557 -0.496096,0.496096 -1.17097,4.286036 -1.872556,4.286036 z"
       transform="matrix(0.09757196,0,0,0.09757196,28.888967,265.49428)" /><path
       id="path18174"
       style="fill:#ffffff;fill-opacity:1;stroke-width:0.152524;stroke-linecap:round;stroke-linejoin:round;paint-order:fill markers stroke"
       d="m 24.453417,266.26179 c -0.261153,0.25458 -4.032218,0.25458 -4.29337,0 -0.261154,-0.25459 0.09515,-1.69721 0.61746,-1.69721 0.522304,0 3.937062,1.44262 3.67591,1.69721 z"
       sodipodi:nodetypes="ssss" /><path
       sodipodi:type="star"
       style="fill:#ee5885;fill-opacity:1;stroke:none;stroke-width:3;stroke-linecap:round;stroke-linejoin:round;stroke-miterlimit:4;stroke-dasharray:none;stroke-opacity:1;paint-order:fill markers stroke"
       id="path18008"
       inkscape:flatsided="true"
       sodipodi:sides="3"
       sodipodi:cx="-113.48855"
       sodipodi:cy="20.385611"
       sodipodi:r1="17.416616"
       sodipodi:r2="8.7083082"
       sodipodi:arg1="0"
       sodipodi:arg2="1.0471976"
       inkscape:rounded="0.12"
       inkscape:randomized="0"
       transform="matrix(0,-0.07085642,-0.04750698,0,24.913379,259.27199)"
       inkscape:transform-center-x="2.9084834e-06"
       inkscape:transform-center-y="-0.41882807"
       d="m -96.071932,20.385611 c 0,3.619975 -22.989938,16.89322 -26.124928,15.083232 -3.13499,-1.809988 -3.13499,-28.3564768 0,-30.1664647 3.13499,-1.8099879 26.124928,11.4632567 26.124928,15.0832327 z" /><path
       id="path18010"
       style="fill:#ff6b97;fill-opacity:1;stroke-width:0.104557;stroke-linecap:round;stroke-linejoin:round;paint-order:fill markers stroke"
       d="m 24.360098,266.73413 c -0.123302,0.1233 -0.707055,0.1233 -0.830357,0 -0.123302,-0.1233 -0.273808,-0.59827 -0.116044,-0.75602 0.157766,-0.15778 0.904679,-0.15778 1.062445,0 0.157764,0.15775 0.0072,0.63272 -0.116044,0.75602 z"
       sodipodi:nodetypes="sssss" /><rect
       ry="0.98629898"
       y="280.06592"
       x="27.516375"
       height="4.9062042"
       width="1.9725975"
       id="rect17867"
       style="fill:#7e7e8f;fill-opacity:1;stroke:none;stroke-width:0.400568;stroke-linecap:square;stroke-linejoin:bevel;stroke-miterlimit:4;stroke-dasharray:none;stroke-dashoffset:0;stroke-opacity:0.978723;paint-order:normal" /><path
       id="path17865"
       style="fill:#ececec;fill-opacity:1;stroke-width:1.5875;stroke-linecap:round;stroke-linejoin:round;paint-order:fill markers stroke"
       d="m 29.488972,283.42958 -0.776698,0.25579 -1.195793,-0.49764 v 0.79788 c 0,0.54641 0.440095,0.98651 0.986504,0.98651 0.546409,0 0.985987,-0.4401 0.985987,-0.98651 z" /><path
       id="path17869"
       style="fill:#4da6ff;fill-opacity:1;stroke:none;stroke-width:0.79375;stroke-linecap:round;stroke-linejoin:round;stroke-miterlimit:4;stroke-dasharray:none;stroke-opacity:1;paint-order:fill markers stroke"
       d="m 28.712274,283.68536 -1.195792,-0.49753 v -0.44091 l 1.195792,0.45922 0.776698,-0.21738 v 0.44092 z"
       sodipodi:nodetypes="ccccccc" /><g
       id="g17863"
       transform="translate(63.634128,-12.027868)"><rect
         style="fill:#c2c2d1;fill-opacity:1;stroke:none;stroke-width:0.400568;stroke-linecap:square;stroke-linejoin:bevel;stroke-miterlimit:4;stroke-dasharray:none;stroke-dashoffset:0;stroke-opacity:0.978723;paint-order:normal"
         id="rect17851"
         width="1.9725975"
         height="4.9062042"
         x="-39.292725"
         y="292.09378"
         ry="0.98629898" /><path
         id="path17853"
         style="fill:#ffffff;fill-opacity:1;stroke-width:1.5875;stroke-linecap:round;stroke-linejoin:round;paint-order:fill markers stroke"
         d="m -37.320263,295.45745 -0.776697,0.25579 -1.195793,-0.49764 v 0.79788 c 0,0.54641 0.440095,0.98651 0.986504,0.98651 0.546408,0 0.985986,-0.4401 0.985986,-0.98651 z" /><path
         id="path17855"
         style="fill:#ffffff;fill-opacity:1;stroke-width:1.5875;stroke-linecap:round;stroke-linejoin:round;paint-order:fill markers stroke"
         d="m -39.292753,294.97789 v 0.23771 l 1.195793,0.49764 0.776697,-0.25579 v -0.4408 l -0.776697,0.21755 -0.667143,-0.25631 z" /><path
         id="path17857"
         style="fill:#4da6ff;fill-opacity:1;stroke:none;stroke-width:0.79375;stroke-linecap:round;stroke-linejoin:round;stroke-miterlimit:4;stroke-dasharray:none;stroke-opacity:1;paint-order:fill markers stroke"
         d="m -38.096825,295.71323 -1.195792,-0.49753 v -0.44091 l 1.195792,0.45922 0.776697,-0.21738 v 0.44092 z"
         sodipodi:nodetypes="ccccccc" /></g><g
       id="g17849"
       transform="rotate(30,23.69087,400.25138)"><rect
         transform="matrix(-0.86602542,0.49999997,0.49999997,0.86602542,0,0)"
         style="fill:#7e7e8f;fill-opacity:1;stroke:none;stroke-width:0.400568;stroke-linecap:square;stroke-linejoin:bevel;stroke-miterlimit:4;stroke-dasharray:none;stroke-dashoffset:0;stroke-opacity:0.978723;paint-order:normal"
         id="rect17837"
         width="1.9725975"
         height="4.9062042"
         x="173.76836"
         y="232.26859"
         ry="0.98629898" /><path
         id="path17839"
         style="fill:#4da6ff;fill-opacity:1;stroke:none;stroke-width:1.5875;stroke-linecap:round;stroke-linejoin:round;paint-order:fill markers stroke"
         d="m -34.69266,288.39483 c 0.332837,0.007 0.653217,0.18348 0.832507,0.49402 l 0.985465,1.70636 -0.717782,0.41444 -1.472263,-2.54971 c 0.121236,-0.0464 0.247574,-0.0678 0.372073,-0.0651 z" /><path
         sodipodi:type="star"
         style="fill:#ffde5b;fill-opacity:1;stroke-width:1.5875;stroke-linecap:round;stroke-linejoin:round;paint-order:fill markers stroke"
         id="path17841"
         inkscape:flatsided="false"
         sodipodi:sides="4"
         sodipodi:cx="-50.19799"
         sodipodi:cy="32.257065"
         sodipodi:r1="6.1585927"
         sodipodi:r2="2.648195"
         sodipodi:arg1="1.5707963"
         sodipodi:arg2="2.3561945"
         inkscape:rounded="0.15"
         inkscape:randomized="0"
         d="m -50.19799,38.415658 c -0.701586,0 -1.376461,-3.78994 -1.872557,-4.286037 -0.496096,-0.496096 -4.286036,-1.17097 -4.286036,-1.872556 0,-0.701586 3.78994,-1.376461 4.286036,-1.872557 0.496096,-0.496096 1.17097,-4.286036 1.872556,-4.286036 0.701586,0 1.376461,3.78994 1.872557,4.286036 0.496096,0.496096 4.286036,1.170971 4.286036,1.872557 0,0.701586 -3.78994,1.37646 -4.286036,1.872557 -0.496096,0.496096 -1.17097,4.286036 -1.872556,4.286036 z"
         transform="matrix(-0.09412161,-0.09412161,-0.09412161,0.09412161,-35.313096,281.40329)" /><path
         id="path17843"
         style="fill:#43434f;fill-opacity:1;stroke:none;stroke-width:1.5875;stroke-linecap:round;stroke-linejoin:round;paint-order:fill markers stroke"
         d="m -32.54407,291.17554 0.146244,0.25373 c 0.273205,0.4732 0.112503,1.074 -0.360701,1.3472 -0.473204,0.27321 -1.074,0.1125 -1.347205,-0.3607 l -0.153996,-0.26665 a 2.5927134,2.5927134 0 0 1 1.715658,-0.97358 z" /></g><g
       id="g17835"
       transform="rotate(-30,-33.954822,161.19547)"><rect
         ry="0.98629898"
         y="269.38074"
         x="109.48818"
         height="4.9062042"
         width="1.9725975"
         id="rect17823"
         style="fill:#ffffff;fill-opacity:1;stroke:none;stroke-width:0.400568;stroke-linecap:square;stroke-linejoin:bevel;stroke-miterlimit:4;stroke-dasharray:none;stroke-dashoffset:0;stroke-opacity:0.978723;paint-order:normal"
         transform="rotate(29.999998)" /><path
         id="path17825"
         style="fill:#4da6ff;fill-opacity:1;stroke:none;stroke-width:1.5875;stroke-linecap:round;stroke-linejoin:round;paint-order:fill markers stroke"
         d="m -39.531357,288.39483 c -0.332837,0.007 -0.653217,0.18348 -0.832507,0.49402 l -0.985465,1.70636 0.717782,0.41444 1.472263,-2.54971 c -0.121236,-0.0464 -0.247574,-0.0678 -0.372073,-0.0651 z" /><path
         sodipodi:type="star"
         style="fill:#ffde5b;fill-opacity:1;stroke-width:1.5875;stroke-linecap:round;stroke-linejoin:round;paint-order:fill markers stroke"
         id="path17827"
         inkscape:flatsided="false"
         sodipodi:sides="4"
         sodipodi:cx="-50.19799"
         sodipodi:cy="32.257065"
         sodipodi:r1="6.1585927"
         sodipodi:r2="2.648195"
         sodipodi:arg1="1.5707963"
         sodipodi:arg2="2.3561945"
         inkscape:rounded="0.15"
         inkscape:randomized="0"
         d="m -50.19799,38.415658 c -0.701586,0 -1.376461,-3.78994 -1.872557,-4.286037 -0.496096,-0.496096 -4.286036,-1.17097 -4.286036,-1.872556 0,-0.701586 3.78994,-1.376461 4.286036,-1.872557 0.496096,-0.496096 1.17097,-4.286036 1.872556,-4.286036 0.701586,0 1.376461,3.78994 1.872557,4.286036 0.496096,0.496096 4.286036,1.170971 4.286036,1.872557 0,0.701586 -3.78994,1.37646 -4.286036,1.872557 -0.496096,0.496096 -1.17097,4.286036 -1.872556,4.286036 z"
         transform="matrix(0.09412161,-0.09412161,0.09412161,0.09412161,-38.809247,281.40329)" /><path
         id="path17829"
         style="fill:#43434f;fill-opacity:1;stroke:none;stroke-width:1.5875;stroke-linecap:round;stroke-linejoin:round;paint-order:fill markers stroke"
         d="m -41.684338,291.17554 -0.146244,0.25373 c -0.273205,0.4732 -0.112503,1.074 0.360701,1.3472 0.473204,0.27321 1.074,0.1125 1.347205,-0.3607 l 0.153996,-0.26665 a 2.5927134,2.5927134 0 0 0 -1.715658,-0.97358 z" /></g><circle
       r="3.540561"
       cy="283.66327"
       cx="4.6647344"
       id="circle17025"
       style="fill:#c2c2d1;fill-opacity:1;stroke:none;stroke-width:0.400569;stroke-linecap:square;stroke-linejoin:bevel;stroke-miterlimit:4;stroke-dasharray:none;stroke-dashoffset:0;stroke-opacity:0.978723;paint-order:normal" /><circle
       style="fill:#a191a1;fill-opacity:1;stroke:none;stroke-width:0.400569;stroke-linecap:square;stroke-linejoin:bevel;stroke-miterlimit:4;stroke-dasharray:none;stroke-dashoffset:0;stroke-opacity:0.978723;paint-order:normal"
       id="circle17027"
       cx="4.6647344"
       cy="283.66327"
       r="2.3315887" /><circle
       style="fill:#c2c2d1;fill-opacity:1;stroke:none;stroke-width:0.400569;stroke-linecap:square;stroke-linejoin:bevel;stroke-miterlimit:4;stroke-dasharray:none;stroke-dashoffset:0;stroke-opacity:0.978723;paint-order:normal"
       id="circle17029"
       cx="10.65038"
       cy="283.66327"
       r="3.540561" /><circle
       r="2.3315887"
       cy="283.66327"
       cx="10.65038"
       id="circle17031"
       style="fill:#a191a1;fill-opacity:1;stroke:none;stroke-width:0.400569;stroke-linecap:square;stroke-linejoin:bevel;stroke-miterlimit:4;stroke-dasharray:none;stroke-dashoffset:0;stroke-opacity:0.978723;paint-order:normal" /><g
       id="g17795"
       transform="matrix(-0.25421185,-0.44030785,-0.44030785,0.25421185,121.51762,194.04644)"><path
         id="path17791"
         style="fill:#ffffff;stroke-width:0.512612;stroke-linecap:round;stroke-linejoin:round;paint-order:fill markers stroke"
         inkscape:transform-center-y="0.21860409"
         d="m -48.283048,278.36958 c -0.454471,0.26239 -2.301085,-0.45156 -3.12351,-1.87605 -0.822425,-1.42448 -2.869456,-7.45451 -2.414988,-7.7169 0.454471,-0.26239 4.65312,4.52541 5.475545,5.94989 0.822425,1.42448 0.517421,3.38068 0.06295,3.64306 z"
         sodipodi:nodetypes="sssss"
         inkscape:transform-center-x="-0.30700526" /><path
         id="path17793"
         style="fill:#ffffff;stroke-width:0.512612;stroke-linecap:round;stroke-linejoin:round;paint-order:fill markers stroke"
         inkscape:transform-center-y="0.21860409"
         d="m -49.016633,278.36958 c 0.454471,0.26239 2.301085,-0.45156 3.12351,-1.87605 0.822425,-1.42448 2.869456,-7.45451 2.414988,-7.7169 -0.454471,-0.26239 -4.65312,4.52541 -5.475545,5.94989 -0.822425,1.42448 -0.517421,3.38068 -0.06295,3.64306 z"
         sodipodi:nodetypes="sssss"
         inkscape:transform-center-x="0.30700526" /></g><circle
       style="fill:#a191a1;fill-opacity:1;stroke:none;stroke-width:0.400569;stroke-linecap:square;stroke-linejoin:bevel;stroke-miterlimit:4;stroke-dasharray:none;stroke-dashoffset:0;stroke-opacity:0.978723;paint-order:normal"
       id="circle17033"
       cx="4.6647344"
       cy="283.66327"
       r="2.3315887" /><g
       id="g17801"
       transform="matrix(0.39294738,-0.39294738,0.39294738,0.39294738,-85.125333,158.06079)"><path
         id="path17797"
         style="fill:#ffffff;stroke-width:0.512612;stroke-linecap:round;stroke-linejoin:round;paint-order:fill markers stroke"
         inkscape:transform-center-y="0.21860409"
         d="m -48.283048,278.36958 c -0.454471,0.26239 -2.301085,-0.45156 -3.12351,-1.87605 -0.822425,-1.42448 -2.869456,-7.45451 -2.414988,-7.7169 0.454471,-0.26239 4.65312,4.52541 5.475545,5.94989 0.822425,1.42448 0.517421,3.38068 0.06295,3.64306 z"
         sodipodi:nodetypes="sssss"
         inkscape:transform-center-x="-0.30700526" /><path
         id="path17799"
         style="fill:#ffffff;stroke-width:0.512612;stroke-linecap:round;stroke-linejoin:round;paint-order:fill markers stroke"
         inkscape:transform-center-y="0.21860409"
         d="m -49.016633,278.36958 c 0.454471,0.26239 2.301085,-0.45156 3.12351,-1.87605 0.822425,-1.42448 2.869456,-7.45451 2.414988,-7.7169 -0.454471,-0.26239 -4.65312,4.52541 -5.475545,5.94989 -0.822425,1.42448 -0.517421,3.38068 -0.06295,3.64306 z"
         sodipodi:nodetypes="sssss"
         inkscape:transform-center-x="0.30700526" /></g><rect
       style="fill:#c2c2d1;fill-opacity:1;stroke:none;stroke-width:0.400568;stroke-linecap:square;stroke-linejoin:bevel;stroke-miterlimit:4;stroke-dasharray:none;stroke-dashoffset:0;stroke-opacity:0.978723;paint-order:normal"
       id="rect17035"
       width="8.9019804"
       height="8.9019804"
       x="3.712357"
       y="282.34821"
       ry="3.6417198" /><circle
       style="fill:#3e2347;fill-opacity:1;stroke:none;stroke-width:0.400568;stroke-linecap:square;stroke-linejoin:bevel;stroke-miterlimit:4;stroke-dasharray:none;stroke-dashoffset:0;stroke-opacity:0.978723;paint-order:normal"
       id="circle17037"
       cx="6.9601102"
       cy="287.57071"
       r="0.64377093" /><circle
       r="0.64377093"
       cy="287.57071"
       cx="11.394986"
       id="circle17039"
       style="fill:#3e2347;fill-opacity:1;stroke:none;stroke-width:0.400568;stroke-linecap:square;stroke-linejoin:bevel;stroke-miterlimit:4;stroke-dasharray:none;stroke-dashoffset:0;stroke-opacity:0.978723;paint-order:normal" /><path
       sodipodi:type="star"
       style="fill:#3e2347;fill-opacity:1;stroke:none;stroke-width:2.36253;stroke-linecap:square;stroke-linejoin:bevel;stroke-miterlimit:4;stroke-dasharray:none;stroke-dashoffset:0;stroke-opacity:0.978723;paint-order:normal"
       id="path17041"
       sodipodi:sides="3"
       sodipodi:cx="-45.408615"
       sodipodi:cy="234.57965"
       sodipodi:r1="2.997191"
       sodipodi:r2="1.4985955"
       sodipodi:arg1="1.5707963"
       sodipodi:arg2="2.6179939"
       inkscape:flatsided="true"
       inkscape:rounded="0.18"
       inkscape:randomized="0"
       inkscape:transform-center-x="-6.3665075e-06"
       inkscape:transform-center-y="1.0312406"
       d="m -45.408615,237.57684 c -0.934432,0 -3.062859,-3.68654 -2.595644,-4.49578 0.467216,-0.80925 4.724071,-0.80925 5.191287,0 0.467216,0.80924 -1.661211,4.49578 -2.595643,4.49578 z"
       transform="matrix(0.16955045,0,0,0.16955045,17.448841,249.15671)" /><path
       style="color:#000000;fill:#000000;fill-opacity:0;stroke-width:0.281781;stroke-linecap:round;stroke-linejoin:round;paint-order:fill markers stroke"
       d="m 3.329982,286.78494 a 0.44506553,0.44506553 0 0 1 -0.441395,0.18784 0.44506553,0.44506553 0 0 1 -0.355555,-0.32202 0.44506553,0.44506553 0 0 1 0.143335,-0.45779"
       id="path17043" /><path
       style="color:#000000;fill:#000000;fill-opacity:0;stroke-width:0.12249;stroke-linecap:round;stroke-linejoin:round;paint-order:fill markers stroke"
       d="m 11.552219,286.92155 h -0.0025 v 1.48941 h 0.0025 z"
       id="path17045" /><path
       style="color:#000000;fill:#000000;fill-opacity:0;stroke-width:0.281781;stroke-linecap:round;stroke-linejoin:round;paint-order:fill markers stroke"
       d="m 11.079218,286.78494 a 0.44506553,0.44506553 0 0 0 0.441395,0.18784 0.44506553,0.44506553 0 0 0 0.355555,-0.32202 0.44506553,0.44506553 0 0 0 -0.143335,-0.45779"
       id="path17047" /><path
       style="color:#000000;fill:#c2c2d1;fill-opacity:1;stroke-linecap:round;-inkscape-stroke:none"
       d="m 18.140625,286.45898 a 0.20022494,0.20022494 0 0 0 -0.138672,0.2461 0.20022494,0.20022494 0 0 0 0.248047,0.13867 c 0.161389,-0.0456 0.321057,-0.0433 0.515625,0.043 0.194568,0.0863 0.423648,0.26465 0.679687,0.58008 0.512079,0.63085 1.121973,1.80432 1.820313,3.77734 0.720992,2.037 2.061198,3.06192 3.212891,3.56055 1.151692,0.49863 2.132812,0.48437 2.132812,0.48437 a 0.20022494,0.20022494 0 0 0 0.197266,-0.20312 0.20022494,0.20022494 0 0 0 -0.203125,-0.19727 c 0,0 -0.892971,0.0138 -1.966797,-0.45117 -1.073826,-0.46492 -2.310745,-1.39734 -2.994141,-3.32813 -0.706047,-1.99479 -1.322995,-3.19764 -1.888672,-3.89453 -0.282838,-0.34844 -0.555293,-0.5724 -0.828125,-0.69336 -0.272831,-0.12095 -0.545791,-0.13073 -0.787109,-0.0625 z"
       id="path870" /><g
       id="g421"
       transform="translate(6.9982549,3.128783)"><path
         id="path18140"
         style="fill:#ffde5b;fill-opacity:1;stroke-width:0.257996;stroke-linecap:round;stroke-linejoin:round;paint-order:fill markers stroke"
         inkscape:transform-center-y="-0.35699686"
         d="m 15.260424,269.64964 c -0.451998,0.45199 -4.081342,-0.13925 -4.246786,-0.75669 -0.165443,-0.61744 2.078329,-4.62148 2.69577,-4.45604 0.617441,0.16545 2.003013,4.76073 1.551016,5.21273 z"
         sodipodi:nodetypes="ssss"
         inkscape:transform-center-x="0.41100187" /><path
         id="path18142"
         style="fill:#4da6ff;fill-opacity:1;stroke-width:0.257996;stroke-linecap:round;stroke-linejoin:round;paint-order:fill markers stroke"
         inkscape:transform-center-y="-0.35699686"
         d="m 15.277128,269.39914 c -0.451998,0.45199 -4.081342,-0.13925 -4.246786,-0.75669 -0.165443,-0.61744 2.078329,-4.62148 2.69577,-4.45604 0.617441,0.16545 2.003013,4.76073 1.551016,5.21273 z"
         sodipodi:nodetypes="ssss"
         inkscape:transform-center-x="0.41100187" /></g></g></svg>
