<?xml version="1.0" encoding="UTF-8" standalone="no"?>
<!-- Created with Inkscape (http://www.inkscape.org/) -->

<svg
   width="128"
   height="128"
   viewBox="0 0 33.866665 33.866667"
   version="1.1"
   id="svg1307"
   inkscape:version="1.2.1 (9c6d41e410, 2022-07-14)"
   sodipodi:docname="saint-virgo.svg"
   inkscape:export-filename="/home/henrique/Documents/projects/001 - Moon Cheeser/repo/source/actors/astromouse/sprites/cutout_body.png"
   inkscape:export-xdpi="96.000008"
   inkscape:export-ydpi="96.000008"
   xml:space="preserve"
   xmlns:inkscape="http://www.inkscape.org/namespaces/inkscape"
   xmlns:sodipodi="http://sodipodi.sourceforge.net/DTD/sodipodi-0.dtd"
   xmlns="http://www.w3.org/2000/svg"
   xmlns:svg="http://www.w3.org/2000/svg"
   xmlns:rdf="http://www.w3.org/1999/02/22-rdf-syntax-ns#"
   xmlns:cc="http://creativecommons.org/ns#"
   xmlns:dc="http://purl.org/dc/elements/1.1/"><defs
     id="defs1301"><inkscape:path-effect
       effect="skeletal"
       id="path-effect4454"
       is_visible="true"
       lpeversion="1"
       pattern="M 0,4.9921381 C 0,2.2364779 2.2364779,0 4.9921381,0 c 2.7556603,0 4.9921381,2.2364779 4.9921381,4.9921381 0,2.7556603 -2.2364778,4.9921381 -4.9921381,4.9921381 C 2.2364779,9.9842762 0,7.7477984 0,4.9921381 Z"
       copytype="single_stretched"
       prop_scale="0.13336193"
       scale_y_rel="false"
       spacing="0"
       normal_offset="0"
       tang_offset="0"
       prop_units="false"
       vertical_pattern="false"
       hide_knot="false"
       fuse_tolerance="0" /><inkscape:path-effect
       effect="skeletal"
       id="path-effect4448"
       is_visible="true"
       lpeversion="1"
       pattern="M 0,4.9921381 C 0,2.2364779 2.2364779,0 4.9921381,0 c 2.7556603,0 4.9921381,2.2364779 4.9921381,4.9921381 0,2.7556603 -2.2364778,4.9921381 -4.9921381,4.9921381 C 2.2364779,9.9842762 0,7.7477984 0,4.9921381 Z"
       copytype="single_stretched"
       prop_scale="0.13336193"
       scale_y_rel="false"
       spacing="0"
       normal_offset="0"
       tang_offset="0"
       prop_units="false"
       vertical_pattern="false"
       hide_knot="false"
       fuse_tolerance="0" /><inkscape:path-effect
       effect="powerstroke"
       id="path-effect4444"
       is_visible="true"
       lpeversion="1"
       offset_points="0.2,0.1322915 | 1.5,0.1322915 | 2.8,0.1322915"
       not_jump="false"
       sort_points="true"
       interpolator_type="CentripetalCatmullRom"
       interpolator_beta="0.2"
       start_linecap_type="zerowidth"
       linejoin_type="round"
       miter_limit="4"
       scale_width="1"
       end_linecap_type="zerowidth" /><inkscape:path-effect
       effect="powerstroke"
       id="path-effect2911"
       is_visible="true"
       lpeversion="1"
       offset_points="0.22138289,0.142022 | 0.96718989,0.45940197 | 1.7390421,0.13124696"
       not_jump="false"
       sort_points="true"
       interpolator_type="CentripetalCatmullRom"
       interpolator_beta="0.2"
       start_linecap_type="zerowidth"
       linejoin_type="round"
       miter_limit="4"
       scale_width="1"
       end_linecap_type="zerowidth" /><inkscape:path-effect
       effect="powerstroke"
       id="path-effect6307"
       is_visible="true"
       lpeversion="1"
       offset_points="0.37452074,0.8291695 | 1.0183886,0.61934279 | 1.5465968,0.17463776"
       not_jump="false"
       sort_points="true"
       interpolator_type="CentripetalCatmullRom"
       interpolator_beta="0.2"
       start_linecap_type="zerowidth"
       linejoin_type="round"
       miter_limit="4"
       scale_width="1"
       end_linecap_type="zerowidth" /><inkscape:path-effect
       effect="powerstroke"
       id="path-effect6303"
       is_visible="true"
       lpeversion="1"
       offset_points="0.37452074,0.89858284 | 1.0183886,0.67119063 | 1.5465968,0.18925743"
       not_jump="false"
       sort_points="true"
       interpolator_type="CentripetalCatmullRom"
       interpolator_beta="0.2"
       start_linecap_type="zerowidth"
       linejoin_type="round"
       miter_limit="4"
       scale_width="1"
       end_linecap_type="zerowidth" /><inkscape:path-effect
       effect="powerstroke"
       id="path-effect6299"
       is_visible="true"
       lpeversion="1"
       offset_points="0.37452074,0.98301495 | 1.0183886,0.73425665 | 1.5465968,0.20704032"
       not_jump="false"
       sort_points="true"
       interpolator_type="CentripetalCatmullRom"
       interpolator_beta="0.2"
       start_linecap_type="zerowidth"
       linejoin_type="round"
       miter_limit="4"
       scale_width="1"
       end_linecap_type="zerowidth" /><inkscape:path-effect
       effect="powerstroke"
       id="path-effect6295"
       is_visible="true"
       lpeversion="1"
       offset_points="0.37452074,0.98301495 | 1.0183886,0.73425665 | 1.5465968,0.20704032"
       not_jump="false"
       sort_points="true"
       interpolator_type="CentripetalCatmullRom"
       interpolator_beta="0.2"
       start_linecap_type="zerowidth"
       linejoin_type="round"
       miter_limit="4"
       scale_width="1"
       end_linecap_type="zerowidth" /><inkscape:path-effect
       effect="powerstroke"
       id="path-effect6291"
       is_visible="true"
       lpeversion="1"
       offset_points="0.37452074,0.90707944 | 1.0183886,0.67753711 | 1.5465968,0.19104697"
       not_jump="false"
       sort_points="true"
       interpolator_type="CentripetalCatmullRom"
       interpolator_beta="0.2"
       start_linecap_type="zerowidth"
       linejoin_type="round"
       miter_limit="4"
       scale_width="1"
       end_linecap_type="zerowidth" /><inkscape:path-effect
       effect="powerstroke"
       id="path-effect6193"
       is_visible="true"
       lpeversion="1"
       offset_points="0.37452074,0.8291695 | 1.0183886,0.61934279 | 1.5465968,0.17463776"
       not_jump="false"
       sort_points="true"
       interpolator_type="CentripetalCatmullRom"
       interpolator_beta="0.2"
       start_linecap_type="zerowidth"
       linejoin_type="round"
       miter_limit="4"
       scale_width="1"
       end_linecap_type="zerowidth" /><inkscape:path-effect
       effect="powerstroke"
       id="path-effect6189"
       is_visible="true"
       lpeversion="1"
       offset_points="0.37452074,0.89858284 | 1.0183886,0.67119063 | 1.5465968,0.18925743"
       not_jump="false"
       sort_points="true"
       interpolator_type="CentripetalCatmullRom"
       interpolator_beta="0.2"
       start_linecap_type="zerowidth"
       linejoin_type="round"
       miter_limit="4"
       scale_width="1"
       end_linecap_type="zerowidth" /><inkscape:path-effect
       effect="powerstroke"
       id="path-effect6185"
       is_visible="true"
       lpeversion="1"
       offset_points="0.37452074,0.98301495 | 1.0183886,0.73425665 | 1.5465968,0.20704032"
       not_jump="false"
       sort_points="true"
       interpolator_type="CentripetalCatmullRom"
       interpolator_beta="0.2"
       start_linecap_type="zerowidth"
       linejoin_type="round"
       miter_limit="4"
       scale_width="1"
       end_linecap_type="zerowidth" /><inkscape:path-effect
       effect="powerstroke"
       id="path-effect6181"
       is_visible="true"
       lpeversion="1"
       offset_points="0.37452074,0.98301495 | 1.0183886,0.73425665 | 1.5465968,0.20704032"
       not_jump="false"
       sort_points="true"
       interpolator_type="CentripetalCatmullRom"
       interpolator_beta="0.2"
       start_linecap_type="zerowidth"
       linejoin_type="round"
       miter_limit="4"
       scale_width="1"
       end_linecap_type="zerowidth" /><inkscape:path-effect
       effect="powerstroke"
       id="path-effect6177"
       is_visible="true"
       lpeversion="1"
       offset_points="0.37452074,0.90707944 | 1.0183886,0.67753711 | 1.5465968,0.19104697"
       not_jump="false"
       sort_points="true"
       interpolator_type="CentripetalCatmullRom"
       interpolator_beta="0.2"
       start_linecap_type="zerowidth"
       linejoin_type="round"
       miter_limit="4"
       scale_width="1"
       end_linecap_type="zerowidth" /><inkscape:path-effect
       effect="powerstroke"
       id="path-effect13270"
       is_visible="true"
       lpeversion="1"
       offset_points="0.24579726,0.88346674"
       not_jump="false"
       sort_points="true"
       interpolator_type="CubicBezierJohan"
       interpolator_beta="0.2"
       start_linecap_type="zerowidth"
       linejoin_type="extrp_arc"
       miter_limit="4"
       scale_width="1"
       end_linecap_type="zerowidth" /><inkscape:path-effect
       effect="powerstroke"
       id="path-effect13262"
       is_visible="true"
       lpeversion="1"
       offset_points="0.24579726,0.88346674"
       not_jump="false"
       sort_points="true"
       interpolator_type="CubicBezierJohan"
       interpolator_beta="0.2"
       start_linecap_type="zerowidth"
       linejoin_type="extrp_arc"
       miter_limit="4"
       scale_width="1"
       end_linecap_type="zerowidth" /><inkscape:path-effect
       effect="powerstroke"
       id="path-effect3857"
       is_visible="true"
       lpeversion="1"
       offset_points="0,0.88346674"
       not_jump="false"
       sort_points="true"
       interpolator_type="CubicBezierJohan"
       interpolator_beta="0.2"
       start_linecap_type="zerowidth"
       linejoin_type="extrp_arc"
       miter_limit="4"
       scale_width="1"
       end_linecap_type="zerowidth" /><inkscape:path-effect
       effect="fillet_chamfer"
       id="path-effect3427"
       is_visible="true"
       lpeversion="1"
       nodesatellites_param="F,0,0,1,0,0,0,1 @ F,0,0,1,0,0,0,1 @ F,0,0,1,0,0.5792208,0,1 @ F,0,0,1,0,0,0,1"
       unit="px"
       method="auto"
       mode="F"
       radius="0"
       chamfer_steps="1"
       flexible="false"
       use_knot_distance="true"
       apply_no_radius="true"
       apply_with_radius="true"
       only_selected="false"
       hide_knots="false" /><inkscape:path-effect
       effect="fillet_chamfer"
       id="path-effect3421"
       is_visible="true"
       lpeversion="1"
       nodesatellites_param="F,0,0,1,0,0,0,1 @ F,0,0,1,0,0,0,1 @ F,0,0,1,0,0.5792208,0,1 @ F,0,0,1,0,0,0,1"
       unit="px"
       method="auto"
       mode="F"
       radius="0"
       chamfer_steps="1"
       flexible="false"
       use_knot_distance="true"
       apply_no_radius="true"
       apply_with_radius="true"
       only_selected="false"
       hide_knots="false" /><inkscape:path-effect
       effect="fillet_chamfer"
       id="path-effect3413"
       is_visible="true"
       lpeversion="1"
       nodesatellites_param="F,0,0,1,0,0,0,1 @ F,0,0,1,0,0,0,1 @ F,0,0,1,0,0,0,1 @ F,0,0,1,0,0,0,1 @ F,0,0,1,0,0.68585269,0,1 @ F,0,0,1,0,0,0,1"
       unit="px"
       method="auto"
       mode="F"
       radius="0"
       chamfer_steps="1"
       flexible="false"
       use_knot_distance="true"
       apply_no_radius="true"
       apply_with_radius="true"
       only_selected="false"
       hide_knots="false" /><inkscape:path-effect
       effect="powerstroke"
       id="path-effect1497"
       is_visible="true"
       lpeversion="1"
       offset_points="0.24579726,0.88346674"
       not_jump="false"
       sort_points="true"
       interpolator_type="CubicBezierJohan"
       interpolator_beta="0.2"
       start_linecap_type="zerowidth"
       linejoin_type="extrp_arc"
       miter_limit="4"
       scale_width="1"
       end_linecap_type="zerowidth" /><inkscape:path-effect
       effect="powerstroke"
       id="path-effect406"
       is_visible="true"
       lpeversion="1"
       offset_points="0.24579726,0.88346674"
       not_jump="false"
       sort_points="true"
       interpolator_type="CubicBezierJohan"
       interpolator_beta="0.2"
       start_linecap_type="zerowidth"
       linejoin_type="extrp_arc"
       miter_limit="4"
       scale_width="1"
       end_linecap_type="zerowidth" /><inkscape:path-effect
       effect="skeletal"
       id="path-effect402"
       is_visible="true"
       lpeversion="1"
       pattern="M 0,4.9921381 C 0,2.2364779 2.2364779,0 4.9921381,0 c 2.7556603,0 4.9921381,2.2364779 4.9921381,4.9921381 0,2.7556603 -2.2364778,4.9921381 -4.9921381,4.9921381 C 2.2364779,9.9842762 0,7.7477984 0,4.9921381 Z"
       copytype="single_stretched"
       prop_scale="0.062908793"
       scale_y_rel="false"
       spacing="0"
       normal_offset="0"
       tang_offset="0"
       prop_units="false"
       vertical_pattern="false"
       hide_knot="false"
       fuse_tolerance="0" /><inkscape:path-effect
       effect="powerstroke"
       id="path-effect126865"
       is_visible="true"
       lpeversion="1"
       offset_points="0.36607912,0.65819441 | 0.7369579,1.5394423 | 0.91447105,0.73804339"
       not_jump="false"
       sort_points="true"
       interpolator_type="CentripetalCatmullRom"
       interpolator_beta="0.2"
       start_linecap_type="zerowidth"
       linejoin_type="round"
       miter_limit="4"
       scale_width="1"
       end_linecap_type="zerowidth" /><inkscape:path-effect
       effect="skeletal"
       id="path-effect114945"
       is_visible="true"
       lpeversion="1"
       pattern="M 0,4.9921381 C 0,2.2364779 2.2364779,0 4.9921381,0 c 2.7556603,0 4.9921381,2.2364779 4.9921381,4.9921381 0,2.7556603 -2.2364778,4.9921381 -4.9921381,4.9921381 C 2.2364779,9.9842762 0,7.7477984 0,4.9921381 Z"
       copytype="single_stretched"
       prop_scale="1"
       scale_y_rel="false"
       spacing="0"
       normal_offset="0"
       tang_offset="0"
       prop_units="false"
       vertical_pattern="false"
       hide_knot="false"
       fuse_tolerance="0" /><inkscape:path-effect
       effect="skeletal"
       id="path-effect95947"
       is_visible="true"
       lpeversion="1"
       pattern="M 0,4.9921381 C 0,2.2364779 2.2364779,0 4.9921381,0 c 2.7556603,0 4.9921381,2.2364779 4.9921381,4.9921381 0,2.7556603 -2.2364778,4.9921381 -4.9921381,4.9921381 C 2.2364779,9.9842762 0,7.7477984 0,4.9921381 Z"
       copytype="single_stretched"
       prop_scale="1"
       scale_y_rel="false"
       spacing="0"
       normal_offset="0"
       tang_offset="0"
       prop_units="false"
       vertical_pattern="false"
       hide_knot="false"
       fuse_tolerance="0" /><inkscape:path-effect
       effect="skeletal"
       id="path-effect91934"
       is_visible="true"
       lpeversion="1"
       pattern="M 0,4.9921381 C 0,2.2364779 2.2364779,0 4.9921381,0 c 2.7556603,0 4.9921381,2.2364779 4.9921381,4.9921381 0,2.7556603 -2.2364778,4.9921381 -4.9921381,4.9921381 C 2.2364779,9.9842762 0,7.7477984 0,4.9921381 Z"
       copytype="single_stretched"
       prop_scale="1"
       scale_y_rel="false"
       spacing="0"
       normal_offset="0"
       tang_offset="0"
       prop_units="false"
       vertical_pattern="false"
       hide_knot="false"
       fuse_tolerance="0" /><inkscape:path-effect
       effect="skeletal"
       id="path-effect91930"
       is_visible="true"
       lpeversion="1"
       pattern="M 0,4.9921381 C 0,2.2364779 2.2364779,0 4.9921381,0 c 2.7556603,0 4.9921381,2.2364779 4.9921381,4.9921381 0,2.7556603 -2.2364778,4.9921381 -4.9921381,4.9921381 C 2.2364779,9.9842762 0,7.7477984 0,4.9921381 Z"
       copytype="single_stretched"
       prop_scale="1"
       scale_y_rel="false"
       spacing="0"
       normal_offset="0"
       tang_offset="0"
       prop_units="false"
       vertical_pattern="false"
       hide_knot="false"
       fuse_tolerance="0" /><inkscape:path-effect
       effect="skeletal"
       id="path-effect91926"
       is_visible="true"
       lpeversion="1"
       pattern="M 0,4.9921381 C 0,2.2364779 2.2364779,0 4.9921381,0 c 2.7556603,0 4.9921381,2.2364779 4.9921381,4.9921381 0,2.7556603 -2.2364778,4.9921381 -4.9921381,4.9921381 C 2.2364779,9.9842762 0,7.7477984 0,4.9921381 Z"
       copytype="single_stretched"
       prop_scale="1"
       scale_y_rel="false"
       spacing="0"
       normal_offset="0"
       tang_offset="0"
       prop_units="false"
       vertical_pattern="false"
       hide_knot="false"
       fuse_tolerance="0" /><inkscape:path-effect
       effect="powerstroke"
       id="path-effect934"
       is_visible="true"
       lpeversion="1"
       offset_points="0.37452074,0.90707944 | 1.0183886,0.67753711 | 1.5465968,0.19104697"
       not_jump="false"
       sort_points="true"
       interpolator_type="CentripetalCatmullRom"
       interpolator_beta="0.2"
       start_linecap_type="zerowidth"
       linejoin_type="round"
       miter_limit="4"
       scale_width="1"
       end_linecap_type="zerowidth" /><inkscape:path-effect
       effect="powerstroke"
       id="path-effect1216"
       is_visible="true"
       lpeversion="1"
       offset_points="0.37452074,0.98301495 | 1.0183886,0.73425665 | 1.5465968,0.20704032"
       not_jump="false"
       sort_points="true"
       interpolator_type="CentripetalCatmullRom"
       interpolator_beta="0.2"
       start_linecap_type="zerowidth"
       linejoin_type="round"
       miter_limit="4"
       scale_width="1"
       end_linecap_type="zerowidth" /><inkscape:path-effect
       effect="powerstroke"
       id="path-effect1222"
       is_visible="true"
       lpeversion="1"
       offset_points="0.37452074,0.98301495 | 1.0183886,0.73425665 | 1.5465968,0.20704032"
       not_jump="false"
       sort_points="true"
       interpolator_type="CentripetalCatmullRom"
       interpolator_beta="0.2"
       start_linecap_type="zerowidth"
       linejoin_type="round"
       miter_limit="4"
       scale_width="1"
       end_linecap_type="zerowidth" /><inkscape:path-effect
       effect="powerstroke"
       id="path-effect1234"
       is_visible="true"
       lpeversion="1"
       offset_points="0.37452074,0.89858284 | 1.0183886,0.67119063 | 1.5465968,0.18925743"
       not_jump="false"
       sort_points="true"
       interpolator_type="CentripetalCatmullRom"
       interpolator_beta="0.2"
       start_linecap_type="zerowidth"
       linejoin_type="round"
       miter_limit="4"
       scale_width="1"
       end_linecap_type="zerowidth" /><inkscape:path-effect
       effect="powerstroke"
       id="path-effect1240"
       is_visible="true"
       lpeversion="1"
       offset_points="0.37452074,0.8291695 | 1.0183886,0.61934279 | 1.5465968,0.17463776"
       not_jump="false"
       sort_points="true"
       interpolator_type="CentripetalCatmullRom"
       interpolator_beta="0.2"
       start_linecap_type="zerowidth"
       linejoin_type="round"
       miter_limit="4"
       scale_width="1"
       end_linecap_type="zerowidth" /></defs><sodipodi:namedview
     id="base"
     pagecolor="#282828"
     bordercolor="#666666"
     borderopacity="1.0"
     inkscape:pageopacity="0"
     inkscape:pageshadow="2"
     inkscape:zoom="3.959798"
     inkscape:cx="-18.182746"
     inkscape:cy="66.796337"
     inkscape:document-units="mm"
     inkscape:current-layer="layer1"
     showgrid="true"
     inkscape:window-width="1920"
     inkscape:window-height="1022"
     inkscape:window-x="0"
     inkscape:window-y="30"
     inkscape:window-maximized="1"
     units="px"
     inkscape:snap-bbox="true"
     inkscape:bbox-nodes="true"
     inkscape:snap-page="true"
     inkscape:snap-nodes="true"
     inkscape:bbox-paths="false"
     inkscape:snap-global="false"
     inkscape:snap-bbox-midpoints="false"
     inkscape:snap-others="false"
     showguides="true"
     inkscape:guide-bbox="true"
     inkscape:snap-grids="false"
     inkscape:snap-to-guides="true"
     inkscape:pagecheckerboard="0"
     inkscape:object-paths="true"
     inkscape:snap-intersection-paths="true"
     inkscape:snap-smooth-nodes="true"
     inkscape:snap-midpoints="true"
     inkscape:showpageshadow="0"
     inkscape:deskcolor="#282828"><inkscape:grid
       type="xygrid"
       id="grid883"
       empspacing="4" /><sodipodi:guide
       position="33.866665,50.800001"
       orientation="1,0"
       id="guide877"
       inkscape:locked="false" /></sodipodi:namedview><metadata
     id="metadata1304"><rdf:RDF><cc:Work
         rdf:about=""><dc:format>image/svg+xml</dc:format><dc:type
           rdf:resource="http://purl.org/dc/dcmitype/StillImage" /></cc:Work></rdf:RDF></metadata><g
     inkscape:label="Layer 1"
     inkscape:groupmode="layer"
     id="layer1"
     transform="translate(0,-263.13332)"><g
       id="g8585"
       transform="translate(26.618162,-19.035095)"><rect
         style="fill:#e8b747;fill-opacity:1;stroke:none;stroke-width:0.399193;stroke-linecap:square;stroke-linejoin:bevel;stroke-miterlimit:4;stroke-dasharray:none;stroke-dashoffset:0;stroke-opacity:0.978723;paint-order:normal"
         id="rect8558"
         width="6.4051771"
         height="7.8129086"
         x="-6.678915"
         y="283.22675"
         ry="2.9210441" /><g
         id="g8574"
         transform="matrix(0.89586987,0,0,0.89586987,9.4071816,26.522089)"><path
           id="path8560"
           style="fill:#f2dfaf;fill-opacity:1;stroke:#f2c85e;stroke-width:0.201973;stroke-linecap:round;stroke-linejoin:round;stroke-dasharray:none;stroke-opacity:1;paint-order:fill markers stroke;stop-color:#000000"
           d="m -18.07564,294.15317 c 0.05102,0.0511 0.577505,0.17492 0.650403,0.15303 0.07286,-0.0218 1.101079,-1.3994 1.114002,-1.44249 0.01292,-0.043 -0.06034,-0.3543 -0.09051,-0.38447 -0.03015,-0.0302 -0.341378,-0.10349 -0.384504,-0.0904 -0.04304,0.0128 -1.420633,1.04111 -1.442492,1.11399 -0.02178,0.0729 0.102062,0.59937 0.153093,0.65039 z"
           sodipodi:nodetypes="sssssss" /><path
           id="path8562"
           style="fill:#f2dfaf;fill-opacity:1;stroke:#f2c85e;stroke-width:0.313385;stroke-linecap:round;stroke-linejoin:round;stroke-dasharray:none;stroke-opacity:1;paint-order:fill markers stroke;stop-color:#000000"
           d="m -13.991312,296.53206 c -0.111968,0 -0.825558,-0.44165 -0.881543,-0.54561 -0.05598,-0.10389 0.327308,-2.74343 0.360406,-2.80488 0.03309,-0.0613 0.454943,-0.32254 0.521137,-0.32254 0.0662,0 0.488042,0.26108 0.521138,0.32254 0.03309,0.0613 0.416391,2.70093 0.360406,2.80488 -0.05598,0.10402 -0.769574,0.54561 -0.881544,0.54561 z"
           sodipodi:nodetypes="sssssss" /><path
           id="path8564"
           style="fill:#f2dfaf;fill-opacity:1;stroke:#f2c85e;stroke-width:0.253935;stroke-linecap:round;stroke-linejoin:round;stroke-dasharray:none;stroke-opacity:1;paint-order:fill markers stroke;stop-color:#000000"
           d="m -10.834377,295.46196 c -0.07857,0.0454 -0.758259,0.0245 -0.839667,-0.0258 -0.08138,-0.0502 -0.881812,-2.05778 -0.883486,-2.11431 -0.0017,-0.0564 0.188573,-0.41065 0.235025,-0.43747 0.04645,-0.0269 0.448259,-0.0146 0.496381,0.0153 0.0481,0.0296 1.386478,1.72664 1.389307,1.82227 0.0027,0.0957 -0.318986,0.69468 -0.39756,0.74003 z"
           sodipodi:nodetypes="sssssss" /><path
           id="path8566"
           style="fill:#f2dfaf;fill-opacity:1;stroke:#f2c85e;stroke-width:0.253935;stroke-linecap:round;stroke-linejoin:round;stroke-dasharray:none;stroke-opacity:1;paint-order:fill markers stroke;stop-color:#000000"
           d="m -17.228163,295.46196 c 0.07857,0.0454 0.758259,0.0245 0.839667,-0.0258 0.08139,-0.0502 0.881813,-2.05778 0.883488,-2.11431 0.0017,-0.0564 -0.188575,-0.41065 -0.235026,-0.43747 -0.04645,-0.0269 -0.448259,-0.0146 -0.496381,0.0153 -0.0481,0.0296 -1.386478,1.72664 -1.389307,1.82227 -0.0027,0.0957 0.318986,0.69468 0.397559,0.74003 z"
           sodipodi:nodetypes="sssssss" /><path
           id="path8568"
           style="fill:#f2dfaf;fill-opacity:1;stroke:#f2c85e;stroke-width:0.253935;stroke-linecap:round;stroke-linejoin:round;stroke-dasharray:none;stroke-opacity:1;paint-order:fill markers stroke;stop-color:#000000"
           d="m -15.773868,295.87306 c 0.08765,0.0237 0.738772,-0.17255 0.804389,-0.24219 0.06561,-0.0695 0.31917,-2.21592 0.306157,-2.27094 -0.01303,-0.0549 -0.288434,-0.34787 -0.340245,-0.36174 -0.05183,-0.014 -0.436756,0.10192 -0.475508,0.14325 -0.03877,0.0411 -0.892346,2.02664 -0.870326,2.11975 0.02208,0.0931 0.487912,0.58845 0.575548,0.61193 z"
           sodipodi:nodetypes="sssssss" /><path
           id="path8570"
           style="fill:#f2dfaf;fill-opacity:1;stroke:#f2c85e;stroke-width:0.253935;stroke-linecap:round;stroke-linejoin:round;stroke-dasharray:none;stroke-opacity:1;paint-order:fill markers stroke;stop-color:#000000"
           d="m -12.237761,295.87306 c -0.08766,0.0237 -0.738772,-0.17255 -0.804389,-0.24219 -0.06561,-0.0695 -0.319169,-2.21592 -0.306156,-2.27094 0.01302,-0.0549 0.288433,-0.34787 0.340244,-0.36174 0.05183,-0.014 0.436757,0.10192 0.475508,0.14325 0.03877,0.0411 0.892346,2.02664 0.870327,2.11975 -0.02208,0.0931 -0.487913,0.58845 -0.575548,0.61193 z"
           sodipodi:nodetypes="sssssss" /><path
           id="path8572"
           style="fill:#f2dfaf;fill-opacity:1;stroke:#f2c85e;stroke-width:0.201973;stroke-linecap:round;stroke-linejoin:round;stroke-dasharray:none;stroke-opacity:1;paint-order:fill markers stroke;stop-color:#000000"
           d="m -9.8088585,294.15317 c -0.051015,0.0511 -0.5775045,0.17492 -0.6504025,0.15303 -0.07286,-0.0218 -1.10108,-1.3994 -1.114003,-1.44249 -0.01292,-0.043 0.06034,-0.3543 0.09051,-0.38447 0.03015,-0.0302 0.341379,-0.10349 0.384505,-0.0904 0.04304,0.0128 1.4206325,1.04111 1.4424917,1.11399 0.021777,0.0729 -0.1020621,0.59937 -0.1530932,0.65039 z"
           sodipodi:nodetypes="sssssss" /></g></g><path
       id="path8418"
       style="fill:#c99f35;fill-opacity:1;stroke-width:0.339838;stroke-linecap:round;stroke-linejoin:round;paint-order:fill markers stroke;stop-color:#000000"
       inkscape:transform-center-y="0.2075678"
       d="m 9.7895517,272.94459 c -1.7256391,0 -7.5574026,-1.90417 -6.4494068,-2.50434 1.1079969,-0.60019 9.9719671,-0.60019 11.0799651,0 1.107997,0.60017 -2.904919,2.50434 -4.6305583,2.50434 z"
       sodipodi:nodetypes="zssz" /><rect
       style="fill:#c2c2d1;fill-opacity:1;stroke:none;stroke-width:0.400568;stroke-linecap:square;stroke-linejoin:bevel;stroke-miterlimit:4;stroke-dasharray:none;stroke-dashoffset:0;stroke-opacity:0.978723;paint-order:normal"
       id="rect144670"
       width="1.9725975"
       height="4.9062042"
       x="24.341389"
       y="280.06592"
       ry="0.98629898" /><rect
       ry="0.98629898"
       y="273.99942"
       x="24.341373"
       height="4.9062042"
       width="1.9725975"
       id="rect144623"
       style="fill:#c2c2d1;fill-opacity:1;stroke:none;stroke-width:0.400568;stroke-linecap:square;stroke-linejoin:bevel;stroke-miterlimit:4;stroke-dasharray:none;stroke-dashoffset:0;stroke-opacity:0.978723;paint-order:normal" /><rect
       transform="scale(-1,1)"
       style="fill:#7e7e8f;fill-opacity:1;stroke:none;stroke-width:0.400568;stroke-linecap:square;stroke-linejoin:bevel;stroke-miterlimit:4;stroke-dasharray:none;stroke-dashoffset:0;stroke-opacity:0.978723;paint-order:normal"
       id="rect144625"
       width="1.9725975"
       height="4.9062042"
       x="-29.527908"
       y="274.04666"
       ry="0.98629898" /><rect
       ry="0.98629898"
       y="280.06592"
       x="27.516375"
       height="4.9062042"
       width="1.9725975"
       id="rect144682"
       style="fill:#7e7e8f;fill-opacity:1;stroke:none;stroke-width:0.400568;stroke-linecap:square;stroke-linejoin:bevel;stroke-miterlimit:4;stroke-dasharray:none;stroke-dashoffset:0;stroke-opacity:0.978723;paint-order:normal" /><path
       style="color:#000000;fill:#c2c2d1;fill-opacity:1;stroke-linecap:round;-inkscape-stroke:none"
       d="m 18.140625,286.45898 a 0.20022494,0.20022494 0 0 0 -0.138672,0.2461 0.20022494,0.20022494 0 0 0 0.248047,0.13867 c 0.161389,-0.0456 0.321057,-0.0433 0.515625,0.043 0.194568,0.0863 0.423648,0.26465 0.679687,0.58008 0.512079,0.63085 1.121973,1.80432 1.820313,3.77734 0.720992,2.037 2.061198,3.06192 3.212891,3.56055 1.151692,0.49863 2.132812,0.48437 2.132812,0.48437 a 0.20022494,0.20022494 0 0 0 0.197266,-0.20312 0.20022494,0.20022494 0 0 0 -0.203125,-0.19727 c 0,0 -0.892971,0.0138 -1.966797,-0.45117 -1.073826,-0.46492 -2.310745,-1.39734 -2.994141,-3.32813 -0.706047,-1.99479 -1.322995,-3.19764 -1.888672,-3.89453 -0.282838,-0.34844 -0.555293,-0.5724 -0.828125,-0.69336 -0.272831,-0.12095 -0.545791,-0.13073 -0.787109,-0.0625 z"
       id="path870" /><g
       id="g12926"
       transform="translate(31.99447,-14.877684)"><path
         id="path12920"
         style="fill:#c99f35;fill-opacity:1;stroke-width:0.400568;stroke-linecap:square;stroke-linejoin:bevel;stroke-opacity:0.978723"
         d="m -3.4502883,290.83699 c -0.5464075,-1e-5 -0.9863013,0.43989 -0.9862988,0.9863 l -1.4e-6,1.02096 c 2.5e-6,0.54641 0.4398922,0.98629 0.9862997,0.9863 0.5464117,-1e-5 0.9863013,-0.43989 0.9862989,-0.9863 l 1.3e-6,-1.02096 c -2.5e-6,-0.54641 -0.439893,-0.9863 -0.9862997,-0.9863 z"
         sodipodi:nodetypes="sssssss" /><rect
         style="fill:#c99f35;fill-opacity:1;stroke-width:1.5875;stroke-linecap:round;stroke-linejoin:round;paint-order:fill markers stroke"
         id="rect12922"
         width="3.1518991"
         height="1.5516728"
         x="1.8173785"
         y="290.9585"
         ry="0.77583641"
         transform="scale(-1,1)" /></g><path
       id="path12938"
       style="fill:#f2c85e;fill-opacity:1;stroke-width:0.400568;stroke-linecap:square;stroke-linejoin:bevel;stroke-opacity:0.978723"
       d="m 25.326626,275.91206 c 0.546412,0 0.986301,0.43989 0.986299,0.9863 l 1e-6,1.02096 c -2e-6,0.5464 -0.439892,0.98629 -0.9863,0.9863 -0.546406,0 -0.986301,-0.4399 -0.986298,-0.9863 l -2e-6,-1.02097 c 3e-6,-0.5464 0.439893,-0.98629 0.9863,-0.98629 z"
       sodipodi:nodetypes="sssssss" /><rect
       style="fill:#f2c85e;fill-opacity:1;stroke-width:1.5875;stroke-linecap:round;stroke-linejoin:round;paint-order:fill markers stroke"
       id="rect12940"
       width="3.1518991"
       height="1.5516728"
       x="23.767139"
       y="275.99115"
       ry="0.77583641" /><path
       id="path13051"
       style="fill:#e8b747;fill-opacity:1;stroke-width:0.400568;stroke-linecap:square;stroke-linejoin:bevel;stroke-opacity:0.978723"
       d="m 25.327688,282.75854 c 0.546409,0 0.986298,0.43989 0.986298,0.9863 v 0.24099 c 0,0.54641 -0.439889,0.98629 -0.986298,0.98629 -0.54641,0 -0.986299,-0.43988 -0.986299,-0.98629 v -0.24099 c 0,-0.54641 0.439889,-0.9863 0.986299,-0.9863 z"
       sodipodi:nodetypes="sssssss" /><rect
       style="fill:#e8b747;fill-opacity:1;stroke-width:1.5875;stroke-linecap:round;stroke-linejoin:round;paint-order:fill markers stroke"
       id="rect13053"
       width="2.3585112"
       height="0.83309937"
       x="24.148432"
       y="282.75854"
       ry="0.41654569" /><g
       id="g13068"
       transform="translate(31.371592,-11.330248)"><rect
         style="fill:#c99f35;fill-opacity:1;stroke-width:1.5875;stroke-linecap:round;stroke-linejoin:round;paint-order:fill markers stroke"
         id="rect13062"
         width="2.3585112"
         height="0.83309937"
         x="-4.0481744"
         y="294.08881"
         ry="0.41654569" /><path
         id="path13064"
         style="fill:#c99f35;fill-opacity:1;stroke-width:0.400568;stroke-linecap:square;stroke-linejoin:bevel;stroke-opacity:0.978723"
         d="m -2.868918,294.08879 c 0.546409,0 0.986298,0.43989 0.986298,0.9863 v 0.24099 c 0,0.54641 -0.439889,0.98629 -0.986298,0.98629 -0.54641,0 -0.986299,-0.43988 -0.986299,-0.98629 v -0.24099 c 0,-0.54641 0.439889,-0.9863 0.986299,-0.9863 z"
         sodipodi:nodetypes="sssssss" /></g><rect
       ry="0.98291427"
       y="292.95258"
       x="-13.554028"
       height="4.8893676"
       width="1.9658279"
       id="rect1181-3"
       style="fill:#7e7e8f;fill-opacity:1;stroke:none;stroke-width:0.399193;stroke-linecap:square;stroke-linejoin:bevel;stroke-miterlimit:4;stroke-dasharray:none;stroke-dashoffset:0;stroke-opacity:0.978723;paint-order:normal" /><rect
       style="fill:#c99f35;fill-opacity:1;stroke-width:1.58205;stroke-linecap:round;stroke-linejoin:round;paint-order:fill markers stroke"
       id="rect3127"
       width="2.3504174"
       height="0.83024037"
       x="-13.746321"
       y="295.63599"
       ry="0.41511622" /><rect
       style="fill:#c2c2d1;fill-opacity:1;stroke:none;stroke-width:0.399193;stroke-linecap:square;stroke-linejoin:bevel;stroke-miterlimit:4;stroke-dasharray:none;stroke-dashoffset:0;stroke-opacity:0.978723;paint-order:normal"
       id="rect140737-0"
       width="1.9658279"
       height="4.8893676"
       x="-16.578382"
       y="292.95258"
       ry="0.98291427" /><path
       id="rect2411"
       style="fill:#e8b747;fill-opacity:1;stroke-width:0.399193;stroke-linecap:square;stroke-linejoin:bevel;stroke-opacity:0.978723"
       d="m -15.595468,295.63596 c 0.544533,0 0.982913,0.43837 0.982913,0.98291 v 0.24016 c 0,0.54453 -0.43838,0.98291 -0.982913,0.98291 -0.544535,0 -0.982915,-0.43838 -0.982915,-0.98291 v -0.24016 c 0,-0.54454 0.43838,-0.98291 0.982915,-0.98291 z"
       sodipodi:nodetypes="sssssss" /><path
       style="fill:none;stroke:#c2c2d1;stroke-width:0.399193;stroke-linecap:round;stroke-linejoin:miter;stroke-miterlimit:4;stroke-dasharray:none;stroke-opacity:1"
       d="m -15.2363,292.91161 c 0,0 -3.737091,0.0566 -5.137077,-3.89872 -1.399985,-3.95536 -2.447301,-4.73834 -3.25019,-4.51133"
       id="path1179-5"
       inkscape:connector-curvature="0"
       inkscape:transform-center-x="31.376121"
       inkscape:transform-center-y="-50.530738" /><rect
       transform="matrix(-0.86602541,0.49999998,0.49999998,0.86602541,0,0)"
       style="fill:#7e7e8f;fill-opacity:1;stroke:none;stroke-width:0.399193;stroke-linecap:square;stroke-linejoin:bevel;stroke-miterlimit:4;stroke-dasharray:none;stroke-dashoffset:0;stroke-opacity:0.978723;paint-order:normal"
       id="rect1183-8"
       width="1.9658279"
       height="4.8893671"
       x="154.5482"
       y="244.37309"
       ry="0.98291421" /><rect
       ry="0.98291427"
       y="244.37309"
       x="154.54822"
       height="4.8893676"
       width="1.9658279"
       id="rect2623"
       style="fill:#c2c2d1;fill-opacity:1;stroke:none;stroke-width:0.399193;stroke-linecap:square;stroke-linejoin:bevel;stroke-miterlimit:4;stroke-dasharray:none;stroke-dashoffset:0;stroke-opacity:0.978723;paint-order:normal"
       transform="matrix(-0.8660254,0.5,0.5,0.8660254,0,0)" /><path
       id="path2625"
       style="fill:#c99f35;fill-opacity:1;stroke-width:0.399193;stroke-linecap:square;stroke-linejoin:bevel;stroke-opacity:0.978723"
       d="m -11.55433,291.04958 c -0.471581,0.27226 -0.632038,0.87111 -0.359771,1.34268 l 0.508729,0.88115 c 0.272267,0.47158 0.871104,0.63203 1.342686,0.35977 0.4715797,-0.27227 0.6320377,-0.87111 0.3597707,-1.34269 l -0.5087287,-0.88114 c -0.272267,-0.47158 -0.871106,-0.63204 -1.342686,-0.35977 z"
       sodipodi:nodetypes="sssssss" /><rect
       style="fill:#c99f35;fill-opacity:1;stroke-width:1.58205;stroke-linecap:round;stroke-linejoin:round;paint-order:fill markers stroke"
       id="rect3107"
       width="3.1410825"
       height="1.5463479"
       x="153.90382"
       y="246.40022"
       ry="0.77317393"
       transform="matrix(-0.8660254,0.5,0.5,0.8660254,0,0)" /><path
       id="rect3247"
       style="fill:#d6a839;fill-opacity:1;stroke-width:1.57605;stroke-linecap:round;stroke-linejoin:round;paint-order:fill markers stroke"
       d="m -10.941142,282.25598 -0.917878,3.10381 c -0.11955,0.40426 -0.545838,0.6506 -0.955792,0.55233 l -0.533506,-0.12789 c -0.409953,-0.0983 -0.643748,-0.50285 -0.524197,-0.90711 l 0.917878,-3.10381 c 0.119551,-0.40427 0.545835,-0.65059 0.955789,-0.55232 l 0.533506,0.12789 c 0.409954,0.0983 0.643751,0.50284 0.5242,0.9071 z" /><rect
       ry="0.98291421"
       y="258.6832"
       x="129.76236"
       height="4.8893671"
       width="1.9658279"
       id="rect1203-5"
       style="fill:#c2c2d1;fill-opacity:1;stroke:none;stroke-width:0.399193;stroke-linecap:square;stroke-linejoin:bevel;stroke-miterlimit:4;stroke-dasharray:none;stroke-dashoffset:0;stroke-opacity:0.978723;paint-order:normal"
       transform="rotate(29.999999)" /><rect
       style="fill:#e8b747;fill-opacity:1;stroke-width:1.58205;stroke-linecap:round;stroke-linejoin:round;paint-order:fill markers stroke"
       id="rect3125"
       width="2.3504174"
       height="0.83024037"
       x="-16.770678"
       y="295.63599"
       ry="0.41511622" /><path
       id="path2483"
       style="fill:#c99f35;fill-opacity:1;stroke-width:0.399193;stroke-linecap:square;stroke-linejoin:bevel;stroke-opacity:0.978723"
       d="m -12.571112,295.63596 c 0.544534,0 0.982913,0.43837 0.982913,0.98291 v 0.24016 c 0,0.54453 -0.438379,0.98291 -0.982913,0.98291 -0.544535,0 -0.982914,-0.43838 -0.982914,-0.98291 v -0.24016 c 0,-0.54454 0.438379,-0.98291 0.982914,-0.98291 z"
       sodipodi:nodetypes="sssssss" /><rect
       style="fill:#e8b747;fill-opacity:1;stroke:none;stroke-width:0.399193;stroke-linecap:square;stroke-linejoin:bevel;stroke-miterlimit:4;stroke-dasharray:none;stroke-dashoffset:0;stroke-opacity:0.978723;paint-order:normal"
       id="rect1187-9"
       width="6.4051771"
       height="7.8129086"
       x="-17.537905"
       y="287.50876"
       ry="2.9210441" /><g
       id="g7822"
       transform="matrix(0.89586987,0,0,0.89586987,-1.4518082,30.804097)"><path
         id="path7813"
         style="fill:#f2dfaf;fill-opacity:1;stroke:#f2c85e;stroke-width:0.201973;stroke-linecap:round;stroke-linejoin:round;stroke-dasharray:none;stroke-opacity:1;paint-order:fill markers stroke;stop-color:#000000"
         d="m -18.07564,294.15317 c 0.05102,0.0511 0.577505,0.17492 0.650403,0.15303 0.07286,-0.0218 1.101079,-1.3994 1.114002,-1.44249 0.01292,-0.043 -0.06034,-0.3543 -0.09051,-0.38447 -0.03015,-0.0302 -0.341378,-0.10349 -0.384504,-0.0904 -0.04304,0.0128 -1.420633,1.04111 -1.442492,1.11399 -0.02178,0.0729 0.102062,0.59937 0.153093,0.65039 z"
         sodipodi:nodetypes="sssssss" /><path
         id="path6958"
         style="fill:#f2dfaf;fill-opacity:1;stroke:#f2c85e;stroke-width:0.313385;stroke-linecap:round;stroke-linejoin:round;stroke-dasharray:none;stroke-opacity:1;paint-order:fill markers stroke;stop-color:#000000"
         d="m -13.991312,296.53206 c -0.111968,0 -0.825558,-0.44165 -0.881543,-0.54561 -0.05598,-0.10389 0.327308,-2.74343 0.360406,-2.80488 0.03309,-0.0613 0.454943,-0.32254 0.521137,-0.32254 0.0662,0 0.488042,0.26108 0.521138,0.32254 0.03309,0.0613 0.416391,2.70093 0.360406,2.80488 -0.05598,0.10402 -0.769574,0.54561 -0.881544,0.54561 z"
         sodipodi:nodetypes="sssssss" /><path
         id="path7791"
         style="fill:#f2dfaf;fill-opacity:1;stroke:#f2c85e;stroke-width:0.253935;stroke-linecap:round;stroke-linejoin:round;stroke-dasharray:none;stroke-opacity:1;paint-order:fill markers stroke;stop-color:#000000"
         d="m -10.834377,295.46196 c -0.07857,0.0454 -0.758259,0.0245 -0.839667,-0.0258 -0.08138,-0.0502 -0.881812,-2.05778 -0.883486,-2.11431 -0.0017,-0.0564 0.188573,-0.41065 0.235025,-0.43747 0.04645,-0.0269 0.448259,-0.0146 0.496381,0.0153 0.0481,0.0296 1.386478,1.72664 1.389307,1.82227 0.0027,0.0957 -0.318986,0.69468 -0.39756,0.74003 z"
         sodipodi:nodetypes="sssssss" /><path
         id="path7793"
         style="fill:#f2dfaf;fill-opacity:1;stroke:#f2c85e;stroke-width:0.253935;stroke-linecap:round;stroke-linejoin:round;stroke-dasharray:none;stroke-opacity:1;paint-order:fill markers stroke;stop-color:#000000"
         d="m -17.228163,295.46196 c 0.07857,0.0454 0.758259,0.0245 0.839667,-0.0258 0.08139,-0.0502 0.881813,-2.05778 0.883488,-2.11431 0.0017,-0.0564 -0.188575,-0.41065 -0.235026,-0.43747 -0.04645,-0.0269 -0.448259,-0.0146 -0.496381,0.0153 -0.0481,0.0296 -1.386478,1.72664 -1.389307,1.82227 -0.0027,0.0957 0.318986,0.69468 0.397559,0.74003 z"
         sodipodi:nodetypes="sssssss" /><path
         id="path7795"
         style="fill:#f2dfaf;fill-opacity:1;stroke:#f2c85e;stroke-width:0.253935;stroke-linecap:round;stroke-linejoin:round;stroke-dasharray:none;stroke-opacity:1;paint-order:fill markers stroke;stop-color:#000000"
         d="m -15.773868,295.87306 c 0.08765,0.0237 0.738772,-0.17255 0.804389,-0.24219 0.06561,-0.0695 0.31917,-2.21592 0.306157,-2.27094 -0.01303,-0.0549 -0.288434,-0.34787 -0.340245,-0.36174 -0.05183,-0.014 -0.436756,0.10192 -0.475508,0.14325 -0.03877,0.0411 -0.892346,2.02664 -0.870326,2.11975 0.02208,0.0931 0.487912,0.58845 0.575548,0.61193 z"
         sodipodi:nodetypes="sssssss" /><path
         id="path7797"
         style="fill:#f2dfaf;fill-opacity:1;stroke:#f2c85e;stroke-width:0.253935;stroke-linecap:round;stroke-linejoin:round;stroke-dasharray:none;stroke-opacity:1;paint-order:fill markers stroke;stop-color:#000000"
         d="m -12.237761,295.87306 c -0.08766,0.0237 -0.738772,-0.17255 -0.804389,-0.24219 -0.06561,-0.0695 -0.319169,-2.21592 -0.306156,-2.27094 0.01302,-0.0549 0.288433,-0.34787 0.340244,-0.36174 0.05183,-0.014 0.436757,0.10192 0.475508,0.14325 0.03877,0.0411 0.892346,2.02664 0.870327,2.11975 -0.02208,0.0931 -0.487913,0.58845 -0.575548,0.61193 z"
         sodipodi:nodetypes="sssssss" /><path
         id="path7811"
         style="fill:#f2dfaf;fill-opacity:1;stroke:#f2c85e;stroke-width:0.201973;stroke-linecap:round;stroke-linejoin:round;stroke-dasharray:none;stroke-opacity:1;paint-order:fill markers stroke;stop-color:#000000"
         d="m -9.8088585,294.15317 c -0.051015,0.0511 -0.5775045,0.17492 -0.6504025,0.15303 -0.07286,-0.0218 -1.10108,-1.3994 -1.114003,-1.44249 -0.01292,-0.043 0.06034,-0.3543 0.09051,-0.38447 0.03015,-0.0302 0.341379,-0.10349 0.384505,-0.0904 0.04304,0.0128 1.4206325,1.04111 1.4424917,1.11399 0.021777,0.0729 -0.1020621,0.59937 -0.1530932,0.65039 z"
         sodipodi:nodetypes="sssssss" /></g><rect
       ry="0.98291427"
       y="258.6832"
       x="129.76236"
       height="4.8893676"
       width="1.9658279"
       id="rect2103"
       style="fill:#c2c2d1;fill-opacity:1;stroke:none;stroke-width:0.399193;stroke-linecap:square;stroke-linejoin:bevel;stroke-miterlimit:4;stroke-dasharray:none;stroke-dashoffset:0;stroke-opacity:0.978723;paint-order:normal"
       transform="rotate(30)" /><path
       id="path2188"
       style="fill:#f2c85e;fill-opacity:1;stroke-width:0.378727;stroke-linecap:round;stroke-linejoin:round;paint-order:fill markers stroke;stop-color:#000000"
       inkscape:transform-center-y="0.27386251"
       d="m -13.194047,292.45355 c -1.624387,0 -7.113971,-2.51232 -6.070987,-3.30418 1.042985,-0.79187 9.3868611,-0.79187 10.4298467,0 1.0429846,0.79186 -2.7344717,3.30418 -4.3588597,3.30418 z"
       sodipodi:nodetypes="zssz" /><path
       id="rect2105"
       style="fill:#f2c85e;fill-opacity:1;stroke-width:0.399193;stroke-linecap:square;stroke-linejoin:bevel;stroke-opacity:0.978723"
       d="m -17.065906,291.04958 c 0.471581,0.27227 0.632039,0.87111 0.359771,1.34268 l -0.508728,0.88115 c -0.272267,0.47158 -0.871105,0.63203 -1.342687,0.35977 -0.47158,-0.27226 -0.632038,-0.87111 -0.35977,-1.34269 l 0.508728,-0.88114 c 0.272267,-0.47158 0.871106,-0.63204 1.342686,-0.35977 z"
       sodipodi:nodetypes="sssssss" /><rect
       style="fill:#f2c85e;fill-opacity:1;stroke-width:1.58205;stroke-linecap:round;stroke-linejoin:round;paint-order:fill markers stroke"
       id="rect2967"
       width="3.1410825"
       height="1.5463479"
       x="129.19115"
       y="260.66809"
       ry="0.77317393"
       transform="rotate(30)" /><g
       id="g8360"><g
         id="g6203"><circle
           style="fill:#c2c2d1;fill-opacity:1;stroke:none;stroke-width:0.399194;stroke-linecap:square;stroke-linejoin:bevel;stroke-miterlimit:4;stroke-dasharray:none;stroke-dashoffset:0;stroke-opacity:0.978723;paint-order:normal"
           id="circle1195-7"
           cx="-11.680403"
           cy="282.21616"
           r="3.5284107" /><circle
           r="2.3235874"
           cy="282.21616"
           cx="-11.680403"
           id="circle1197-2"
           style="fill:#a191a1;fill-opacity:1;stroke:none;stroke-width:0.399194;stroke-linecap:square;stroke-linejoin:bevel;stroke-miterlimit:4;stroke-dasharray:none;stroke-dashoffset:0;stroke-opacity:0.978723;paint-order:normal" /></g><g
         id="g8347"><circle
           r="3.5284107"
           cy="282.21616"
           cx="-17.645506"
           id="circle1189-3"
           style="fill:#c2c2d1;fill-opacity:1;stroke:none;stroke-width:0.399194;stroke-linecap:square;stroke-linejoin:bevel;stroke-miterlimit:4;stroke-dasharray:none;stroke-dashoffset:0;stroke-opacity:0.978723;paint-order:normal" /><circle
           style="fill:#a191a1;fill-opacity:1;stroke:none;stroke-width:0.399194;stroke-linecap:square;stroke-linejoin:bevel;stroke-miterlimit:4;stroke-dasharray:none;stroke-dashoffset:0;stroke-opacity:0.978723;paint-order:normal"
           id="circle1191-0"
           cx="-17.645506"
           cy="282.21616"
           r="2.3235874" /></g><g
         id="g6199"><rect
           style="fill:#c2c2d1;fill-opacity:1;stroke:none;stroke-width:0.399193;stroke-linecap:square;stroke-linejoin:bevel;stroke-miterlimit:4;stroke-dasharray:none;stroke-dashoffset:0;stroke-opacity:0.978723;paint-order:normal"
           id="rect1205-1"
           width="8.8714314"
           height="8.8714314"
           x="-18.594614"
           y="280.90561"
           ry="3.6292224" /><circle
           style="fill:#3e2347;fill-opacity:1;stroke:none;stroke-width:0.399193;stroke-linecap:square;stroke-linejoin:bevel;stroke-miterlimit:4;stroke-dasharray:none;stroke-dashoffset:0;stroke-opacity:0.978723;paint-order:normal"
           id="circle1207-1"
           cx="-15.358009"
           cy="286.1102"
           r="0.64156169" /><circle
           r="0.64156169"
           cy="286.1102"
           cx="-10.938351"
           id="circle1209-0"
           style="fill:#3e2347;fill-opacity:1;stroke:none;stroke-width:0.399193;stroke-linecap:square;stroke-linejoin:bevel;stroke-miterlimit:4;stroke-dasharray:none;stroke-dashoffset:0;stroke-opacity:0.978723;paint-order:normal" /><path
           sodipodi:type="star"
           style="fill:#3e2347;fill-opacity:1;stroke:none;stroke-width:2.36253;stroke-linecap:square;stroke-linejoin:bevel;stroke-miterlimit:4;stroke-dasharray:none;stroke-dashoffset:0;stroke-opacity:0.978723;paint-order:normal"
           id="path1211-5"
           sodipodi:sides="3"
           sodipodi:cx="-45.408615"
           sodipodi:cy="234.57965"
           sodipodi:r1="2.997191"
           sodipodi:r2="1.4985955"
           sodipodi:arg1="1.5707963"
           sodipodi:arg2="2.6179939"
           inkscape:flatsided="true"
           inkscape:rounded="0.18"
           inkscape:randomized="0"
           inkscape:transform-center-x="-6.3665075e-06"
           inkscape:transform-center-y="1.0312406"
           d="m -45.408615,237.57684 c -0.934432,0 -3.062859,-3.68654 -2.595644,-4.49578 0.467216,-0.80925 4.724071,-0.80925 5.191287,0 0.467216,0.80924 -1.661211,4.49578 -2.595643,4.49578 z"
           transform="matrix(0.1689686,0,0,0.1689686,-4.9052707,247.82798)" /></g></g><g
       id="g8332"><g
         id="g4367"
         transform="matrix(1.4000163,0,0,1.4000163,13.017957,-89.897167)"><path
           id="path4224"
           style="fill:#e8b747;fill-opacity:1;stroke:none;stroke-width:0.625357;stroke-linecap:round;stroke-dasharray:none;stroke-opacity:1;paint-order:fill markers stroke;stop-color:#000000"
           d="m -23.845462,265.62338 a 1.1746904,1.1746904 0 0 0 -0.01411,0.65404 1.1746904,1.1746904 0 0 0 1.438688,0.83063 1.1746904,1.1746904 0 0 0 0.784762,-0.69553 1.7084471,1.7084471 0 0 1 -0.245262,0.0863 1.7084471,1.7084471 0 0 1 -1.964074,-0.87541 z" /><path
           id="path4153"
           style="fill:#f2c85e;fill-opacity:1;stroke:none;stroke-width:0.887003;stroke-linecap:round;stroke-dasharray:none;stroke-opacity:1;paint-order:fill markers stroke;stop-color:#000000"
           d="m -23.731612,264.64566 a 1.6661745,1.6661745 0 0 0 -0.02001,0.9277 1.6661745,1.6661745 0 0 0 2.040627,1.17815 1.6661745,1.6661745 0 0 0 1.113102,-0.98654 2.423252,2.423252 0 0 1 -0.347879,0.12241 2.423252,2.423252 0 0 1 -2.785832,-1.24168 z" /><path
           id="path2913"
           style="fill:#f2dfaf;fill-opacity:1;stroke:none;stroke-width:1.05833;stroke-linecap:round;stroke-dasharray:none;stroke-opacity:1;paint-order:fill markers stroke;stop-color:#000000"
           d="m -23.196815,263.36321 a 1.9880006,1.9880006 0 0 0 -0.30954,1.063 1.9880006,1.9880006 0 0 0 1.987991,1.98798 1.9880006,1.9880006 0 0 0 1.5875,-0.79324 2.8913097,2.8913097 0 0 1 -0.438731,0.0336 2.8913097,2.8913097 0 0 1 -2.827218,-2.29133 z" /></g><g
         id="g8301"><path
           id="path4369"
           style="fill:#e8b747;fill-opacity:1;stroke:none;stroke-width:0.87551;stroke-linecap:round;stroke-dasharray:none;stroke-opacity:1;paint-order:fill markers stroke;stop-color:#000000"
           d="m -7.8960955,281.77139 a 1.6445857,1.6445857 0 0 1 0.019754,0.91566 1.6445857,1.6445857 0 0 1 -2.0141866,1.1629 1.6445857,1.6445857 0 0 1 -1.0986799,-0.97375 2.3918538,2.3918538 0 0 0 0.343371,0.12082 2.3918538,2.3918538 0 0 0 2.7497357,-1.22559 z" /><path
           id="path4371"
           style="fill:#f2c85e;fill-opacity:1;stroke:none;stroke-width:1.24182;stroke-linecap:round;stroke-dasharray:none;stroke-opacity:1;paint-order:fill markers stroke;stop-color:#000000"
           d="m -8.0554874,280.40256 a 2.3326715,2.3326715 0 0 1 0.028014,1.2988 2.3326715,2.3326715 0 0 1 -2.8569106,1.64943 2.3326715,2.3326715 0 0 1 -1.558361,-1.38117 3.3925923,3.3925923 0 0 0 0.487036,0.17137 3.3925923,3.3925923 0 0 0 3.90021,-1.73837 z" /><path
           id="path4373"
           style="fill:#f2dfaf;fill-opacity:1;stroke:none;stroke-width:1.48168;stroke-linecap:round;stroke-dasharray:none;stroke-opacity:1;paint-order:fill markers stroke;stop-color:#000000"
           d="m -8.8042119,278.60711 a 2.7832332,2.7832332 0 0 1 0.4333611,1.48822 2.7832332,2.7832332 0 0 1 -2.7832202,2.7832 2.7832332,2.7832332 0 0 1 -2.222526,-1.11054 4.0478807,4.0478807 0 0 0 0.614231,0.047 4.0478807,4.0478807 0 0 0 3.9581513,-3.2079 z" /></g><path
         id="path767"
         style="fill:#e8b747;fill-opacity:1;stroke:none;stroke-width:0.399193;stroke-linecap:square;stroke-linejoin:bevel;stroke-miterlimit:4;stroke-dasharray:none;stroke-dashoffset:0;stroke-opacity:0.978723;paint-order:normal"
         d="m -14.965459,280.90544 c -2.010584,0 -3.629141,1.61855 -3.629141,3.62914 v 1.61346 c 0,1.82442 1.332695,3.32601 3.081706,3.58846 -0.388327,-0.37095 -0.629318,-0.89404 -0.629318,-1.47596 v -0.80751 c 0,-0.0985 0.0073,-0.19525 0.0206,-0.28994 -0.820777,-0.1985 -1.427041,-0.93496 -1.427041,-1.81843 0,-1.03673 0.834751,-1.87097 1.871478,-1.87097 h 4.204901 c 0.801308,0 1.481143,0.49839 1.74891,1.20354 v -0.14265 c 0,-2.01059 -1.618556,-3.62914 -3.629142,-3.62914 z m 5.242093,5.10665 c -0.198261,0.5221 -0.622799,0.93065 -1.155125,1.10774 0.01767,0.1084 0.02678,0.21966 0.02678,0.3332 v 0.80751 c 0,0.21075 -0.03183,0.41365 -0.09064,0.6046 0.748557,-0.66389 1.218984,-1.63327 1.218984,-2.7171 z" /><path
         id="path4514"
         style="color:#000000;fill:#f2c85e;stroke-linecap:round;stroke-linejoin:round;paint-order:fill markers stroke"
         class="UnoptimicedTransforms"
         d="m -68.177858,-4.1194735 c -0.02463,0.010232 -0.04866,0.020547 -0.0733,0.030751 -1.563524,0.647633 -3.159708,1.2413523 -4.43248,1.6527463 -0.493492,0.1595097 -0.986356,0.2875882 -1.38131,0.3783928 -0.287397,0.066076 -0.442698,0.098152 -0.619648,0.1392929 -0.176509,-0.041076 -0.331399,-0.073285 -0.615436,-0.1383061 -0.396199,-0.090696 -0.891928,-0.216956 -1.388053,-0.3773168 -1.272286,-0.4112367 -2.866965,-1.0101772 -4.430806,-1.6579415 -1.563548,-0.6476426 -3.113114,-1.3491958 -4.303956,-1.95826 -0.463949,-0.2372894 -0.904541,-0.5015678 -1.249072,-0.717204 -0.248107,-0.1552865 -0.378898,-0.2437164 -0.533182,-0.3394639 -0.09632,-0.1543751 -0.183133,-0.2862474 -0.339636,-0.5355951 -0.215739,-0.3437268 -0.481261,-0.7826431 -0.717605,-1.2447422 -0.608899,-1.1905179 -1.312852,-2.7395539 -1.96059,-4.3033259 -0.647407,-1.562983 -1.239071,-3.154104 -1.650696,-4.427594 -0.15951,-0.493492 -0.282701,-0.988406 -0.373506,-1.38336 -0.06588,-0.286537 -0.09832,-0.443152 -0.139293,-0.619648 0.04142,-0.177701 0.07286,-0.329256 0.138306,-0.615436 0.09069,-0.39659 0.214941,-0.896923 0.375267,-1.392939 0.411392,-1.272772 1.00542,-2.86523 1.653055,-4.428756 0.647642,-1.563547 1.351244,-3.108229 1.96031,-4.29907 0.190491,-0.372452 0.388868,-0.70906 0.578363,-1.018427 a 0.83477332,0.83477332 0 0 0 0.07571,-0.70985 c -0.701185,-2.005391 -1.694655,-4.203643 -2.528544,-6.191251 l -6.570455,-15.660944 -1.875808,-4.471066 a 0.83477332,0.83477332 0 0 0 -1.089027,-0.445306 l -2.23797,0.938929 c -1.64945,0.691723 -2.43389,2.609411 -1.74152,4.258995 l 8.431911,20.097806 c -0.697477,1.385483 -1.419915,2.949 -2.089687,4.56597 -0.712942,1.721197 -1.370098,3.462393 -1.869713,5.008105 -0.48448,1.498886 -0.921941,2.679549 -0.921941,4.363377 0,1.683827 0.441703,2.85915 0.926182,4.358035 0.49988,1.546527 1.158358,3.287017 1.871008,5.007504 0.712751,1.7207314 1.478001,3.4152155 2.217943,4.8619493 0.716685,1.4012637 1.234049,2.5490101 2.425528,3.7404881 1.191478,1.19147813 2.341212,1.7122554 3.743003,2.42921121 1.446733,0.73994129 3.140668,1.50583539 4.861402,2.21858619 1.72099,0.7128571 3.462195,1.3700326 5.008105,1.8697125 1.498268,0.4842796 2.673958,0.9239964 4.358491,0.9239963 1.684531,0 2.864655,-0.4439566 4.362921,-0.9282365 1.545913,-0.4996801 3.288566,-1.1532642 5.009554,-1.8661216 0.03448,-0.014282 0.06816,-0.028727 0.102615,-0.043051 z"
         transform="matrix(0.08298827,0.01130924,-0.01130924,0.08298827,-7.0450602,283.72162)" /><path
         id="path6887"
         style="color:#000000;fill:#f2c85e;stroke-linecap:round;stroke-linejoin:round;paint-order:fill markers stroke"
         class="UnoptimicedTransforms"
         d="m -68.177858,-4.1194735 2.966443,7.0706355 c 1.685109,-0.7005307 3.341591,-1.4497767 4.759334,-2.17489179 1.40207,-0.71709751 2.547314,-1.23928923 3.738439,-2.43041451 1.191127,-1.1911255 1.709413,-2.3342619 2.426374,-3.7360664 0.739665,-1.4461928 1.510514,-3.1422173 2.223473,-4.8634523 0.713064,-1.721492 1.365347,-3.460761 1.864826,-5.006055 0.484281,-1.498268 0.926834,-2.680894 0.926833,-4.365427 0,-1.683825 -0.441707,-2.85915 -0.926187,-4.358035 -0.499814,-1.546327 -1.160323,-3.291694 -1.873058,-5.01239 -0.712628,-1.720438 -1.475815,-3.410065 -2.215893,-4.857063 -0.717374,-1.40261 -1.239641,-2.547666 -2.430414,-3.738438 -1.191125,-1.191126 -2.336311,-1.714299 -3.738117,-2.431262 -1.446192,-0.739663 -3.140165,-1.505627 -4.861402,-2.218586 -1.720988,-0.712856 -3.462191,-1.370033 -5.008106,-1.869712 -0.07214,-0.02332 -0.132653,-0.04379 -0.199894,-0.06555 l -8.33761,-19.873031 c -0.34532,-0.823442 -1.00107,-1.44125 -1.771331,-1.756576 -0.385136,-0.157664 -0.799764,-0.244094 -1.223459,-0.245244 -0.423694,-0.0011 -0.854008,0.08278 -1.266255,0.255417 l -2.233089,0.93688 a 0.83477332,0.83477332 0 0 0 -0.450193,1.091076 l 1.873758,4.466179 6.566355,15.651172 a 0.83477332,0.83477332 0 0 0 0.0205,0.04886 c 0.407446,0.831628 0.836445,2.054452 1.305751,3.221886 0.469306,1.167434 0.934158,2.283543 1.736541,3.029657 a 0.83477332,0.83477332 0 0 0 0.378361,0.20329 c 0.382841,0.08976 0.80084,0.191335 1.24365,0.334463 1.272054,0.411163 2.866738,1.010084 4.430806,1.657942 1.564315,0.647962 3.114064,1.349682 4.303956,1.95826 0.461668,0.236121 0.898339,0.499117 1.242135,0.714367 0.250055,0.15656 0.384149,0.241458 0.538069,0.337414 0.09604,0.154523 0.179149,0.289606 0.334749,0.537645 0.216071,0.344437 0.481974,0.784914 0.719655,1.249629 0.608744,1.190212 1.310672,2.734348 1.95854,4.29844 0.647857,1.564065 1.24647,3.158376 1.657633,4.43043 0.159618,0.493828 0.282195,0.987844 0.373506,1.38336 0.06639,0.287571 0.103117,0.441224 0.14418,0.617598 -0.04132,0.176538 -0.07759,0.332406 -0.143193,0.617486 -0.09121,0.396375 -0.214764,0.896374 -0.375267,1.392939 -0.410929,1.271335 -1.011911,2.861312 -1.659991,4.425919 -0.648187,1.56486 -1.350004,3.114697 -1.95826,4.3039568 -0.237339,0.4640437 -0.501653,0.9045845 -0.717204,1.2490715 -0.155518,0.2485447 -0.236955,0.3822372 -0.332528,0.5360185 -0.153928,0.095526 -0.284539,0.1775008 -0.532758,0.3326993 -0.344036,0.2151077 -0.78811,0.4776737 -1.251679,0.7147688 -1.172065,0.5994608 -2.689588,1.2955449 -4.22798,1.9347256 z"
         transform="matrix(0.06621534,0.05128823,-0.05128823,0.06621534,-9.47543,286.37827)" /><path
         id="path6890"
         style="color:#000000;fill:#f2c85e;stroke-linecap:round;stroke-linejoin:round;paint-order:fill markers stroke"
         class="UnoptimicedTransforms"
         d="m -68.177858,-4.1194735 2.966443,7.0706355 c 1.685109,-0.7005307 3.341591,-1.4497767 4.759334,-2.17489179 1.40207,-0.71709751 2.547314,-1.23928923 3.738439,-2.43041451 1.191127,-1.1911255 1.709413,-2.3342619 2.426374,-3.7360664 0.739665,-1.4461928 1.510514,-3.1422173 2.223473,-4.8634523 0.713064,-1.721492 1.365347,-3.460761 1.864826,-5.006055 0.484281,-1.498268 0.926834,-2.680894 0.926833,-4.365427 0,-1.683825 -0.441707,-2.85915 -0.926187,-4.358035 -0.499814,-1.546327 -1.160323,-3.291694 -1.873058,-5.01239 -0.712628,-1.720438 -1.475815,-3.410065 -2.215893,-4.857063 -0.717374,-1.40261 -1.239641,-2.547666 -2.430414,-3.738438 -1.191125,-1.191126 -2.336311,-1.714299 -3.738117,-2.431262 -1.446192,-0.739663 -3.140165,-1.505627 -4.861402,-2.218586 -1.720988,-0.712856 -3.462191,-1.370033 -5.008106,-1.869712 -0.07214,-0.02332 -0.132653,-0.04379 -0.199894,-0.06555 l -8.33761,-19.873031 c -0.34532,-0.823442 -1.00107,-1.44125 -1.771331,-1.756576 -0.385136,-0.157664 -0.799764,-0.244094 -1.223459,-0.245244 -0.423694,-0.0011 -0.854008,0.08278 -1.266255,0.255417 l -2.233089,0.93688 a 0.83477332,0.83477332 0 0 0 -0.450193,1.091076 l 1.873758,4.466179 6.566355,15.651172 a 0.83477332,0.83477332 0 0 0 0.0205,0.04886 c 0.407446,0.831628 0.836445,2.054452 1.305751,3.221886 0.469306,1.167434 0.934158,2.283543 1.736541,3.029657 a 0.83477332,0.83477332 0 0 0 0.378361,0.20329 c 0.382841,0.08976 0.80084,0.191335 1.24365,0.334463 1.272054,0.411163 2.866738,1.010084 4.430806,1.657942 1.564315,0.647962 3.114064,1.349682 4.303956,1.95826 0.461668,0.236121 0.898339,0.499117 1.242135,0.714367 0.250055,0.15656 0.384149,0.241458 0.538069,0.337414 0.09604,0.154523 0.179149,0.289606 0.334749,0.537645 0.216071,0.344437 0.481974,0.784914 0.719655,1.249629 0.608744,1.190212 1.310672,2.734348 1.95854,4.29844 0.647857,1.564065 1.24647,3.158376 1.657633,4.43043 0.159618,0.493828 0.282195,0.987844 0.373506,1.38336 0.06639,0.287571 0.103117,0.441224 0.14418,0.617598 -0.04132,0.176538 -0.07759,0.332406 -0.143193,0.617486 -0.09121,0.396375 -0.214764,0.896374 -0.375267,1.392939 -0.410929,1.271335 -1.011911,2.861312 -1.659991,4.425919 -0.648187,1.56486 -1.350004,3.114697 -1.95826,4.3039568 -0.237339,0.4640437 -0.501653,0.9045845 -0.717204,1.2490715 -0.155518,0.2485447 -0.236955,0.3822372 -0.332528,0.5360185 -0.153928,0.095526 -0.284539,0.1775008 -0.532758,0.3326993 -0.344036,0.2151077 -0.78811,0.4776737 -1.251679,0.7147688 -1.172065,0.5994608 -2.689588,1.2955449 -4.22798,1.9347256 z"
         transform="matrix(0.02962298,0.07244497,-0.07244497,0.02962298,-11.387027,287.83516)" /><path
         id="path6892"
         style="color:#000000;fill:#f2c85e;stroke-linecap:round;stroke-linejoin:round;paint-order:fill markers stroke"
         class="UnoptimicedTransforms"
         d="m -68.177858,-4.1194735 2.966443,7.0706355 c 1.685109,-0.7005307 3.341591,-1.4497767 4.759334,-2.17489179 1.40207,-0.71709751 2.547314,-1.23928923 3.738439,-2.43041451 1.191127,-1.1911255 1.709413,-2.3342619 2.426374,-3.7360664 0.739665,-1.4461928 1.510514,-3.1422173 2.223473,-4.8634523 0.713064,-1.721492 1.365347,-3.460761 1.864826,-5.006055 0.484281,-1.498268 0.926834,-2.680894 0.926833,-4.365427 0,-1.683825 -0.441707,-2.85915 -0.926187,-4.358035 -0.499814,-1.546327 -1.160323,-3.291694 -1.873058,-5.01239 -0.712628,-1.720438 -1.475815,-3.410065 -2.215893,-4.857063 -0.717374,-1.40261 -1.239641,-2.547666 -2.430414,-3.738438 -1.191125,-1.191126 -2.336311,-1.714299 -3.738117,-2.431262 -1.446192,-0.739663 -3.140165,-1.505627 -4.861402,-2.218586 -1.720988,-0.712856 -3.462191,-1.370033 -5.008106,-1.869712 -0.07214,-0.02332 -0.132653,-0.04379 -0.199894,-0.06555 l -8.33761,-19.873031 c -0.34532,-0.823442 -1.00107,-1.44125 -1.771331,-1.756576 -0.385136,-0.157664 -0.799764,-0.244094 -1.223459,-0.245244 -0.423694,-0.0011 -0.854008,0.08278 -1.266255,0.255417 l -2.233089,0.93688 a 0.83477332,0.83477332 0 0 0 -0.450193,1.091076 l 1.873758,4.466179 6.566355,15.651172 a 0.83477332,0.83477332 0 0 0 0.0205,0.04886 c 0.407446,0.831628 0.836445,2.054452 1.305751,3.221886 0.469306,1.167434 0.934158,2.283543 1.736541,3.029657 a 0.83477332,0.83477332 0 0 0 0.378361,0.20329 c 0.382841,0.08976 0.80084,0.191335 1.24365,0.334463 1.272054,0.411163 2.866738,1.010084 4.430806,1.657942 1.564315,0.647962 3.114064,1.349682 4.303956,1.95826 0.461668,0.236121 0.898339,0.499117 1.242135,0.714367 0.250055,0.15656 0.384149,0.241458 0.538069,0.337414 0.09604,0.154523 0.179149,0.289606 0.334749,0.537645 0.216071,0.344437 0.481974,0.784914 0.719655,1.249629 0.608744,1.190212 1.310672,2.734348 1.95854,4.29844 0.647857,1.564065 1.24647,3.158376 1.657633,4.43043 0.159618,0.493828 0.282195,0.987844 0.373506,1.38336 0.06639,0.287571 0.103117,0.441224 0.14418,0.617598 -0.04132,0.176538 -0.07759,0.332406 -0.143193,0.617486 -0.09121,0.396375 -0.214764,0.896374 -0.375267,1.392939 -0.410929,1.271335 -1.011911,2.861312 -1.659991,4.425919 -0.648187,1.56486 -1.350004,3.114697 -1.95826,4.3039568 -0.237339,0.4640437 -0.501653,0.9045845 -0.717204,1.2490715 -0.155518,0.2485447 -0.236955,0.3822372 -0.332528,0.5360185 -0.153928,0.095526 -0.284539,0.1775008 -0.532758,0.3326993 -0.344036,0.2151077 -0.78811,0.4776737 -1.251679,0.7147688 -1.172065,0.5994608 -2.689588,1.2955449 -4.22798,1.9347256 z"
         transform="matrix(-0.02962298,0.07244497,0.07244497,0.02962298,-15.047012,287.83516)" /><path
         id="path8014"
         style="opacity:1;fill:#f2dfaf;fill-opacity:1;stroke-width:0.141882;stroke-linecap:round;stroke-linejoin:round;paint-order:fill markers stroke;stop-color:#000000"
         d="m -13.191539,285.07348 c -0.09801,0 -0.722636,-0.36063 -0.771642,-0.44551 -0.04901,-0.0849 -0.04901,-2.09811 0,-2.18299 0.04901,-0.0849 0.67363,-0.44551 0.771642,-0.44551 0.09801,0 0.722636,0.36063 0.771642,0.44551 0.04901,0.0849 0.04901,2.0981 0,2.18299 -0.04901,0.0849 -0.67363,0.44551 -0.771642,0.44551 z"
         sodipodi:nodetypes="sssssss" /></g><g
       id="g8384"
       transform="translate(22.306973,1.4292002)"><g
         id="g8366"><circle
           style="fill:#c2c2d1;fill-opacity:1;stroke:none;stroke-width:0.399194;stroke-linecap:square;stroke-linejoin:bevel;stroke-miterlimit:4;stroke-dasharray:none;stroke-dashoffset:0;stroke-opacity:0.978723;paint-order:normal"
           id="circle8362"
           cx="-11.680403"
           cy="282.21616"
           r="3.5284107" /><circle
           r="2.3235874"
           cy="282.21616"
           cx="-11.680403"
           id="circle8364"
           style="fill:#a191a1;fill-opacity:1;stroke:none;stroke-width:0.399194;stroke-linecap:square;stroke-linejoin:bevel;stroke-miterlimit:4;stroke-dasharray:none;stroke-dashoffset:0;stroke-opacity:0.978723;paint-order:normal" /></g><g
         id="g8372"><circle
           r="3.5284107"
           cy="282.21616"
           cx="-17.645506"
           id="circle8368"
           style="fill:#c2c2d1;fill-opacity:1;stroke:none;stroke-width:0.399194;stroke-linecap:square;stroke-linejoin:bevel;stroke-miterlimit:4;stroke-dasharray:none;stroke-dashoffset:0;stroke-opacity:0.978723;paint-order:normal" /><circle
           style="fill:#a191a1;fill-opacity:1;stroke:none;stroke-width:0.399194;stroke-linecap:square;stroke-linejoin:bevel;stroke-miterlimit:4;stroke-dasharray:none;stroke-dashoffset:0;stroke-opacity:0.978723;paint-order:normal"
           id="circle8370"
           cx="-17.645506"
           cy="282.21616"
           r="2.3235874" /></g><g
         id="g8382"><rect
           style="fill:#c2c2d1;fill-opacity:1;stroke:none;stroke-width:0.399193;stroke-linecap:square;stroke-linejoin:bevel;stroke-miterlimit:4;stroke-dasharray:none;stroke-dashoffset:0;stroke-opacity:0.978723;paint-order:normal"
           id="rect8374"
           width="8.8714314"
           height="8.8714314"
           x="-18.594614"
           y="280.90561"
           ry="3.6292224" /><circle
           style="fill:#3e2347;fill-opacity:1;stroke:none;stroke-width:0.399193;stroke-linecap:square;stroke-linejoin:bevel;stroke-miterlimit:4;stroke-dasharray:none;stroke-dashoffset:0;stroke-opacity:0.978723;paint-order:normal"
           id="circle8376"
           cx="-15.358009"
           cy="286.1102"
           r="0.64156169" /><circle
           r="0.64156169"
           cy="286.1102"
           cx="-10.938351"
           id="circle8378"
           style="fill:#3e2347;fill-opacity:1;stroke:none;stroke-width:0.399193;stroke-linecap:square;stroke-linejoin:bevel;stroke-miterlimit:4;stroke-dasharray:none;stroke-dashoffset:0;stroke-opacity:0.978723;paint-order:normal" /><path
           sodipodi:type="star"
           style="fill:#3e2347;fill-opacity:1;stroke:none;stroke-width:2.36253;stroke-linecap:square;stroke-linejoin:bevel;stroke-miterlimit:4;stroke-dasharray:none;stroke-dashoffset:0;stroke-opacity:0.978723;paint-order:normal"
           id="path8380"
           sodipodi:sides="3"
           sodipodi:cx="-45.408615"
           sodipodi:cy="234.57965"
           sodipodi:r1="2.997191"
           sodipodi:r2="1.4985955"
           sodipodi:arg1="1.5707963"
           sodipodi:arg2="2.6179939"
           inkscape:flatsided="true"
           inkscape:rounded="0.18"
           inkscape:randomized="0"
           inkscape:transform-center-x="-6.3665075e-06"
           inkscape:transform-center-y="1.0312406"
           d="m -45.408615,237.57684 c -0.934432,0 -3.062859,-3.68654 -2.595644,-4.49578 0.467216,-0.80925 4.724071,-0.80925 5.191287,0 0.467216,0.80924 -1.661211,4.49578 -2.595643,4.49578 z"
           transform="matrix(0.1689686,0,0,0.1689686,-4.9052707,247.82798)" /></g></g><g
       id="g8414"
       transform="translate(22.306973,1.4292002)"><g
         id="g8392"
         transform="matrix(1.4000163,0,0,1.4000163,13.017957,-89.897167)"><path
           id="path8386"
           style="fill:#e8b747;fill-opacity:1;stroke:none;stroke-width:0.625357;stroke-linecap:round;stroke-dasharray:none;stroke-opacity:1;paint-order:fill markers stroke;stop-color:#000000"
           d="m -23.845462,265.62338 a 1.1746904,1.1746904 0 0 0 -0.01411,0.65404 1.1746904,1.1746904 0 0 0 1.438688,0.83063 1.1746904,1.1746904 0 0 0 0.784762,-0.69553 1.7084471,1.7084471 0 0 1 -0.245262,0.0863 1.7084471,1.7084471 0 0 1 -1.964074,-0.87541 z" /><path
           id="path8388"
           style="fill:#f2c85e;fill-opacity:1;stroke:none;stroke-width:0.887003;stroke-linecap:round;stroke-dasharray:none;stroke-opacity:1;paint-order:fill markers stroke;stop-color:#000000"
           d="m -23.731612,264.64566 a 1.6661745,1.6661745 0 0 0 -0.02001,0.9277 1.6661745,1.6661745 0 0 0 2.040627,1.17815 1.6661745,1.6661745 0 0 0 1.113102,-0.98654 2.423252,2.423252 0 0 1 -0.347879,0.12241 2.423252,2.423252 0 0 1 -2.785832,-1.24168 z" /><path
           id="path8390"
           style="fill:#f2dfaf;fill-opacity:1;stroke:none;stroke-width:1.05833;stroke-linecap:round;stroke-dasharray:none;stroke-opacity:1;paint-order:fill markers stroke;stop-color:#000000"
           d="m -23.196815,263.36321 a 1.9880006,1.9880006 0 0 0 -0.30954,1.063 1.9880006,1.9880006 0 0 0 1.987991,1.98798 1.9880006,1.9880006 0 0 0 1.5875,-0.79324 2.8913097,2.8913097 0 0 1 -0.438731,0.0336 2.8913097,2.8913097 0 0 1 -2.827218,-2.29133 z" /></g><g
         id="g8400"><path
           id="path8394"
           style="fill:#e8b747;fill-opacity:1;stroke:none;stroke-width:0.87551;stroke-linecap:round;stroke-dasharray:none;stroke-opacity:1;paint-order:fill markers stroke;stop-color:#000000"
           d="m -7.8960955,281.77139 a 1.6445857,1.6445857 0 0 1 0.019754,0.91566 1.6445857,1.6445857 0 0 1 -2.0141866,1.1629 1.6445857,1.6445857 0 0 1 -1.0986799,-0.97375 2.3918538,2.3918538 0 0 0 0.343371,0.12082 2.3918538,2.3918538 0 0 0 2.7497357,-1.22559 z" /><path
           id="path8396"
           style="fill:#f2c85e;fill-opacity:1;stroke:none;stroke-width:1.24182;stroke-linecap:round;stroke-dasharray:none;stroke-opacity:1;paint-order:fill markers stroke;stop-color:#000000"
           d="m -8.0554874,280.40256 a 2.3326715,2.3326715 0 0 1 0.028014,1.2988 2.3326715,2.3326715 0 0 1 -2.8569106,1.64943 2.3326715,2.3326715 0 0 1 -1.558361,-1.38117 3.3925923,3.3925923 0 0 0 0.487036,0.17137 3.3925923,3.3925923 0 0 0 3.90021,-1.73837 z" /><path
           id="path8398"
           style="fill:#f2dfaf;fill-opacity:1;stroke:none;stroke-width:1.48168;stroke-linecap:round;stroke-dasharray:none;stroke-opacity:1;paint-order:fill markers stroke;stop-color:#000000"
           d="m -8.8042119,278.60711 a 2.7832332,2.7832332 0 0 1 0.4333611,1.48822 2.7832332,2.7832332 0 0 1 -2.7832202,2.7832 2.7832332,2.7832332 0 0 1 -2.222526,-1.11054 4.0478807,4.0478807 0 0 0 0.614231,0.047 4.0478807,4.0478807 0 0 0 3.9581513,-3.2079 z" /></g><path
         id="path8402"
         style="fill:#e8b747;fill-opacity:1;stroke:none;stroke-width:0.399193;stroke-linecap:square;stroke-linejoin:bevel;stroke-miterlimit:4;stroke-dasharray:none;stroke-dashoffset:0;stroke-opacity:0.978723;paint-order:normal"
         d="m -14.965459,280.90544 c -2.010584,0 -3.629141,1.61855 -3.629141,3.62914 v 1.61346 c 0,1.82442 1.332695,3.32601 3.081706,3.58846 -0.388327,-0.37095 -0.629318,-0.89404 -0.629318,-1.47596 v -0.80751 c 0,-0.0985 0.0073,-0.19525 0.0206,-0.28994 -0.820777,-0.1985 -1.427041,-0.93496 -1.427041,-1.81843 0,-1.03673 0.834751,-1.87097 1.871478,-1.87097 h 4.204901 c 0.801308,0 1.481143,0.49839 1.74891,1.20354 v -0.14265 c 0,-2.01059 -1.618556,-3.62914 -3.629142,-3.62914 z m 5.242093,5.10665 c -0.198261,0.5221 -0.622799,0.93065 -1.155125,1.10774 0.01767,0.1084 0.02678,0.21966 0.02678,0.3332 v 0.80751 c 0,0.21075 -0.03183,0.41365 -0.09064,0.6046 0.748557,-0.66389 1.218984,-1.63327 1.218984,-2.7171 z" /><path
         id="path8404"
         style="color:#000000;fill:#f2c85e;stroke-linecap:round;stroke-linejoin:round;paint-order:fill markers stroke"
         class="UnoptimicedTransforms"
         d="m -68.177858,-4.1194735 c -0.02463,0.010232 -0.04866,0.020547 -0.0733,0.030751 -1.563524,0.647633 -3.159708,1.2413523 -4.43248,1.6527463 -0.493492,0.1595097 -0.986356,0.2875882 -1.38131,0.3783928 -0.287397,0.066076 -0.442698,0.098152 -0.619648,0.1392929 -0.176509,-0.041076 -0.331399,-0.073285 -0.615436,-0.1383061 -0.396199,-0.090696 -0.891928,-0.216956 -1.388053,-0.3773168 -1.272286,-0.4112367 -2.866965,-1.0101772 -4.430806,-1.6579415 -1.563548,-0.6476426 -3.113114,-1.3491958 -4.303956,-1.95826 -0.463949,-0.2372894 -0.904541,-0.5015678 -1.249072,-0.717204 -0.248107,-0.1552865 -0.378898,-0.2437164 -0.533182,-0.3394639 -0.09632,-0.1543751 -0.183133,-0.2862474 -0.339636,-0.5355951 -0.215739,-0.3437268 -0.481261,-0.7826431 -0.717605,-1.2447422 -0.608899,-1.1905179 -1.312852,-2.7395539 -1.96059,-4.3033259 -0.647407,-1.562983 -1.239071,-3.154104 -1.650696,-4.427594 -0.15951,-0.493492 -0.282701,-0.988406 -0.373506,-1.38336 -0.06588,-0.286537 -0.09832,-0.443152 -0.139293,-0.619648 0.04142,-0.177701 0.07286,-0.329256 0.138306,-0.615436 0.09069,-0.39659 0.214941,-0.896923 0.375267,-1.392939 0.411392,-1.272772 1.00542,-2.86523 1.653055,-4.428756 0.647642,-1.563547 1.351244,-3.108229 1.96031,-4.29907 0.190491,-0.372452 0.388868,-0.70906 0.578363,-1.018427 a 0.83477332,0.83477332 0 0 0 0.07571,-0.70985 c -0.701185,-2.005391 -1.694655,-4.203643 -2.528544,-6.191251 l -6.570455,-15.660944 -1.875808,-4.471066 a 0.83477332,0.83477332 0 0 0 -1.089027,-0.445306 l -2.23797,0.938929 c -1.64945,0.691723 -2.43389,2.609411 -1.74152,4.258995 l 8.431911,20.097806 c -0.697477,1.385483 -1.419915,2.949 -2.089687,4.56597 -0.712942,1.721197 -1.370098,3.462393 -1.869713,5.008105 -0.48448,1.498886 -0.921941,2.679549 -0.921941,4.363377 0,1.683827 0.441703,2.85915 0.926182,4.358035 0.49988,1.546527 1.158358,3.287017 1.871008,5.007504 0.712751,1.7207314 1.478001,3.4152155 2.217943,4.8619493 0.716685,1.4012637 1.234049,2.5490101 2.425528,3.7404881 1.191478,1.19147813 2.341212,1.7122554 3.743003,2.42921121 1.446733,0.73994129 3.140668,1.50583539 4.861402,2.21858619 1.72099,0.7128571 3.462195,1.3700326 5.008105,1.8697125 1.498268,0.4842796 2.673958,0.9239964 4.358491,0.9239963 1.684531,0 2.864655,-0.4439566 4.362921,-0.9282365 1.545913,-0.4996801 3.288566,-1.1532642 5.009554,-1.8661216 0.03448,-0.014282 0.06816,-0.028727 0.102615,-0.043051 z"
         transform="matrix(0.08298827,0.01130924,-0.01130924,0.08298827,-7.0450602,283.72162)" /><path
         id="path8406"
         style="color:#000000;fill:#f2c85e;stroke-linecap:round;stroke-linejoin:round;paint-order:fill markers stroke"
         class="UnoptimicedTransforms"
         d="m -68.177858,-4.1194735 2.966443,7.0706355 c 1.685109,-0.7005307 3.341591,-1.4497767 4.759334,-2.17489179 1.40207,-0.71709751 2.547314,-1.23928923 3.738439,-2.43041451 1.191127,-1.1911255 1.709413,-2.3342619 2.426374,-3.7360664 0.739665,-1.4461928 1.510514,-3.1422173 2.223473,-4.8634523 0.713064,-1.721492 1.365347,-3.460761 1.864826,-5.006055 0.484281,-1.498268 0.926834,-2.680894 0.926833,-4.365427 0,-1.683825 -0.441707,-2.85915 -0.926187,-4.358035 -0.499814,-1.546327 -1.160323,-3.291694 -1.873058,-5.01239 -0.712628,-1.720438 -1.475815,-3.410065 -2.215893,-4.857063 -0.717374,-1.40261 -1.239641,-2.547666 -2.430414,-3.738438 -1.191125,-1.191126 -2.336311,-1.714299 -3.738117,-2.431262 -1.446192,-0.739663 -3.140165,-1.505627 -4.861402,-2.218586 -1.720988,-0.712856 -3.462191,-1.370033 -5.008106,-1.869712 -0.07214,-0.02332 -0.132653,-0.04379 -0.199894,-0.06555 l -8.33761,-19.873031 c -0.34532,-0.823442 -1.00107,-1.44125 -1.771331,-1.756576 -0.385136,-0.157664 -0.799764,-0.244094 -1.223459,-0.245244 -0.423694,-0.0011 -0.854008,0.08278 -1.266255,0.255417 l -2.233089,0.93688 a 0.83477332,0.83477332 0 0 0 -0.450193,1.091076 l 1.873758,4.466179 6.566355,15.651172 a 0.83477332,0.83477332 0 0 0 0.0205,0.04886 c 0.407446,0.831628 0.836445,2.054452 1.305751,3.221886 0.469306,1.167434 0.934158,2.283543 1.736541,3.029657 a 0.83477332,0.83477332 0 0 0 0.378361,0.20329 c 0.382841,0.08976 0.80084,0.191335 1.24365,0.334463 1.272054,0.411163 2.866738,1.010084 4.430806,1.657942 1.564315,0.647962 3.114064,1.349682 4.303956,1.95826 0.461668,0.236121 0.898339,0.499117 1.242135,0.714367 0.250055,0.15656 0.384149,0.241458 0.538069,0.337414 0.09604,0.154523 0.179149,0.289606 0.334749,0.537645 0.216071,0.344437 0.481974,0.784914 0.719655,1.249629 0.608744,1.190212 1.310672,2.734348 1.95854,4.29844 0.647857,1.564065 1.24647,3.158376 1.657633,4.43043 0.159618,0.493828 0.282195,0.987844 0.373506,1.38336 0.06639,0.287571 0.103117,0.441224 0.14418,0.617598 -0.04132,0.176538 -0.07759,0.332406 -0.143193,0.617486 -0.09121,0.396375 -0.214764,0.896374 -0.375267,1.392939 -0.410929,1.271335 -1.011911,2.861312 -1.659991,4.425919 -0.648187,1.56486 -1.350004,3.114697 -1.95826,4.3039568 -0.237339,0.4640437 -0.501653,0.9045845 -0.717204,1.2490715 -0.155518,0.2485447 -0.236955,0.3822372 -0.332528,0.5360185 -0.153928,0.095526 -0.284539,0.1775008 -0.532758,0.3326993 -0.344036,0.2151077 -0.78811,0.4776737 -1.251679,0.7147688 -1.172065,0.5994608 -2.689588,1.2955449 -4.22798,1.9347256 z"
         transform="matrix(0.06621534,0.05128823,-0.05128823,0.06621534,-9.47543,286.37827)" /><path
         id="path8408"
         style="color:#000000;fill:#f2c85e;stroke-linecap:round;stroke-linejoin:round;paint-order:fill markers stroke"
         class="UnoptimicedTransforms"
         d="m -68.177858,-4.1194735 2.966443,7.0706355 c 1.685109,-0.7005307 3.341591,-1.4497767 4.759334,-2.17489179 1.40207,-0.71709751 2.547314,-1.23928923 3.738439,-2.43041451 1.191127,-1.1911255 1.709413,-2.3342619 2.426374,-3.7360664 0.739665,-1.4461928 1.510514,-3.1422173 2.223473,-4.8634523 0.713064,-1.721492 1.365347,-3.460761 1.864826,-5.006055 0.484281,-1.498268 0.926834,-2.680894 0.926833,-4.365427 0,-1.683825 -0.441707,-2.85915 -0.926187,-4.358035 -0.499814,-1.546327 -1.160323,-3.291694 -1.873058,-5.01239 -0.712628,-1.720438 -1.475815,-3.410065 -2.215893,-4.857063 -0.717374,-1.40261 -1.239641,-2.547666 -2.430414,-3.738438 -1.191125,-1.191126 -2.336311,-1.714299 -3.738117,-2.431262 -1.446192,-0.739663 -3.140165,-1.505627 -4.861402,-2.218586 -1.720988,-0.712856 -3.462191,-1.370033 -5.008106,-1.869712 -0.07214,-0.02332 -0.132653,-0.04379 -0.199894,-0.06555 l -8.33761,-19.873031 c -0.34532,-0.823442 -1.00107,-1.44125 -1.771331,-1.756576 -0.385136,-0.157664 -0.799764,-0.244094 -1.223459,-0.245244 -0.423694,-0.0011 -0.854008,0.08278 -1.266255,0.255417 l -2.233089,0.93688 a 0.83477332,0.83477332 0 0 0 -0.450193,1.091076 l 1.873758,4.466179 6.566355,15.651172 a 0.83477332,0.83477332 0 0 0 0.0205,0.04886 c 0.407446,0.831628 0.836445,2.054452 1.305751,3.221886 0.469306,1.167434 0.934158,2.283543 1.736541,3.029657 a 0.83477332,0.83477332 0 0 0 0.378361,0.20329 c 0.382841,0.08976 0.80084,0.191335 1.24365,0.334463 1.272054,0.411163 2.866738,1.010084 4.430806,1.657942 1.564315,0.647962 3.114064,1.349682 4.303956,1.95826 0.461668,0.236121 0.898339,0.499117 1.242135,0.714367 0.250055,0.15656 0.384149,0.241458 0.538069,0.337414 0.09604,0.154523 0.179149,0.289606 0.334749,0.537645 0.216071,0.344437 0.481974,0.784914 0.719655,1.249629 0.608744,1.190212 1.310672,2.734348 1.95854,4.29844 0.647857,1.564065 1.24647,3.158376 1.657633,4.43043 0.159618,0.493828 0.282195,0.987844 0.373506,1.38336 0.06639,0.287571 0.103117,0.441224 0.14418,0.617598 -0.04132,0.176538 -0.07759,0.332406 -0.143193,0.617486 -0.09121,0.396375 -0.214764,0.896374 -0.375267,1.392939 -0.410929,1.271335 -1.011911,2.861312 -1.659991,4.425919 -0.648187,1.56486 -1.350004,3.114697 -1.95826,4.3039568 -0.237339,0.4640437 -0.501653,0.9045845 -0.717204,1.2490715 -0.155518,0.2485447 -0.236955,0.3822372 -0.332528,0.5360185 -0.153928,0.095526 -0.284539,0.1775008 -0.532758,0.3326993 -0.344036,0.2151077 -0.78811,0.4776737 -1.251679,0.7147688 -1.172065,0.5994608 -2.689588,1.2955449 -4.22798,1.9347256 z"
         transform="matrix(0.02962298,0.07244497,-0.07244497,0.02962298,-11.387027,287.83516)" /><path
         id="path8410"
         style="color:#000000;fill:#f2c85e;stroke-linecap:round;stroke-linejoin:round;paint-order:fill markers stroke"
         class="UnoptimicedTransforms"
         d="m -68.177858,-4.1194735 2.966443,7.0706355 c 1.685109,-0.7005307 3.341591,-1.4497767 4.759334,-2.17489179 1.40207,-0.71709751 2.547314,-1.23928923 3.738439,-2.43041451 1.191127,-1.1911255 1.709413,-2.3342619 2.426374,-3.7360664 0.739665,-1.4461928 1.510514,-3.1422173 2.223473,-4.8634523 0.713064,-1.721492 1.365347,-3.460761 1.864826,-5.006055 0.484281,-1.498268 0.926834,-2.680894 0.926833,-4.365427 0,-1.683825 -0.441707,-2.85915 -0.926187,-4.358035 -0.499814,-1.546327 -1.160323,-3.291694 -1.873058,-5.01239 -0.712628,-1.720438 -1.475815,-3.410065 -2.215893,-4.857063 -0.717374,-1.40261 -1.239641,-2.547666 -2.430414,-3.738438 -1.191125,-1.191126 -2.336311,-1.714299 -3.738117,-2.431262 -1.446192,-0.739663 -3.140165,-1.505627 -4.861402,-2.218586 -1.720988,-0.712856 -3.462191,-1.370033 -5.008106,-1.869712 -0.07214,-0.02332 -0.132653,-0.04379 -0.199894,-0.06555 l -8.33761,-19.873031 c -0.34532,-0.823442 -1.00107,-1.44125 -1.771331,-1.756576 -0.385136,-0.157664 -0.799764,-0.244094 -1.223459,-0.245244 -0.423694,-0.0011 -0.854008,0.08278 -1.266255,0.255417 l -2.233089,0.93688 a 0.83477332,0.83477332 0 0 0 -0.450193,1.091076 l 1.873758,4.466179 6.566355,15.651172 a 0.83477332,0.83477332 0 0 0 0.0205,0.04886 c 0.407446,0.831628 0.836445,2.054452 1.305751,3.221886 0.469306,1.167434 0.934158,2.283543 1.736541,3.029657 a 0.83477332,0.83477332 0 0 0 0.378361,0.20329 c 0.382841,0.08976 0.80084,0.191335 1.24365,0.334463 1.272054,0.411163 2.866738,1.010084 4.430806,1.657942 1.564315,0.647962 3.114064,1.349682 4.303956,1.95826 0.461668,0.236121 0.898339,0.499117 1.242135,0.714367 0.250055,0.15656 0.384149,0.241458 0.538069,0.337414 0.09604,0.154523 0.179149,0.289606 0.334749,0.537645 0.216071,0.344437 0.481974,0.784914 0.719655,1.249629 0.608744,1.190212 1.310672,2.734348 1.95854,4.29844 0.647857,1.564065 1.24647,3.158376 1.657633,4.43043 0.159618,0.493828 0.282195,0.987844 0.373506,1.38336 0.06639,0.287571 0.103117,0.441224 0.14418,0.617598 -0.04132,0.176538 -0.07759,0.332406 -0.143193,0.617486 -0.09121,0.396375 -0.214764,0.896374 -0.375267,1.392939 -0.410929,1.271335 -1.011911,2.861312 -1.659991,4.425919 -0.648187,1.56486 -1.350004,3.114697 -1.95826,4.3039568 -0.237339,0.4640437 -0.501653,0.9045845 -0.717204,1.2490715 -0.155518,0.2485447 -0.236955,0.3822372 -0.332528,0.5360185 -0.153928,0.095526 -0.284539,0.1775008 -0.532758,0.3326993 -0.344036,0.2151077 -0.78811,0.4776737 -1.251679,0.7147688 -1.172065,0.5994608 -2.689588,1.2955449 -4.22798,1.9347256 z"
         transform="matrix(-0.02962298,0.07244497,0.07244497,0.02962298,-15.047012,287.83516)" /><path
         id="path8412"
         style="opacity:1;fill:#f2dfaf;fill-opacity:1;stroke-width:0.141882;stroke-linecap:round;stroke-linejoin:round;paint-order:fill markers stroke;stop-color:#000000"
         d="m -13.191539,285.07348 c -0.09801,0 -0.722636,-0.36063 -0.771642,-0.44551 -0.04901,-0.0849 -0.04901,-2.09811 0,-2.18299 0.04901,-0.0849 0.67363,-0.44551 0.771642,-0.44551 0.09801,0 0.722636,0.36063 0.771642,0.44551 0.04901,0.0849 0.04901,2.0981 0,2.18299 -0.04901,0.0849 -0.67363,0.44551 -0.771642,0.44551 z"
         sodipodi:nodetypes="sssssss" /></g><path
       id="path8416"
       style="fill:#f2c85e;fill-opacity:1;stroke-width:0.378727;stroke-linecap:round;stroke-linejoin:round;paint-order:fill markers stroke;stop-color:#000000"
       inkscape:transform-center-y="0.27386251"
       d="m 9.7377044,272.95065 c -1.624387,0 -7.113971,-2.51232 -6.070987,-3.30418 1.042985,-0.79187 9.3868606,-0.79187 10.4298466,0 1.042985,0.79186 -2.734472,3.30418 -4.3588596,3.30418 z"
       sodipodi:nodetypes="zssz" /></g></svg>
