<?xml version="1.0" encoding="UTF-8" standalone="no"?>
<!-- Created with Inkscape (http://www.inkscape.org/) -->

<svg
   width="128"
   height="128"
   viewBox="0 0 33.866665 33.866667"
   version="1.1"
   id="svg1307"
   inkscape:version="1.2.1 (9c6d41e410, 2022-07-14)"
   sodipodi:docname="saint-aries.svg"
   inkscape:export-filename="/home/henrique/Documents/projects/001 - Moon Cheeser/repo/source/actors/astromouse/sprites/cutout_body.png"
   inkscape:export-xdpi="96.000008"
   inkscape:export-ydpi="96.000008"
   xml:space="preserve"
   xmlns:inkscape="http://www.inkscape.org/namespaces/inkscape"
   xmlns:sodipodi="http://sodipodi.sourceforge.net/DTD/sodipodi-0.dtd"
   xmlns="http://www.w3.org/2000/svg"
   xmlns:svg="http://www.w3.org/2000/svg"
   xmlns:rdf="http://www.w3.org/1999/02/22-rdf-syntax-ns#"
   xmlns:cc="http://creativecommons.org/ns#"
   xmlns:dc="http://purl.org/dc/elements/1.1/"><defs
     id="defs1301"><inkscape:path-effect
       effect="powerstroke"
       id="path-effect13270"
       is_visible="true"
       lpeversion="1"
       offset_points="0.24579726,0.88346674"
       not_jump="false"
       sort_points="true"
       interpolator_type="CubicBezierJohan"
       interpolator_beta="0.2"
       start_linecap_type="zerowidth"
       linejoin_type="extrp_arc"
       miter_limit="4"
       scale_width="1"
       end_linecap_type="zerowidth" /><inkscape:path-effect
       effect="powerstroke"
       id="path-effect13262"
       is_visible="true"
       lpeversion="1"
       offset_points="0.24579726,0.88346674"
       not_jump="false"
       sort_points="true"
       interpolator_type="CubicBezierJohan"
       interpolator_beta="0.2"
       start_linecap_type="zerowidth"
       linejoin_type="extrp_arc"
       miter_limit="4"
       scale_width="1"
       end_linecap_type="zerowidth" /><inkscape:path-effect
       effect="powerstroke"
       id="path-effect3857"
       is_visible="true"
       lpeversion="1"
       offset_points="0,0.88346674"
       not_jump="false"
       sort_points="true"
       interpolator_type="CubicBezierJohan"
       interpolator_beta="0.2"
       start_linecap_type="zerowidth"
       linejoin_type="extrp_arc"
       miter_limit="4"
       scale_width="1"
       end_linecap_type="zerowidth" /><inkscape:path-effect
       effect="fillet_chamfer"
       id="path-effect3427"
       is_visible="true"
       lpeversion="1"
       nodesatellites_param="F,0,0,1,0,0,0,1 @ F,0,0,1,0,0,0,1 @ F,0,0,1,0,0.5792208,0,1 @ F,0,0,1,0,0,0,1"
       unit="px"
       method="auto"
       mode="F"
       radius="0"
       chamfer_steps="1"
       flexible="false"
       use_knot_distance="true"
       apply_no_radius="true"
       apply_with_radius="true"
       only_selected="false"
       hide_knots="false" /><inkscape:path-effect
       effect="fillet_chamfer"
       id="path-effect3421"
       is_visible="true"
       lpeversion="1"
       nodesatellites_param="F,0,0,1,0,0,0,1 @ F,0,0,1,0,0,0,1 @ F,0,0,1,0,0.5792208,0,1 @ F,0,0,1,0,0,0,1"
       unit="px"
       method="auto"
       mode="F"
       radius="0"
       chamfer_steps="1"
       flexible="false"
       use_knot_distance="true"
       apply_no_radius="true"
       apply_with_radius="true"
       only_selected="false"
       hide_knots="false" /><inkscape:path-effect
       effect="fillet_chamfer"
       id="path-effect3413"
       is_visible="true"
       lpeversion="1"
       nodesatellites_param="F,0,0,1,0,0,0,1 @ F,0,0,1,0,0,0,1 @ F,0,0,1,0,0,0,1 @ F,0,0,1,0,0,0,1 @ F,0,0,1,0,0.68585269,0,1 @ F,0,0,1,0,0,0,1"
       unit="px"
       method="auto"
       mode="F"
       radius="0"
       chamfer_steps="1"
       flexible="false"
       use_knot_distance="true"
       apply_no_radius="true"
       apply_with_radius="true"
       only_selected="false"
       hide_knots="false" /><inkscape:path-effect
       effect="powerstroke"
       id="path-effect1497"
       is_visible="true"
       lpeversion="1"
       offset_points="0.24579726,0.88346674"
       not_jump="false"
       sort_points="true"
       interpolator_type="CubicBezierJohan"
       interpolator_beta="0.2"
       start_linecap_type="zerowidth"
       linejoin_type="extrp_arc"
       miter_limit="4"
       scale_width="1"
       end_linecap_type="zerowidth" /><inkscape:path-effect
       effect="powerstroke"
       id="path-effect406"
       is_visible="true"
       lpeversion="1"
       offset_points="0.24579726,0.88346674"
       not_jump="false"
       sort_points="true"
       interpolator_type="CubicBezierJohan"
       interpolator_beta="0.2"
       start_linecap_type="zerowidth"
       linejoin_type="extrp_arc"
       miter_limit="4"
       scale_width="1"
       end_linecap_type="zerowidth" /><inkscape:path-effect
       effect="skeletal"
       id="path-effect402"
       is_visible="true"
       lpeversion="1"
       pattern="M 0,4.9921381 C 0,2.2364779 2.2364779,0 4.9921381,0 c 2.7556603,0 4.9921381,2.2364779 4.9921381,4.9921381 0,2.7556603 -2.2364778,4.9921381 -4.9921381,4.9921381 C 2.2364779,9.9842762 0,7.7477984 0,4.9921381 Z"
       copytype="single_stretched"
       prop_scale="0.062908793"
       scale_y_rel="false"
       spacing="0"
       normal_offset="0"
       tang_offset="0"
       prop_units="false"
       vertical_pattern="false"
       hide_knot="false"
       fuse_tolerance="0" /><inkscape:path-effect
       effect="powerstroke"
       id="path-effect126865"
       is_visible="true"
       lpeversion="1"
       offset_points="0.36607912,0.65819441 | 0.7369579,1.5394423 | 0.91447105,0.73804339"
       not_jump="false"
       sort_points="true"
       interpolator_type="CentripetalCatmullRom"
       interpolator_beta="0.2"
       start_linecap_type="zerowidth"
       linejoin_type="round"
       miter_limit="4"
       scale_width="1"
       end_linecap_type="zerowidth" /><inkscape:path-effect
       effect="skeletal"
       id="path-effect114945"
       is_visible="true"
       lpeversion="1"
       pattern="M 0,4.9921381 C 0,2.2364779 2.2364779,0 4.9921381,0 c 2.7556603,0 4.9921381,2.2364779 4.9921381,4.9921381 0,2.7556603 -2.2364778,4.9921381 -4.9921381,4.9921381 C 2.2364779,9.9842762 0,7.7477984 0,4.9921381 Z"
       copytype="single_stretched"
       prop_scale="1"
       scale_y_rel="false"
       spacing="0"
       normal_offset="0"
       tang_offset="0"
       prop_units="false"
       vertical_pattern="false"
       hide_knot="false"
       fuse_tolerance="0" /><inkscape:path-effect
       effect="skeletal"
       id="path-effect95947"
       is_visible="true"
       lpeversion="1"
       pattern="M 0,4.9921381 C 0,2.2364779 2.2364779,0 4.9921381,0 c 2.7556603,0 4.9921381,2.2364779 4.9921381,4.9921381 0,2.7556603 -2.2364778,4.9921381 -4.9921381,4.9921381 C 2.2364779,9.9842762 0,7.7477984 0,4.9921381 Z"
       copytype="single_stretched"
       prop_scale="1"
       scale_y_rel="false"
       spacing="0"
       normal_offset="0"
       tang_offset="0"
       prop_units="false"
       vertical_pattern="false"
       hide_knot="false"
       fuse_tolerance="0" /><inkscape:path-effect
       effect="skeletal"
       id="path-effect91934"
       is_visible="true"
       lpeversion="1"
       pattern="M 0,4.9921381 C 0,2.2364779 2.2364779,0 4.9921381,0 c 2.7556603,0 4.9921381,2.2364779 4.9921381,4.9921381 0,2.7556603 -2.2364778,4.9921381 -4.9921381,4.9921381 C 2.2364779,9.9842762 0,7.7477984 0,4.9921381 Z"
       copytype="single_stretched"
       prop_scale="1"
       scale_y_rel="false"
       spacing="0"
       normal_offset="0"
       tang_offset="0"
       prop_units="false"
       vertical_pattern="false"
       hide_knot="false"
       fuse_tolerance="0" /><inkscape:path-effect
       effect="skeletal"
       id="path-effect91930"
       is_visible="true"
       lpeversion="1"
       pattern="M 0,4.9921381 C 0,2.2364779 2.2364779,0 4.9921381,0 c 2.7556603,0 4.9921381,2.2364779 4.9921381,4.9921381 0,2.7556603 -2.2364778,4.9921381 -4.9921381,4.9921381 C 2.2364779,9.9842762 0,7.7477984 0,4.9921381 Z"
       copytype="single_stretched"
       prop_scale="1"
       scale_y_rel="false"
       spacing="0"
       normal_offset="0"
       tang_offset="0"
       prop_units="false"
       vertical_pattern="false"
       hide_knot="false"
       fuse_tolerance="0" /><inkscape:path-effect
       effect="skeletal"
       id="path-effect91926"
       is_visible="true"
       lpeversion="1"
       pattern="M 0,4.9921381 C 0,2.2364779 2.2364779,0 4.9921381,0 c 2.7556603,0 4.9921381,2.2364779 4.9921381,4.9921381 0,2.7556603 -2.2364778,4.9921381 -4.9921381,4.9921381 C 2.2364779,9.9842762 0,7.7477984 0,4.9921381 Z"
       copytype="single_stretched"
       prop_scale="1"
       scale_y_rel="false"
       spacing="0"
       normal_offset="0"
       tang_offset="0"
       prop_units="false"
       vertical_pattern="false"
       hide_knot="false"
       fuse_tolerance="0" /></defs><sodipodi:namedview
     id="base"
     pagecolor="#282828"
     bordercolor="#666666"
     borderopacity="1.0"
     inkscape:pageopacity="0"
     inkscape:pageshadow="2"
     inkscape:zoom="7.919596"
     inkscape:cx="49.118667"
     inkscape:cy="44.00477"
     inkscape:document-units="mm"
     inkscape:current-layer="layer1"
     showgrid="true"
     inkscape:window-width="1920"
     inkscape:window-height="1022"
     inkscape:window-x="0"
     inkscape:window-y="30"
     inkscape:window-maximized="1"
     units="px"
     inkscape:snap-bbox="true"
     inkscape:bbox-nodes="true"
     inkscape:snap-page="true"
     inkscape:snap-nodes="true"
     inkscape:bbox-paths="false"
     inkscape:snap-global="false"
     inkscape:snap-bbox-midpoints="false"
     inkscape:snap-others="false"
     showguides="true"
     inkscape:guide-bbox="true"
     inkscape:snap-grids="false"
     inkscape:snap-to-guides="true"
     inkscape:pagecheckerboard="0"
     inkscape:object-paths="true"
     inkscape:snap-intersection-paths="true"
     inkscape:snap-smooth-nodes="true"
     inkscape:snap-midpoints="true"
     inkscape:showpageshadow="0"
     inkscape:deskcolor="#282828"><inkscape:grid
       type="xygrid"
       id="grid883"
       empspacing="4" /><sodipodi:guide
       position="33.866665,50.800001"
       orientation="1,0"
       id="guide877"
       inkscape:locked="false" /></sodipodi:namedview><metadata
     id="metadata1304"><rdf:RDF><cc:Work
         rdf:about=""><dc:format>image/svg+xml</dc:format><dc:type
           rdf:resource="http://purl.org/dc/dcmitype/StillImage" /></cc:Work></rdf:RDF></metadata><g
     inkscape:label="Layer 1"
     inkscape:groupmode="layer"
     id="layer1"
     transform="translate(0,-263.13332)"><path
       id="path13074"
       style="fill:#d6a839;fill-opacity:1;stroke-width:1.5875;stroke-linecap:round;stroke-linejoin:round;paint-order:fill markers stroke"
       d="m 8.9767,280.74952 2.236592,2.23659 c 0.304612,0.30461 0.304609,0.79507 2e-6,1.09968 l -0.396419,0.39642 c -0.304607,0.30461 -0.795068,0.30461 -1.099679,0 -1.657809,0.53165 -3.408382,-5.8819 -0.740496,-3.73269 z"
       sodipodi:nodetypes="cssscc" /><path
       id="path13078"
       style="fill:#d6a839;fill-opacity:1;stroke-width:1.5875;stroke-linecap:round;stroke-linejoin:round;paint-order:fill markers stroke"
       d="m 9.95589,286.12085 2.645584,2.64559 c 0.191321,0.19132 0.191322,0.49936 0,0.69069 l -0.475543,0.47554 c -0.191315,0.19131 -0.499367,0.19132 -0.690689,0 l -2.645583,-2.64558 c -0.191321,-0.19133 -0.191316,-0.49938 -1e-6,-0.69069 l 0.475544,-0.47555 c 0.191321,-0.19132 0.499367,-0.19132 0.690688,0 z" /><g
       id="g12918"
       transform="translate(35.432013,-22.439545)"><rect
         style="fill:#e8b747;fill-opacity:1;stroke:none;stroke-width:0.400568;stroke-linecap:square;stroke-linejoin:bevel;stroke-miterlimit:4;stroke-dasharray:none;stroke-dashoffset:0;stroke-opacity:0.978723;paint-order:normal"
         id="rect12902"
         width="6.4272337"
         height="7.8398128"
         x="-15.323679"
         y="286.6312"
         ry="2.9311028" /><g
         id="g12916"><path
           id="path12904"
           style="fill:#f2c85e;fill-opacity:1;stroke-width:0.0709134;stroke-linecap:round;stroke-linejoin:round;paint-order:fill markers stroke"
           inkscape:transform-center-y="-0.034424566"
           d="m -13.558116,294.2939 c -0.251519,-0.14523 -0.401745,-0.9202 -0.354335,-1.14326 0.04741,-0.22304 0.684151,-0.96073 0.923076,-0.98585 0.238925,-0.0251 0.893023,0.35254 0.990738,0.57202 0.09771,0.21946 -0.222775,1.13974 -0.392235,1.29232 -0.169461,0.15259 -0.915724,0.40998 -1.167244,0.26477 z"
           sodipodi:nodetypes="ssssss"
           inkscape:transform-center-x="-0.024605562" /><path
           id="path12906"
           style="fill:#f2c85e;fill-opacity:1;stroke-width:0.0842559;stroke-linecap:round;stroke-linejoin:round;paint-order:fill markers stroke"
           inkscape:transform-center-y="0.057409346"
           d="m -11.316715,295.10291 c -0.34508,0 -0.960056,-0.70819 -1.043784,-0.96587 -0.08372,-0.25767 0.133222,-1.39501 0.364151,-1.56279 0.230914,-0.1678 1.128332,-0.16778 1.359261,10e-6 0.230924,0.16777 0.447867,1.30511 0.364145,1.56279 -0.08372,0.25768 -0.698696,0.96586 -1.043773,0.96586 z"
           sodipodi:nodetypes="ssssss"
           inkscape:transform-center-x="2.1745038e-06" /><path
           id="path12908"
           style="fill:#f2c85e;fill-opacity:1;stroke-width:0.0709134;stroke-linecap:round;stroke-linejoin:round;paint-order:fill markers stroke"
           inkscape:transform-center-y="-0.034424566"
           d="m -9.5098172,294.2939 c 0.2515195,-0.14523 0.4017448,-0.9202 0.3543354,-1.14326 -0.047409,-0.22304 -0.6841515,-0.96073 -0.9230762,-0.98585 -0.238925,-0.0251 -0.893023,0.35254 -0.990738,0.57202 -0.09771,0.21946 0.222775,1.13974 0.392235,1.29232 0.169461,0.15259 0.9157242,0.40998 1.1672438,0.26477 z"
           sodipodi:nodetypes="ssssss"
           inkscape:transform-center-x="0.024605655" /><rect
           style="fill:#f2c85e;fill-opacity:1;stroke:none;stroke-width:0.529167;stroke-linecap:round;stroke-linejoin:round;stroke-dasharray:none;paint-order:fill markers stroke"
           id="rect12910"
           width="5.1593423"
           height="1.1023344"
           x="-14.10074"
           y="291.56485"
           ry="0.23602538" /><path
           id="path12912"
           style="fill:#f2c85e;fill-opacity:1;stroke-width:0.0709134;stroke-linecap:round;stroke-linejoin:round;paint-order:fill markers stroke"
           inkscape:transform-center-y="-0.034424566"
           d="m -14.756995,293.72216 c -0.251519,-0.14523 -0.401745,-0.9202 -0.354335,-1.14326 0.04741,-0.22304 0.684151,-0.96073 0.923076,-0.98585 0.238925,-0.0251 0.893023,0.35254 0.990738,0.57202 0.09771,0.21946 -0.222775,1.13974 -0.392235,1.29232 -0.169461,0.15259 -0.915724,0.40998 -1.167244,0.26477 z"
           sodipodi:nodetypes="ssssss"
           inkscape:transform-center-x="-0.024605562" /><path
           id="path12914"
           style="fill:#f2c85e;fill-opacity:1;stroke-width:0.0709134;stroke-linecap:round;stroke-linejoin:round;paint-order:fill markers stroke"
           inkscape:transform-center-y="-0.034424566"
           d="m -8.6235135,293.72216 c 0.251519,-0.14523 0.401745,-0.9202 0.354335,-1.14326 -0.04741,-0.22304 -0.684151,-0.96073 -0.923076,-0.98585 -0.238925,-0.0251 -0.8930235,0.35254 -0.9907385,0.57202 -0.09771,0.21946 0.2227755,1.13974 0.3922355,1.29232 0.169461,0.15259 0.915724,0.40998 1.167244,0.26477 z"
           sodipodi:nodetypes="ssssss"
           inkscape:transform-center-x="0.024605983" /></g></g><rect
       style="fill:#c2c2d1;fill-opacity:1;stroke:none;stroke-width:0.400568;stroke-linecap:square;stroke-linejoin:bevel;stroke-miterlimit:4;stroke-dasharray:none;stroke-dashoffset:0;stroke-opacity:0.978723;paint-order:normal"
       id="rect144670"
       width="1.9725975"
       height="4.9062042"
       x="24.341389"
       y="280.06592"
       ry="0.98629898" /><rect
       ry="0.98629898"
       y="273.99942"
       x="24.341373"
       height="4.9062042"
       width="1.9725975"
       id="rect144623"
       style="fill:#c2c2d1;fill-opacity:1;stroke:none;stroke-width:0.400568;stroke-linecap:square;stroke-linejoin:bevel;stroke-miterlimit:4;stroke-dasharray:none;stroke-dashoffset:0;stroke-opacity:0.978723;paint-order:normal" /><rect
       transform="scale(-1,1)"
       style="fill:#7e7e8f;fill-opacity:1;stroke:none;stroke-width:0.400568;stroke-linecap:square;stroke-linejoin:bevel;stroke-miterlimit:4;stroke-dasharray:none;stroke-dashoffset:0;stroke-opacity:0.978723;paint-order:normal"
       id="rect144625"
       width="1.9725975"
       height="4.9062042"
       x="-29.527908"
       y="274.04666"
       ry="0.98629898" /><rect
       ry="0.98629898"
       y="280.06592"
       x="27.516375"
       height="4.9062042"
       width="1.9725975"
       id="rect144682"
       style="fill:#7e7e8f;fill-opacity:1;stroke:none;stroke-width:0.400568;stroke-linecap:square;stroke-linejoin:bevel;stroke-miterlimit:4;stroke-dasharray:none;stroke-dashoffset:0;stroke-opacity:0.978723;paint-order:normal" /><path
       style="color:#000000;fill:#c2c2d1;fill-opacity:1;stroke-linecap:round;-inkscape-stroke:none"
       d="m 18.140625,286.45898 a 0.20022494,0.20022494 0 0 0 -0.138672,0.2461 0.20022494,0.20022494 0 0 0 0.248047,0.13867 c 0.161389,-0.0456 0.321057,-0.0433 0.515625,0.043 0.194568,0.0863 0.423648,0.26465 0.679687,0.58008 0.512079,0.63085 1.121973,1.80432 1.820313,3.77734 0.720992,2.037 2.061198,3.06192 3.212891,3.56055 1.151692,0.49863 2.132812,0.48437 2.132812,0.48437 a 0.20022494,0.20022494 0 0 0 0.197266,-0.20312 0.20022494,0.20022494 0 0 0 -0.203125,-0.19727 c 0,0 -0.892971,0.0138 -1.966797,-0.45117 -1.073826,-0.46492 -2.310745,-1.39734 -2.994141,-3.32813 -0.706047,-1.99479 -1.322995,-3.19764 -1.888672,-3.89453 -0.282838,-0.34844 -0.555293,-0.5724 -0.828125,-0.69336 -0.272831,-0.12095 -0.545791,-0.13073 -0.787109,-0.0625 z"
       id="path870" /><g
       id="g12926"
       transform="translate(31.99447,-14.877684)"><path
         id="path12920"
         style="fill:#c99f35;fill-opacity:1;stroke-width:0.400568;stroke-linecap:square;stroke-linejoin:bevel;stroke-opacity:0.978723"
         d="m -3.4502883,290.83699 c -0.5464075,-1e-5 -0.9863013,0.43989 -0.9862988,0.9863 l -1.4e-6,1.02096 c 2.5e-6,0.54641 0.4398922,0.98629 0.9862997,0.9863 0.5464117,-1e-5 0.9863013,-0.43989 0.9862989,-0.9863 l 1.3e-6,-1.02096 c -2.5e-6,-0.54641 -0.439893,-0.9863 -0.9862997,-0.9863 z"
         sodipodi:nodetypes="sssssss" /><rect
         style="fill:#c99f35;fill-opacity:1;stroke-width:1.5875;stroke-linecap:round;stroke-linejoin:round;paint-order:fill markers stroke"
         id="rect12922"
         width="3.1518991"
         height="1.5516728"
         x="1.8173785"
         y="290.9585"
         ry="0.77583641"
         transform="scale(-1,1)" /></g><path
       id="path12938"
       style="fill:#f2c85e;fill-opacity:1;stroke-width:0.400568;stroke-linecap:square;stroke-linejoin:bevel;stroke-opacity:0.978723"
       d="m 25.326626,275.91206 c 0.546412,0 0.986301,0.43989 0.986299,0.9863 l 1e-6,1.02096 c -2e-6,0.5464 -0.439892,0.98629 -0.9863,0.9863 -0.546406,0 -0.986301,-0.4399 -0.986298,-0.9863 l -2e-6,-1.02097 c 3e-6,-0.5464 0.439893,-0.98629 0.9863,-0.98629 z"
       sodipodi:nodetypes="sssssss" /><rect
       style="fill:#f2c85e;fill-opacity:1;stroke-width:1.5875;stroke-linecap:round;stroke-linejoin:round;paint-order:fill markers stroke"
       id="rect12940"
       width="3.1518991"
       height="1.5516728"
       x="23.767139"
       y="275.99115"
       ry="0.77583641" /><path
       id="path13051"
       style="fill:#e8b747;fill-opacity:1;stroke-width:0.400568;stroke-linecap:square;stroke-linejoin:bevel;stroke-opacity:0.978723"
       d="m 25.327688,282.75854 c 0.546409,0 0.986298,0.43989 0.986298,0.9863 v 0.24099 c 0,0.54641 -0.439889,0.98629 -0.986298,0.98629 -0.54641,0 -0.986299,-0.43988 -0.986299,-0.98629 v -0.24099 c 0,-0.54641 0.439889,-0.9863 0.986299,-0.9863 z"
       sodipodi:nodetypes="sssssss" /><rect
       style="fill:#e8b747;fill-opacity:1;stroke-width:1.5875;stroke-linecap:round;stroke-linejoin:round;paint-order:fill markers stroke"
       id="rect13053"
       width="2.3585112"
       height="0.83309937"
       x="24.148432"
       y="282.75854"
       ry="0.41654569" /><g
       id="g13068"
       transform="translate(31.371592,-11.330248)"><rect
         style="fill:#c99f35;fill-opacity:1;stroke-width:1.5875;stroke-linecap:round;stroke-linejoin:round;paint-order:fill markers stroke"
         id="rect13062"
         width="2.3585112"
         height="0.83309937"
         x="-4.0481744"
         y="294.08881"
         ry="0.41654569" /><path
         id="path13064"
         style="fill:#c99f35;fill-opacity:1;stroke-width:0.400568;stroke-linecap:square;stroke-linejoin:bevel;stroke-opacity:0.978723"
         d="m -2.868918,294.08879 c 0.546409,0 0.986298,0.43989 0.986298,0.9863 v 0.24099 c 0,0.54641 -0.439889,0.98629 -0.986298,0.98629 -0.54641,0 -0.986299,-0.43988 -0.986299,-0.98629 v -0.24099 c 0,-0.54641 0.439889,-0.9863 0.986299,-0.9863 z"
         sodipodi:nodetypes="sssssss" /></g><circle
       style="fill:#c2c2d1;fill-opacity:1;stroke:none;stroke-width:0.400569;stroke-linecap:square;stroke-linejoin:bevel;stroke-miterlimit:4;stroke-dasharray:none;stroke-dashoffset:0;stroke-opacity:0.978723;paint-order:normal"
       id="circle13070"
       cx="10.644047"
       cy="283.61932"
       r="3.540561" /><circle
       r="2.3315887"
       cy="283.61932"
       cx="10.644047"
       id="circle13072"
       style="fill:#a191a1;fill-opacity:1;stroke:none;stroke-width:0.400569;stroke-linecap:square;stroke-linejoin:bevel;stroke-miterlimit:4;stroke-dasharray:none;stroke-dashoffset:0;stroke-opacity:0.978723;paint-order:normal" /><circle
       r="3.540561"
       cy="283.61932"
       cx="4.658402"
       id="circle13076"
       style="fill:#c2c2d1;fill-opacity:1;stroke:none;stroke-width:0.400569;stroke-linecap:square;stroke-linejoin:bevel;stroke-miterlimit:4;stroke-dasharray:none;stroke-dashoffset:0;stroke-opacity:0.978723;paint-order:normal" /><path
       id="path13080"
       style="fill:#d6a839;fill-opacity:1;stroke-width:1.58148;stroke-linecap:round;stroke-linejoin:round;paint-order:fill markers stroke"
       d="m 11.385853,283.65932 -0.921039,3.1145 c -0.119962,0.40565 -0.547717,0.65284 -0.959083,0.55423 l -0.535343,-0.12833 c -0.411365,-0.0986 -0.645965,-0.50458 -0.526002,-0.91023 l 0.921038,-3.1145 c 0.119963,-0.40566 0.547715,-0.65283 0.959081,-0.55422 l 0.535343,0.12833 c 0.411365,0.0986 0.645968,0.50457 0.526005,0.91022 z" /><circle
       style="fill:#a191a1;fill-opacity:1;stroke:none;stroke-width:0.400569;stroke-linecap:square;stroke-linejoin:bevel;stroke-miterlimit:4;stroke-dasharray:none;stroke-dashoffset:0;stroke-opacity:0.978723;paint-order:normal"
       id="circle13082"
       cx="4.658402"
       cy="283.61932"
       r="2.3315887" /><rect
       style="fill:#c2c2d1;fill-opacity:1;stroke:none;stroke-width:0.400568;stroke-linecap:square;stroke-linejoin:bevel;stroke-miterlimit:4;stroke-dasharray:none;stroke-dashoffset:0;stroke-opacity:0.978723;paint-order:normal"
       id="rect13084"
       width="8.9019804"
       height="8.9019804"
       x="3.7060256"
       y="282.30426"
       ry="3.6417198" /><path
       id="path13086"
       style="fill:#e8b747;stroke-width:1.5875;stroke-linecap:round;stroke-linejoin:round;paint-order:fill markers stroke"
       d="m 3.50178,286.12085 2.645583,2.64559 c 0.191322,0.19132 0.191323,0.49936 10e-7,0.69069 l -0.475543,0.47554 c -0.191315,0.19131 -0.499368,0.19132 -0.690689,0 l -2.645583,-2.64558 c -0.191321,-0.19133 -0.191316,-0.49938 -10e-7,-0.69069 l 0.475544,-0.47555 c 0.191321,-0.19132 0.499367,-0.19132 0.690688,0 z" /><path
       id="path13088"
       style="fill:#e8b747;stroke-width:1.58148;stroke-linecap:round;stroke-linejoin:round;paint-order:fill markers stroke"
       d="m 4.931743,283.65932 -0.921039,3.1145 c -0.119962,0.40565 -0.547717,0.65284 -0.959083,0.55423 l -0.535343,-0.12833 c -0.411365,-0.0986 -0.645965,-0.50458 -0.526002,-0.91023 l 0.921038,-3.1145 c 0.119963,-0.40566 0.547715,-0.65283 0.959081,-0.55422 l 0.535343,0.12833 c 0.411365,0.0986 0.645967,0.50457 0.526005,0.91022 z" /><path
       id="path13090"
       style="fill:#e8b747;stroke-width:1.5875;stroke-linecap:round;stroke-linejoin:round;paint-order:fill markers stroke"
       d="m 2.522593,280.74952 2.236593,2.23659 c 0.304611,0.30461 0.304608,0.79507 1e-6,1.09968 l -0.396418,0.39642 c -0.304608,0.3046 -0.795068,0.30461 -1.09968,0 -1.657808,0.53164 -3.408381,-5.8819 -0.740496,-3.73269 z"
       sodipodi:nodetypes="cssscc" /><circle
       style="fill:#3e2347;fill-opacity:1;stroke:none;stroke-width:0.400568;stroke-linecap:square;stroke-linejoin:bevel;stroke-miterlimit:4;stroke-dasharray:none;stroke-dashoffset:0;stroke-opacity:0.978723;paint-order:normal"
       id="circle13092"
       cx="6.9537768"
       cy="287.52676"
       r="0.64377093" /><circle
       r="0.64377093"
       cy="287.52676"
       cx="11.388654"
       id="circle13094"
       style="fill:#3e2347;fill-opacity:1;stroke:none;stroke-width:0.400568;stroke-linecap:square;stroke-linejoin:bevel;stroke-miterlimit:4;stroke-dasharray:none;stroke-dashoffset:0;stroke-opacity:0.978723;paint-order:normal" /><path
       sodipodi:type="star"
       style="fill:#3e2347;fill-opacity:1;stroke:none;stroke-width:2.36253;stroke-linecap:square;stroke-linejoin:bevel;stroke-miterlimit:4;stroke-dasharray:none;stroke-dashoffset:0;stroke-opacity:0.978723;paint-order:normal"
       id="path13096"
       sodipodi:sides="3"
       sodipodi:cx="-45.408615"
       sodipodi:cy="234.57965"
       sodipodi:r1="2.997191"
       sodipodi:r2="1.4985955"
       sodipodi:arg1="1.5707963"
       sodipodi:arg2="2.6179939"
       inkscape:flatsided="true"
       inkscape:rounded="0.18"
       inkscape:randomized="0"
       inkscape:transform-center-x="-6.3665075e-06"
       inkscape:transform-center-y="1.0312406"
       d="m -45.408615,237.57684 c -0.934432,0 -3.062859,-3.68654 -2.595644,-4.49578 0.467216,-0.80925 4.724071,-0.80925 5.191287,0 0.467216,0.80924 -1.661211,4.49578 -2.595643,4.49578 z"
       transform="matrix(0.16955045,0,0,0.16955045,17.442509,249.11277)" /><path
       id="path13098"
       style="fill:#e8b747;fill-opacity:1;stroke:none;stroke-width:0.400568;stroke-linecap:square;stroke-linejoin:bevel;stroke-miterlimit:4;stroke-dasharray:none;stroke-dashoffset:0;stroke-opacity:0.978723;paint-order:normal"
       d="m 7.347678,282.30413 c -2.017508,0 -3.641638,1.62413 -3.641638,3.64164 v 1.61902 c 0,1.8307 1.337284,3.33746 3.092318,3.60081 -0.389664,-0.37223 -0.631486,-0.89712 -0.631486,-1.48104 v -0.81029 c 0,-0.0988 0.0073,-0.19592 0.02067,-0.29094 -0.823603,-0.19918 -1.431954,-0.93818 -1.431954,-1.82469 0,-1.0403 0.837625,-1.87741 1.877922,-1.87741 h 4.219381 c 0.804067,0 1.486243,0.5001 1.754931,1.20768 v -0.14314 c 0,-2.01751 -1.624129,-3.64164 -3.641638,-3.64164 z m 5.260144,5.12423 c -0.198943,0.52391 -0.624943,0.93386 -1.159102,1.11156 0.01773,0.10877 0.02687,0.22042 0.02687,0.33435 v 0.81029 c 0,0.21147 -0.03194,0.41507 -0.09095,0.60668 0.751135,-0.66617 1.223181,-1.63889 1.223181,-2.72645 z" /><g
       id="g13104"
       transform="translate(24.301819,14.211556)"
       style="fill:#f2c85e;fill-opacity:1"><path
         id="path13100"
         style="fill:#f2c85e;fill-opacity:1;stroke-width:1.5875;stroke-linecap:round;stroke-linejoin:round;paint-order:fill markers stroke"
         d="m -17.086296,269.8094 c -0.0035,-0.003 -0.0069,-0.006 -0.01033,-0.009 -0.0053,-0.004 -0.01041,-0.008 -0.0155,-0.0119 -0.0051,-0.004 -0.01015,-0.007 -0.01499,-0.0103 -0.0048,-0.003 -0.0094,-0.006 -0.01395,-0.009 -0.0046,-0.003 -0.0091,-0.005 -0.01344,-0.007 -0.0043,-0.002 -0.0084,-0.004 -0.0124,-0.006 -0.004,-0.002 -0.0082,-0.003 -0.01188,-0.004 -0.0037,-0.001 -0.0074,-0.002 -0.01085,-0.003 -0.0034,-5.6e-4 -0.0067,-10e-4 -0.0098,-10e-4 -0.0031,-3e-5 -0.0059,5.4e-4 -0.0088,10e-4 -0.0028,4.9e-4 -0.0057,0.001 -0.0083,0.002 -0.0025,0.001 -0.0045,0.002 -0.0067,0.004 -0.0022,0.002 -0.0043,0.004 -0.0062,0.006 -0.0019,0.002 -0.0036,0.004 -0.0052,0.007 -0.0016,0.003 -0.0029,0.006 -0.0041,0.009 -0.0012,0.003 -0.0022,0.006 -0.0031,0.01 -8.7e-4,0.004 -0.0015,0.008 -0.0021,0.0119 -5.19e-4,0.004 -8.72e-4,0.009 -10e-4,0.0134 -1.61e-4,0.005 -2.04e-4,0.009 0,0.0145 2.04e-4,0.005 4.58e-4,0.0108 10e-4,0.0165 5.75e-4,0.006 0.0011,0.0118 0.0021,0.0181 9.53e-4,0.006 0.0023,0.0129 0.0036,0.0196 0.0013,0.007 0.0029,0.0139 0.0047,0.0212 0.0017,0.007 0.0036,0.0144 0.0057,0.0222 0.0021,0.008 0.0047,0.0159 0.0072,0.0243 0.0025,0.008 0.0053,0.017 0.0083,0.0258 0.0029,0.009 0.0059,0.018 0.0093,0.0274 0.0051,0.0141 0.01018,0.0284 0.0155,0.0424 0.0053,0.014 0.01095,0.028 0.01654,0.0419 0.0056,0.0139 0.01121,0.0276 0.01705,0.0413 0.0058,0.0138 0.01148,0.0277 0.01757,0.0413 0.0061,0.0136 0.01278,0.0268 0.01912,0.0403 0.0063,0.0135 0.01253,0.027 0.01912,0.0403 0.0066,0.0133 0.01332,0.0266 0.02015,0.0398 0.0068,0.0132 0.01411,0.0262 0.02119,0.0393 0.0071,0.013 0.01387,0.0264 0.02119,0.0393 0.0073,0.0129 0.01467,0.0255 0.02222,0.0382 0.0076,0.0127 0.01547,0.0252 0.02326,0.0377 0.0078,0.0126 0.01575,0.0253 0.02377,0.0377 0.008,0.0124 0.01604,0.0249 0.02429,0.0372 0.0082,0.0122 0.01685,0.0241 0.02532,0.0362 0.0085,0.0121 0.01663,0.0242 0.02532,0.0362 0.0087,0.0119 0.01796,0.0239 0.02687,0.0357 0.0089,0.0118 0.01775,0.0231 0.02687,0.0346 0.0091,0.0116 0.01805,0.0232 0.02739,0.0346 0.0093,0.0114 0.01888,0.0229 0.02842,0.0341 0.0095,0.0112 0.01919,0.022 0.02894,0.0331 0.0098,0.011 0.0195,0.0222 0.02946,0.0331 0.01,0.0108 0.02033,0.0214 0.03049,0.032 0.01016,0.0106 0.02014,0.0216 0.03049,0.032 0.01035,0.0105 0.02098,0.0207 0.03152,0.031 0.01055,0.0103 0.0213,0.0204 0.03204,0.0305 0.01074,0.0101 0.02163,0.0201 0.03256,0.03 0.01093,0.01 0.02196,0.0193 0.03307,0.0289 0.01111,0.01 0.0223,0.0195 0.03359,0.0289 0.01129,0.009 0.02263,0.0187 0.03411,0.0279 0.01147,0.009 0.02297,0.0183 0.03462,0.0274 0.01165,0.009 0.02332,0.0181 0.03514,0.0269 0.01182,0.009 0.02366,0.0172 0.03566,0.0258 0.01199,0.009 0.02401,0.0175 0.03617,0.0258 0.01216,0.008 0.02436,0.0167 0.03669,0.0248 0.01233,0.008 0.02472,0.0159 0.03721,0.0238 0.01249,0.008 0.02508,0.0161 0.03772,0.0238 0.01265,0.008 0.02544,0.0153 0.03824,0.0227 0.0128,0.007 0.0258,0.0145 0.03876,0.0217 0.01296,0.007 0.02617,0.0142 0.03927,0.0212 0.0131,0.007 0.02602,0.0139 0.03927,0.0207 0.01325,0.007 0.02691,0.0131 0.04031,0.0196 0.01339,0.006 0.02677,0.0129 0.04031,0.0191 0.01354,0.006 0.02715,0.0126 0.04082,0.0186 0.01367,0.006 0.02702,0.0118 0.04082,0.0176 0.01381,0.006 0.02792,0.0111 0.04186,0.0165 0.01394,0.005 0.02779,0.0108 0.04186,0.016 0.01407,0.005 0.02818,0.0105 0.04237,0.0155 0.0142,0.005 0.02857,0.01 0.04289,0.0145 0.01432,0.005 0.02897,0.009 0.04341,0.0134 0.01444,0.004 0.02885,0.009 0.04341,0.0129 0.01456,0.004 0.02926,0.008 0.04393,0.0119 0.01467,0.004 0.02914,0.008 0.04392,0.0114 0.01478,0.004 0.02955,0.007 0.04444,0.0103 0.01489,0.003 0.02996,0.006 0.04496,0.009 0.015,0.003 0.02986,0.006 0.04496,0.009 0.0151,0.003 0.03028,0.005 0.04547,0.008 0.0152,0.002 0.0307,0.005 0.04599,0.007 0.01529,0.002 0.03061,0.004 0.04599,0.006 0.01539,0.002 0.03052,0.003 0.04599,0.005 0.01548,0.002 0.03095,0.003 0.04651,0.005 0.01556,0.001 0.03138,0.002 0.04703,0.003 0.01565,9.4e-4 0.0313,0.001 0.04703,0.002 0.01573,6.3e-4 0.03173,0.001 0.04754,0.002 0.01069,1.5e-4 0.02132,5.2e-4 0.03204,5.2e-4 0.01588,0 0.03174,-2e-4 0.04754,-5.2e-4 0.995875,-0.0198 1.839137,-0.66139 2.158008,-1.55236 0.0895,-0.25008 0.02972,-0.31429 -0.116789,-0.19275 -0.0054,0.007 -0.0111,0.0127 -0.01654,0.0191 -0.0093,0.011 -0.01842,0.0222 -0.02791,0.0331 -0.0095,0.0109 -0.01928,0.0218 -0.02894,0.0326 -0.0097,0.0107 -0.01963,0.0215 -0.02946,0.032 -0.0098,0.0106 -0.01946,0.0211 -0.02945,0.0315 -0.01,0.0104 -0.02033,0.0207 -0.03049,0.031 -0.01016,0.0102 -0.02017,0.0204 -0.03049,0.0305 -0.01032,0.0101 -0.02053,0.02 -0.031,0.03 -0.01048,0.01 -0.0214,0.0197 -0.03204,0.0294 -0.01064,0.01 -0.02125,0.0194 -0.03204,0.0289 -0.01079,0.01 -0.02161,0.019 -0.03256,0.0284 -0.01095,0.009 -0.02197,0.0187 -0.03307,0.0279 -0.0111,0.009 -0.02234,0.0183 -0.03359,0.0274 -0.01125,0.009 -0.02271,0.018 -0.03411,0.0269 -0.0114,0.009 -0.02256,0.0182 -0.03411,0.0269 -0.01154,0.009 -0.02345,0.0173 -0.03514,0.0258 -0.01169,0.009 -0.02331,0.0165 -0.03514,0.0248 -0.01183,0.008 -0.02369,0.0167 -0.03566,0.0248 -0.01197,0.008 -0.02407,0.0163 -0.03617,0.0243 -0.01211,0.008 -0.02393,0.016 -0.03617,0.0238 -0.01224,0.008 -0.02483,0.0152 -0.03721,0.0227 -0.01237,0.008 -0.0247,0.0154 -0.03721,0.0227 -0.0125,0.007 -0.02509,0.0145 -0.03772,0.0217 -0.01263,0.007 -0.02548,0.0142 -0.03824,0.0212 -0.01276,0.007 -0.02536,0.0139 -0.03824,0.0207 -0.01288,0.007 -0.02575,0.0136 -0.03876,0.0202 -0.01301,0.007 -0.02615,0.0127 -0.03927,0.0191 -0.01313,0.006 -0.02655,0.013 -0.03979,0.0191 -0.01324,0.006 -0.02643,0.0121 -0.03979,0.0181 -0.01336,0.006 -0.02683,0.0118 -0.04031,0.0176 -0.01347,0.006 -0.02672,0.0115 -0.04031,0.017 -0.01359,0.006 -0.02765,0.0107 -0.04134,0.016 -0.0137,0.005 -0.02702,0.0104 -0.04082,0.0155 -0.0138,0.005 -0.02795,0.0101 -0.04186,0.015 -0.01391,0.005 -0.02785,0.01 -0.04186,0.0145 -0.01401,0.005 -0.02826,0.009 -0.04237,0.0134 -0.01411,0.004 -0.02816,0.009 -0.04237,0.0129 -0.01421,0.004 -0.02858,0.008 -0.04289,0.0124 -0.01431,0.004 -0.02849,0.008 -0.04289,0.0114 -0.0144,0.004 -0.02891,0.007 -0.04341,0.0109 -0.0145,0.003 -0.02882,0.007 -0.04341,0.0103 -0.01459,0.003 -0.02925,0.006 -0.04392,0.009 -0.01467,0.003 -0.02968,0.006 -0.04444,0.009 -0.01476,0.003 -0.02908,0.005 -0.04392,0.008 -0.01484,0.003 -0.03003,0.005 -0.04496,0.007 -0.01493,0.002 -0.02995,0.005 -0.04496,0.007 -0.01501,0.002 -0.02987,0.004 -0.04496,0.006 -0.01508,0.002 -0.03031,0.004 -0.04547,0.005 -0.01516,0.002 -0.03024,0.003 -0.04548,0.004 -0.01523,0.001 -0.03069,0.003 -0.04599,0.004 -0.0153,10e-4 -0.03062,0.002 -0.04599,0.003 -0.01537,7.8e-4 -0.03055,0.002 -0.04599,0.002 -0.01149,3.9e-4 -0.02309,2.7e-4 -0.03462,5.1e-4 -0.004,9e-5 -0.0079,4.5e-4 -0.01188,5.2e-4 -0.01551,2.6e-4 -0.03094,5.2e-4 -0.04651,5.2e-4 -0.0052,3e-5 -0.01033,0 -0.0155,0 -0.01955,0 -0.03894,-6.2e-4 -0.05839,-10e-4 -0.810555,-0.0173 -1.533031,-0.39291 -2.014865,-0.97513 z" /><path
         sodipodi:type="star"
         style="fill:#f2c85e;fill-opacity:1;stroke-width:1.5875;stroke-linecap:round;stroke-linejoin:round;paint-order:fill markers stroke"
         id="path13102"
         inkscape:flatsided="true"
         sodipodi:sides="5"
         sodipodi:cx="-73.394402"
         sodipodi:cy="14.895679"
         sodipodi:r1="8.4091749"
         sodipodi:r2="5.9461846"
         sodipodi:arg1="1.5707963"
         sodipodi:arg2="2.1991148"
         inkscape:rounded="0.21"
         inkscape:randomized="0"
         d="m -73.394401,23.304854 c -2.075972,0 -7.356091,-3.83623 -7.997601,-5.810596 -0.641511,-1.974366 1.375315,-8.1815184 3.054811,-9.4017438 1.679496,-1.2202254 8.206082,-1.2202256 9.885578,-3e-7 1.679496,1.2202253 3.696323,7.4273771 3.054812,9.4017431 -0.64151,1.974366 -5.921629,5.810597 -7.9976,5.810597 z"
         transform="matrix(0.11541418,0,0,0.11541418,-6.3195527,269.47432)" /></g><path
       style="opacity:0.3;fill:none;fill-opacity:1;stroke:#ffffff;stroke-width:0.331501;stroke-linecap:round;stroke-linejoin:round;stroke-dasharray:none;paint-order:fill markers stroke"
       id="path13108"
       sodipodi:type="arc"
       sodipodi:cx="72.8489"
       sodipodi:cy="272.67661"
       sodipodi:rx="1.1784861"
       sodipodi:ry="1.1784861"
       sodipodi:start="3.8922626"
       sodipodi:end="4.5222991"
       sodipodi:open="true"
       sodipodi:arc-type="arc"
       d="m 71.987153,271.87273 a 1.1784861,1.1784861 0 0 1 0.639075,-0.35338"
       transform="rotate(14.523431)" /><path
       style="fill:#f2c85e;fill-opacity:1;fill-rule:nonzero;stroke:none;stroke-width:0.145545px;stroke-linecap:butt;stroke-linejoin:miter;stroke-opacity:1"
       d="m 3.2371795,271.14929 c 0,0 0.8762903,0.31968 0.981778,0.2088 0.00298,-0.003 0.006,-0.006 0.00905,-0.01 0.0696,-0.0736 0.1802713,-0.19686 0.295004,-0.31131 0.098436,-0.0982 0.2068786,-0.1976 0.3216071,-0.2843 0.1018963,-0.077 0.197288,-0.13519 0.2837546,-0.17459 0.073663,-0.0336 0.1496245,-0.0583 0.2255642,-0.057 0.079382,0.001 0.1868593,0.0281 0.3294487,0.14323 0.139913,0.11294 0.3024872,0.30567 0.4688441,0.61566 0.1927398,0.37101 0.3930796,0.66465 0.6001564,0.88784 0.2074512,0.2236 0.4244963,0.37851 0.6433315,0.46473 0.1108616,0.0437 0.2202647,0.0691 0.3267075,0.0782 0.1075724,0.009 0.2091821,0.002 0.3036608,-0.0185 0.1924352,-0.0407 0.3522008,-0.13168 0.4797149,-0.2317 0.1341407,-0.10521 0.2447906,-0.23004 0.3319952,-0.34596 0.09491,-0.12615 0.1702348,-0.25267 0.2255999,-0.35688 0.1490404,-0.28051 0.1696865,-0.39965 0.1696865,-0.39965 0,0 -0.071071,0.0977 -0.2909902,0.30868 -0.081752,0.0784 -0.1844253,0.16888 -0.299668,0.24939 -0.1076161,0.0752 -0.2251956,0.14093 -0.3449337,0.18025 -0.1149999,0.0378 -0.2208311,0.0475 -0.3151568,0.0284 -0.045196,-0.009 -0.087157,-0.0247 -0.1274661,-0.0464 -0.039574,-0.0212 -0.079823,-0.0495 -0.1212609,-0.086 -0.081383,-0.0717 -0.1788627,-0.18525 -0.2862691,-0.36579 -0.1085594,-0.18247 -0.2255262,-0.43038 -0.3462409,-0.76711 -0.1516177,-0.40671 -0.3312872,-0.74177 -0.5448269,-1.00786 -0.2229835,-0.27786 -0.483121,-0.48027 -0.7775669,-0.60408 -0.3089821,-0.12993 -0.6204688,-0.15842 -0.9043585,-0.13145 -0.3013838,0.0286 -0.5745593,0.11969 -0.7986512,0.22052 -0.2536295,0.11413 -0.4733336,0.25385 -0.6428558,0.37701 -0.2112568,0.15348 -0.3754269,0.3034 -0.4810912,0.41281 -0.00439,0.005 -0.0087,0.009 -0.012946,0.0135 -0.1500216,0.15769 0.2983828,1.00908 0.2983828,1.00908 z"
       id="path13254"
       inkscape:original-d="m 3.2371795,271.14929 c 0,0 2.131431,-2.91857 3.389485,-0.0793 1.258054,2.83891 2.606414,0.28837 2.606414,0.28837"
       inkscape:path-effect="#path-effect13262" /><rect
       style="fill:#f2c85e;fill-opacity:1;stroke-width:1.7528;stroke-linecap:round;stroke-linejoin:round;paint-order:fill markers stroke"
       id="rect13256"
       width="3.5139699"
       height="1.8262824"
       x="2.6624053"
       y="269.56723"
       ry="0.91314119" /><g
       id="g13274"
       transform="translate(0,0.61592)"><rect
         style="fill:#c99f35;fill-opacity:1;stroke-width:1.7528;stroke-linecap:round;stroke-linejoin:round;paint-order:fill markers stroke"
         id="rect13264"
         width="3.5139699"
         height="1.8262824"
         x="12.918928"
         y="268.95129"
         ry="0.91314119" /><path
         style="fill:#d6a839;fill-opacity:1;fill-rule:nonzero;stroke:none;stroke-width:0.145545px;stroke-linecap:butt;stroke-linejoin:miter;stroke-opacity:1"
         d="m 11.737569,270.53337 c 0,0 0.87629,0.31968 0.981778,0.2088 0.003,-0.003 0.006,-0.006 0.009,-0.01 0.0696,-0.0736 0.180271,-0.19686 0.295004,-0.31131 0.09844,-0.0982 0.206878,-0.1976 0.321607,-0.2843 0.101896,-0.077 0.197288,-0.13519 0.283754,-0.17459 0.07366,-0.0336 0.149625,-0.0583 0.225564,-0.057 0.07938,0.001 0.18686,0.0281 0.329449,0.14323 0.139913,0.11294 0.302487,0.30567 0.468844,0.61566 0.19274,0.37101 0.39308,0.66465 0.600157,0.88784 0.207451,0.2236 0.424496,0.37851 0.643331,0.46473 0.110862,0.0437 0.220265,0.0691 0.326708,0.0782 0.107572,0.009 0.209182,0.002 0.303661,-0.0185 0.192435,-0.0407 0.3522,-0.13168 0.479714,-0.2317 0.134141,-0.10521 0.244791,-0.23004 0.331996,-0.34596 0.09491,-0.12615 0.170234,-0.25267 0.225599,-0.35688 0.149041,-0.28051 0.169687,-0.39965 0.169687,-0.39965 0,0 -0.07107,0.0977 -0.29099,0.30868 -0.08175,0.0784 -0.184425,0.16888 -0.299668,0.24939 -0.107616,0.0752 -0.225196,0.14093 -0.344934,0.18025 -0.115,0.0378 -0.220831,0.0475 -0.315157,0.0284 -0.0452,-0.009 -0.08716,-0.0248 -0.127466,-0.0464 -0.03957,-0.0212 -0.07982,-0.0495 -0.121261,-0.086 -0.08138,-0.0717 -0.178862,-0.18525 -0.286269,-0.36579 -0.108559,-0.18247 -0.225526,-0.43038 -0.346241,-0.76711 -0.151617,-0.40671 -0.331287,-0.74177 -0.544827,-1.00786 -0.222983,-0.27786 -0.483121,-0.48027 -0.777566,-0.60408 -0.308983,-0.12993 -0.620469,-0.15842 -0.904359,-0.13145 -0.301384,0.0286 -0.574559,0.11969 -0.798651,0.22052 -0.25363,0.11413 -0.473334,0.25385 -0.642856,0.37701 -0.211257,0.15348 -0.375427,0.3034 -0.481091,0.41281 -0.0044,0.005 -0.0087,0.009 -0.01295,0.0135 -0.150021,0.15769 0.298383,1.00908 0.298383,1.00908 z"
         id="path13266"
         inkscape:original-d="m 11.737569,270.53337 c 0,0 2.131431,-2.91857 3.389485,-0.0793 1.258054,2.83891 2.606414,0.28837 2.606414,0.28837"
         inkscape:path-effect="#path-effect13270" /></g></g></svg>
