<?xml version="1.0" encoding="UTF-8" standalone="no"?>
<svg
   xmlns:dc="http://purl.org/dc/elements/1.1/"
   xmlns:cc="http://creativecommons.org/ns#"
   xmlns:rdf="http://www.w3.org/1999/02/22-rdf-syntax-ns#"
   xmlns:svg="http://www.w3.org/2000/svg"
   xmlns="http://www.w3.org/2000/svg"
   xmlns:sodipodi="http://sodipodi.sourceforge.net/DTD/sodipodi-0.dtd"
   xmlns:inkscape="http://www.inkscape.org/namespaces/inkscape"
   width="256"
   height="256"
   viewBox="0 0 67.733332 67.733335"
   version="1.1"
   id="svg1221"
   inkscape:version="1.0.1 (3bc2e813f5, 2020-09-07)"
   sodipodi:docname="blackhole.svg"
   inkscape:export-filename="/home/henrique/Documents/Pigdev/Studio/Moon Cheeser/Repository/releases/assets-pack/graphics/blackhole/blackhole.png"
   inkscape:export-xdpi="192.00002"
   inkscape:export-ydpi="192.00002">
  <defs
     id="defs1215">
    <inkscape:path-effect
       effect="powerstroke"
       id="path-effect1147"
       is_visible="true"
       offset_points="0.039158264,-0.1170313 | 2.5515264,-10.238634 | 4.8904272,-0.4278191"
       sort_points="true"
       interpolator_type="CubicBezierFit"
       interpolator_beta="0.2"
       start_linecap_type="butt"
       linejoin_type="extrp_arc"
       miter_limit="4"
       end_linecap_type="butt" />
    <inkscape:path-effect
       end_linecap_type="butt"
       miter_limit="4"
       linejoin_type="extrp_arc"
       start_linecap_type="butt"
       interpolator_beta="0.2"
       interpolator_type="CubicBezierFit"
       sort_points="true"
       offset_points="0.039158264,-0.1170313 | 2.5515264,-10.238634 | 4.8904272,-0.4278191"
       is_visible="true"
       id="path-effect1151"
       effect="powerstroke" />
  </defs>
  <sodipodi:namedview
     id="base"
     pagecolor="#ffffff"
     bordercolor="#666666"
     borderopacity="1.0"
     inkscape:pageopacity="0.0"
     inkscape:pageshadow="2"
     inkscape:zoom="1.4032596"
     inkscape:cx="142.14286"
     inkscape:cy="133.57143"
     inkscape:document-units="mm"
     inkscape:current-layer="layer1"
     showgrid="false"
     units="px"
     inkscape:snap-page="true"
     inkscape:snap-bbox="true"
     inkscape:bbox-nodes="true"
     inkscape:window-width="1920"
     inkscape:window-height="1022"
     inkscape:window-x="0"
     inkscape:window-y="30"
     inkscape:window-maximized="1"
     inkscape:document-rotation="0" />
  <metadata
     id="metadata1218">
    <rdf:RDF>
      <cc:Work
         rdf:about="">
        <dc:format>image/svg+xml</dc:format>
        <dc:type
           rdf:resource="http://purl.org/dc/dcmitype/StillImage" />
        <dc:title />
      </cc:Work>
    </rdf:RDF>
  </metadata>
  <g
     inkscape:label="Layer 1"
     inkscape:groupmode="layer"
     id="layer1"
     transform="translate(0,-229.26665)">
    <g
       id="g1792"
       transform="matrix(0.20575783,0,0,0.20575783,24.982652,204.80497)">
      <circle
         r="164.68254"
         cy="283.39282"
         cx="43.089287"
         id="circle1181"
         style="opacity:0.05;fill:#8787de;fill-opacity:1;stroke:none;stroke-width:27.1242;stroke-linecap:round;stroke-linejoin:miter;stroke-miterlimit:4;stroke-dasharray:none;stroke-dashoffset:0;stroke-opacity:1" />
      <circle
         style="opacity:0.05;fill:#8787de;fill-opacity:1;stroke:none;stroke-width:23.5145;stroke-linecap:round;stroke-linejoin:miter;stroke-miterlimit:4;stroke-dasharray:none;stroke-dashoffset:0;stroke-opacity:1"
         id="circle1179"
         cx="43.089287"
         cy="283.39282"
         r="142.76643" />
      <circle
         r="118.71217"
         cy="283.39282"
         cx="43.089287"
         id="circle1173"
         style="opacity:0.05;fill:#8787de;fill-opacity:1;stroke:none;stroke-width:19.5526;stroke-linecap:round;stroke-linejoin:miter;stroke-miterlimit:4;stroke-dasharray:none;stroke-dashoffset:0;stroke-opacity:1" />
      <path
         transform="rotate(103.70834,482.05637,-936.44054)"
         style="fill:#8787de;fill-opacity:1;fill-rule:nonzero;stroke:none;stroke-width:0.264583"
         d="m 1753.028,-794.57107 c -0.3044,-0.42177 -0.5425,-0.87659 -0.8469,-1.28203 -1.6418,-2.18695 -2.7411,-4.6186 -3.3218,-7.22432 -0.6889,-3.09146 -0.6346,-6.37505 0.069,-9.64305 0.7015,-3.25867 2.0453,-6.48387 3.9114,-9.43891 1.8603,-2.9457 4.2713,-5.67132 7.1312,-7.87093 5.1049,-3.5277 10.7498,-5.55768 16.5973,-6.20743 5.8269,-0.64746 11.7218,0.0906 17.3053,1.93354 5.5729,1.83949 10.8507,4.78395 15.4794,8.57471 4.6232,3.78623 8.6579,8.46614 11.6767,13.81261 4.555,8.34073 6.7453,17.21895 6.8772,26.06125 0.1315,8.81091 -1.7808,17.43509 -5.241,25.35283 -0.7131,1.6316 -1.4921,3.23392 -2.333,4.80285 -3.238,6.04151 -7.4039,11.59317 -12.2702,16.43401 -6.1322,6.10001 -13.4093,11.10401 -21.4135,14.54545 -11.6044,5.103 -23.5572,7.01333 -35.1243,6.33092 -11.5489,-0.68134 -22.6344,-3.93833 -32.6609,-9.07686 -10.03,-5.14037 -19.0522,-12.18717 -26.5446,-20.54539 -7.4988,-8.3653 -13.4905,-18.0706 -17.4602,-28.57884 -4.5328,-13.02048 -6.044,-26.59717 -5.0927,-39.76301 0.7432,-10.28662 2.9917,-20.38266 6.5293,-29.91298 0.9921,-2.67278 1.8212,-5.40689 2.9001,-8.05074 l 0.7922,0.32328 c -1.0691,2.61981 -2.1688,5.24209 -2.8759,7.9837 -2.5222,9.77867 -3.4622,19.83262 -2.8534,29.68691 0.7809,12.63889 4.0985,24.84434 9.79,35.81744 4.3241,8.95738 10.3251,16.95854 17.413,23.61901 7.0934,6.66557 15.2491,11.96513 23.8903,15.57088 8.6315,3.60169 17.7088,5.49576 26.7065,5.44157 8.9703,-0.054 17.9421,-2.03707 26.5463,-6.26477 5.5896,-2.83664 10.6867,-6.70917 15.0153,-11.28217 3.4346,-3.62843 6.3642,-7.67555 8.6703,-11.9628 0.5981,-1.11193 1.1532,-2.23923 1.6636,-3.37894 2.4769,-5.53111 3.8935,-11.32953 4.0565,-17.13551 0.1619,-5.76751 -0.9119,-11.68311 -3.6127,-17.49563 -1.5072,-3.48923 -3.7153,-6.85056 -6.4844,-9.8295 -2.7649,-2.97424 -6.0348,-5.5077 -9.5916,-7.36491 -3.546,-1.85157 -7.376,-3.03079 -11.2852,-3.30644 -3.8935,-0.27454 -8.009,0.33697 -12.1223,2.24942 -2.2828,0.82725 -4.5691,2.18711 -6.629,3.98284 -2.0518,1.78863 -3.8443,3.98038 -5.153,6.42422 -1.3046,2.43621 -2.1394,5.14495 -2.243,7.96089 -0.087,2.37716 0.3465,4.85908 1.4925,7.3041 0.2127,0.45396 0.5362,0.85026 0.8361,1.26575 z"
         id="path1149"
         inkscape:path-effect="#path-effect1151"
         inkscape:original-d="m 1753.1229,-794.63956 c -7.7249,-10.7041 -0.9621,-25.13658 9.3196,-31.19852 18.436,-10.86955 41.2204,0.51958 50.2711,18.18242 14.5108,28.31829 -2.892,61.66679 -30.0868,74.22573 -40.4082,18.661 -86.5846,-6.18516 -103.173,-45.11844 -10.2223,-23.99199 -9.6673,-51.57945 0.138,-75.60738"
         inkscape:connector-curvature="0" />
      <path
         inkscape:connector-curvature="0"
         inkscape:original-d="m 1753.1229,-794.63956 c -7.7249,-10.7041 -0.9621,-25.13658 9.3196,-31.19852 18.436,-10.86955 41.2204,0.51958 50.2711,18.18242 14.5108,28.31829 -2.892,61.66679 -30.0868,74.22573 -40.4082,18.661 -86.5846,-6.18516 -103.173,-45.11844 -10.2223,-23.99199 -9.6673,-51.57945 0.138,-75.60738"
         inkscape:path-effect="#path-effect1147"
         id="path1144"
         d="m 1753.028,-794.57107 c -0.3044,-0.42177 -0.5425,-0.87659 -0.8469,-1.28203 -1.6418,-2.18695 -2.7411,-4.6186 -3.3218,-7.22432 -0.6889,-3.09146 -0.6346,-6.37505 0.069,-9.64305 0.7015,-3.25867 2.0453,-6.48387 3.9114,-9.43891 1.8603,-2.9457 4.2713,-5.67132 7.1312,-7.87093 5.1049,-3.5277 10.7498,-5.55768 16.5973,-6.20743 5.8269,-0.64746 11.7218,0.0906 17.3053,1.93354 5.5729,1.83949 10.8507,4.78395 15.4794,8.57471 4.6232,3.78623 8.6579,8.46614 11.6767,13.81261 4.555,8.34073 6.7453,17.21895 6.8772,26.06125 0.1315,8.81091 -1.7808,17.43509 -5.241,25.35283 -0.7131,1.6316 -1.4921,3.23392 -2.333,4.80285 -3.238,6.04151 -7.4039,11.59317 -12.2702,16.43401 -6.1322,6.10001 -13.4093,11.10401 -21.4135,14.54545 -11.6044,5.103 -23.5572,7.01333 -35.1243,6.33092 -11.5489,-0.68134 -22.6344,-3.93833 -32.6609,-9.07686 -10.03,-5.14037 -19.0522,-12.18717 -26.5446,-20.54539 -7.4988,-8.3653 -13.4905,-18.0706 -17.4602,-28.57884 -4.5328,-13.02048 -6.044,-26.59717 -5.0927,-39.76301 0.7432,-10.28662 2.9917,-20.38266 6.5293,-29.91298 0.9921,-2.67278 1.8212,-5.40689 2.9001,-8.05074 l 0.7922,0.32328 c -1.0691,2.61981 -2.1688,5.24209 -2.8759,7.9837 -2.5222,9.77867 -3.4622,19.83262 -2.8534,29.68691 0.7809,12.63889 4.0985,24.84434 9.79,35.81744 4.3241,8.95738 10.3251,16.95854 17.413,23.61901 7.0934,6.66557 15.2491,11.96513 23.8903,15.57088 8.6315,3.60169 17.7088,5.49576 26.7065,5.44157 8.9703,-0.054 17.9421,-2.03707 26.5463,-6.26477 5.5896,-2.83664 10.6867,-6.70917 15.0153,-11.28217 3.4346,-3.62843 6.3642,-7.67555 8.6703,-11.9628 0.5981,-1.11193 1.1532,-2.23923 1.6636,-3.37894 2.4769,-5.53111 3.8935,-11.32953 4.0565,-17.13551 0.1619,-5.76751 -0.9119,-11.68311 -3.6127,-17.49563 -1.5072,-3.48923 -3.7153,-6.85056 -6.4844,-9.8295 -2.7649,-2.97424 -6.0348,-5.5077 -9.5916,-7.36491 -3.546,-1.85157 -7.376,-3.03079 -11.2852,-3.30644 -3.8935,-0.27454 -8.009,0.33697 -12.1223,2.24942 -2.2828,0.82725 -4.5691,2.18711 -6.629,3.98284 -2.0518,1.78863 -3.8443,3.98038 -5.153,6.42422 -1.3046,2.43621 -2.1394,5.14495 -2.243,7.96089 -0.087,2.37716 0.3465,4.85908 1.4925,7.3041 0.2127,0.45396 0.5362,0.85026 0.8361,1.26575 z"
         style="fill:#ccaaff;fill-opacity:1;fill-rule:nonzero;stroke:none;stroke-width:0.264583"
         transform="rotate(-76.291658,1596.2403,842.30727)" />
      <circle
         r="25.702379"
         cy="283.39282"
         cx="43.089287"
         id="path1153"
         style="opacity:1;fill:#1a1a1a;fill-opacity:1;stroke:none;stroke-width:4.23333;stroke-linecap:round;stroke-linejoin:miter;stroke-miterlimit:4;stroke-dasharray:none;stroke-dashoffset:0;stroke-opacity:1" />
    </g>
  </g>
</svg>
