<?xml version="1.0" encoding="UTF-8" standalone="no"?>
<svg
   xmlns:dc="http://purl.org/dc/elements/1.1/"
   xmlns:cc="http://creativecommons.org/ns#"
   xmlns:rdf="http://www.w3.org/1999/02/22-rdf-syntax-ns#"
   xmlns:svg="http://www.w3.org/2000/svg"
   xmlns="http://www.w3.org/2000/svg"
   xmlns:sodipodi="http://sodipodi.sourceforge.net/DTD/sodipodi-0.dtd"
   xmlns:inkscape="http://www.inkscape.org/namespaces/inkscape"
   width="256"
   height="64"
   viewBox="0 0 67.733332 16.933344"
   version="1.1"
   id="svg4193"
   inkscape:version="1.0.1 (3bc2e813f5, 2020-09-07)"
   sodipodi:docname="blue-crater.svg">
  <defs
     id="defs4187" />
  <sodipodi:namedview
     id="base"
     pagecolor="#ffffff"
     bordercolor="#666666"
     borderopacity="1.0"
     inkscape:pageopacity="0.0"
     inkscape:pageshadow="2"
     inkscape:zoom="0.64371769"
     inkscape:cx="62.308353"
     inkscape:cy="173.60865"
     inkscape:document-units="px"
     inkscape:current-layer="layer1"
     showgrid="false"
     units="px"
     inkscape:window-width="1920"
     inkscape:window-height="1022"
     inkscape:window-x="0"
     inkscape:window-y="30"
     inkscape:window-maximized="1"
     inkscape:document-rotation="0" />
  <metadata
     id="metadata4190">
    <rdf:RDF>
      <cc:Work
         rdf:about="">
        <dc:format>image/svg+xml</dc:format>
        <dc:type
           rdf:resource="http://purl.org/dc/dcmitype/StillImage" />
        <dc:title></dc:title>
      </cc:Work>
    </rdf:RDF>
  </metadata>
  <g
     inkscape:label="Layer 1"
     inkscape:groupmode="layer"
     id="layer1"
     transform="translate(0,-288.53323)">
    <path
       inkscape:connector-curvature="0"
       id="path4914"
       d="m 7.4083357,304.83871 8.2203183,-13.45703 37.33649,0.58462 7.359874,12.9711 z"
       style="fill:#b1acd3;fill-opacity:1;fill-rule:evenodd;stroke:none;stroke-width:0.152551px;stroke-linecap:butt;stroke-linejoin:miter;stroke-opacity:1" />
    <path
       style="fill:#3d6e70;fill-opacity:1;stroke:none;stroke-width:8.10798;stroke-linecap:butt;stroke-linejoin:miter;stroke-miterlimit:4;stroke-dasharray:none;stroke-opacity:1"
       d="m 15.077789,292.28324 -2.745129,4.49417 -0.02524,0.0775 c -0.363916,1.13322 0.413001,2.38199 1.786603,2.76511 1.373948,0.38321 2.705784,-0.27788 3.004022,-1.43007 0.150875,-1.22216 1.476981,-2.31241 3.012096,-2.01694 2.110853,0.95529 2.106021,1.78803 1.85219,3.08044 -0.229751,1.16691 0.690823,2.32039 2.105249,2.54424 1.414885,0.2239 2.659549,-0.587 2.81646,-1.76505 0.194738,-1.35452 1.555844,-2.2938 2.729261,-2.21144 1.696211,0.53124 2.321516,1.42055 2.234157,2.69337 -0.08133,1.18508 0.978109,2.21951 2.41592,2.26936 0.01794,9.6e-4 0.03616,5e-5 0.05369,0.002 1.417778,0.0246 2.52332,-0.9282 2.523126,-2.10211 -0.07575,-1.52036 1.016312,-2.81695 2.394147,-2.90535 2.062595,0.35388 2.49522,1.22165 2.614845,2.71646 0.09464,1.18358 1.307081,2.05843 2.764558,1.88448 0.573722,-0.0685 1.080877,-0.29108 1.466863,-0.60875 0.584661,-0.48044 0.881438,-1.16854 0.759665,-1.8744 l -0.207054,-1.19918 c -0.202186,-1.17205 0.696839,-2.28691 1.944257,-2.55709 1.243769,-0.26937 2.537284,0.36809 2.862592,1.51089 l 0.333173,1.17101 c 0.325315,1.14284 1.704674,1.77121 3.132715,1.28985 0.910532,-0.30692 1.523794,-0.95756 1.73109,-1.67257 l -3.169806,-5.58656 c -2.674925,0.9907 -5.51639,1.66216 -8.425426,2.09318 -3.425625,0.50434 -6.938048,0.64919 -10.469391,0.53355 -6.576755,-0.218 -13.142063,-1.3386 -19.495061,-3.19543 z"
       id="path4916"
       inkscape:connector-curvature="0" />
    <ellipse
       transform="matrix(0.99987657,0.01571119,-0.01623425,0.99986822,0,0)"
       id="path4918"
       style="fill:#323e4f;fill-opacity:1;stroke:none;stroke-width:1.50873;stroke-linecap:round;stroke-linejoin:round;stroke-miterlimit:4;stroke-dasharray:none;stroke-dashoffset:0;stroke-opacity:1"
       cx="39.027626"
       cy="291.93146"
       rx="19.239279"
       ry="3.430912" />
    <ellipse
       transform="matrix(0.99995899,0.00905649,-0.00942343,0.9999556,0,0)"
       style="fill:#3d6e70;fill-opacity:1;stroke:none;stroke-width:8.10798;stroke-linecap:butt;stroke-linejoin:miter;stroke-miterlimit:4;stroke-dasharray:none;stroke-opacity:1"
       id="circle4920"
       cx="14.756834"
       cy="301.4422"
       rx="1.7539461"
       ry="1.7194619" />
    <ellipse
       transform="matrix(0.99995899,0.00905649,-0.00942343,0.9999556,0,0)"
       cy="298.40787"
       cx="21.978933"
       id="circle4923"
       style="fill:#3d6e70;fill-opacity:1;stroke:none;stroke-width:6.20022;stroke-linecap:butt;stroke-linejoin:miter;stroke-miterlimit:4;stroke-dasharray:none;stroke-opacity:1"
       rx="1.3412528"
       ry="1.3148825" />
    <ellipse
       transform="matrix(0.99995899,0.00905649,-0.00942343,0.9999556,0,0)"
       cy="301.4422"
       cx="42.304108"
       id="circle4925"
       style="fill:#3d6e70;fill-opacity:1;stroke:none;stroke-width:8.10798;stroke-linecap:butt;stroke-linejoin:miter;stroke-miterlimit:4;stroke-dasharray:none;stroke-opacity:1"
       rx="1.7539461"
       ry="1.7194619" />
    <ellipse
       transform="matrix(0.99995899,0.00905649,-0.00942343,0.9999556,0,0)"
       style="fill:#3d6e70;fill-opacity:1;stroke:none;stroke-width:2.86164;stroke-linecap:butt;stroke-linejoin:miter;stroke-miterlimit:4;stroke-dasharray:none;stroke-opacity:1"
       id="circle4927"
       cx="58.502266"
       cy="301.34106"
       rx="0.61903971"
       ry="0.6068688" />
  </g>
</svg>
